<?xml version="1.0" encoding="utf-8"?>
<!-- Generator: Adobe Illustrator 16.0.0, SVG Export Plug-In . SVG Version: 6.00 Build 0)  -->
<!DOCTYPE svg PUBLIC "-//W3C//DTD SVG 1.1//EN" "http://www.w3.org/Graphics/SVG/1.1/DTD/svg11.dtd">
<svg version="1.1" id="Layer_1" xmlns="http://www.w3.org/2000/svg" xmlns:xlink="http://www.w3.org/1999/xlink" x="0px" y="0px"
	 width="375px" height="129px" viewBox="0 0 375 129" enable-background="new 0 0 375 129" xml:space="preserve">
<g>
	<path fill="#CADB2B" d="M17.668,78.185c2.675-3.528,6.185-5.64,10.527-6.335c4.425-0.708,8.198,0.462,11.33,3.513
		c3.125,3.054,5.104,7.158,5.93,12.31c0.827,5.162,0.256,9.865-1.696,14.122c-1.961,4.265-5.289,6.766-9.996,7.522
		c-4.462,0.712-8.455-0.452-11.974-3.503c-3.52-3.057-5.769-7.617-6.743-13.699C14.122,86.355,15,81.715,17.668,78.185z
		 M89.627,66.99c3.866,4.414,6.601,11.666,8.218,21.758c1.964,12.266,1.684,20.943-0.843,26.027
		c-2.527,5.081-6.279,8.029-11.269,8.829c-4.785,0.765-9.304-1.32-13.557-6.245c-4.254-4.929-7.133-12.097-8.64-21.508
		c-1.552-9.688-1.162-17.608,1.174-23.754c2.335-6.151,6.179-9.654,11.523-10.509C81.298,60.778,85.766,62.578,89.627,66.99z
		 M122.386,69.198c-7.156,1.145-13.815,2.34-19.972,3.586c-0.231-0.256-0.202-0.262-0.44-0.641
		c3.478-6.526,6.643-11.831,9.498-15.912c2.978-4.255,6.795-10.019,11.459-17.292c2.151,12.664,3.551,22.562,4.198,29.682
		C124.57,68.911,122.99,69.102,122.386,69.198z M52.998,96.858 M127.526,71.097c1.554,11.506,2.016,18.192,1.388,20.065
		c-0.626,1.876-2.702,3.138-6.226,3.783c-1.929,0.354-2.832,0.871-2.723,1.547c0.134,0.85,1.324,1.089,3.58,0.729l22.796-3.651
		c2.218-0.358,3.254-0.952,3.116-1.802c-0.106-0.678-0.806-0.926-2.094-0.714c-2.774,0.443-4.775,0.311-6-0.4
		c-1.228-0.706-2.009-1.666-2.349-2.87c-0.337-1.203-1.37-7.213-3.102-18.028c2.278-0.446,3.717-0.725,4.322-0.819
		c3.377-0.541,5.773-0.244,7.197,0.889c1.414,1.135,2.852,3.521,4.3,7.168c0.279,0.74,0.694,1.064,1.242,0.977
		c0.779-0.123,1.107-0.605,0.974-1.452l-2.333-13.02c-0.561-3.489-0.895-6.214-1.004-8.171c-0.041-0.525-0.091-0.971-0.149-1.332
		c-0.167-1.043-0.624-1.506-1.368-1.385c-0.703,0.112-1,0.652-0.882,1.623c0.496,3.879-0.027,6.786-1.574,8.726
		c-1.546,1.943-5.253,3.379-11.122,4.321c-0.62-3.333-1.068-5.877-1.353-7.655l-3.229-22.096c-0.361-2.253-0.858-4.966-1.485-8.13
		c-0.281-0.45-0.744-0.621-1.383-0.517c-0.288,0.044-0.895,0.206-1.845,0.476c-10.214,14.353-17.14,24.977-26.059,40.48
		l-0.009,0.016c-1.11-1.31-2.322-2.564-3.646-3.75c-6.407-5.759-13.249-8.054-20.531-6.889c-5.224,0.837-9.632,3.125-13.224,6.848
		c-3.586,3.735-6.269,8.359-8.045,13.883c-0.181,0.566-0.349,1.139-0.506,1.716l-0.019-0.093c-1.346-3.965-3.866-7.182-7.569-9.66
		c-4.712-3.145-10.121-4.232-16.238-3.255c-3.176,0.511-6.157,1.534-8.939,3.076c-2.787,1.538-5.397,3.601-7.831,6.172
		c-0.141-9.378,1.354-16.909,4.488-22.589c3.132-5.679,7.512-8.968,13.141-9.869c2.334-0.375,4.28-0.255,5.841,0.363
		c1.567,0.613,2.487,1.268,2.762,1.97c0.274,0.696,0.668,2.638,1.178,5.812c0.522,3.257,2.329,4.638,5.428,4.143
		c1.33-0.214,2.447-0.946,3.361-2.208c0.909-1.25,1.221-2.778,0.933-4.583c-0.468-2.925-2.39-5.202-5.765-6.845
		c-3.381-1.64-7.479-2.064-12.306-1.293c-6.753,1.081-12.188,3.445-16.307,7.094c-4.115,3.65-7.39,8.511-9.814,14.598
		c-2.431,6.076-2.991,13.224-1.677,21.421c1.515,9.455,4.944,16.379,10.289,20.784c5.346,4.398,11.516,6.039,18.512,4.92
		c7.561-1.215,13.233-4.545,17.02-10.008c1.107-1.597,2.018-3.206,2.721-4.82l0.005-0.03c0.028,0.191,0.057,0.385,0.087,0.569
		c1.436,8.975,5.268,16.295,11.5,21.981c6.23,5.684,13.129,7.918,20.688,6.709c7.844-1.256,13.91-5.735,18.2-13.432
		c4.294-7.699,5.738-15.956,4.327-24.759c-0.734-4.567-2.15-8.727-4.252-12.48l0.632-0.128
		C115.145,73.206,118.299,72.576,127.526,71.097"/>
	<path fill="#CADB2B" d="M169.201,48.331c2.769,4.122,5.311,7.754,7.63,10.885c2.793,3.742,4.997,6.875,6.617,9.39
		c1.623,2.511,3.441,4.969,5.45,7.354c3.091-7.649,6.37-18.436,9.835-32.361l12.136-1.912c0.439-0.006,0.681,0.151,0.733,0.461
		c0.05,0.315-0.165,0.53-0.648,0.651c-2.124,0.527-3.494,1.188-4.106,1.983c-0.61,0.796-0.876,2.015-0.789,3.645
		c0.081,1.637,0.396,4.65,0.931,9.043c0.542,4.395,1.038,8.044,1.508,10.953c0.894,5.586,1.455,8.835,1.686,9.744
		c0.229,0.913,0.693,1.597,1.389,2.047c0.696,0.448,1.953,0.655,3.756,0.62c0.523-0.001,0.81,0.15,0.858,0.456
		c0.048,0.3-0.246,0.505-0.875,0.608l-11.861,1.866l-3.104,0.496c-0.695,0.111-1.065,0.005-1.119-0.316
		c-0.045-0.288,0.162-0.497,0.619-0.63c1.674-0.502,2.753-0.999,3.244-1.491c0.495-0.496,0.798-1.289,0.899-2.382
		c0.111-1.092-0.169-3.721-0.839-7.894l-1.767-14.729l-0.847-7.285c-0.085-0.543-0.22-0.808-0.381-0.78
		c-0.245,0.037-0.423,0.234-0.538,0.589l-4.126,12.892c-2.637,8.243-4.228,13.503-4.758,15.783l-1.157,4.908
		c-0.365,1.494-0.596,2.324-0.698,2.473c-0.103,0.155-0.236,0.241-0.397,0.267c-0.245,0.04-0.494-0.19-0.731-0.699
		c-0.572-1.2-3.097-4.903-7.573-11.11c-2.38-3.521-5.194-7.521-8.446-12.003c-3.251-4.487-4.996-6.822-5.237-7.003
		c-0.234-0.183-0.406-0.263-0.51-0.248c-0.199,0.032-0.264,0.305-0.183,0.811l2.625,18.523l0.882,6.11
		c0.518,3.231,1.299,5.273,2.342,6.126c1.041,0.855,2.391,1.147,4.038,0.885c1.056-0.168,1.619-0.026,1.691,0.418
		c0.051,0.324-0.177,0.528-0.684,0.609l-0.646,0.071l-1.978,0.349l-4.299,0.657c-1.869,0.301-4.263,0.788-7.177,1.463
		c-0.269-0.125-0.417-0.267-0.444-0.431c-0.063-0.403,0.257-0.677,0.969-0.812c2.019-0.387,3.401-1.298,4.156-2.727
		c0.752-1.437,0.766-4.38,0.053-8.834l-0.917-5.357l-1.753-13.677c-0.508-3.173-1.327-5.266-2.447-6.286
		c-1.127-1.017-2.607-1.497-4.455-1.43c-0.783,0.023-1.2-0.121-1.252-0.44c-0.056-0.356,0.198-0.577,0.764-0.666
		c0.302-0.051,0.673-0.103,1.106-0.149L169.201,48.331z M247.38,36.184c0.951,2.179,2.043,5.279,3.272,9.29
		c-0.074,0.179-0.165,0.279-0.289,0.297c-0.138,0.021-0.305-0.037-0.493-0.173c-1.765-2.029-3.377-3.529-4.847-4.505
		c-1.47-0.973-2.892-1.604-4.262-1.898c-1.373-0.286-3.636-0.18-6.787,0.322c-2.967,0.478-5.289,1.026-6.965,1.646
		c-0.126,0.227-0.152,0.614-0.064,1.165c0.022,0.143,0.047,0.401,0.064,0.77c0.056,1.653,0.662,6.075,1.812,13.251
		c0.048,0.311,0.137,0.731,0.263,1.269c1.556-0.183,2.619-0.325,3.19-0.417c2.562-0.409,4.354-1.087,5.379-2.042
		c1.028-0.944,1.767-2.754,2.214-5.422c0.074-0.451,0.238-0.698,0.5-0.74c0.383-0.06,0.625,0.202,0.721,0.796l0.075,1.238
		c0.092,1.636,0.276,3.305,0.549,5.018c0.445,2.771,0.895,5.257,1.351,7.458c0.112,0.696-0.016,1.072-0.386,1.131
		c-0.274,0.043-0.505-0.171-0.68-0.646c-0.812-2.329-1.987-3.91-3.521-4.751c-1.543-0.832-4.583-0.89-9.157-0.156
		c0.18,1.492,0.528,3.894,1.062,7.206c0.686,4.287,1.277,6.99,1.769,8.096c0.49,1.108,1.369,1.915,2.635,2.406
		c1.27,0.498,3.291,0.521,6.052,0.077c7.907-1.269,12.574-4.806,14.003-10.622c0.17-0.714,0.412-1.098,0.711-1.146
		c0.322-0.052,0.521,0.15,0.591,0.599c0.039,0.243,0.028,0.511-0.024,0.813c-0.06,0.404-0.128,1.896-0.193,4.47
		c-0.01,0.547-0.147,2.192-0.396,4.94l-12.776,2.015c-1.828,0.293-4.527,0.65-8.099,1.062c-3.569,0.418-6.722,0.84-9.455,1.265
		c-2.737,0.431-4.171,0.604-4.309,0.52c-0.136-0.082-0.221-0.182-0.238-0.307c-0.067-0.405,0.235-0.662,0.906-0.771
		c2.253-0.36,3.644-1.197,4.166-2.509c0.518-1.313,0.405-4.281-0.336-8.911l-1.03-6.24l-0.846-5.863
		c-0.189-1.177-0.609-3.391-1.271-6.651c-0.656-3.256-1.078-5.11-1.261-5.561c-0.191-0.451-0.58-0.862-1.173-1.231
		c-0.588-0.376-1.807-0.654-3.648-0.84c-0.548-0.058-0.855-0.241-0.903-0.541c-0.057-0.364,0.274-0.604,0.985-0.72l6.266-0.661
		c2.212-0.251,7.614-1.066,16.21-2.441C244.37,36.633,247.255,36.181,247.38,36.184z M267.872,32.558l6.259-1.131
		c7.944-1.271,14.255-0.3,18.939,2.909c4.687,3.204,7.494,7.753,8.434,13.622c0.668,4.17,0.275,7.941-1.187,11.335
		c-1.456,3.39-3.517,6.102-6.199,8.136c-2.668,2.037-6.449,3.438-11.326,4.222c-1.093,0.174-2.502,0.338-4.201,0.487
		c-3.05,0.235-4.758,0.385-5.125,0.444c-6.665,1.067-10.578,1.764-11.729,2.097c-0.669,0.106-1.035-0.005-1.091-0.345
		c-0.039-0.242,0.063-0.416,0.294-0.536s0.963-0.355,2.192-0.718c1.593-0.486,2.635-1.316,3.122-2.504
		c0.489-1.184,0.362-4.604-0.379-10.264l-2.099-16.211c-0.302-1.875-0.714-3.655-1.248-5.354c-0.536-1.701-1.104-2.757-1.726-3.169
		c-0.614-0.408-1.527-0.615-2.735-0.61c-0.876,0.016-1.343-0.145-1.399-0.493c-0.068-0.427,0.115-0.675,0.538-0.742
		c0.412-0.066,1.667-0.177,3.775-0.341C263.094,33.235,265.393,32.955,267.872,32.558z M271.514,62.173
		c0.431,2.679,0.919,4.565,1.458,5.656c0.538,1.094,1.451,1.916,2.74,2.468c1.289,0.553,3.223,0.627,5.801,0.216
		c3.7-0.593,6.555-1.944,8.576-4.062c2.012-2.116,3.431-4.731,4.26-7.848c0.824-3.106,0.977-6.298,0.453-9.573
		c-0.775-4.834-2.955-8.979-6.528-12.432c-3.574-3.446-8.467-4.671-14.687-3.676c-2.762,0.443-4.356,0.793-4.789,1.048
		c-0.426,0.26-0.566,0.83-0.423,1.725c0.127,0.794,0.281,2.218,0.463,4.272c0.27,2.999,0.51,5.339,0.718,7.015l1.068,8.417
		C271.129,59.351,271.426,61.603,271.514,62.173z M309.708,32.043c-2.911,0.685-4.463,1.111-4.651,1.276
		c-0.192,0.168-0.269,0.371-0.23,0.607c0.066,0.428,0.42,0.585,1.056,0.486c1.915-0.256,3.275-0.03,4.068,0.676
		c0.793,0.702,1.542,3.254,2.244,7.657l2.365,16.522c0.35,2.177,0.356,3.534,0.024,4.06c-0.336,0.534-1.227,1.01-2.676,1.433
		c-1.441,0.42-2.125,0.867-2.05,1.347c0.078,0.48,0.428,0.664,1.067,0.561c0.269-0.043,0.53-0.11,0.787-0.206
		c1.262-0.415,3.594-0.899,6.995-1.442c2.119-0.34,4.444-0.547,6.958-0.626c0.27-0.019,0.513-0.039,0.724-0.073
		c0.561-0.089,0.804-0.348,0.733-0.77c-0.084-0.536-0.86-0.72-2.331-0.566c-1.26,0.144-2.243,0.01-2.949-0.409
		c-0.699-0.414-1.212-1.581-1.519-3.49l-0.723-4.785l-1.01-6.29l-1.417-8.344l-1.395-8.964
		C314.642,30.914,312.622,31.357,309.708,32.043z M342.091,19.821l1.411-0.224c3.013,4.289,7.417,11.74,13.211,22.361
		c3.731,6.8,6.205,10.945,7.425,12.422c1.223,1.484,2.904,2.149,5.05,1.991c0.684-0.045,1.05,0.123,1.114,0.515
		c0.045,0.279-0.102,0.45-0.445,0.505l-0.434,0.035c-1.895,0.135-4.285,0.439-7.169,0.899c-4.436,0.711-7.265,1.236-8.5,1.581
		c-0.632,0.102-0.974-0.029-1.032-0.395c-0.043-0.264,0.165-0.466,0.619-0.603c1.705-0.438,2.848-0.923,3.438-1.46
		c0.597-0.529,0.817-1.255,0.673-2.167c-0.141-0.875-1.107-2.96-2.909-6.254l-2.634-4.954c-1.06,0.165-5.77,0.984-14.146,2.452
		c-1.217,5.967-1.704,9.685-1.47,11.153c0.199,1.249,0.869,2.09,2.021,2.526c1.138,0.434,2.221,0.604,3.251,0.497
		c0.756-0.06,1.17,0.106,1.234,0.504c0.021,0.154-0.068,0.324-0.295,0.501c-3.27,0.38-5.244,0.623-5.913,0.728
		c-3.418,0.55-5.711,0.955-6.872,1.23c-0.649,0.104-1.01-0.028-1.066-0.392c-0.051-0.327,0.201-0.578,0.758-0.75
		c2.296-0.683,3.825-2.545,4.602-5.613c0.78-3.064,1.893-8.523,3.322-16.382C338.652,33.379,340.232,26.479,342.091,19.821z
		 M341.939,26.663c-1.272,4.161-2.58,10.125-3.93,17.887c2.081-0.438,3.577-0.727,4.486-0.874l8.588-1.22
		c-1.085-1.993-2.595-4.63-4.509-7.907C344.244,30.648,342.703,28.023,341.939,26.663z"/>
	<path fill="#CADB2B" d="M305.514,23.519c-2.077-3.245-1.614-7.204,0.903-10.079c0.853-0.974,1.876-1.899,2.923-2.668
		c3.173-2.33,12.025-4.924,13.898-8.059c-0.301,0.499-0.584,0.99-0.835,1.481c-0.711,1.392-1.179,2.804-1.07,4.478
		c0.133,2.088,0.296,5.065,0.289,7.165c-0.012,3.451-2.769,6.726-5.702,8.232c-2.401,1.235-5.003,2.143-7.697,1.433
		c-0.312-0.08,1.303-4.768,6.019-10.962c-5.522,6.312-7.39,9.884-7.712,10.143C306.293,24.876,305.537,23.552,305.514,23.519z"/>
</g>
<g>
	<path fill="#FFFFFF" d="M178.938,99.157l2.119,13.229c0.156,0.974,0.355,2.077,0.543,2.812l-1.786,0.286l-0.396-1.885l-0.045,0.008
		c-0.415,1.318-1.577,2.456-3.364,2.742c-2.646,0.424-5.063-1.485-5.596-4.809c-0.609-3.661,1.32-6.242,3.966-6.666
		c1.696-0.272,2.953,0.338,3.566,1.121l0.045-0.007l-1.043-6.514L178.938,99.157z M178.48,109.042
		c-0.043-0.271-0.117-0.585-0.228-0.846c-0.493-1.195-1.746-2.062-3.238-1.823c-2.058,0.329-2.989,2.334-2.605,4.73
		c0.358,2.24,1.761,3.895,3.886,3.554c1.334-0.214,2.41-1.313,2.534-2.865c0.027-0.259,0.007-0.534-0.044-0.851L178.48,109.042z"/>
	<path fill="#FFFFFF" d="M187.384,109.032c0.473,2.66,2.346,3.497,4.336,3.178c1.425-0.228,2.267-0.618,2.939-1.051l0.591,1.367
		c-0.65,0.429-1.81,1.009-3.552,1.288c-3.347,0.536-5.741-1.376-6.267-4.656c-0.528-3.301,1.022-6.217,4.211-6.728
		c3.573-0.572,5.004,2.423,5.326,4.435c0.065,0.407,0.091,0.704,0.081,0.938L187.384,109.032z M192.967,106.675
		c-0.18-1.271-1.037-3.151-3.254-2.796c-2.035,0.326-2.598,2.318-2.535,3.724L192.967,106.675z"/>
	<path fill="#FFFFFF" d="M200.063,110.155c0.668,0.263,1.773,0.505,2.769,0.346c1.425-0.229,1.991-1.039,1.843-1.967
		c-0.152-0.949-0.798-1.356-2.332-1.667c-2.106-0.404-3.207-1.342-3.414-2.631c-0.282-1.764,0.934-3.442,3.263-3.815
		c1.108-0.178,2.128-0.04,2.777,0.25l-0.246,1.501c-0.47-0.181-1.323-0.438-2.341-0.275c-1.176,0.188-1.701,0.97-1.57,1.783
		c0.145,0.904,0.844,1.21,2.359,1.547c1.988,0.4,3.136,1.191,3.396,2.819c0.312,1.944-0.986,3.545-3.541,3.954
		c-1.199,0.192-2.357,0.053-3.199-0.277L200.063,110.155z"/>
	<path fill="#FFFFFF" d="M210.775,97.399c-0.724,0.115-1.29-0.375-1.395-1.031c-0.112-0.7,0.298-1.322,1.045-1.442
		c0.724-0.116,1.308,0.348,1.42,1.048c0.105,0.656-0.279,1.299-1.048,1.422L210.775,97.399z M211.876,110.349l-1.754-10.945
		l1.99-0.318l1.754,10.945L211.876,110.349z"/>
	<path fill="#FFFFFF" d="M228.533,106.035c0.405,2.533,0.128,4.132-0.756,5.271c-0.931,1.146-2.413,1.732-3.793,1.953
		c-1.312,0.211-2.81,0.125-3.786-0.321l0.251-1.617c0.8,0.357,1.996,0.584,3.354,0.366c2.035-0.326,3.356-1.627,2.911-4.41
		l-0.192-1.197l-0.044,0.007c-0.426,1.112-1.494,2.118-3.189,2.39c-2.715,0.435-5.028-1.561-5.518-4.613
		c-0.595-3.71,1.492-6.176,4.025-6.582c1.899-0.305,3.073,0.504,3.72,1.353l0.045-0.008l-0.196-1.662l1.764-0.282
		c0.055,0.779,0.177,1.688,0.387,2.999L228.533,106.035z M225.735,101.31c-0.051-0.317-0.12-0.606-0.254-0.863
		c-0.551-1.118-1.653-1.916-3.122-1.681c-1.9,0.305-3,2.128-2.591,4.683c0.341,2.125,1.739,3.758,3.864,3.418
		c1.244-0.199,2.229-1.146,2.43-2.5c0.062-0.335,0.046-0.728-0.012-1.089L225.735,101.31z"/>
	<path fill="#FFFFFF" d="M232.914,98.792c-0.185-1.152-0.352-2.055-0.564-2.948l1.764-0.282l0.399,1.768l0.045-0.007
		c0.38-1.104,1.483-2.324,3.293-2.614c1.515-0.242,4.012,0.285,4.613,4.039l1.047,6.535l-1.99,0.319l-1.011-6.309
		c-0.282-1.765-1.178-3.153-3.055-2.853c-1.289,0.207-2.158,1.297-2.343,2.464c-0.05,0.263-0.037,0.632,0.014,0.949l1.058,6.603
		l-1.99,0.318L232.914,98.792z"/>
	<path fill="#CADB2B" d="M260.327,90.249l0.79,4.931l4.727-0.758l0.337,2.104l-4.727,0.758l0.8,4.997l-2.216,0.354l-0.801-4.997
		l-4.727,0.758l-0.337-2.104l4.728-0.758l-0.79-4.931L260.327,90.249z"/>
	<path fill="#FFFFFF" d="M279.03,99.592l-1.51-9.43l-1.516,0.242l-0.242-1.516l1.515-0.242l-0.083-0.521
		c-0.247-1.538-0.109-2.999,0.677-4.028c0.63-0.844,1.578-1.297,2.482-1.442c0.724-0.115,1.338-0.052,1.747,0.046l-0.002,1.577
		c-0.339-0.084-0.741-0.137-1.33-0.043c-1.673,0.269-1.886,1.834-1.617,3.508l0.094,0.588l2.646-0.424l0.242,1.516l-2.623,0.42
		l1.51,9.43L279.03,99.592z"/>
	<path fill="#FFFFFF" d="M296.391,93.727c0.185,1.153,0.367,2.145,0.572,2.992l-1.764,0.283l-0.399-1.769l-0.045,0.008
		c-0.356,0.961-1.348,2.303-3.292,2.614c-1.72,0.275-3.934-0.366-4.546-4.188l-1.025-6.4l1.99-0.319l0.968,6.038
		c0.333,2.08,1.217,3.401,3.004,3.115c1.335-0.214,2.113-1.29,2.33-2.253c0.069-0.289,0.079-0.661,0.018-1.046l-1.072-6.694
		l1.99-0.319L296.391,93.727z"/>
	<path fill="#FFFFFF" d="M301.154,87.861c-0.185-1.153-0.352-2.055-0.564-2.948l1.764-0.283l0.399,1.769l0.045-0.007
		c0.38-1.105,1.483-2.324,3.293-2.614c1.515-0.243,4.012,0.285,4.613,4.039l1.047,6.535l-1.99,0.318l-1.011-6.309
		c-0.282-1.765-1.178-3.152-3.055-2.852c-1.289,0.206-2.158,1.297-2.343,2.463c-0.05,0.263-0.037,0.632,0.014,0.95l1.058,6.602
		l-1.99,0.319L301.154,87.861z"/>
	<path fill="#FFFFFF" d="M324.981,91.815c-0.48,0.331-1.572,0.9-3.042,1.136c-3.302,0.529-5.81-1.364-6.346-4.712
		c-0.54-3.371,1.373-6.204,4.945-6.776c1.177-0.188,2.264-0.062,2.854,0.145l-0.21,1.589c-0.515-0.174-1.304-0.325-2.39-0.151
		c-2.511,0.402-3.566,2.496-3.204,4.758c0.405,2.533,2.283,3.832,4.455,3.484c1.131-0.181,1.834-0.571,2.358-0.911L324.981,91.815z"
		/>
	<path fill="#FFFFFF" d="M330.152,77.487l0.42,2.623l2.85-0.457l0.243,1.516l-2.85,0.457l0.941,5.88
		c0.217,1.356,0.726,2.063,1.833,1.886c0.543-0.087,0.853-0.182,1.132-0.319l0.333,1.5c-0.362,0.197-0.951,0.431-1.72,0.554
		c-0.928,0.148-1.725-0.048-2.283-0.492c-0.641-0.523-1.022-1.46-1.229-2.749l-0.953-5.947l-1.696,0.271l-0.243-1.516l1.697-0.271
		l-0.323-2.013L330.152,77.487z"/>
	<path fill="#FFFFFF" d="M338.573,76.927c-0.724,0.115-1.289-0.375-1.395-1.031c-0.112-0.7,0.299-1.322,1.045-1.442
		c0.724-0.115,1.309,0.348,1.421,1.048c0.104,0.656-0.279,1.299-1.049,1.422L338.573,76.927z M339.674,89.877l-1.753-10.945
		l1.99-0.318l1.753,10.945L339.674,89.877z"/>
	<path fill="#FFFFFF" d="M351.722,88.204c-2.94,0.471-5.596-1.33-6.149-4.791c-0.587-3.662,1.489-6.199,4.497-6.681
		c3.144-0.503,5.635,1.439,6.168,4.764c0.651,4.071-1.893,6.288-4.493,6.704L351.722,88.204z M351.572,86.697
		c1.899-0.305,3.039-2.319,2.641-4.808c-0.298-1.854-1.599-4.034-3.95-3.657c-2.329,0.373-2.999,2.707-2.666,4.788
		c0.385,2.396,2.03,3.988,3.953,3.681L351.572,86.697z"/>
	<path fill="#FFFFFF" d="M360.622,78.334c-0.185-1.152-0.353-2.055-0.564-2.948l1.764-0.282l0.398,1.768l0.046-0.007
		c0.38-1.104,1.483-2.324,3.293-2.614c1.515-0.242,4.012,0.285,4.613,4.039l1.047,6.535l-1.99,0.319l-1.011-6.309
		c-0.283-1.765-1.178-3.153-3.055-2.853c-1.289,0.207-2.158,1.297-2.343,2.464c-0.051,0.263-0.038,0.632,0.013,0.949l1.058,6.603
		l-1.99,0.318L360.622,78.334z"/>
</g>
<path fill="none" d="M17.668,78.185c2.675-3.528,6.185-5.64,10.527-6.335c4.425-0.708,8.198,0.462,11.33,3.513
	c3.125,3.054,5.104,7.158,5.93,12.31c0.827,5.162,0.256,9.865-1.696,14.122c-1.961,4.265-5.289,6.766-9.996,7.522
	c-4.462,0.712-8.455-0.452-11.974-3.503c-3.52-3.057-5.769-7.617-6.743-13.699C14.122,86.355,15,81.715,17.668,78.185z"/>
<path fill="none" d="M89.627,66.99c3.866,4.414,6.601,11.666,8.218,21.758c1.964,12.266,1.684,20.943-0.843,26.027
	c-2.527,5.081-6.279,8.029-11.269,8.829c-4.785,0.765-9.304-1.32-13.557-6.245c-4.254-4.929-7.133-12.097-8.64-21.508
	c-1.552-9.688-1.162-17.608,1.174-23.754c2.335-6.151,6.179-9.654,11.523-10.509C81.298,60.778,85.766,62.578,89.627,66.99z"/>
<path fill="none" d="M122.386,69.198c-7.156,1.145-13.815,2.34-19.972,3.586c-0.231-0.256-0.202-0.262-0.44-0.641
	c3.478-6.526,6.643-11.831,9.498-15.912c2.978-4.255,6.795-10.019,11.459-17.292c2.151,12.664,3.551,22.562,4.198,29.682
	C124.57,68.911,122.99,69.102,122.386,69.198z"/>
<path fill="none" d="M52.998,96.858"/>
<path fill="none" d="M127.526,71.097c1.554,11.506,2.016,18.192,1.388,20.065c-0.626,1.876-2.702,3.138-6.226,3.783
	c-1.929,0.354-2.832,0.871-2.723,1.547c0.134,0.85,1.324,1.089,3.58,0.729l22.796-3.651c2.218-0.358,3.254-0.952,3.116-1.802
	c-0.106-0.678-0.806-0.926-2.094-0.714c-2.774,0.443-4.775,0.311-6-0.4c-1.228-0.706-2.009-1.666-2.349-2.87
	c-0.337-1.203-1.37-7.213-3.102-18.028c2.278-0.446,3.717-0.725,4.322-0.819c3.377-0.541,5.773-0.244,7.197,0.889
	c1.414,1.135,2.852,3.521,4.3,7.168c0.279,0.74,0.694,1.064,1.242,0.977c0.779-0.123,1.107-0.605,0.974-1.452l-2.333-13.02
	c-0.561-3.489-0.895-6.214-1.004-8.171c-0.041-0.525-0.091-0.971-0.149-1.332c-0.167-1.043-0.624-1.506-1.368-1.385
	c-0.703,0.112-1,0.652-0.882,1.623c0.496,3.879-0.027,6.786-1.574,8.726c-1.546,1.943-5.253,3.379-11.122,4.321
	c-0.62-3.333-1.068-5.877-1.353-7.655l-3.229-22.096c-0.361-2.253-0.858-4.966-1.485-8.13c-0.281-0.45-0.744-0.621-1.383-0.517
	c-0.288,0.044-0.895,0.206-1.845,0.476c-10.214,14.353-17.14,24.977-26.059,40.48l-0.009,0.016c-1.11-1.31-2.322-2.564-3.646-3.75
	c-6.407-5.759-13.249-8.054-20.531-6.889c-5.224,0.837-9.632,3.125-13.224,6.848c-3.586,3.735-6.269,8.359-8.045,13.883
	c-0.181,0.566-0.349,1.139-0.506,1.716l-0.019-0.093c-1.346-3.965-3.866-7.182-7.569-9.66c-4.712-3.145-10.121-4.232-16.238-3.255
	c-3.176,0.511-6.157,1.534-8.939,3.076c-2.787,1.538-5.397,3.601-7.831,6.172c-0.141-9.378,1.354-16.909,4.488-22.589
	c3.132-5.679,7.512-8.968,13.141-9.869c2.334-0.375,4.28-0.255,5.841,0.363c1.567,0.613,2.487,1.268,2.762,1.97
	c0.274,0.696,0.668,2.638,1.178,5.812c0.522,3.257,2.329,4.638,5.428,4.143c1.33-0.214,2.447-0.946,3.361-2.208
	c0.909-1.25,1.221-2.778,0.933-4.583c-0.468-2.925-2.39-5.202-5.765-6.845c-3.381-1.64-7.479-2.064-12.306-1.293
	c-6.753,1.081-12.188,3.445-16.307,7.094c-4.115,3.65-7.39,8.511-9.814,14.598c-2.431,6.076-2.991,13.224-1.677,21.421
	c1.515,9.455,4.944,16.379,10.289,20.784c5.346,4.398,11.516,6.039,18.512,4.92c7.561-1.215,13.233-4.545,17.02-10.008
	c1.107-1.597,2.018-3.206,2.721-4.82l0.005-0.03c0.028,0.191,0.057,0.385,0.087,0.569c1.436,8.975,5.268,16.295,11.5,21.981
	c6.23,5.684,13.129,7.918,20.688,6.709c7.844-1.256,13.91-5.735,18.2-13.432c4.294-7.699,5.738-15.956,4.327-24.759
	c-0.734-4.567-2.15-8.727-4.252-12.48l0.632-0.128C115.145,73.206,118.299,72.576,127.526,71.097"/>
<g>
	<g>
		<path fill="none" d="M169.201,48.331c2.769,4.122,5.311,7.754,7.63,10.885c2.793,3.742,4.997,6.875,6.617,9.39
			c1.623,2.511,3.441,4.969,5.45,7.354c3.091-7.649,6.37-18.436,9.835-32.361l12.136-1.912c0.439-0.006,0.681,0.151,0.733,0.461
			c0.05,0.315-0.165,0.53-0.648,0.651c-2.124,0.527-3.494,1.188-4.106,1.983c-0.61,0.796-0.876,2.015-0.789,3.645
			c0.081,1.637,0.396,4.65,0.931,9.043c0.542,4.395,1.038,8.044,1.508,10.953c0.894,5.586,1.455,8.835,1.686,9.744
			c0.229,0.913,0.693,1.597,1.389,2.047c0.696,0.448,1.953,0.655,3.756,0.62c0.523-0.001,0.81,0.15,0.858,0.456
			c0.048,0.3-0.246,0.505-0.875,0.608l-11.861,1.866l-3.104,0.496c-0.695,0.111-1.065,0.005-1.119-0.316
			c-0.045-0.288,0.162-0.497,0.619-0.63c1.674-0.502,2.753-0.999,3.244-1.491c0.495-0.496,0.798-1.289,0.899-2.382
			c0.111-1.092-0.169-3.721-0.839-7.894l-1.767-14.729l-0.847-7.285c-0.085-0.543-0.22-0.808-0.381-0.78
			c-0.245,0.037-0.423,0.234-0.538,0.589l-4.126,12.892c-2.637,8.243-4.228,13.503-4.758,15.783l-1.157,4.908
			c-0.365,1.494-0.596,2.324-0.698,2.473c-0.103,0.155-0.236,0.241-0.397,0.267c-0.245,0.04-0.494-0.19-0.731-0.699
			c-0.572-1.2-3.097-4.903-7.573-11.11c-2.38-3.521-5.194-7.521-8.446-12.003c-3.251-4.487-4.996-6.822-5.237-7.003
			c-0.234-0.183-0.406-0.263-0.51-0.248c-0.199,0.032-0.264,0.305-0.183,0.811l2.625,18.523l0.882,6.11
			c0.518,3.231,1.299,5.273,2.342,6.126c1.041,0.855,2.391,1.147,4.038,0.885c1.056-0.168,1.619-0.026,1.691,0.418
			c0.051,0.324-0.177,0.528-0.684,0.609l-0.646,0.071l-1.978,0.349l-4.299,0.657c-1.869,0.301-4.263,0.788-7.177,1.463
			c-0.269-0.125-0.417-0.267-0.444-0.431c-0.063-0.403,0.257-0.677,0.969-0.812c2.019-0.387,3.401-1.298,4.156-2.727
			c0.752-1.437,0.766-4.38,0.053-8.834l-0.917-5.357l-1.753-13.677c-0.508-3.173-1.327-5.266-2.447-6.286
			c-1.127-1.017-2.607-1.497-4.455-1.43c-0.783,0.023-1.2-0.121-1.252-0.44c-0.056-0.356,0.198-0.577,0.764-0.666
			c0.302-0.051,0.673-0.103,1.106-0.149L169.201,48.331z"/>
	</g>
	<g>
		<path fill="none" d="M247.38,36.184c0.951,2.179,2.043,5.279,3.272,9.29c-0.074,0.179-0.165,0.279-0.289,0.297
			c-0.138,0.021-0.305-0.037-0.493-0.173c-1.765-2.029-3.377-3.529-4.847-4.505c-1.47-0.973-2.892-1.604-4.262-1.898
			c-1.373-0.286-3.636-0.18-6.787,0.322c-2.967,0.478-5.289,1.026-6.965,1.646c-0.126,0.227-0.152,0.614-0.064,1.165
			c0.022,0.143,0.047,0.401,0.064,0.77c0.056,1.653,0.662,6.075,1.812,13.251c0.048,0.311,0.137,0.731,0.263,1.269
			c1.556-0.183,2.619-0.325,3.19-0.417c2.562-0.409,4.354-1.087,5.379-2.042c1.028-0.944,1.767-2.754,2.214-5.422
			c0.074-0.451,0.238-0.698,0.5-0.74c0.383-0.06,0.625,0.202,0.721,0.796l0.075,1.238c0.092,1.636,0.276,3.305,0.549,5.018
			c0.445,2.771,0.895,5.257,1.351,7.458c0.112,0.696-0.016,1.072-0.386,1.131c-0.274,0.043-0.505-0.171-0.68-0.646
			c-0.812-2.329-1.987-3.91-3.521-4.751c-1.543-0.832-4.583-0.89-9.157-0.156c0.18,1.492,0.528,3.894,1.062,7.206
			c0.686,4.287,1.277,6.99,1.769,8.096c0.49,1.108,1.369,1.915,2.635,2.406c1.27,0.498,3.291,0.521,6.052,0.077
			c7.907-1.269,12.574-4.806,14.003-10.622c0.17-0.714,0.412-1.098,0.711-1.146c0.322-0.052,0.521,0.15,0.591,0.599
			c0.039,0.243,0.028,0.511-0.024,0.813c-0.06,0.404-0.128,1.896-0.193,4.47c-0.01,0.547-0.147,2.192-0.396,4.94l-12.776,2.015
			c-1.828,0.293-4.527,0.65-8.099,1.062c-3.569,0.418-6.722,0.84-9.455,1.265c-2.737,0.431-4.171,0.604-4.309,0.52
			c-0.136-0.082-0.221-0.182-0.238-0.307c-0.067-0.405,0.235-0.662,0.906-0.771c2.253-0.36,3.644-1.197,4.166-2.509
			c0.518-1.313,0.405-4.281-0.336-8.911l-1.03-6.24l-0.846-5.863c-0.189-1.177-0.609-3.391-1.271-6.651
			c-0.656-3.256-1.078-5.11-1.261-5.561c-0.191-0.451-0.58-0.862-1.173-1.231c-0.588-0.376-1.807-0.654-3.648-0.84
			c-0.548-0.058-0.855-0.241-0.903-0.541c-0.057-0.364,0.274-0.604,0.985-0.72l6.266-0.661c2.212-0.251,7.614-1.066,16.21-2.441
			C244.37,36.633,247.255,36.181,247.38,36.184z"/>
	</g>
	<g>
		<path fill="none" d="M267.872,32.558l6.259-1.131c7.944-1.271,14.255-0.3,18.939,2.909c4.687,3.204,7.494,7.753,8.434,13.622
			c0.668,4.17,0.275,7.941-1.187,11.335c-1.456,3.39-3.517,6.102-6.199,8.136c-2.668,2.037-6.449,3.438-11.326,4.222
			c-1.093,0.174-2.502,0.338-4.201,0.487c-3.05,0.235-4.758,0.385-5.125,0.444c-6.665,1.067-10.578,1.764-11.729,2.097
			c-0.669,0.106-1.035-0.005-1.091-0.345c-0.039-0.242,0.063-0.416,0.294-0.536s0.963-0.355,2.192-0.718
			c1.593-0.486,2.635-1.316,3.122-2.504c0.489-1.184,0.362-4.604-0.379-10.264l-2.099-16.211c-0.302-1.875-0.714-3.655-1.248-5.354
			c-0.536-1.701-1.104-2.757-1.726-3.169c-0.614-0.408-1.527-0.615-2.735-0.61c-0.876,0.016-1.343-0.145-1.399-0.493
			c-0.068-0.427,0.115-0.675,0.538-0.742c0.412-0.066,1.667-0.177,3.775-0.341C263.094,33.235,265.393,32.955,267.872,32.558z"/>
		<path fill="none" d="M271.514,62.173c0.431,2.679,0.919,4.565,1.458,5.656c0.538,1.094,1.451,1.916,2.74,2.468
			c1.289,0.553,3.223,0.627,5.801,0.216c3.7-0.593,6.555-1.944,8.576-4.062c2.012-2.116,3.431-4.731,4.26-7.848
			c0.824-3.106,0.977-6.298,0.453-9.573c-0.775-4.834-2.955-8.979-6.528-12.432c-3.574-3.446-8.467-4.671-14.687-3.676
			c-2.762,0.443-4.356,0.793-4.789,1.048c-0.426,0.26-0.566,0.83-0.423,1.725c0.127,0.794,0.281,2.218,0.463,4.272
			c0.27,2.999,0.51,5.339,0.718,7.015l1.068,8.417C271.129,59.351,271.426,61.603,271.514,62.173z"/>
	</g>
	<path fill="none" d="M309.708,32.043c-2.911,0.685-4.463,1.111-4.651,1.276c-0.192,0.168-0.269,0.371-0.23,0.607
		c0.066,0.428,0.42,0.585,1.056,0.486c1.915-0.256,3.275-0.03,4.068,0.676c0.793,0.702,1.542,3.254,2.244,7.657l2.365,16.522
		c0.35,2.177,0.356,3.534,0.024,4.06c-0.336,0.534-1.227,1.01-2.676,1.433c-1.441,0.42-2.125,0.867-2.05,1.347
		c0.078,0.48,0.428,0.664,1.067,0.561c0.269-0.043,0.53-0.11,0.787-0.206c1.262-0.415,3.594-0.899,6.995-1.442
		c2.119-0.34,4.444-0.547,6.958-0.626c0.27-0.019,0.513-0.039,0.724-0.073c0.561-0.089,0.804-0.348,0.733-0.77
		c-0.084-0.536-0.86-0.72-2.331-0.566c-1.26,0.144-2.243,0.01-2.949-0.409c-0.699-0.414-1.212-1.581-1.519-3.49l-0.723-4.785
		l-1.01-6.29l-1.417-8.344l-1.395-8.964C314.642,30.914,312.622,31.357,309.708,32.043z"/>
	<g>
		<path fill="none" d="M342.091,19.821l1.411-0.224c3.013,4.289,7.417,11.74,13.211,22.361c3.731,6.8,6.205,10.945,7.425,12.422
			c1.223,1.484,2.904,2.149,5.05,1.991c0.684-0.045,1.05,0.123,1.114,0.515c0.045,0.279-0.102,0.45-0.445,0.505l-0.434,0.035
			c-1.895,0.135-4.285,0.439-7.169,0.899c-4.436,0.711-7.265,1.236-8.5,1.581c-0.632,0.102-0.974-0.029-1.032-0.395
			c-0.043-0.264,0.165-0.466,0.619-0.603c1.705-0.438,2.848-0.923,3.438-1.46c0.597-0.529,0.817-1.255,0.673-2.167
			c-0.141-0.875-1.107-2.96-2.909-6.254l-2.634-4.954c-1.06,0.165-5.77,0.984-14.146,2.452c-1.217,5.967-1.704,9.685-1.47,11.153
			c0.199,1.249,0.869,2.09,2.021,2.526c1.138,0.434,2.221,0.604,3.251,0.497c0.756-0.06,1.17,0.106,1.234,0.504
			c0.021,0.154-0.068,0.324-0.295,0.501c-3.27,0.38-5.244,0.623-5.913,0.728c-3.418,0.55-5.711,0.955-6.872,1.23
			c-0.649,0.104-1.01-0.028-1.066-0.392c-0.051-0.327,0.201-0.578,0.758-0.75c2.296-0.683,3.825-2.545,4.602-5.613
			c0.78-3.064,1.893-8.523,3.322-16.382C338.652,33.379,340.232,26.479,342.091,19.821z"/>
		<path fill="none" d="M341.939,26.663c-1.272,4.161-2.58,10.125-3.93,17.887c2.081-0.438,3.577-0.727,4.486-0.874l8.588-1.22
			c-1.085-1.993-2.595-4.63-4.509-7.907C344.244,30.648,342.703,28.023,341.939,26.663z"/>
	</g>
</g>
<path fill="none" d="M305.514,23.519c-2.077-3.245-1.614-7.204,0.903-10.079c0.853-0.974,1.876-1.899,2.923-2.668
	c3.173-2.33,12.025-4.924,13.898-8.059c-0.301,0.499-0.584,0.99-0.835,1.481c-0.711,1.392-1.179,2.804-1.07,4.478
	c0.133,2.088,0.296,5.065,0.289,7.165c-0.012,3.451-2.769,6.726-5.702,8.232c-2.401,1.235-5.003,2.143-7.697,1.433
	c-0.312-0.08,1.303-4.768,6.019-10.962c-5.522,6.312-7.39,9.884-7.712,10.143C306.293,24.876,305.537,23.552,305.514,23.519z"/>
</svg>
