<?xml version="1.0" encoding="utf-8"?>
<!-- Generator: Adobe Illustrator 16.0.0, SVG Export Plug-In . SVG Version: 6.00 Build 0)  -->
<!DOCTYPE svg PUBLIC "-//W3C//DTD SVG 1.1//EN" "http://www.w3.org/Graphics/SVG/1.1/DTD/svg11.dtd">
<svg version="1.1" id="Layer_17" xmlns="http://www.w3.org/2000/svg" xmlns:xlink="http://www.w3.org/1999/xlink" x="0px" y="0px"
	 width="241.553px" height="87.932px" viewBox="0 0 241.553 87.932" enable-background="new 0 0 241.553 87.932"
	 xml:space="preserve">
<path fill-rule="evenodd" clip-rule="evenodd" fill="#FFFFFF" d="M172.204,57.086c0.476,0.271,0.949,0.39,1.458,0.39
	c0,0,0,0,0.017,0c0.509,0,0.982-0.119,1.455-0.39c0.476-0.254,0.833-0.61,1.085-1.084c0.271-0.474,0.39-0.966,0.39-1.457
	c0-0.524-0.119-1.017-0.39-1.49c-0.252-0.475-0.626-0.83-1.102-1.084c-0.473-0.254-0.949-0.39-1.438-0.39c-0.017,0-0.017,0-0.017,0
	c-0.492,0.018-0.966,0.136-1.441,0.39c-0.474,0.254-0.83,0.61-1.099,1.084c-0.273,0.473-0.391,0.965-0.391,1.49
	c0,0.491,0.117,0.983,0.391,1.457C171.374,56.476,171.73,56.832,172.204,57.086L172.204,57.086L172.204,57.086L172.204,57.086z
	 M171.543,53.309c0.221-0.39,0.525-0.696,0.915-0.916c0.391-0.204,0.797-0.322,1.204-0.322c0,0,0,0,0.017,0
	c0.406,0,0.813,0.119,1.203,0.322c0.39,0.22,0.694,0.525,0.913,0.916c0.222,0.389,0.324,0.795,0.324,1.235
	c0,0.423-0.103,0.83-0.324,1.22c-0.202,0.372-0.506,0.678-0.896,0.898c-0.39,0.22-0.797,0.321-1.22,0.321c-0.017,0-0.017,0-0.017,0
	c-0.424,0-0.83-0.101-1.221-0.321c-0.39-0.22-0.694-0.526-0.898-0.898c-0.219-0.39-0.338-0.797-0.338-1.22
	C171.205,54.104,171.324,53.698,171.543,53.309L171.543,53.309L171.543,53.309L171.543,53.309z"/>
<path fill-rule="evenodd" clip-rule="evenodd" fill="#FFFFFF" d="M172.882,54.816h0.305l0,0c0.188,0,0.323,0.034,0.406,0.119
	c0.036,0.017,0.053,0.033,0.069,0.05c0.136,0.119,0.287,0.357,0.473,0.678l0,0l0.288,0.509h0.611l-0.373-0.627l0,0
	c-0.186-0.289-0.354-0.509-0.474-0.626c-0.069-0.068-0.152-0.119-0.271-0.17c0.271-0.017,0.49-0.119,0.659-0.288
	c0.171-0.17,0.255-0.373,0.255-0.61c0-0.169-0.051-0.322-0.152-0.457c-0.103-0.153-0.238-0.254-0.407-0.306
	c-0.136-0.051-0.338-0.084-0.608-0.084c-0.05,0-0.119-0.017-0.188-0.017l0,0h-1.101v3.185h0.509V54.816L172.882,54.816
	L172.882,54.816z M172.882,53.427h0.592l0,0c0.069,0,0.139,0,0.188,0c0.152,0.017,0.254,0.035,0.321,0.051
	c0.102,0.033,0.168,0.084,0.221,0.169c0.05,0.067,0.066,0.152,0.066,0.254c0,0.135-0.05,0.254-0.152,0.339
	c-0.083,0.084-0.237,0.119-0.456,0.136c-0.033,0-0.103,0-0.152,0l0,0h-0.628V53.427L172.882,53.427L172.882,53.427z"/>
<polygon fill-rule="evenodd" clip-rule="evenodd" fill="#FFFFFF" points="96.809,53.782 101.381,53.782 96.809,46.16 92.945,39.74 
	76.531,49.599 79.038,53.782 96.809,53.782 96.809,53.782 "/>
<polygon fill-rule="evenodd" clip-rule="evenodd" fill="#FFFFFF" points="139.359,53.782 147.795,53.782 161.701,53.782 
	147.795,30.61 132.414,5.031 126.079,8.842 116.017,14.89 126.079,31.643 139.359,53.782 139.359,53.782 "/>
<path fill-rule="evenodd" clip-rule="evenodd" fill="#FFFFFF" d="M131.55,61.422c-1.576-1.017-3.422-1.609-5.421-1.609
	c-0.017,0-0.033,0-0.05,0c-5.522,0.034-10.011,4.539-10.011,10.062c0,5.523,4.489,10.028,10.011,10.063c0.017,0,0.033,0,0.05,0
	c1.999,0,3.846-0.595,5.421-1.61l0,0v1.052h4.625v-9.504V53.782h-4.625V61.422L131.55,61.422L131.55,61.422z M131.55,70.925
	c-0.491,2.542-2.745,4.49-5.421,4.49c-0.017,0-0.033,0-0.05,0c-3.032-0.033-5.489-2.507-5.489-5.54s2.457-5.506,5.489-5.522
	c0.017,0,0.033,0,0.05,0c2.677,0,4.93,1.931,5.421,4.473l0,0V70.925L131.55,70.925L131.55,70.925z"/>
<path fill-rule="evenodd" clip-rule="evenodd" fill="#FFFFFF" d="M153.267,61.422c-1.558-1.017-3.421-1.609-5.422-1.609
	c-0.017,0-0.033,0-0.05,0c-5.522,0.034-10.011,4.539-10.011,10.062c0,5.523,4.489,10.028,10.011,10.063c0.017,0,0.033,0,0.05,0
	c2.001,0,3.864-0.595,5.422-1.61l0,0v1.052h4.625v-9.504v-9.554h-4.625V61.422L153.267,61.422L153.267,61.422z M153.267,70.925
	c-0.491,2.542-2.745,4.49-5.422,4.49c-0.017,0-0.033,0-0.05,0c-3.032-0.033-5.487-2.507-5.487-5.54s2.455-5.506,5.487-5.522
	c0.017,0,0.033,0,0.05,0c2.677,0,4.931,1.931,5.422,4.473l0,0V70.925L153.267,70.925L153.267,70.925z"/>
<path fill-rule="evenodd" clip-rule="evenodd" fill="#FFFFFF" d="M174.34,68.622c-0.172-0.084-0.407-0.169-0.678-0.271
	c-1.035-0.355-2.712-0.797-5.049-1.305c-2.051-0.458-3.083-1.05-3.083-1.795c0-0.526,0.186-0.949,0.543-1.253
	c0.476-0.407,1.319-0.61,2.54-0.61c1.236,0,2.135,0.271,2.661,0.796c0.32,0.322,0.559,0.897,0.711,1.71l0,0h1.677h3.234l0,0
	c0-2.404-0.982-4.132-2.913-5.182c-0.103-0.069-0.202-0.12-0.321-0.17c-1.339-0.627-3.118-0.949-5.337-0.949
	c-2.692,0-4.726,0.712-6.081,2.152c-1.085,1.151-1.608,2.557-1.608,4.217c0,2.067,1.016,3.558,3.083,4.523
	c0.777,0.373,2.675,0.898,5.69,1.542c2.018,0.441,3.032,1.068,3.032,1.864c0,0.473-0.202,0.88-0.645,1.253
	c-0.559,0.474-1.405,0.712-2.539,0.712c-1.509,0-2.576-0.255-3.201-0.745c-0.628-0.476-0.949-1.17-0.949-2.05l0,0h-5.149l0,0
	c0,2.338,0.982,4.082,2.964,5.233c1.574,0.898,3.641,1.357,6.2,1.357c1.71,0,3.234-0.29,4.54-0.849
	c0.271-0.116,0.506-0.235,0.761-0.371c2.017-1.118,3.032-2.896,3.032-5.336C177.455,71.095,176.423,69.604,174.34,68.622
	L174.34,68.622L174.34,68.622L174.34,68.622z"/>
<path fill-rule="evenodd" clip-rule="evenodd" fill="#FFFFFF" d="M80.36,61.422c-1.577-1.017-3.439-1.609-5.439-1.609
	c-0.015,0-0.033,0-0.05,0c-5.504,0.034-9.995,4.539-9.995,10.062c0,5.523,4.49,10.028,9.995,10.063c0.017,0,0.035,0,0.05,0
	c2,0,3.862-0.595,5.439-1.61l0,0v1.052h4.623v-9.504v-9.554H80.36V61.422L80.36,61.422L80.36,61.422z M80.36,70.925
	c-0.492,2.542-2.745,4.49-5.439,4.49c-0.015,0-0.033,0-0.05,0c-3.016-0.033-5.471-2.507-5.471-5.54s2.456-5.506,5.471-5.522
	c0.017,0,0.035,0,0.05,0c2.695,0,4.947,1.931,5.439,4.473l0,0V70.925L80.36,70.925L80.36,70.925z"/>
<polygon fill-rule="evenodd" clip-rule="evenodd" fill="#FFFFFF" points="109.224,58.306 114.255,58.306 114.255,53.883 
	109.224,53.883 109.224,58.306 109.224,58.306 "/>
<polygon fill-rule="evenodd" clip-rule="evenodd" fill="#FFFFFF" points="109.224,79.379 114.255,79.379 114.255,59.813 
	109.224,59.813 109.224,79.379 109.224,79.379 "/>
<path fill-rule="evenodd" clip-rule="evenodd" fill="#FFFFFF" d="M102.296,61.422c-1.576-1.017-3.439-1.609-5.438-1.609
	c-0.017,0-0.035,0-0.05,0c-5.524,0.034-10.013,4.539-10.013,10.062c0,5.523,4.489,10.028,10.013,10.063c0.015,0,0.033,0,0.05,0
	c1.999,0,3.862-0.595,5.438-1.61l0,0v1.052h4.624v-9.504V53.782h-4.624V61.422L102.296,61.422L102.296,61.422z M102.296,70.925
	c-0.491,2.542-2.745,4.49-5.438,4.49c-0.017,0-0.035,0-0.05,0c-3.032-0.033-5.489-2.507-5.489-5.54s2.457-5.506,5.489-5.522
	c0.015,0,0.033,0,0.05,0c2.693,0,4.947,1.931,5.438,4.473l0,0V70.925L102.296,70.925L102.296,70.925z"/>
<polygon fill-rule="evenodd" clip-rule="evenodd" fill="#FFFFFF" points="131.532,53.782 126.079,44.669 112.68,22.377 
	96.809,31.931 96.265,32.253 96.809,33.151 109.208,53.782 126.079,53.782 131.532,53.782 131.532,53.782 "/>
</svg>
