<?xml version="1.0" encoding="utf-8"?>
<!-- Generator: Adobe Illustrator 16.0.0, SVG Export Plug-In . SVG Version: 6.00 Build 0)  -->
<!DOCTYPE svg PUBLIC "-//W3C//DTD SVG 1.1//EN" "http://www.w3.org/Graphics/SVG/1.1/DTD/svg11.dtd">
<svg version="1.1" id="Layer_10" xmlns="http://www.w3.org/2000/svg" xmlns:xlink="http://www.w3.org/1999/xlink" x="0px" y="0px"
	 width="241.553px" height="70.525px" viewBox="0 0 241.553 70.525" enable-background="new 0 0 241.553 70.525"
	 xml:space="preserve">
<g>
	<path fill="#FFFFFF" d="M92.659,14.734c0-5.949-12.231-9.989-16.162-1.145c-3.058-6.88-12.722-6.652-15.354,0.054l0.001-3.512
		c0-0.532-0.486-1.02-1.021-1.02h-5.487c-0.533,0-1.019,0.487-1.019,1.02v29.684c0,0.533,0.486,1.021,1.019,1.021h5.897
		c0.535,0,1.004-0.488,1.004-1.021V20.992c0-2.125,0.898-4.522,3.148-5.018c2.475-0.55,4.494,0.818,4.494,3.677l-0.001,20.165
		c0,0.533,0.486,1.021,1.019,1.021h5.997c0.535,0,1.021-0.488,1.021-1.021v-20c0-4.536,7.546-5.708,7.546,0v20
		c0,0.533,0.486,1.021,1.019,1.021h5.861c0.533,0,1.019-0.488,1.019-1.021V14.734z"/>
	<path fill="#FFFFFF" d="M151.308,10.181c0-0.533-0.486-1.016-1.019-1.016H130.89c-0.268,0-0.536,0.112-0.726,0.3
		c-0.189,0.191-0.273,0.456-0.273,0.724v4.125c0,0.527,0.514,1.001,1.045,1.001h10.197l-11.618,17.012
		c-0.665,0.971-0.551,1.575-0.551,1.776l0.01,4.732c0,1.016,0.377,1.467,1.542,0.975c7.104-3.001,14.674-3.18,20.379,0.233
		c0.468,0.282,1.032-0.022,1.032-0.818v-5.314c0-0.345-0.187-0.68-0.477-0.859c-3.295-2.08-7.487-2.635-11.556-2.572l10.862-15.097
		c0.521-0.725,0.55-1.499,0.55-1.709V10.181z"/>
	<path fill="#FFFFFF" d="M172.482,25.014c0,5.752-0.206,10.414-4.537,10.414c-4.125,0-4.537-4.662-4.537-10.414
		c0-5.753,0.343-10.485,4.537-10.418C172.001,14.663,172.482,19.261,172.482,25.014z M181.213,24.911
		c-0.003-9.466-5.559-16.658-13.268-16.569c-7.751,0.089-13.278,7.363-13.269,16.636c0.01,9.506,5.648,16.779,13.405,16.569
		C175.807,41.336,181.218,34.103,181.213,24.911z"/>
	<path fill="#FFFFFF" d="M209.43,16.935c0-4.706-2.848-8.593-9.517-8.387c-3.093,0.094-5.506,2.447-6.846,5.774v-4.276
		c0-0.537-0.486-1.021-1.019-1.021h-5.691c-0.533,0-1.02,0.483-1.02,1.021v29.796c0,0.532,0.486,1.016,1.02,1.016h5.952
		c0.533,0,1.02-0.483,1.02-1.016V21.126c0-2.787,2.387-5.14,4.591-5.225c1.815-0.067,3.632,1.677,3.632,3.646v20.295
		c0,0.532,0.486,1.016,1.019,1.016h5.841c0.533,0,1.021-0.483,1.019-1.016V16.935z"/>
	<path fill="#FFFFFF" d="M114.944,25.452v3.86c0,2.992-1.985,5.542-3.627,6.034c-3.235,0.975-5.334-1.539-5.256-4.218
		c0.101-3.386,3.078-5.453,5.593-5.547L114.944,25.452z M122.957,16.304c0-5.005-4.333-8.194-12.724-7.899
		c-5.125,0.179-9.999,2.084-11.256,8.275c-0.057,0.277,0.007,0.577,0.172,0.805c0.166,0.228,0.429,0.38,0.709,0.412l5.228,0.599
		c0.501,0.053,1.014-0.318,1.114-0.81c0.377-1.951,1.858-3.395,4.033-3.395c3.239,0,4.641,1.668,4.641,3.878v2.894l-6.457,0.492
		c-5.46,0.417-10.544,3.977-10.651,10.799c-0.097,6.28,4.075,9.273,9.768,8.982c3.39-0.18,6.347-1.629,8.589-4.125l3.224,3.587
		c0.181,0.202,0.445,0.327,0.719,0.336c0.271,0.008,0.546-0.094,0.742-0.282l4.195-4.008c0.352-0.34,0.407-0.939,0.122-1.333
		l-1.543-2.032c-0.313-0.411-0.625-2.245-0.625-3.287V16.304z"/>
	<path fill="#FFFFFF" d="M38.606,25.448v3.855c0,2.993-1.985,5.542-3.627,6.035c-3.235,0.974-5.334-1.539-5.256-4.219
		c0.101-3.386,3.08-5.448,5.594-5.547L38.606,25.448z M46.618,16.295c0-5.006-4.331-8.195-12.724-7.9
		c-5.124,0.179-9.999,2.084-11.256,8.28c-0.057,0.272,0.008,0.572,0.172,0.801c0.166,0.228,0.431,0.384,0.71,0.416l5.226,0.595
		c0.501,0.059,1.014-0.312,1.114-0.81c0.377-1.95,1.858-3.391,4.033-3.391c3.239,0,4.641,1.665,4.641,3.874v2.899l-6.458,0.487
		c-5.46,0.416-10.542,3.977-10.649,10.798c-0.099,6.285,4.073,9.278,9.767,8.982c3.391-0.174,6.347-1.624,8.588-4.125l3.224,3.588
		c0.181,0.201,0.448,0.326,0.719,0.34c0.273,0.008,0.546-0.095,0.742-0.282l4.195-4.013c0.352-0.335,0.407-0.939,0.122-1.333
		l-1.543-2.026c-0.313-0.416-0.625-2.25-0.625-3.292V16.295z"/>
</g>
<g>
	<path fill="#FFFFFF" d="M140.077,58.805c-1.194,2.854,1.714,0.992,2.072,0.666c3.922-3.553,6.809-14.211,5.033-15.84
		c-2.24-2.048-12.638-2.031-17.246,1.333c-1.925,1.408-0.846,1.682,1.185,1.557c3.552-0.224,6.746-0.457,9.474-0.224
		c2.59,0.224,2.737,1.484,2.072,4.218C141.895,53.691,141.409,55.623,140.077,58.805z"/>
	<path fill="#FFFFFF" d="M135.816,50.221c-26.825,10.953-57.776,9.434-83.235-3.991c-0.352-0.183-1.598-0.899-3.021-1.61
		c-1.111-0.554-1.322-0.371-1.501-0.174c-0.25,0.269-0.154,0.756,0.24,1.114c14.952,13.469,32.927,19.945,52.551,19.096
		c14.979-0.652,28.939-6.145,36.933-11.992c1.178-0.863,1.602-1.986,1.109-2.514C138.39,49.607,137.062,49.711,135.816,50.221z"/>
</g>
</svg>
