<?xml version="1.0" encoding="utf-8"?>
<!-- Generator: Adobe Illustrator 16.0.0, SVG Export Plug-In . SVG Version: 6.00 Build 0)  -->
<!DOCTYPE svg PUBLIC "-//W3C//DTD SVG 1.1//EN" "http://www.w3.org/Graphics/SVG/1.1/DTD/svg11.dtd">
<svg version="1.1" id="Layer_7" xmlns="http://www.w3.org/2000/svg" xmlns:xlink="http://www.w3.org/1999/xlink" x="0px" y="0px"
	 width="241.553px" height="99.266px" viewBox="0 0 241.553 99.266" enable-background="new 0 0 241.553 99.266"
	 xml:space="preserve">
<g>
	<g>
		<g>
			<path fill-rule="evenodd" clip-rule="evenodd" fill="#FFFFFF" d="M51.513,75.892c0.553,1.351,0.625,1.554,1.229,1.925
				c0.516,0.31,0.953,0.31,0.953,0.512c0,0.127-0.075,0.142-0.437,0.142c-0.626,0-1.047-0.072-2.331-0.072h-2.198
				c-0.165,0-0.277-0.014-0.277-0.252c0-0.207,0.169-0.297,0.478-0.331c0.421-0.04,0.773-0.151,0.773-0.478
				c0-0.184-0.115-0.404-0.19-0.66l-0.746-2.437c-0.037-0.133-0.092-0.187-0.494-0.187c-0.458,0-1.066-0.071-2.329-0.071
				c-0.459,0-0.627,0.237-0.918,0.972c-0.328,0.768-0.844,1.811-0.844,2.234c0,0.529,0.425,0.586,0.862,0.626
				c0.186,0.016,0.552,0.069,0.552,0.346c0,0.236-0.165,0.308-0.57,0.308c-0.217,0-0.586-0.072-1.263-0.072
				c-0.733,0-1.283,0.072-2.089,0.072c-0.184,0-0.314-0.015-0.314-0.142c0-0.314,0.514-0.238,0.973-0.512
				c0.368-0.219,0.641-0.537,0.806-0.881l3.136-6.704c0.715-1.525,1.155-2.809,1.576-3.925h0.223L51.513,75.892L51.513,75.892
				L51.513,75.892z M47.278,70.096c-0.033-0.088-0.107-0.088-0.146-0.088c-0.073,0-0.16,0.111-0.219,0.256l-1.004,2.273
				c-0.076,0.181-0.151,0.351-0.151,0.492c0,0.129,0.717,0.148,1.322,0.148c0.713,0,1.246,0,1.246-0.111
				c0-0.072-0.018-0.145-0.037-0.2L47.278,70.096L47.278,70.096z"/>
			<path fill-rule="evenodd" clip-rule="evenodd" fill="#FFFFFF" d="M61.726,73.911c0.18,0.422,0.399,0.822,0.533,0.822
				c0.165,0,0.475-0.878,0.289-0.437l2.384-6.012c0.35-0.885,0.514-1.101,1.339-1.101h2.82c0.333,0,0.365,0.076,0.365,0.273
				c0,0.187-0.069,0.317-0.819,0.388c-0.917,0.088-1.065,0.125-1.065,0.803v7.914c0,0.778,0.22,1.087,0.99,1.255
				c0.623,0.124,0.918,0.274,0.918,0.384c0,0.234-0.094,0.312-0.626,0.312c-0.461,0-1.466-0.113-2.125-0.113
				c-0.699,0-1.56,0.035-2.493,0.035c-0.221,0-0.293-0.014-0.293-0.252c0-0.242,0.216-0.333,0.714-0.366
				c0.66-0.06,0.751-0.276,0.751-0.497v-7.225c0-0.366-0.022-0.493-0.073-0.493c-0.095,0-0.274,0.37-0.532,1.026l-2.968,7.35
				c-0.058,0.148-0.128,0.169-0.258,0.169c-0.143,0-0.205-0.093-0.31-0.35l-3.156-7.228c-0.146-0.338-0.415-0.928-0.529-0.928
				c-0.089,0-0.089,0.105-0.089,0.183l-0.077,5.806c-0.019,1.801,0.166,2.114,0.791,2.187c1.006,0.106,1.172,0.144,1.172,0.418
				c0,0.236-0.147,0.236-0.569,0.236c-0.348,0-1.064-0.072-1.999-0.072c-0.805,0-1.225,0.072-1.688,0.072
				c-0.309,0-0.418-0.015-0.418-0.236c0-0.274,0.07-0.364,0.844-0.418c0.494-0.04,0.806-0.201,0.862-1.373l0.401-7.569
				c0.038-0.704-0.126-0.905-1.045-1.03c-0.729-0.113-0.772-0.201-0.772-0.421c0-0.164,0.042-0.273,0.39-0.273
				c0.309,0,1.044,0.11,1.521,0.11c0.588,0,1.043-0.076,1.228-0.076c0.734,0,0.785,0.051,0.865,0.216L61.726,73.911L61.726,73.911z"
				/>
			<path fill-rule="evenodd" clip-rule="evenodd" fill="#FFFFFF" d="M72.297,68.908c0-0.445,0-1.047-0.585-1.104
				c-0.934-0.091-1.01-0.16-1.01-0.362c0-0.224,0.076-0.258,0.369-0.258c0.789,0,1.615,0.076,3.85,0.076
				c1.172,0,2.417-0.076,3.991-0.076c0.372,0,0.408,0.034,0.408,1.523c0,0.693,0,1.118-0.275,1.118
				c-0.296,0-0.312-0.533-0.679-1.139c-0.33-0.552-1.356-0.805-2.912-0.805c-0.806,0-0.845,0.052-0.845,1.063v2.843
				c0,0.366,0.075,0.492,1.172,0.492c1.044,0,1.288-0.238,1.522-0.604c0.292-0.441,0.44-1.028,0.711-1.028
				c0.28,0,0.259,0.479,0.259,0.533c0,0.425-0.149,1.408-0.149,2.107c0,0.751,0.08,1.084,0.08,1.231
				c0,0.162-0.058,0.251-0.279,0.251c-0.218,0-0.255-0.068-0.455-0.934c-0.133-0.548-0.514-0.935-2.128-0.935
				c-0.677,0-0.751,0.094-0.751,0.553v3.521c0,0.675,0.879,0.803,1.723,0.803c0.77,0,1.022-0.128,1.393-0.331
				c1.279-0.712,1.279-1.831,1.702-1.831c0.237,0,0.237,0.181,0.237,0.347c0,0.257-0.221,0.974-0.292,1.417
				c-0.072,0.399-0.203,1.093-0.349,1.093c-1.571,0-2.272-0.072-2.983-0.072h-3.925c-0.9,0-1.158,0.072-1.305,0.072
				c-0.235,0-0.421-0.051-0.421-0.271c0-0.368,0.406-0.368,0.55-0.384c1.211-0.151,1.375-0.201,1.375-2.034V68.908L72.297,68.908z"
				/>
			<path fill-rule="evenodd" clip-rule="evenodd" fill="#FFFFFF" d="M82.73,68.668c0-0.55-0.313-0.788-0.644-0.823
				c-1.044-0.113-1.098-0.132-1.098-0.35c0-0.26,0.091-0.312,0.361-0.312c0.797,0,2.588,0.076,2.938,0.076
				c0.293,0,2.035-0.076,2.82-0.076c1.615,0,3.542,0.644,3.542,2.586c0,2.382-2.188,2.438-2.188,2.803
				c0,0.145,0.056,0.237,0.169,0.422l2.307,3.961c0.313,0.511,0.735,0.789,1.12,0.895c0.729,0.205,0.808,0.219,0.808,0.351
				c0,0.146-0.021,0.199-0.183,0.199h-3.248c-0.127,0-0.271-0.053-0.344-0.199c-0.336-0.684-0.699-1.373-0.809-1.597
				c-1.687-3.392-2.089-3.647-2.766-3.647c-0.552,0-0.621,0.072-0.621,1.52v2.033c0,0.936,0.161,1.267,0.524,1.307
				c1.07,0.106,1.247,0.183,1.247,0.401c0,0.202-0.091,0.253-0.293,0.253c-0.642,0-1.023-0.072-2.636-0.072h-2.513
				c-0.344,0-0.401-0.014-0.401-0.217c0-0.242,0.166-0.333,0.567-0.366c0.352-0.04,1.209-0.073,1.209-0.843
				c0-0.37,0.131-0.977,0.131-4.086V68.668L82.73,68.668L82.73,68.668z M84.896,71.981c0,0.353,0.086,0.387,0.325,0.387
				c1.63,0,3.264-0.09,3.264-2.303c0-1.985-1.797-2.291-2.956-2.291c-0.564,0-0.633,0.421-0.633,1.259V71.981L84.896,71.981z"/>
			<path fill-rule="evenodd" clip-rule="evenodd" fill="#FFFFFF" d="M95.577,68.875c0-0.757-0.128-0.995-0.878-1.03
				c-0.459-0.018-0.549-0.113-0.549-0.333c0-0.221,0.09-0.329,0.515-0.329c0.438,0,0.933,0.076,1.833,0.076
				c1.483,0,1.701-0.076,2.31-0.076c0.442,0,0.512,0.051,0.512,0.216c0,0.172-0.146,0.301-0.569,0.333
				c-0.929,0.072-1.007,0.186-1.007,0.882v8.066c0,0.948,0.33,0.986,0.992,1.137c0.383,0.086,0.604,0.144,0.604,0.438
				c0,0.166-0.034,0.217-0.422,0.217c-0.499,0-1.412-0.072-2.746-0.072c-1.053,0-1.617,0.072-2.129,0.072
				c-0.281,0-0.313-0.125-0.313-0.345c0-0.255,0.075-0.276,0.807-0.31c0.623-0.04,1.041-0.06,1.041-1.449V68.875L95.577,68.875z"/>
			<path fill-rule="evenodd" clip-rule="evenodd" fill="#FFFFFF" d="M100.307,73.011c0-4.471,3.519-6.087,6.252-6.087
				c1.411,0,3.22,0.425,3.305,0.956c0.039,0.238,0.109,1.246,0.109,1.411c0,0.134-0.034,0.223-0.232,0.223
				c-0.487,0-1.166-2.037-3.234-2.037c-1.954,0-3.867,2.067-3.867,5.186c0,4.746,2.786,5.373,3.639,5.373
				c2.386,0,3.118-2.457,3.515-2.457c0.126,0,0.196,0.169,0.196,0.313c0,0.198-0.248,1.448-0.331,1.828
				c-0.174,0.751-2.455,1.009-3.255,1.009C103.438,78.729,100.307,76.533,100.307,73.011L100.307,73.011z"/>
			<path fill-rule="evenodd" clip-rule="evenodd" fill="#FFFFFF" d="M121.258,75.892c0.554,1.351,0.626,1.554,1.233,1.925
				c0.508,0.31,0.951,0.31,0.951,0.512c0,0.127-0.073,0.142-0.443,0.142c-0.621,0-1.041-0.072-2.326-0.072h-2.196
				c-0.167,0-0.277-0.014-0.277-0.252c0-0.207,0.161-0.297,0.478-0.331c0.419-0.04,0.769-0.151,0.769-0.478
				c0-0.184-0.111-0.404-0.186-0.66l-0.746-2.437c-0.038-0.133-0.101-0.187-0.498-0.187c-0.462,0-1.064-0.071-2.329-0.071
				c-0.452,0-0.622,0.237-0.912,0.972c-0.338,0.768-0.848,1.811-0.848,2.234c0,0.529,0.425,0.586,0.862,0.626
				c0.183,0.016,0.549,0.069,0.549,0.346c0,0.236-0.165,0.308-0.563,0.308c-0.222,0-0.591-0.072-1.271-0.072
				c-0.728,0-1.283,0.072-2.086,0.072c-0.187,0-0.314-0.015-0.314-0.142c0-0.314,0.514-0.238,0.973-0.512
				c0.367-0.219,0.641-0.537,0.806-0.881l3.132-6.704c0.717-1.525,1.161-2.809,1.583-3.925h0.22L121.258,75.892L121.258,75.892
				L121.258,75.892z M117.023,70.096c-0.034-0.088-0.107-0.088-0.144-0.088c-0.07,0-0.164,0.111-0.217,0.256l-1.011,2.273
				c-0.073,0.181-0.149,0.351-0.149,0.492c0,0.129,0.719,0.148,1.319,0.148c0.719,0,1.25,0,1.25-0.111c0-0.072-0.017-0.145-0.04-0.2
				L117.023,70.096L117.023,70.096z"/>
			<path fill-rule="evenodd" clip-rule="evenodd" fill="#FFFFFF" d="M126.208,68.997c0-0.841-0.216-0.967-1.479-1.152
				c-0.26-0.041-0.295-0.071-0.295-0.333c0-0.125,0.035-0.252,0.295-0.252c2.6,0,3.001-0.025,3.7-0.076l4.436,5.424
				c1.355,1.651,2,2.162,2.252,2.418c0.076,0.078,0.109,0.095,0.145,0.095c0.056,0,0.098-0.037,0.098-0.076v-5.88
				c0-1.118-0.133-1.248-1.47-1.321c-0.328-0.018-0.38-0.09-0.38-0.316c0-0.217,0.052-0.379,0.473-0.379
				c0.424,0,1.12,0.067,1.702,0.067c0.99,0,1.504-0.067,1.798-0.067s0.419,0.067,0.419,0.292c0,0.184-0.031,0.22-1.004,0.403
				c-0.495,0.088-0.568,0.289-0.622,1.281c-0.095,1.778-0.144,3.849-0.144,5.958v3.645c0,0.295-0.098,0.37-0.207,0.37
				c-0.329,0-0.53-0.534-1.359-1.471l-7.474-8.395c-0.038-0.037-0.114-0.014-0.114,0.04v3.391c0,1.447,0.076,2.602,0.076,3.705
				c0,0.9,0.215,1.185,1.375,1.449c0.511,0.106,0.692,0.198,0.692,0.346c0,0.308-0.182,0.308-0.507,0.308
				c-0.663,0-1.305-0.072-1.986-0.072c-0.766,0-1.242,0.072-1.751,0.072c-0.313,0-0.551,0-0.551-0.271
				c0-0.201,0.218-0.351,0.749-0.384c0.68-0.06,0.99-0.168,1.008-1.177c0.021-1.01,0.125-3.773,0.125-3.994V68.997L126.208,68.997z"
				/>
		</g>
		<g>
			<path fill-rule="evenodd" clip-rule="evenodd" fill="#FFFFFF" d="M145.674,68.908c0-0.445,0-1.047-0.579-1.104
				c-0.942-0.091-1.016-0.16-1.016-0.362c0-0.224,0.073-0.258,0.368-0.258c0.789,0,1.608,0.076,3.854,0.076
				c1.172,0,2.414-0.076,3.991-0.076c0.37,0,0.407,0.034,0.407,1.523c0,0.693,0,1.118-0.278,1.118c-0.294,0-0.312-0.533-0.677-1.139
				c-0.331-0.552-1.357-0.805-2.918-0.805c-0.803,0-0.836,0.052-0.836,1.063v2.843c0,0.366,0.07,0.492,1.167,0.492
				c1.05,0,1.29-0.238,1.522-0.604c0.291-0.441,0.439-1.028,0.714-1.028s0.261,0.479,0.261,0.533c0,0.425-0.153,1.408-0.153,2.107
				c0,0.751,0.079,1.084,0.079,1.231c0,0.162-0.058,0.251-0.274,0.251c-0.222,0-0.26-0.068-0.46-0.934
				c-0.131-0.548-0.515-0.935-2.127-0.935c-0.678,0-0.754,0.094-0.754,0.553v3.521c0,0.675,0.881,0.803,1.727,0.803
				c0.769,0,1.023-0.128,1.393-0.331c1.281-0.712,1.281-1.831,1.705-1.831c0.236,0,0.236,0.181,0.236,0.347
				c0,0.257-0.221,0.974-0.293,1.417c-0.07,0.399-0.202,1.093-0.346,1.093c-1.58,0-2.273-0.072-2.99-0.072h-3.918
				c-0.9,0-1.157,0.072-1.307,0.072c-0.234,0-0.42-0.051-0.42-0.271c0-0.368,0.4-0.368,0.549-0.384
				c1.211-0.151,1.373-0.201,1.373-2.034V68.908L145.674,68.908z"/>
			<path fill-rule="evenodd" clip-rule="evenodd" fill="#FFFFFF" d="M164.296,75.892c0.552,1.351,0.626,1.554,1.231,1.925
				c0.512,0.31,0.955,0.31,0.955,0.512c0,0.127-0.078,0.142-0.443,0.142c-0.623,0-1.046-0.072-2.323-0.072h-2.204
				c-0.164,0-0.273-0.014-0.273-0.252c0-0.207,0.168-0.297,0.477-0.331c0.424-0.04,0.77-0.151,0.77-0.478
				c0-0.184-0.107-0.404-0.184-0.66l-0.753-2.437c-0.036-0.133-0.09-0.187-0.493-0.187c-0.457,0-1.066-0.071-2.327-0.071
				c-0.459,0-0.624,0.237-0.915,0.972c-0.332,0.768-0.845,1.811-0.845,2.234c0,0.529,0.423,0.586,0.862,0.626
				c0.182,0.016,0.55,0.069,0.55,0.346c0,0.236-0.167,0.308-0.567,0.308c-0.223,0-0.588-0.072-1.264-0.072
				c-0.733,0-1.285,0.072-2.096,0.072c-0.178,0-0.309-0.015-0.309-0.142c0-0.314,0.511-0.238,0.973-0.512
				c0.363-0.219,0.642-0.537,0.807-0.881l3.134-6.704c0.714-1.525,1.153-2.809,1.574-3.925h0.222L164.296,75.892L164.296,75.892
				L164.296,75.892z M160.068,70.096c-0.039-0.088-0.113-0.088-0.148-0.088c-0.074,0-0.168,0.111-0.217,0.256l-1.012,2.273
				c-0.074,0.181-0.149,0.351-0.149,0.492c0,0.129,0.717,0.148,1.325,0.148c0.711,0,1.242,0,1.242-0.111
				c0-0.072-0.018-0.145-0.035-0.2L160.068,70.096L160.068,70.096z"/>
			<path fill-rule="evenodd" clip-rule="evenodd" fill="#FFFFFF" d="M176.863,77.467c-0.016,0.474-2.332,1.262-4.354,1.262
				c-2.954,0-6.125-1.592-6.125-5.718c0-3.922,2.834-6.087,6.354-6.087c1.412,0,3.572,0.259,3.588,1.008
				c0.016,0.587,0.105,1.157,0.105,1.741c0,0.118-0.07,0.167-0.209,0.167c-0.16,0-0.193-0.036-0.439-0.567
				c-0.484-1.078-1.373-1.795-2.887-1.795c-2.652,0-4.321,2.326-4.321,5.517c0,3.224,2.366,5.041,4.003,5.041
				c2.057,0,2.405-0.203,2.405-3.112c0-0.938-0.049-1.195-0.887-1.247c-1.151-0.074-1.166-0.096-1.166-0.334
				c0-0.201,0.088-0.26,0.435-0.26h2.84c0.729,0,1.303-0.071,1.604-0.071c0.314,0,0.537,0,0.537,0.276
				c0,0.183-0.068,0.256-0.766,0.39c-0.504,0.084-0.646,0.234-0.662,1.131L176.863,77.467L176.863,77.467z"/>
			<path fill-rule="evenodd" clip-rule="evenodd" fill="#FFFFFF" d="M180.875,68.484c0-0.146-0.262-0.64-0.979-0.64
				c-0.637,0-0.73-0.184-0.73-0.367c0-0.204,0.115-0.294,0.328-0.294c0.811,0,1.615,0.076,2.426,0.076
				c0.805,0,1.609-0.076,2.414-0.076c0.387,0,0.516,0.034,0.516,0.345c0,0.132-0.115,0.275-0.404,0.316
				c-0.916,0.108-1.412,0.203-1.412,0.675v8.195c0,0.935,0.09,1.03,0.514,1.03h1.287c2.787,0,3.189-1.997,3.609-1.997
				c0.125,0,0.25,0.048,0.25,0.395c0,0.625-0.326,2.329-0.66,2.329c-1.42,0-3.975-0.072-5.275-0.072
				c-0.824,0-2.012,0.072-3.025,0.072c-0.473,0-0.658,0-0.658-0.308c0-0.292,0.57-0.313,1.178-0.419
				c0.564-0.095,0.623-0.191,0.623-2.205V68.484L180.875,68.484z"/>
			<path fill-rule="evenodd" clip-rule="evenodd" fill="#FFFFFF" d="M191.426,68.908c0-0.445,0-1.047-0.584-1.104
				c-0.936-0.091-1.008-0.16-1.008-0.362c0-0.224,0.072-0.258,0.365-0.258c0.789,0,1.619,0.076,3.855,0.076
				c1.168,0,2.416-0.076,3.99-0.076c0.367,0,0.406,0.034,0.406,1.523c0,0.693,0,1.118-0.275,1.118c-0.293,0-0.314-0.533-0.684-1.139
				c-0.33-0.552-1.352-0.805-2.908-0.805c-0.805,0-0.84,0.052-0.84,1.063v2.843c0,0.366,0.07,0.492,1.17,0.492
				c1.043,0,1.281-0.238,1.518-0.604c0.293-0.441,0.443-1.028,0.719-1.028c0.27,0,0.256,0.479,0.256,0.533
				c0,0.425-0.146,1.408-0.146,2.107c0,0.751,0.07,1.084,0.07,1.231c0,0.162-0.053,0.251-0.279,0.251
				c-0.215,0-0.248-0.068-0.453-0.934c-0.127-0.548-0.514-0.935-2.123-0.935c-0.684,0-0.75,0.094-0.75,0.553v3.521
				c0,0.675,0.879,0.803,1.719,0.803c0.773,0,1.027-0.128,1.393-0.331c1.285-0.712,1.285-1.831,1.707-1.831
				c0.234,0,0.234,0.181,0.234,0.347c0,0.257-0.215,0.974-0.291,1.417c-0.074,0.399-0.201,1.093-0.35,1.093
				c-1.574,0-2.273-0.072-2.982-0.072h-3.926c-0.898,0-1.158,0.072-1.299,0.072c-0.24,0-0.426-0.051-0.426-0.271
				c0-0.368,0.402-0.368,0.551-0.384c1.211-0.151,1.371-0.201,1.371-2.034V68.908L191.426,68.908z"/>
		</g>
	</g>
	<g>
		<path fill-rule="evenodd" clip-rule="evenodd" fill="#FFFFFF" d="M78.601,83.929c3.216,0,5.358,2.296,5.358,4.751
			c0,2.453-2.142,4.757-5.358,4.757c-3.217,0-5.362-2.304-5.362-4.757C73.238,86.226,75.383,83.929,78.601,83.929L78.601,83.929
			L78.601,83.929z M78.601,92.93c1.917,0,3.281-1.594,3.281-4.249c0-3.044-1.365-4.25-3.281-4.25c-1.919,0-3.281,1.206-3.281,4.25
			C75.32,91.336,76.681,92.93,78.601,92.93L78.601,92.93z"/>
		<path fill-rule="evenodd" clip-rule="evenodd" fill="#FFFFFF" d="M86.192,85.419c0.016-0.449-0.056-0.667-0.455-0.667
			c-0.915,0-0.927-0.074-0.927-0.252c0-0.294,0.249-0.308,0.516-0.308h3.614c0.27,0,0.309,0.072,0.309,0.267
			c0,0.15-0.039,0.177-0.5,0.203c-0.721,0.016-0.814,0.061-0.825,1.319l-0.059,3.938c-0.045,2.483,0.974,2.956,2.631,2.956
			c1.473,0,2.879-0.561,2.905-2.212l0.075-4.978c0.018-0.546-0.046-0.785-0.992-1.023c-0.455-0.112-0.533-0.145-0.533-0.277
			c0-0.149,0.064-0.251,0.286-0.251c0.207,0,0.467,0.059,0.708,0.059h2.275c0.119,0,0.119,0.105,0.119,0.165
			c0,0.178-0.033,0.193-0.477,0.305c-0.631,0.182-0.827,0.355-0.843,1.023l-0.087,4.707c-0.046,2.1-1.252,3.045-3.72,3.045
			c-1.226,0-4.151-0.318-4.106-2.761L86.192,85.419L86.192,85.419z"/>
		<path fill-rule="evenodd" clip-rule="evenodd" fill="#FFFFFF" d="M104.196,84.398c1.415,0,0.928-0.681,1.327-0.681
			c0.119,0,0.179,0.092,0.179,0.417c0,2.125-0.091,2.274-0.285,2.274c-0.112,0-0.174-0.092-0.22-0.235
			c-0.22-0.948-0.514-1.213-2.57-1.213c-0.619,0-0.703,0.058-0.703,0.356v6.352c0,0.717,0.071,1.031,0.487,1.031
			c0.867,0,1.116,0.117,1.116,0.309c0,0.211-0.147,0.219-0.426,0.219c-0.456,0-1.548-0.055-2.007-0.055
			c-0.709,0-1.433,0.111-2.141,0.111c-0.299,0-0.326-0.064-0.326-0.187c0-0.324,0.768-0.194,1.211-0.397
			c0.166-0.075,0.338-0.59,0.338-0.842v-6.04c0-0.799-0.026-0.823-1.137-0.857c-2.138-0.059-2.199,1.626-2.686,1.626
			c-0.174,0-0.207-0.076-0.207-0.167c0-0.368,0.395-1.339,0.665-2.154c0.133-0.396,0.192-0.456,0.358-0.456
			c0.395,0-0.155,0.589,1.443,0.589H104.196L104.196,84.398z"/>
		<path fill-rule="evenodd" clip-rule="evenodd" fill="#FFFFFF" d="M109.736,87.812c0,0.267,0.104,0.364,0.587,0.364
			c1.462,0,1.815-0.293,1.962-0.571c0.221-0.428,0.24-0.755,0.446-0.755c0.219,0,0.267,0.03,0.267,1.819
			c0,1.347-0.021,1.397-0.255,1.397c-0.163,0-0.217-0.263-0.323-0.561c-0.146-0.423-0.37-0.825-1.755-0.825
			c-0.857,0-0.929,0.06-0.929,0.546v2.463c0,0.758,0.188,0.857,1.148,1.009c0.562,0.085,0.589,0.159,0.589,0.309
			c0,0.191-0.042,0.219-0.397,0.219c-0.721,0-1.43-0.055-2.154-0.055c-0.694,0-1.404,0.055-2.1,0.055
			c-0.188,0-0.248-0.086-0.248-0.245c0-0.209,0.1-0.252,0.928-0.282c0.209-0.015,0.398-0.075,0.398-0.625
			c0-2.209,0.091-4.44,0.091-6.654c0-0.565-0.178-0.742-0.608-0.757c-0.574-0.015-0.59-0.098-0.59-0.264
			c0-0.206,0.137-0.264,0.562-0.264c0.737,0,1.461,0.059,2.128,0.059c0.84,0,3.128-0.059,3.776-0.059
			c0.581,0,0.683,0.014,0.683,0.695c0,1.504-0.029,1.514-0.251,1.514c-0.193,0-0.205-0.512-0.411-0.869
			c-0.43-0.738-1.877-0.812-2.467-0.812c-0.931,0-1.076,0.044-1.076,0.975V87.812L109.736,87.812z"/>
		<path fill-rule="evenodd" clip-rule="evenodd" fill="#FFFFFF" d="M116.735,85.491c0-0.606-0.105-0.798-0.711-0.829
			c-0.367-0.015-0.442-0.086-0.442-0.264c0-0.174,0.076-0.264,0.414-0.264c0.357,0,0.758,0.059,1.474,0.059
			c1.199,0,1.375-0.059,1.861-0.059c0.354,0,0.416,0.042,0.416,0.174c0,0.137-0.119,0.242-0.459,0.269
			c-0.752,0.06-0.812,0.147-0.812,0.706v6.496c0,0.77,0.264,0.803,0.795,0.921c0.313,0.073,0.487,0.117,0.487,0.353
			c0,0.134-0.027,0.175-0.335,0.175c-0.403,0-1.14-0.055-2.218-0.055c-0.842,0-1.303,0.055-1.711,0.055
			c-0.222,0-0.251-0.106-0.251-0.275c0-0.209,0.058-0.222,0.647-0.252c0.501-0.028,0.846-0.045,0.846-1.167V85.491L116.735,85.491z"
			/>
		<path fill-rule="evenodd" clip-rule="evenodd" fill="#FFFFFF" d="M128.883,84.398c1.418,0,0.929-0.681,1.331-0.681
			c0.113,0,0.177,0.092,0.177,0.417c0,2.125-0.09,2.274-0.284,2.274c-0.115,0-0.178-0.092-0.219-0.235
			c-0.223-0.948-0.52-1.213-2.57-1.213c-0.62,0-0.709,0.058-0.709,0.356v6.352c0,0.717,0.075,1.031,0.49,1.031
			c0.868,0,1.12,0.117,1.12,0.309c0,0.211-0.146,0.219-0.426,0.219c-0.46,0-1.553-0.055-2.009-0.055
			c-0.71,0-1.432,0.111-2.141,0.111c-0.296,0-0.327-0.064-0.327-0.187c0-0.324,0.771-0.194,1.211-0.397
			c0.165-0.075,0.338-0.59,0.338-0.842v-6.04c0-0.799-0.026-0.823-1.133-0.857c-2.14-0.059-2.203,1.626-2.688,1.626
			c-0.18,0-0.206-0.076-0.206-0.167c0-0.368,0.397-1.339,0.662-2.154c0.133-0.396,0.193-0.456,0.354-0.456
			c0.399,0-0.148,0.589,1.445,0.589H128.883L128.883,84.398z"/>
		<path fill-rule="evenodd" clip-rule="evenodd" fill="#FFFFFF" d="M139.396,84.398c1.421,0,0.931-0.681,1.331-0.681
			c0.116,0,0.182,0.092,0.182,0.417c0,2.125-0.092,2.274-0.288,2.274c-0.119,0-0.176-0.092-0.217-0.235
			c-0.223-0.948-0.518-1.213-2.57-1.213c-0.625,0-0.707,0.058-0.707,0.356v6.352c0,0.717,0.071,1.031,0.485,1.031
			c0.869,0,1.122,0.117,1.122,0.309c0,0.211-0.149,0.219-0.431,0.219c-0.458,0-1.548-0.055-2.007-0.055
			c-0.705,0-1.426,0.111-2.14,0.111c-0.294,0-0.322-0.064-0.322-0.187c0-0.324,0.766-0.194,1.206-0.397
			c0.162-0.075,0.342-0.59,0.342-0.842v-6.04c0-0.799-0.033-0.823-1.136-0.857c-2.145-0.059-2.203,1.626-2.688,1.626
			c-0.174,0-0.203-0.076-0.203-0.167c0-0.368,0.399-1.339,0.663-2.154c0.134-0.396,0.189-0.456,0.356-0.456
			c0.395,0-0.149,0.589,1.445,0.589H139.396L139.396,84.398z"/>
		<path fill-rule="evenodd" clip-rule="evenodd" fill="#FFFFFF" d="M143.196,85.522c0-0.359,0-0.845-0.471-0.886
			c-0.757-0.072-0.817-0.136-0.817-0.297c0-0.176,0.061-0.206,0.297-0.206c0.636,0,1.303,0.059,3.1,0.059
			c0.945,0,1.953-0.059,3.223-0.059c0.292,0,0.32,0.03,0.32,1.223c0,0.559,0,0.902-0.221,0.902c-0.234,0-0.248-0.428-0.541-0.917
			c-0.271-0.441-1.096-0.648-2.352-0.648c-0.648,0-0.68,0.043-0.68,0.859v2.288c0,0.296,0.057,0.398,0.944,0.398
			c0.845,0,1.033-0.193,1.228-0.487c0.238-0.352,0.35-0.827,0.574-0.827c0.218,0,0.205,0.388,0.205,0.429
			c0,0.338-0.113,1.136-0.113,1.698c0,0.607,0.059,0.868,0.059,0.99c0,0.133-0.048,0.209-0.224,0.209
			c-0.179,0-0.206-0.065-0.37-0.757c-0.1-0.442-0.412-0.753-1.709-0.753c-0.549,0-0.606,0.076-0.606,0.443v2.835
			c0,0.546,0.71,0.651,1.384,0.651c0.623,0,0.832-0.105,1.123-0.268c1.036-0.577,1.036-1.479,1.373-1.479
			c0.197,0,0.197,0.149,0.197,0.284c0,0.205-0.183,0.778-0.238,1.132c-0.062,0.331-0.164,0.887-0.283,0.887
			c-1.27,0-1.828-0.055-2.406-0.055h-3.154c-0.729,0-0.935,0.055-1.053,0.055c-0.186,0-0.338-0.041-0.338-0.219
			c0-0.294,0.322-0.294,0.438-0.309c0.974-0.118,1.111-0.167,1.111-1.641V85.522L143.196,85.522z"/>
		<path fill-rule="evenodd" clip-rule="evenodd" fill="#FFFFFF" d="M151.701,85.331c0-0.446-0.256-0.638-0.52-0.669
			c-0.84-0.086-0.889-0.098-0.889-0.277c0-0.208,0.074-0.251,0.301-0.251c0.634,0,2.081,0.059,2.361,0.059
			c0.235,0,1.637-0.059,2.271-0.059c1.299,0,2.849,0.514,2.849,2.078c0,1.924-1.755,1.964-1.755,2.264
			c0,0.117,0.045,0.193,0.137,0.341l1.857,3.19c0.252,0.409,0.59,0.634,0.905,0.722c0.587,0.158,0.644,0.173,0.644,0.278
			c0,0.112-0.012,0.164-0.145,0.164h-2.616c-0.101,0-0.22-0.052-0.28-0.164c-0.266-0.549-0.557-1.107-0.65-1.282
			c-1.352-2.732-1.681-2.94-2.229-2.94c-0.442,0-0.502,0.06-0.502,1.231v1.636c0,0.751,0.136,1.019,0.427,1.047
			c0.855,0.085,1.009,0.147,1.009,0.326c0,0.16-0.076,0.201-0.238,0.201c-0.521,0-0.83-0.055-2.128-0.055h-2.021
			c-0.281,0-0.326-0.016-0.326-0.182c0-0.188,0.129-0.261,0.459-0.291c0.283-0.028,0.975-0.058,0.975-0.68
			c0-0.294,0.104-0.78,0.104-3.29V85.331L151.701,85.331L151.701,85.331z M153.441,88.008c0,0.278,0.074,0.31,0.265,0.31
			c1.313,0,2.636-0.079,2.636-1.865c0-1.598-1.449-1.843-2.383-1.843c-0.458,0-0.518,0.336-0.518,1.013V88.008L153.441,88.008z"/>
		<path fill-rule="evenodd" clip-rule="evenodd" fill="#FFFFFF" d="M166.216,85.981c0,0.16-0.058,0.23-0.188,0.23
			c-0.374,0-0.329-1.753-2.099-1.753c-1.328,0-1.715,0.856-1.715,1.535c0,1.639,4.682,1.405,4.682,4.599
			c0,1.042-0.502,2.845-3.323,2.845c-1.284,0-2.759-0.318-2.759-0.945c0-0.667,0.014-1.864,0.35-1.864
			c0.347,0,0.195,0.708,0.713,1.348c0.354,0.44,1.181,0.926,2.083,0.926c1.239,0,1.784-0.751,1.784-1.519
			c0-2.258-4.594-1.877-4.594-4.964c0-1.506,0.992-2.49,3.074-2.49c1.064,0,1.991,0.205,1.991,0.606V85.981L166.216,85.981z"/>
	</g>
	<g>
		<path fill-rule="evenodd" clip-rule="evenodd" fill="#FFFFFF" d="M88.065,10.674c0.231,1.215,0.129,2.766,1.042,3.3
			c0.008-1.683-0.72-5.329,0.434-6.601c0.088,1.766,0.212,3.494,1.129,4.429c0.104-1.832-0.469-4.869,0.955-5.818
			c-0.344,4.194,0.892,7.405,3.648,8.771c0.124-0.02-0.081-0.432,0-0.695c3.338,3.859,8.266,5.487,11.811,9.032
			c3.523,3.523,4.409,9.121,8.51,12.245c3.879-1.346,4.569-5.664,5.906-9.552c0.971-2.825,2.588-5.587,4.689-7.643
			c2.099-2.055,5.141-3.314,7.642-4.69c2.583-1.421,5.392-2.727,7.644-4.602c0.499-0.417,0.782-1.146,1.649-1.39
			c-0.051,1.748-1.482,2.858-2.171,4.256c1.573-0.376,2.806-1.522,3.995-2.519c0.627-0.527,1.205-1.039,1.736-1.65
			c0.504-0.58,0.835-1.364,1.562-1.737c0.07,2.105-1.248,3.507-2.431,4.689c-0.915,0.916-2.123,1.581-2.866,2.606
			c0.953,0.306,1.826-0.426,2.519-0.868c1.519-0.971,2.793-2.125,4.082-3.387c0.627-0.614,1.196-1.397,1.996-1.737
			c-0.271,3.606-3.401,5.108-5.298,7.382c2.299-0.513,4.492-2.339,6.254-3.387c-0.787,3.409-4.721,3.673-6.947,5.645
			c1.132,0.591,2.342-0.211,3.301-0.608c1.063-0.44,2.047-0.99,3.125-1.215c-0.371,3.217-4.49,3.44-6.774,5.037
			c1.448,0.619,3.169-0.62,4.69-0.782c-0.375,0.998-1.379,1.476-2.344,1.911c-0.996,0.447-2.225,0.459-2.953,1.216
			c0.23,0.683,1.252,0.183,1.822,0.173c-0.102,1.315-1.94,0.896-2.865,1.389c0.262,0.463,1.027,0.42,1.564,0.608
			c-0.391,1.376-3.27,0.262-3.91,1.39c0.189,0.506,1.092,0.299,1.564,0.521c-0.453,0.937-2.589,0.191-3.039,1.129
			c0.008,0.428,0.729,0.599,0.694,0.782c-0.294,0.777-2.24-0.097-2.432,0.782c0.04,0.336,0.39,0.363,0.607,0.521
			c-0.178,0.777-1.485,0.425-1.91,0.955c-0.108,0.503,0.521,0.367,0.608,0.435c0,0.783-0.864,0.699-1.128,1.216
			c-0.086,0.576,0.5,0.483,0.434,1.042c-0.397,0.082-1.033-0.053-1.13,0.521c0.103,0.535,0.585,0.688,0.435,1.477
			c-0.485-0.1-0.941-0.058-1.128,0.347c0.107,0.501,0.786,0.43,0.606,1.216c-0.408-0.117-0.984-0.121-1.042,0.347
			c0.134,0.677,1.027,0.595,0.869,1.563c-0.654-0.209-1.431-0.053-1.649,0.435c0.139,0.585,0.701,0.747,0.607,1.563
			c-0.232,0.168-0.518-0.346-0.867-0.087c-0.099,0.465,0.629,1.066,0.26,1.824c-0.44-0.081-0.516-0.526-1.129-0.435
			c-0.258,0.656,0.488,1.163,0.173,1.911c-0.22,0.087-0.784-0.418-1.128,0c0.018,0.706,0.352,1.096,0.262,1.911
			c-0.74,0.103-0.942-0.332-1.477-0.435c-0.25,0.42,0.202,1.172-0.087,1.65c-0.408,0.096-1.243-0.797-1.824-0.261
			c-0.203,0.586,0.454,0.655,0.262,0.956c-2.437,0.062-2.628-2.12-4.517-2.605c1.571,3.208,3.202,5.825,5.819,7.816
			c1.504,1.146,4.273,1.686,4.169,4.517c-0.907,0.019-0.902,0.95-1.824,0.956c-0.282,0.268-0.317,0.783-0.694,0.955
			c-0.466,0.03-0.716-0.154-1.044-0.261c-0.463,0.058-0.508,0.533-0.867,0.695c-1.055-0.597-1.56,0.63-2.347,0.695
			c-0.399,0.034-0.639-0.369-1.128-0.434c-0.54-0.073-1.125,0.397-1.564,0.347c-0.702-0.079-1.263-1.497-2.431-0.608
			c-0.522-0.115-0.498-0.775-0.956-0.955c-0.316-0.058-0.332,0.188-0.606,0.173c-0.354-0.218-0.67-0.765-1.303-0.434
			c-0.42-0.236-0.469-1.042-1.216-0.694c-0.119-0.229-0.103-0.592-0.174-0.87c-0.15-0.258-0.537,0.125-0.608-0.086
			c-0.417-2.15,2.583-2.942,1.737-4.95c-1.053,0.366-1.562,1.276-1.737,2.519c-0.332,0.042-0.272-0.307-0.435-0.435
			c-0.337,0.647-0.589,1.379-0.608,2.345c-0.28-0.184-0.388-0.538-0.521-0.869c-0.759,0.574-1.325,1.34-1.65,2.346
			c-0.263-0.2-0.139-0.789-0.521-0.87c-0.851,0.203-0.866,1.275-0.607,1.737c0.523,0.939,3.443,1.183,2.084,3.04
			c-0.177-0.314-0.232-0.752-0.521-0.955c-0.905,0.24-1.586-0.341-2.084-0.782c-1.768-0.117-2.914,0.387-3.04,1.911
			c-0.476-0.184-0.708-1.161-0.347-1.65c-0.581,0.027-0.929,0.287-1.042,0.781c-0.496-0.213-0.457-0.899-0.173-1.302
			c-0.677-0.081-0.822,0.777-1.216,0.695c-0.551-1.771,1.921-1.855,3.3-2.258c-0.148-0.569-0.631-0.312-1.129-0.521
			c-1.186-0.498-2.894-2.337-3.821-0.695c-0.506-0.347-0.162-1.216,0.174-1.476c-0.818-0.208-1.174,0.504-1.477,0.522
			c-0.044-0.71,0.292-1.04,0.608-1.391c-0.426-0.312-1.141-0.019-1.563,0.174c0.452-1.544,1.933-1.033,3.126-0.52
			c0.439,0.187,1.083,0.74,1.563,0.694c0.78-0.075,1.357-2.251,1.737-3.388c0.661-1.974,1.843-3.695,1.563-6.427
			c-0.218-2.128-1.718-3.342-3.821-2.691c-0.222,0.068-0.382,0.255-0.607,0.347c-0.972,0.396-2.461,0.091-3.213,0.869
			c-0.312-0.32,0.302-0.763-0.087-0.956c-0.686,0.154-0.841,0.839-0.956,1.563c-0.96-0.584-0.988-2.548-0.086-3.213
			c-0.085-1.323,0.385-2.03,1.216-2.692c1.222-0.974,4.045-1.391,4.255-2.519c0.258-1.384-1.705-3.743-2.345-4.429
			c-3.294-3.532-8.703-5.074-13.201-7.121c0.254-0.181,0.837-0.033,1.129-0.174c-0.739-0.881-2.017-1.224-2.518-2.345
			c0.382,0.023,0.671,0.138,1.128,0.087c-0.796-0.942-2.568-1.658-3.126-3.126c0.557-0.007,1.112,0.739,1.823,0.869
			c-1.451-1.385-2.683-3.959-2.691-6.688C87.628,12.306,87.65,11.221,88.065,10.674z M109.429,56.181
			c0.649,0.278,0.776,1.078,1.042,1.737c0.721-0.623,1.312-1.798,0.955-3.214C110.361,54.797,109.933,55.528,109.429,56.181z"/>
	</g>
</g>
</svg>
