<?xml version="1.0" encoding="utf-8"?>
<!-- Generator: Adobe Illustrator 16.0.0, SVG Export Plug-In . SVG Version: 6.00 Build 0)  -->
<!DOCTYPE svg PUBLIC "-//W3C//DTD SVG 1.1//EN" "http://www.w3.org/Graphics/SVG/1.1/DTD/svg11.dtd">
<svg version="1.1" id="Layer_14" xmlns="http://www.w3.org/2000/svg" xmlns:xlink="http://www.w3.org/1999/xlink" x="0px" y="0px"
	 width="241.553px" height="105.334px" viewBox="0 0 241.553 105.334" enable-background="new 0 0 241.553 105.334"
	 xml:space="preserve">
<path fill-rule="evenodd" clip-rule="evenodd" fill="#FFFFFF" d="M124.71,19.726c3.217-4.016,5.561-9.541,4.955-15.111
	c-4.805,0.176-10.528,3.17-13.938,7.212c-3.07,3.481-5.736,9.226-4.973,14.628C115.98,26.8,121.349,23.769,124.71,19.726
	L124.71,19.726z"/>
<path fill-rule="evenodd" clip-rule="evenodd" fill="#FFFFFF" d="M138.627,63.632H73.176l0.009-0.006h65.366v-0.143
	c-1.499-3.016-2.18-7.729-1.608-11.547v-0.143h0.005c0.599-4.999,3.82-10.115,6.394-11.971c0.031-0.021,0.066-0.049,0.102-0.076
	v-0.012h0.006l0,0c0.57-0.629,2.199-1.936,3.297-2.727c-4.059-5.973-10.705-9.194-17.473-9.297
	c-6.824-0.574-13.907,4.319-17.727,4.207c-3.695,0.112-9.277-4.305-15.167-4.025l-0.058-0.008c-0.133,0-1.193,0.059-1.193,0.059
	c-7.807,0.191-14.729,4.793-18.658,11.77v0.021h-0.023v-0.021c-1.555,2.514-3.42,8.373-3.698,12.08l0,0v0.198
	c-0.376,2.353-0.013,8.624,0.41,11.64l0,0c0.018,0.053,0.022,0.107,0.026,0.15l0.008-0.006c0.33,3.006,1.857,8.814,3.002,11.654
	v0.025h-0.007c1.099,3.139,4.168,9.025,6.149,12.035v0.021h0.021c4.001,5.746,8.713,12.203,14.924,11.926
	c6-0.229,8.209-3.986,15.436-3.928c7.224-0.059,9.223,3.748,15.552,3.775c6.454-0.277,10.453-6.02,14.457-11.773
	c1.959-2.965,5.035-8.67,6.123-12.057h0.014c0.123-0.357,0.305-0.908,0.434-1.309C145.053,72.944,140.293,67.354,138.627,63.632
	L138.627,63.632z"/>
</svg>
