<?xml version="1.0" encoding="utf-8"?>
<!-- Generator: Adobe Illustrator 16.0.0, SVG Export Plug-In . SVG Version: 6.00 Build 0)  -->
<!DOCTYPE svg PUBLIC "-//W3C//DTD SVG 1.1//EN" "http://www.w3.org/Graphics/SVG/1.1/DTD/svg11.dtd">
<svg version="1.1" id="Layer_5" xmlns="http://www.w3.org/2000/svg" xmlns:xlink="http://www.w3.org/1999/xlink" x="0px" y="0px"
	 width="241.553px" height="60.457px" viewBox="0 0 241.553 60.457" enable-background="new 0 0 241.553 60.457"
	 xml:space="preserve">
<g>
	<path fill-rule="evenodd" clip-rule="evenodd" fill="#FFFFFF" d="M37.763,16.396c-2.799-2.125-6.243-3.39-9.982-3.39
		c-8.96,0-16.225,7.264-16.225,16.225c0,8.96,7.265,16.224,16.225,16.224c3.756,0,7.21-1.274,9.96-3.417l1.812,2.189
		c-3.241,2.548-7.329,4.067-11.771,4.067c-10.528,0-19.063-8.535-19.063-19.063s8.535-19.064,19.063-19.064
		c4.549,0,8.725,1.592,12.056,4.25L37.763,16.396z"/>
	<rect x="70.528" y="10.167" fill-rule="evenodd" clip-rule="evenodd" fill="#FFFFFF" width="2.824" height="37.468"/>
	<polygon fill-rule="evenodd" clip-rule="evenodd" fill="#FFFFFF" points="87.727,49.287 76.079,24.319 79.381,24.319 
		87.727,42.442 96.073,24.319 99.374,24.319 	"/>
	<rect x="102.733" y="24.319" fill-rule="evenodd" clip-rule="evenodd" fill="#FFFFFF" width="2.824" height="23.315"/>
	<circle fill-rule="evenodd" clip-rule="evenodd" fill="#FFFFFF" cx="104.146" cy="11.922" r="1.705"/>
	<path fill-rule="evenodd" clip-rule="evenodd" fill="#FFFFFF" d="M110.651,47.635V24.319h2.823v2.056c0,0,1.812-2.835,6.612-2.835
		c4.802,0,9.398,4.012,9.398,9.193s0,14.902,0,14.902h-2.893c0,0,0-11.738,0-14.493c0-2.756-1.938-6.767-6.709-6.767
		c-4.772,0-6.409,4.244-6.409,5.949c0,1.704,0,15.311,0,15.311H110.651z"/>
	<polygon fill-rule="evenodd" clip-rule="evenodd" fill="#FFFFFF" points="143.041,10.167 143.041,47.635 145.632,47.635 
		145.632,31.544 148.455,28.721 161.846,47.635 165.284,47.635 150.296,26.375 165.352,10.167 161.573,10.167 145.632,27.182 
		145.632,10.167 	"/>
	<rect x="169.593" y="10.167" fill-rule="evenodd" clip-rule="evenodd" fill="#FFFFFF" width="2.823" height="37.468"/>
	<rect x="205.942" y="24.319" fill-rule="evenodd" clip-rule="evenodd" fill="#FFFFFF" width="2.824" height="23.315"/>
	<circle fill-rule="evenodd" clip-rule="evenodd" fill="#FFFFFF" cx="207.355" cy="11.922" r="1.705"/>
	<path fill-rule="evenodd" clip-rule="evenodd" fill="#FFFFFF" d="M214.002,47.635V24.319h2.823v2.056c0,0,1.812-2.835,6.613-2.835
		s9.397,4.012,9.397,9.193s0,14.902,0,14.902h-2.892c0,0,0-11.738,0-14.493c0-2.756-1.938-6.767-6.71-6.767
		s-6.409,4.244-6.409,5.949c0,1.704,0,15.311,0,15.311H214.002z"/>
	<path fill-rule="evenodd" clip-rule="evenodd" fill="#FFFFFF" d="M179.929,33.285c1.115-4.067,4.812-7.131,9.233-7.131
		c4.43,0,8.159,3.052,9.267,7.131H179.929z M201.532,35.749c0-6.839-5.531-12.376-12.37-12.376s-12.383,5.544-12.383,12.383
		c0,6.839,5.544,12.383,12.383,12.383c4.846,0,9.149-2.828,11.184-6.883l-2.532-1.219c-1.573,3.155-4.886,5.322-8.651,5.322
		c-5.878,0-9.413-4.467-9.597-9.609H201.532z"/>
	<path fill-rule="evenodd" clip-rule="evenodd" fill="#FFFFFF" d="M42.997,36.153c0-5.4,4.378-9.778,9.778-9.778
		c5.401,0,9.779,4.378,9.779,9.778s-4.378,9.779-9.779,9.779C47.375,45.932,42.997,41.554,42.997,36.153z M62.68,43.788
		c-2.283,2.949-5.886,4.847-9.904,4.847c-6.894,0-12.481-5.588-12.481-12.481s5.588-12.482,12.481-12.482
		c4.04,0,7.611,1.918,9.893,4.895v-4.247h2.629v23.315h-2.629L62.68,43.788z"/>
</g>
</svg>
