<?xml version="1.0" encoding="utf-8"?>
<!-- Generator: Adobe Illustrator 16.0.0, SVG Export Plug-In . SVG Version: 6.00 Build 0)  -->
<!DOCTYPE svg PUBLIC "-//W3C//DTD SVG 1.1//EN" "http://www.w3.org/Graphics/SVG/1.1/DTD/svg11.dtd">
<svg version="1.1" id="Layer_13" xmlns="http://www.w3.org/2000/svg" xmlns:xlink="http://www.w3.org/1999/xlink" x="0px" y="0px"
	 width="241.553px" height="60.457px" viewBox="0 0 241.553 60.457" enable-background="new 0 0 241.553 60.457"
	 xml:space="preserve">
<g>
	<path fill-rule="evenodd" clip-rule="evenodd" fill="#FFFFFF" d="M129.691,51.14c0.729,0.052,1.319,0.027,1.958-0.224
		c0.732-0.287,1.332-0.79,1.686-1.473c0.317-0.608,0.438-1.316,0.157-1.967c-0.301-0.697-0.961-1.114-1.701-1.236
		c-1.458-0.243-2.933,0.399-3.707,1.693C127.316,49.218,128.118,51.028,129.691,51.14L129.691,51.14L129.691,51.14z M129.894,55.165
		c3.569-0.163,7.636-1.749,8.995-5.482c0.02-0.055-0.019-0.071,0.042-0.089c0.062-0.017,0.081,0.072,0.071,0.126
		c-0.309,1.749-0.682,3.483-0.977,5.246c3.397,0.019,6.746,0,10.15,0.01c0.305-1.354,0.539-2.69,0.782-4.063
		c-1.577-0.056-3.058,0.019-4.638-0.036c0.521-2.899,1.1-5.732,1.627-8.639c-1.841-0.021-3.684-0.019-5.523-0.002
		c-0.335,1.826-0.688,3.621-1.024,5.429c-0.013,0.066-0.056,0.195-0.105,0.148c-0.051-0.046-0.007,0.029-0.004-0.053
		c0.14-4.271-4.335-5.94-7.833-5.728c-3.534,0.215-7.457,1.864-8.859,5.485c-0.055,0.142-0.144,0.117-0.117-0.025
		c0.339-1.775,0.666-3.479,1-5.255c-1.772-0.022-3.525-0.019-5.302-0.002c-0.328,1.453-0.521,2.837-0.845,4.279
		c-1.158-0.009-2.266,0.024-3.417-0.015c0.244-1.447,0.535-2.81,0.794-4.267c-3.58-0.022-7.087,0.009-10.688-0.016
		c-1.113,2.48-2.497,4.822-3.338,7.426c-0.052,0.165-0.209,0.167-0.224-0.007c-0.192-2.495-0.42-4.899-0.609-7.397
		c-1.43-0.038-2.787,0.009-4.246-0.024c-1.144,2.519-2.64,4.893-3.506,7.515c-0.036,0.105-0.177,0.119-0.185,0.008
		c-0.167-2.514-0.313-5.005-0.478-7.513c-1.929,0.013-3.781-0.02-5.714,0.016c0.963,4.25,1.948,8.474,2.926,12.737
		c1.584,0.009,3.056-0.025,4.678,0.015c1.039-2.248,2.426-4.403,3.125-6.754c0.026-0.086-0.003-0.205,0.135-0.199
		c0.131,0.006,0.126,0.1,0.131,0.188c0.123,2.249,0.285,4.471,0.41,6.741c1.613-0.012,3.245,0.059,4.852-0.035
		c2.337-3.846,4.662-7.593,7.019-11.46c0.078-0.127,0.172-0.059,0.145,0.086c-0.725,3.813-1.447,7.587-2.161,11.397
		c1.794,0.046,3.497,0.009,5.288,0.021c0.349-1.49,0.547-2.972,0.895-4.462c1.163,0.009,2.245-0.03,3.405,0.023
		c-0.248,1.511-0.562,2.91-0.815,4.423c1.776,0.031,3.498,0.008,5.287,0.013c0.352-1.597,0.607-3.192,0.938-4.788
		c0.025-0.126-0.008-0.279,0.066-0.368c0.055-0.065,0.049-0.271,0.1-0.229c0.034,0.027,0.013-0.034,0.011,0.039
		C122.101,53.815,126.484,55.322,129.894,55.165L129.894,55.165L129.894,55.165z"/>
	<path fill-rule="evenodd" clip-rule="evenodd" fill="#FFFFFF" d="M179.307,50.395c0.688-0.052,1.231,0.018,1.938-0.028
		c-0.013-1.278-0.306-2.439-0.222-3.734c0.012-0.159-0.228-0.228-0.293-0.085c-0.558,1.201-1.03,2.343-1.615,3.542
		C179.032,50.259,179.107,50.41,179.307,50.395L179.307,50.395L179.307,50.395z M171.528,53.109c0.082-0.069,0.117-0.241,0.19-0.127
		c0.051,0.08-0.061,0.123-0.093,0.187c-0.312,0.61-0.763,1.171-1.035,1.799c1.949,0.008,3.856,0.008,5.801,0.004
		c0.286-0.535,0.482-1.045,0.761-1.586c1.414,0.007,2.821-0.019,4.231,0.013c0.113,0.556,0.085,1.044,0.233,1.574
		c5.201,0.001,10.375,0.002,15.579-0.001c0.269-1.379,0.538-2.693,0.763-4.065c-1.576-0.034-3.036,0.011-4.627-0.023
		c0.498-2.912,1.098-5.715,1.612-8.639c-1.854-0.043-3.64-0.012-5.504-0.015c-0.733,3.77-1.436,7.529-2.155,11.316
		c-0.02,0.094-0.036,0.213-0.135,0.184c-0.071-0.021-0.032-0.119-0.048-0.186c-0.913-3.777-1.78-7.516-2.705-11.311
		c-2.062-0.023-4.051,0.006-6.108-0.014c-1.765,2.912-3.534,5.809-5.297,8.731c-0.068,0.114-0.229,0.141-0.177,0.005
		c0.548-1.445-0.249-2.951-1.614-3.482c-0.658-0.257-1.282-0.407-1.951-0.556c-0.702-0.157-1.489-0.088-1.981-0.671
		c0.318-0.97,1.374-0.866,2.174-0.768c0.802,0.097,1.584,0.483,2.278,0.884c0.736-1.104,1.382-2.098,2.1-3.227
		c-3.046-1.638-7.108-1.44-9.967,0.473c-1.555,1.042-2.822,3.13-1.882,4.894c0.466,0.874,1.466,1.196,2.334,1.448
		c0.764,0.221,1.646,0.241,2.418,0.44c0.093,0.024,0.245,0.042,0.268,0.118c0.024,0.084,0.299,0.109,0.282,0.232
		c-0.147,1.108-1.518,1.124-2.424,0.966c-0.928-0.161-1.897-0.631-2.672-1.279c-0.704,0.967-1.339,2.009-2.028,3.027
		c-0.083,0.121-0.207,0.175-0.181,0.019c0.126-0.712,0.266-1.281,0.356-1.964c-1.621-0.036-3.207,0.017-4.821-0.027
		c0.101-0.463,0.106-0.832,0.267-1.262c1.426-0.008,2.825,0.01,4.253-0.005c0.187-1.088,0.436-2.141,0.596-3.241
		c-1.431-0.029-2.794,0.007-4.217-0.018c0.019-0.464,0.101-0.861,0.233-1.295c1.562-0.013,3.11,0.019,4.673-0.019
		c0.185-1.182,0.454-2.253,0.618-3.415c-3.422-0.003-6.811-0.002-10.23-0.001c-0.811,4.268-1.616,8.454-2.421,12.738
		c3.47,0.025,6.925,0.002,10.39,0.013c0.09-0.23,0.093-0.474,0.149-0.699c0.021-0.078,0.052-0.201,0.101-0.206
		c0.042-0.006,0.145,0.062,0.207,0.085C163.718,55.526,168.369,55.761,171.528,53.109L171.528,53.109L171.528,53.109z"/>
	<path fill-rule="evenodd" clip-rule="evenodd" fill="#FFFFFF" d="M28.767,54.978c19.468,0,38.929,0,58.396,0
		c0.137,0,0.199-0.084,0.163-0.217c-0.272-1.021-0.443-2.014-0.725-3.022c-19.365,0.001-38.725,0-58.091,0.001
		c-0.035,1.049,0.025,1.984-0.019,3.03C28.484,54.929,28.613,54.978,28.767,54.978L28.767,54.978L28.767,54.978z"/>
	<path fill-rule="evenodd" clip-rule="evenodd" fill="#FFFFFF" d="M198.53,54.979c3.4-0.022,6.775,0.012,10.172-0.015
		c0.181-1.207,0.47-2.264,0.611-3.456c-1.534-0.024-3.007-0.014-4.533-0.004c-0.164,0-0.294-0.106-0.239-0.284
		c0.113-0.362,0.101-0.646,0.222-0.999c1.418-0.013,2.81,0.006,4.246-0.009c0.236-1.083,0.427-2.128,0.618-3.236
		c-1.431-0.039-2.803,0.008-4.232-0.023c0.018-0.47,0.132-0.818,0.225-1.284c1.564-0.026,3.106-0.003,4.672-0.013
		c0.227-1.143,0.436-2.252,0.656-3.43c-3.419,0.005-6.844-0.021-10.257,0.013c-0.794,4.195-1.576,8.338-2.382,12.518
		C198.281,54.905,198.381,54.981,198.53,54.979L198.53,54.979L198.53,54.979z"/>
	<path fill-rule="evenodd" clip-rule="evenodd" fill="#FFFFFF" d="M28.766,50.327c19.099-0.003,38.186,0,57.277-0.001
		c0.145,0,0.251-0.077,0.214-0.222c-0.274-1.018-0.448-1.958-0.707-2.983c-18.998,0-38.021-0.005-57.015,0.001
		c-0.088,1.014,0.018,1.963-0.053,2.979C28.471,50.259,28.613,50.327,28.766,50.327L28.766,50.327L28.766,50.327z"/>
	<path fill-rule="evenodd" clip-rule="evenodd" fill="#FFFFFF" d="M28.769,45.66c18.703-0.003,37.427,0,56.153-0.002
		c0.094,0,0.217,0.025,0.248-0.049c0.021-0.051-0.003-0.121-0.017-0.183c-0.233-1.061-0.453-2.085-0.728-3.156
		c-18.606,0.005-37.277-0.006-55.918,0.002c-0.032,1.124,0.028,2.074-0.023,3.167C28.477,45.604,28.614,45.66,28.769,45.66
		L28.769,45.66L28.769,45.66z"/>
	<path fill-rule="evenodd" clip-rule="evenodd" fill="#FFFFFF" d="M78.397,29.958c1.536,0.088,3.108-0.23,4.472-0.91
		c1.497-0.747,2.774-2.103,3.334-3.674c0.506-1.42,0.487-3.124-0.446-4.386c-0.962-1.302-2.52-1.906-4.103-2.01
		c-1.536-0.101-3.104,0.173-4.464,0.849c-1.557,0.772-2.898,2.138-3.491,3.775c-0.536,1.479-0.518,3.209,0.489,4.486
		C75.197,29.366,76.82,29.867,78.397,29.958L78.397,29.958L78.397,29.958z M80.533,38.703c4.468-0.493,8.804-1.986,12.417-4.708
		c3.73-2.81,6.293-7.122,6.414-11.805c0.001-0.061,0.119-0.141,0.139-0.07c0.021,0.07-0.004,0.081,0.006,0.146
		c0.416,2.645,2.854,4.126,5.194,4.841c2.146,0.657,4.549,0.722,6.707,1.286c0.07,0.018,0.111,0.105,0.183,0.121
		c0.116,0.024,0.188,0.149,0.277,0.23c0.105,0.097,0.189,0.225,0.237,0.362c0.016,0.043,0.035,0.083,0.014,0.139
		c-0.021,0.056,0.039,0.074,0.034,0.125c-0.117,1.221-1.388,1.657-2.432,1.841c-1.01,0.18-2.13,0.119-3.164-0.078
		c-2.151-0.407-4.135-1.44-5.884-2.815c-0.986,1.336-1.855,2.697-2.779,4.061c-0.888,1.312-1.76,2.534-2.634,3.959
		c7.515,3.087,17.134,3.875,24.443-0.43c1.945-1.145,3.63-2.846,4.575-4.834c0.896-1.883,1.316-4.206,0.4-6.184
		c-1.007-2.175-3.427-3.241-5.625-3.847c-1.975-0.543-4.181-0.719-6.14-1.339c-0.205-0.065-0.364-0.349-0.45-0.475
		c-0.021-0.031-0.043-0.138-0.094-0.119c-0.019-1.095,1.02-1.592,1.926-1.777c0.882-0.18,1.828-0.118,2.739,0.008
		c1.889,0.261,3.608,1.008,5.28,2.02c1.613-2.413,3.229-4.844,4.78-7.237c-4.573-2.57-10.473-2.993-15.564-1.918
		c-5.588,1.179-11.62,4.821-12.15,11.126c-0.011,0.123-0.053,0.089-0.053-0.03c-0.014-4.901-3.936-8.704-8.246-10.264
		c-3.908-1.415-8.33-1.708-12.505-1.07c-4.42,0.675-8.646,2.325-12.127,5.193c-3.484,2.871-5.849,7.093-5.896,11.611
		c-0.023,2.207,0.562,4.359,1.849,6.162c1.413,1.979,3.453,3.409,5.645,4.312C71.918,38.839,76.325,39.168,80.533,38.703
		L80.533,38.703L80.533,38.703z"/>
	<path fill-rule="evenodd" clip-rule="evenodd" fill="#FFFFFF" d="M165.707,38.872c2.732-0.139,5.502-0.291,8.116-1.108
		c0.356-1.804,0.792-3.469,1.164-5.207c0.384-1.79,0.866-3.541,1.173-5.324c-2.271,1.572-4.98,2.652-7.842,2.583
		c-1.53-0.037-3.004-0.451-4.198-1.403c-1.189-0.949-1.916-2.438-1.623-3.966c0.596-3.12,3.593-5.126,6.599-5.616
		c2.922-0.476,6.016,0.713,8.182,2.731c0.622-3.554,1.127-7.025,1.712-10.558c0.015-0.084,0.028-0.191-0.043-0.216
		c-0.055-0.019-0.129-0.019-0.191-0.038c-5.289-1.548-11.292-1.5-16.412,0.439c-5.599,2.118-10.817,6.615-12.347,12.503
		c-0.707,2.721-0.531,5.711,0.779,8.216c1.398,2.672,3.955,4.667,6.725,5.728C160.077,38.624,162.92,39.014,165.707,38.872
		L165.707,38.872L165.707,38.872z"/>
	<path fill-rule="evenodd" clip-rule="evenodd" fill="#FFFFFF" d="M194.715,29.958c1.579,0.094,3.185-0.224,4.581-0.936
		c1.426-0.725,2.642-1.986,3.215-3.463c0.552-1.425,0.596-3.167-0.305-4.473c-0.939-1.362-2.573-2.006-4.188-2.108
		c-1.516-0.095-3.082,0.169-4.419,0.833c-1.434,0.713-2.722,1.927-3.371,3.41c-0.635,1.448-0.771,3.209,0.135,4.579
		C191.313,29.238,193.047,29.859,194.715,29.958L194.715,29.958L194.715,29.958z M192.756,38.882
		c8.904,0.294,18.952-3.586,22.261-12.522c0.396-1.069,0.49-1.99,0.645-3.119c0.148-1.094,0.112-2.131-0.052-3.177
		c-0.376-2.378-1.557-4.525-3.376-6.152c-3.319-2.967-7.703-4.081-12.074-4.238c-4.353-0.157-8.725,0.688-12.624,2.518
		c-4.326,2.029-8.204,5.503-9.794,10.112c-0.182,0.526-0.333,1.025-0.451,1.569c-0.114,0.53-0.218,1.055-0.273,1.589
		c-0.107,1.049-0.1,2.13,0.048,3.172c0.321,2.288,1.479,4.393,3.182,5.975C183.571,37.7,188.335,38.735,192.756,38.882
		L192.756,38.882L192.756,38.882z"/>
	<path fill-rule="evenodd" clip-rule="evenodd" fill="#FFFFFF" d="M211.551,36.747c-0.014-0.223-0.088-0.397-0.234-0.555
		c-0.592-0.639-1.662-0.538-2.329-0.101c-0.18,0.118-0.376,0.292-0.467,0.486c-0.07,0.149-0.164,0.297-0.189,0.471
		c-0.026,0.183-0.101,0.352-0.021,0.537C208.975,39.12,211.651,38.366,211.551,36.747L211.551,36.747L211.551,36.747z
		 M210.572,38.677c0.853-0.312,1.785-1.217,1.474-2.215c-0.597-1.912-3.919-1.281-4.239,0.563c-0.039,0.223-0.104,0.442-0.023,0.664
		c0.071,0.201,0.152,0.378,0.281,0.54C208.643,38.953,209.774,38.97,210.572,38.677L210.572,38.677L210.572,38.677z"/>
	<path fill-rule="evenodd" clip-rule="evenodd" fill="#FFFFFF" d="M138.941,38.46c1.228-4.023,2.445-8.058,3.662-12.062
		c0.611-2.012,1.223-4.04,1.842-6.063c0.086-0.28,0.166-0.568,0.264-0.845c0.044-0.122,0.051-0.253,0.125-0.372
		c0.072-0.115,0.223-0.062,0.349-0.058c0.491,0.011,1.003-0.016,1.485,0.036c0.975,0.104,2.004,0.022,2.992,0.129
		c0.521,0.057,1.062-0.006,1.583,0.042c0.125,0.012,0.255,0.006,0.378-0.005c0.141-0.012,0.146-0.208,0.192-0.337
		c0.083-0.233,0.142-0.488,0.218-0.733c0.319-1.024,0.633-2.061,0.941-3.082c0.307-1.016,0.618-2.046,0.935-3.075
		c0.143-0.463,0.278-0.927,0.413-1.378c0.07-0.237,0.25-0.58-0.068-0.553c-0.307,0.027-0.518,0.013-0.767,0.012
		c-4.046-0.001-8.087,0.001-12.128,0c-4.074-0.001-8.146,0-12.221,0c-0.279,0-0.56,0.001-0.838-0.001
		c-0.139-0.001-0.318-0.021-0.322,0.138c-0.004,0.149-0.074,0.249-0.109,0.374c-0.146,0.51-0.302,0.997-0.453,1.5
		c-0.299,1-0.608,1.987-0.905,2.987c-0.306,1.028-0.628,2.042-0.936,3.082c-0.074,0.252-0.16,0.496-0.22,0.733
		c-0.029,0.109-0.14,0.289-0.035,0.322c0.108,0.034,0.247,0.023,0.369,0.013c0.489-0.04,0.999,0.019,1.491-0.03
		c1.02-0.101,2.061-0.038,3.08-0.127c0.494-0.044,0.993-0.041,1.492-0.044c0.125-0.001,0.245-0.017,0.375,0.008
		c0.143,0.026,0.064,0.209,0.028,0.333c-0.072,0.244-0.156,0.5-0.232,0.752c-0.609,2.025-1.234,4.044-1.838,6.063
		c-1.224,4.089-2.517,8.167-3.682,12.238C130.643,38.468,134.733,38.457,138.941,38.46L138.941,38.46L138.941,38.46z"/>
	<path fill-rule="evenodd" clip-rule="evenodd" fill="#FFFFFF" d="M47.607,38.363c3.352-0.164,6.715-0.377,9.926-1.314
		c0.5-2.166,0.998-4.233,1.49-6.358c0.494-2.134,1.026-4.233,1.482-6.388c-1.635,0.999-3.258,1.895-5.06,2.435
		c-1.676,0.503-3.439,0.753-5.227,0.648c-1.827-0.106-3.516-0.651-4.932-1.791c-1.394-1.123-2.182-2.932-1.857-4.699
		c0.367-1.996,1.683-3.644,3.346-4.812c1.519-1.066,3.196-1.686,5.036-1.958c3.686-0.546,7.35,0.938,10.075,3.329
		c0.734-4.318,1.395-8.515,2.116-12.792c0.022-0.133-0.042-0.238-0.169-0.273c-6.492-1.789-13.764-1.914-20.16,0.367
		c-3.547,1.265-6.879,3.111-9.706,5.673c-2.862,2.593-5.123,5.863-6.125,9.552c-0.903,3.321-0.666,7.024,1.012,10.052
		c1.849,3.335,5.161,5.719,8.682,6.965C40.696,38.117,44.186,38.53,47.607,38.363L47.607,38.363L47.607,38.363z"/>
	<path fill-rule="evenodd" clip-rule="evenodd" fill="#FFFFFF" d="M209.825,36.896c0.208-0.034,0.338,0.024,0.56-0.042
		c0.247-0.074,0.137-0.422-0.078-0.357c-0.282,0.084-0.654-0.147-0.736,0.162C209.525,36.824,209.665,36.923,209.825,36.896
		L209.825,36.896L209.825,36.896z M208.876,38.02c0.206-0.037,0.257,0.003,0.42-0.025c0.051-0.128,0.105-0.251,0.096-0.404
		c-0.013-0.218,0.124-0.407,0.339-0.367c0.141,0.027,0.208,0.145,0.245,0.276c0.03,0.11,0.092,0.187,0.124,0.297
		c0.044,0.137,0.123,0.242,0.282,0.206c0.119-0.026,0.196,0.036,0.317-0.028c-0.028-0.289-0.282-0.444-0.306-0.761
		c0.196-0.032,0.437-0.163,0.516-0.353c0.071-0.176,0.129-0.466-0.055-0.575c-0.482-0.284-1.066-0.067-1.611-0.134
		C209.069,36.779,208.986,37.403,208.876,38.02L208.876,38.02L208.876,38.02z"/>
</g>
</svg>
