<?xml version="1.0" encoding="utf-8"?>
<!-- Generator: Adobe Illustrator 16.0.0, SVG Export Plug-In . SVG Version: 6.00 Build 0)  -->
<!DOCTYPE svg PUBLIC "-//W3C//DTD SVG 1.1//EN" "http://www.w3.org/Graphics/SVG/1.1/DTD/svg11.dtd">
<svg version="1.1" id="Layer_9" xmlns="http://www.w3.org/2000/svg" xmlns:xlink="http://www.w3.org/1999/xlink" x="0px" y="0px"
	 width="241.553px" height="84.667px" viewBox="0 0 241.553 84.667" enable-background="new 0 0 241.553 84.667"
	 xml:space="preserve">
<path fill="#FFFFFF" d="M56.743,38.485c-6.405,0.478-14.596,1.666-14.529,3.909c0.069,2.347,6.106,6.854,14.034,9.792
	C56.616,47.383,56.708,42.293,56.743,38.485z M33.299,14.304c-2.109,0.062-3.7-0.858-3.739-2.146
	c-0.028-0.941,2.033-3.881,3.29-4.357c0.859-0.324,5.043-1.913,12.019-2.121c2.584-0.076,6.975,0.24,10.681,0.79
	c21.575,3.197,44.224,19.649,44.656,34.24c0.296,9.928-8.281,19.24-25.023,19.738c-4.41,0.131-8.514-0.412-12.246-1.393
	c-0.081,2.438,0.101,3.729-3.356,3.83c-2.113,0.062-2.938-3.361-3.248-6.146c-10.107-4.485-16.197-11.77-16.283-14.645
	c-0.127-4.281,7.658-7.853,16.764-9.266c0.128-3.545,0.729-12.57,2.6-12.626c0.752-0.022,2.31,1.722,2.897,4.391
	c0.534,2.424,0.59,6.846,0.596,7.633l0.688-0.024c12.775-0.38,20.433,3.614,20.573,8.346c0.109,3.668-3.138,5.546-4.841,5.597
	c-1.703,0.05-3.699-0.919-3.715-1.446c-0.03-1.009,3.635-1.246,3.586-2.878c-0.073-2.462-10.23-3.541-16.489-3.58
	c-0.009,2.122-0.036,4.683,0.015,6.403c0.05,1.653,0.152,5.925,0.203,9.488c2.839,0.601,5.765,0.926,8.632,0.841
	c6.747-0.201,22.159-2.661,21.815-14.239c-0.48-16.175-32.464-31.035-49.595-30.526c-6.747,0.2-10.797,0.924-10.776,1.586
	c0.013,0.442,3.285,0.612,3.312,1.485C36.337,14.15,34.452,14.27,33.299,14.304z"/>
<path fill-rule="evenodd" clip-rule="evenodd" fill="#FFFFFF" d="M105.092,31.981c1.102-0.032,2.683,2.612,2.731,4.266
	s0.445,10.294,0.561,12.783c0.115,2.49,0.033,4.875-0.128,5.978c-0.162,1.104-0.563,1.649-2.457,1.704
	c-1.894,0.057-2.776-1.071-2.937-2.739c-0.161-1.668-0.302-6.4-0.219-8.771c0.082-2.37,0.193-6.906,0.503-9.747
	C103.456,32.614,104.217,32.007,105.092,31.981z"/>
<path fill-rule="evenodd" clip-rule="evenodd" fill="#FFFFFF" d="M116.056,12.57c-0.314-0.785-1.369-2.371-5.132-2.26
	c-8.199,0.244-14.507,6.317-14.364,11.103c0.046,1.555,0.796,2.917,1.899,4.033c-0.288,0.782-0.316,1.305-0.308,1.604
	c0.024,0.832,1.275,3.026,2.236,2.998c0.812-0.024,1.367-0.785,2.149-2.018c1.337,0.516,2.669,0.778,3.726,0.747
	c7.709-0.229,14.704-7.453,14.566-12.075C120.767,14.574,119.388,12.517,116.056,12.57z M104.419,24.051
	c0.949-1.34,5.87-7.929,10.942-8.08c1.488-0.044,1.881,0.877,1.911,1.895c0.047,1.584-2.823,6.215-9.287,6.407
	C106.568,24.315,105.374,24.208,104.419,24.051z M100.408,21.865c-0.117-0.194-0.228-0.502-0.241-0.982
	c-0.032-1.059,1.796-5.116,6.396-5.449c-1.172,0.804-2.356,1.833-3.529,3.15C101.93,19.823,101.053,20.914,100.408,21.865z"/>
<path fill-rule="evenodd" clip-rule="evenodd" fill="#FFFFFF" d="M125.091,31.538c4.513-0.134,10.168,0.451,10.211,1.895
	c0.024,0.844-0.417,2.606-2.825,2.851c-2.841,0.288-17.169,0.896-17.117,2.665c0.028,0.936,4.334,1.143,8.283,1.383
	c4.057,0.245,10.573,0.397,10.769,6.964c0.153,5.185-1.809,6.28-2.691,6.692c-1.121,0.524-4.887,1.956-7.773,2.042
	c-8.702,0.258-12.29-4.743-12.366-7.284c-0.066-2.256,2.255-4.259,6.159-4.374c3.903-0.116,9.948,1.291,9.996,2.897
	c0.039,1.302-2.628,1.97-3.807,2.006c-5.327,0.157-5.066-2.007-8.136-1.916c-1.749,0.053-4.203,3.768,4.561,3.507
	c7.807-0.231,10.173-2.805,10.132-4.188c-0.055-1.829-5.657-2.721-8.897-2.889c-3.24-0.169-8.104-0.146-9.763-1.196
	c-1.659-1.049-1.427-3.424-0.852-5.387C112.175,33.101,120.576,31.671,125.091,31.538z"/>
<path fill-rule="evenodd" clip-rule="evenodd" fill="#FFFFFF" d="M140.505,33.237c3.05-0.091,9.443,13.738,10.521,13.707
	c1.077-0.032,0.276-3.231-0.404-6.764c-1.54-7.992-3.941-12.112-1.686-12.179c1.668-0.05,7.137,5.241,7.44,15.486
	c0.142,4.758-0.528,10.983-4.839,11.111c-4.087,0.121-8.743-12.783-9.8-12.751c-0.57,0.017-0.618,7.994-0.771,10.399
	c-0.152,2.406-0.989,3.692-2.331,3.731c-2.032,0.062-2.925-1.887-3.039-5.729S136.744,33.348,140.505,33.237z"/>
<path fill="#FFFFFF" d="M171.517,40.719c1.443-0.043,2.719-0.284,2.591,1.592c-0.128,1.875-0.206,2.631-1.711,2.675l-7.719,0.229
	c-0.255,0.858-0.915,3.07-1.212,4.004c-0.371,1.171,0.801,0.912,2.314,0.48c1.513-0.432,5.62-1.205,7.309-1.255
	c1.688-0.05,2.948,2.639,1.979,3.563c-0.97,0.924-6.191,5.332-11.64,5.494c-2.338,0.068-5.513-1.973-5.621-5.632
	c-0.058-1.938,0.721-4.537,1.466-6.556c-0.182-0.114-0.32-0.381-0.428-0.963c-0.242-1.315-0.835-2.763,1.355-3.011
	c0.176-0.021,0.396-0.041,0.653-0.062l1.809-3.726c-0.733-0.108-1.368-0.27-1.856-0.503c-1.33-0.636-2.367-2.27-2.389-3.002
	c-0.048-1.605,11.727-2.566,14.451-2.646c2.928-0.088,3.758,0.478,4.693,1.813c0.935,1.335,1.289,2.281,1.3,2.647
	s-0.329,1.271-3.866,1.376c-1.81,0.054-4.735,0.359-7.543,0.463l-1.223,3.258C168.96,40.824,171.517,40.719,171.517,40.719z"/>
<path fill-rule="evenodd" clip-rule="evenodd" fill="#FFFFFF" d="M179.495,51.851c-3.162,6.237-5.29,12.844-5.143,17.819
	c0.167,5.605,3.609,7.697,4.655,7.666s1.098-1.689,1.286-2.926c1.064-7,2.898-13.203,4.991-18.415
	c0.829,0.209,1.65,0.305,2.41,0.282c6.41-0.189,13.84-7.849,13.598-16.003c-0.128-4.306-1.774-7.359-4.534-7.277
	c-4.035,0.119-9.839,6.221-14.498,13.88c-0.417-3.108,2.033-7.894,4.123-11.238c1.468-2.35,1.211-5.144,0.601-5.125
	c-0.854,0.025-9.123,7.026-8.838,16.63C178.202,49.008,178.688,50.574,179.495,51.851z M188.048,49.911
	c3.859-7.548,7.84-11.85,9.239-11.892C199.715,37.947,197.66,48.924,188.048,49.911z"/>
</svg>
