<?xml version="1.0" encoding="utf-8"?>
<!-- Generator: Adobe Illustrator 16.0.0, SVG Export Plug-In . SVG Version: 6.00 Build 0)  -->
<!DOCTYPE svg PUBLIC "-//W3C//DTD SVG 1.1//EN" "http://www.w3.org/Graphics/SVG/1.1/DTD/svg11.dtd">
<svg version="1.1" id="Layer_2" xmlns="http://www.w3.org/2000/svg" xmlns:xlink="http://www.w3.org/1999/xlink" x="0px" y="0px"
	 width="241.553px" height="60.457px" viewBox="0 0 241.553 60.457" enable-background="new 0 0 241.553 60.457"
	 xml:space="preserve">
<g>
	<g>
		<path fill="#FFFFFF" d="M70.981,14.177C54.873,14.174,54.247,26.714,54.329,29.97c0,0-0.789,14.66,16.258,14.66
			c14.649,0,15.37-9.199,15.37-9.199l-6.74,0.015c0,0-1.312,5.067-8.602,4.931c-9.372-0.173-9.735-9.253-9.735-9.253h25.962
			C86.842,31.123,88.812,14.18,70.981,14.177z M61.096,26.677c0,0,0.461-8.211,9.727-8.214c9.232-0.002,9.232,8.214,9.232,8.214
			H61.096z"/>
	</g>
</g>
<g>
	<g>
		<path fill="#FFFFFF" d="M104.875,14.177c-8.1-0.046-11.584,4.796-11.584,4.796V2.773h-6.493l0.109,34.237
			c0,0-0.039,3.989-0.285,6.624h6.306l0.272-3.845c0,0,2.941,4.841,11.538,4.841c8.599,0,15.386-5.294,15.567-15.113
			S112.975,14.222,104.875,14.177z M103.387,40.252c-10.229,0.129-10.062-10.849-10.062-10.849s-0.374-10.566,10.045-10.837
			c10.418-0.271,10.079,11.062,10.079,11.062S113.616,40.124,103.387,40.252z"/>
	</g>
</g>
<g>
	<g>
		<path fill="#FFFFFF" d="M150.307,36.876c0.016-4.429,0.146-8.383,0-11.173c-0.17-3.234,0.137-11.04-13.847-11.616
			c0,0-13.405-1.223-14.797,8.756h6.855c0,0,0.533-4.571,7.489-4.44c6.584,0.125,7.784,3.354,7.749,7.325
			c0,0-5.643,0.016-7.525,0.026c-3.394,0.017-15.271,0.392-16.378,7.626c-1.319,8.602,6.357,11.285,12.365,11.25
			c6.007-0.033,9.433-1.832,11.98-5.056l0.271,4.004l5.975-0.034C150.443,43.543,150.289,41.304,150.307,36.876z M133.337,40.489
			c0,0-6.508,0.007-6.89-5.192c-0.407-5.549,10.012-5.215,10.012-5.215l7.361-0.007C143.82,30.075,145.012,40.643,133.337,40.489z"
			/>
	</g>
</g>
<polygon fill="#FFFFFF" points="146.754,15.262 154.287,15.262 165.307,37.232 176.35,15.262 183.158,15.262 163.225,54.428 
	155.939,54.428 161.709,43.543 "/>
</svg>
