<?xml version="1.0" encoding="utf-8"?>
<!-- Generator: Adobe Illustrator 16.0.0, SVG Export Plug-In . SVG Version: 6.00 Build 0)  -->
<!DOCTYPE svg PUBLIC "-//W3C//DTD SVG 1.1//EN" "http://www.w3.org/Graphics/SVG/1.1/DTD/svg11.dtd">
<svg version="1.1" id="Layer_15" xmlns="http://www.w3.org/2000/svg" xmlns:xlink="http://www.w3.org/1999/xlink" x="0px" y="0px"
	 width="241.553px" height="60.457px" viewBox="0 0 241.553 60.457" enable-background="new 0 0 241.553 60.457"
	 xml:space="preserve">
<polygon fill="#FFFFFF" points="14.198,14.842 28.778,14.842 28.778,24.57 28.875,24.57 39.993,14.842 56.332,14.842 42.922,26.771 
	58.436,43.146 39.993,43.146 28.875,31.558 28.778,31.558 28.778,43.146 14.198,43.146 14.198,14.842 "/>
<path fill="#FFFFFF" d="M79.499,38.233c6.483,0,6.054-7.105,6.054-9.453c0-2.344,0.075-8.859-6.054-8.859
	c-6.129,0-6.058,6.516-6.058,8.859C73.441,31.127,73.009,38.233,79.499,38.233L79.499,38.233z M79.499,14.055
	c16.549,0,21.056,3.409,21.056,15.021c0,11.616-4.506,15.027-21.056,15.027c-16.555,0-21.055-3.411-21.055-15.027
	C58.444,17.464,62.944,14.055,79.499,14.055L79.499,14.055z"/>
<polygon fill="#FFFFFF" points="131.991,32.515 131.991,43.335 146.959,43.335 146.959,15.033 131.991,15.033 131.991,24.761 
	121.256,24.761 121.256,15.033 106.285,15.033 106.285,43.335 121.256,43.335 121.256,32.515 131.991,32.515 "/>
<path fill="#FFFFFF" d="M154.032,15.033h15.315v21.565c0,0,12.222,0.032,13.847,0.032c1.63,0,2.588-1.431,2.588-1.431v8.135h-31.75
	V15.033L154.032,15.033z"/>
<path fill="#FFFFFF" d="M221.483,24.404c-3.166-2.493-5.881-3.33-8.799-3.377c-2.855-0.048-5.462,0.928-5.462,2.633
	c0,1.348,1.947,1.906,8.765,3.301c5.603,1.152,9.33,3.963,9.33,9.194c0,5.906-10.001,9.244-18.943,9.244
	c-6.28,0-11.1-1.112-15.412-3.014v-7.927c2.667,2.733,8.632,4.186,13.2,4.186c2.536,0,3.777-0.365,3.777-2.346
	c0-1.227-1.578-2.346-6.363-3.208c-9.069-1.631-12.134-4.182-12.134-8.545c0-6.259,7.931-9.987,17.691-9.987
	c5.265,0,10.101,0.16,14.35,2.104V24.404L221.483,24.404z"/>
<path fill="#FFFFFF" d="M177.254,26.579l1.051-1.819c-3.153-1.531-4.086-5.433-2.486-7.659c1.727-2.394,6.516-3.42,9.098,0.289
	c2.201,3.161,0.098,5.839-0.859,6.605C183.099,24.759,177.254,26.579,177.254,26.579L177.254,26.579z"/>
</svg>
