<?xml version="1.0" encoding="utf-8"?>
<!-- Generator: Adobe Illustrator 16.0.0, SVG Export Plug-In . SVG Version: 6.00 Build 0)  -->
<!DOCTYPE svg PUBLIC "-//W3C//DTD SVG 1.1//EN" "http://www.w3.org/Graphics/SVG/1.1/DTD/svg11.dtd">
<svg version="1.1" id="Layer_6" xmlns="http://www.w3.org/2000/svg" xmlns:xlink="http://www.w3.org/1999/xlink" x="0px" y="0px"
	 width="241.553px" height="60.457px" viewBox="0 0 241.553 60.457" enable-background="new 0 0 241.553 60.457"
	 xml:space="preserve">
<g>
	<g>
		<path fill="#FFFFFF" d="M211.934,20.94c0-1.84-0.76-3.611-2.138-4.991c-1.479-1.479-3.501-2.328-5.55-2.328
			c-4.036,0-7.321,3.282-7.321,7.318c0,3.923,1.87,6.034,6.904,7.794c5.24,1.973,7.591,4.33,7.591,7.633
			c0,4.12-3.352,7.477-7.473,7.477c-1.954,0-3.821-0.808-5.258-2.264c-1.599-1.619-2.519-3.922-2.649-6.545l-1.629,0.006
			c0.128,3.053,1.224,5.76,3.118,7.683c1.743,1.773,4.021,2.748,6.418,2.748c2.434,0,4.714-0.945,6.436-2.667
			c1.719-1.717,2.669-4.004,2.669-6.438c0-5.294-4.949-7.766-8.67-9.167c-4.359-1.525-5.825-3.103-5.825-6.26
			c0-1.519,0.591-2.948,1.666-4.02c1.075-1.076,2.504-1.667,4.023-1.667c1.614,0,3.219,0.673,4.396,1.851
			c1.072,1.068,1.66,2.431,1.66,3.836H211.934L211.934,20.94z"/>
		<path fill="#FFFFFF" d="M156.847,43.478c-7.732,0-14.005-6.272-14.005-14.008c0-7.732,6.272-14.002,14.005-14.002
			c5.542,0,10.334,3.219,12.6,7.89l1.943-0.033c-2.398-5.669-8.005-9.641-14.543-9.641c-8.717,0-15.786,7.068-15.786,15.785
			c0,8.719,7.069,15.787,15.786,15.787c6.569,0,12.202-4.011,14.578-9.717l-1.979,0.047
			C167.181,40.255,162.389,43.478,156.847,43.478z"/>
		<path fill="#FFFFFF" d="M138.375,22.214c-2.629-5.067-7.913-8.529-14.015-8.529c-8.72,0-15.789,7.068-15.789,15.785
			c0,8.719,7.069,15.787,15.789,15.787c6.102,0,11.386-3.461,14.015-8.529v8.616h1.784V14.489h-1.784V22.214z M124.36,43.478
			c-7.732,0-14.008-6.272-14.008-14.008c0-7.732,6.276-14.002,14.008-14.002c7.731,0,14.002,6.27,14.002,14.002
			C138.362,37.206,132.092,43.478,124.36,43.478z"/>
		<path fill="#FFFFFF" d="M95.433,13.792c-4.948,0-9.17,3.06-10.905,7.389c-1.735-4.33-5.958-7.389-10.905-7.389
			c-4.24,0-7.947,2.257-10.013,5.626v-4.929h-1.778v30.854h1.778V24.477c0.53-5.059,4.811-9.005,10.013-9.005
			c5.246,0,9.535,4.004,10.016,9.123v20.749h1.778V24.594c0.478-5.118,4.772-9.123,10.016-9.123c5.384,0,9.771,4.23,10.042,9.55
			h-0.032v20.321h1.781V25.022h-0.073C106.876,18.772,101.744,13.792,95.433,13.792z"/>
		<polygon fill="#FFFFFF" points="183.083,42.502 171.839,14.492 169.968,14.492 182.12,44.878 177.545,56.158 179.491,56.23 
			196.46,14.492 194.442,14.492 		"/>
		<polygon fill="#FFFFFF" points="200.309,7.592 199.531,5.2 198.75,7.592 196.216,7.592 198.27,9.079 197.494,11.47 199.528,9.989 
			201.569,11.476 200.793,9.076 202.835,7.592 		"/>
		<polygon fill="#FFFFFF" points="42.993,25.854 39.068,13.814 35.149,25.854 22.39,25.854 32.729,33.339 28.813,45.383 
			39.054,37.932 49.355,45.419 45.421,33.319 55.711,25.854 		"/>
	</g>
</g>
</svg>
