<?xml version="1.0" encoding="utf-8"?>
<!-- Generator: Adobe Illustrator 16.0.0, SVG Export Plug-In . SVG Version: 6.00 Build 0)  -->
<!DOCTYPE svg PUBLIC "-//W3C//DTD SVG 1.1//EN" "http://www.w3.org/Graphics/SVG/1.1/DTD/svg11.dtd">
<svg version="1.1" id="Layer_11" xmlns="http://www.w3.org/2000/svg" xmlns:xlink="http://www.w3.org/1999/xlink" x="0px" y="0px"
	 width="241.553px" height="82px" viewBox="0 0 241.553 82" enable-background="new 0 0 241.553 82" xml:space="preserve">
<path fill="#FFFFFF" d="M78.479,48.363c-1.077,0-1.921,0.754-1.921,1.854s0.849,1.849,1.921,1.849c1.073,0,1.921-0.754,1.921-1.849
	C80.399,49.118,79.556,48.363,78.479,48.363z M78.479,51.537c-0.768,0-1.337-0.561-1.337-1.319s0.565-1.324,1.337-1.324
	c0.764,0,1.338,0.575,1.338,1.324C79.816,50.962,79.237,51.537,78.479,51.537z"/>
<polygon fill="#FFFFFF" points="97.168,41.881 87.818,41.881 88.881,25.63 82.809,41.881 74.127,41.881 87.902,5.148 97.142,5.148 
	96.075,21.623 102.262,5.148 110.944,5.148 "/>
<polygon fill="#FFFFFF" points="98.296,41.881 112.071,5.148 120.754,5.148 106.978,41.881 "/>
<path fill="#FFFFFF" d="M73.126,29.22C60.992,43.468,49.548,62.426,59.657,71.156c9.795,8.46,22.039,3.451,30.388,0.111
	s100.626-43.411,100.626-43.411c0.891-0.445,0.723-1.002-0.39-0.724c-0.449,0.112-100.459,27.216-100.459,27.216
	C77.133,57.91,62.662,50.146,73.126,29.22z"/>
<path fill="#FFFFFF" d="M78.807,50.347c0.27-0.013,0.48-0.152,0.48-0.525c0-0.48-0.314-0.602-0.84-0.602h-0.754v1.993h0.503v-0.848
	h0.085l0.458,0.848h0.579L78.807,50.347z M78.483,50.024h-0.287v-0.462h0.242c0.148,0,0.318,0.018,0.318,0.211
	C78.757,49.979,78.658,50.024,78.483,50.024z"/>
<path fill="#FFFFFF" d="M165.758,5.037c-1.077,0-1.921,0.754-1.921,1.854s0.848,1.849,1.921,1.849c1.072,0,1.921-0.754,1.921-1.849
	C167.679,5.791,166.835,5.037,165.758,5.037z M165.758,8.209c-0.768,0-1.337-0.561-1.337-1.319s0.564-1.324,1.337-1.324
	c0.763,0,1.337,0.574,1.337,1.324C167.095,7.635,166.516,8.209,165.758,8.209z"/>
<path fill="#FFFFFF" d="M166.085,7.021c0.27-0.014,0.48-0.153,0.48-0.525c0-0.48-0.314-0.601-0.839-0.601h-0.754v1.993h0.502V7.038
	h0.086l0.458,0.849h0.578L166.085,7.021z M165.763,6.697h-0.288V6.235h0.243c0.147,0,0.318,0.018,0.318,0.211
	C166.036,6.652,165.938,6.697,165.763,6.697z"/>
<path fill="#FFFFFF" d="M160.037,11.271l2.333-6.122h-17.398h-0.078h-9.016l-9.098,11.02l4.2-11.02h-8.794l-13.665,36.733h8.683
	l5.834-15.361l0.399,15.361l26.641-0.058l2.536-7.066h-10.129l3.327-8.905h8.349l2.568-6.846h-8.349l2.862-7.736H160.037z
	 M132.052,39.433l-0.557-19.146l13.127-14.413L132.052,39.433z"/>
</svg>
