<?xml version="1.0" encoding="utf-8"?>
<!-- Generator: Adobe Illustrator 16.0.0, SVG Export Plug-In . SVG Version: 6.00 Build 0)  -->
<!DOCTYPE svg PUBLIC "-//W3C//DTD SVG 1.1//EN" "http://www.w3.org/Graphics/SVG/1.1/DTD/svg11.dtd">
<svg version="1.1" id="Layer_8" xmlns="http://www.w3.org/2000/svg" xmlns:xlink="http://www.w3.org/1999/xlink" x="0px" y="0px"
	 width="241.553px" height="60.457px" viewBox="0 0 241.553 60.457" enable-background="new 0 0 241.553 60.457"
	 xml:space="preserve">
<g>
	<path fill-rule="evenodd" clip-rule="evenodd" fill="#FFFFFF" d="M57.844,19.012c6.334,0,10.522,4.698,10.522,11.645
		c0,6.944-4.291,11.748-10.522,11.748c-6.23,0-10.622-5.009-10.622-11.748C47.222,23.812,51.613,19.012,57.844,19.012L57.844,19.012
		z M57.844,40.871c4.598,0,7.049-3.676,7.049-10.213c0-6.435-2.451-10.216-7.049-10.216c-4.596,0-7.149,3.781-7.149,10.011
		C50.695,37.195,53.146,40.871,57.844,40.871L57.844,40.871z"/>
	<path fill-rule="evenodd" clip-rule="evenodd" fill="#FFFFFF" d="M112.799,30.247c0,7.255-4.085,11.748-11.134,11.748h-7.15
		c0,0,0.205-7.149,0.205-11.338c0-4.086-0.205-11.338-0.205-11.338h8.172C109.326,19.319,112.799,23.098,112.799,30.247
		L112.799,30.247z M109.429,30.35c0-6.127-2.861-9.601-8.376-9.601c-2.452,0-3.371,0.103-3.371,0.103s0.204,0.509,0.204,1.429
		c-0.102,1.942-0.102,5.618-0.102,8.376c0,3.063,0.102,6.23,0.102,8.172c0,1.019-0.204,1.634-0.204,1.634s0.919,0.1,2.961,0.1
		C106.466,40.563,109.429,36.99,109.429,30.35L109.429,30.35z"/>
	<path fill-rule="evenodd" clip-rule="evenodd" fill="#FFFFFF" d="M181.747,19.012c6.436,0,10.624,4.698,10.624,11.645
		c0,6.944-4.29,11.748-10.624,11.748c-6.231,0-10.521-5.009-10.521-11.748C171.227,23.812,175.516,19.012,181.747,19.012
		L181.747,19.012z M181.747,40.871c4.597,0,7.151-3.676,7.151-10.213c0-6.435-2.555-10.216-7.151-10.216s-7.047,3.781-7.047,10.011
		C174.7,37.195,177.15,40.871,181.747,40.871L181.747,40.871z"/>
	<path fill-rule="evenodd" clip-rule="evenodd" fill="#FFFFFF" d="M27.2,34.029c0,5.515,0.307,7.966,0.307,7.966h-2.35
		c0,0,0.307-9.092,0.307-17.875c0-1.532-0.102-4.801-0.102-4.801h1.633c0,0,6.333,8.989,10.521,14.809
		c0.511,0.718,1.124,1.737,1.532,2.554c0,0-0.204-1.529-0.204-2.961v-6.435c0-5.72-0.306-7.967-0.306-7.967h2.35
		c0,0-0.307,8.374-0.307,17.978c0,0.917,0.103,4.698,0.103,4.698h-1.635c0,0-6.23-8.784-10.521-14.709
		c-0.613-0.92-1.021-1.532-1.43-2.349c0,0,0.102,1.938,0.102,2.961V34.029L27.2,34.029z"/>
	<path fill-rule="evenodd" clip-rule="evenodd" fill="#FFFFFF" d="M123.32,40.871c2.656-0.103,4.596-2.349,4.187-4.801
		c-0.306-1.942-1.736-3.063-4.187-4.496c-3.167-1.733-5.005-3.063-5.312-6.127c-0.409-3.778,2.656-6.435,6.435-6.537
		c2.145-0.103,4.085,0.51,4.801,0.714v2.452c0,0-1.737-1.737-4.596-1.737c-2.043,0-4.188,1.227-4.188,3.473
		c0,1.942,1.635,2.965,4.29,4.599c3.677,2.144,5.516,3.881,5.516,7.047c0,4.086-3.269,6.948-7.253,6.948
		c-2.042,0-4.086-0.41-4.801-0.718v-2.656C118.212,39.031,120.153,40.973,123.32,40.871L123.32,40.871z"/>
	<path fill-rule="evenodd" clip-rule="evenodd" fill="#FFFFFF" d="M148.345,19.319v2.144c0,0-1.633-0.509-4.392-0.509h-1.43
		c0,0,0,0.612,0,1.429c0,0,0,4.086,0,5.208c0,6.335,0.307,14.404,0.307,14.404h-3.575c0,0,0.307-8.069,0.307-14.404
		c0-1.122-0.103-5.208-0.103-5.208c0-0.817,0.103-1.429,0.103-1.429h-1.532c-2.656,0-4.291,0.509-4.291,0.509v-2.144H148.345
		L148.345,19.319z"/>
	<path fill-rule="evenodd" clip-rule="evenodd" fill="#FFFFFF" d="M218.825,41.995h-3.37c0,0-0.204-8.274-0.511-14.097
		c0-0.715,0-1.532,0-2.452c0,0-0.408,1.125-0.92,2.349l-6.229,14.812c0,0-3.474-7.967-6.231-13.995
		c-0.408-0.817-0.92-2.452-1.328-3.166c0.104,1.228,0,2.554-0.103,3.474c-0.408,5.925-0.511,13.075-0.511,13.075h-2.144l1.43-22.676
		h1.941c0,0,4.187,9.396,6.843,15.219c0.307,0.714,0.716,1.532,0.919,2.349c0.204-0.92,0.511-1.635,0.818-2.349
		c2.451-5.823,6.229-15.219,6.229-15.219h1.943L218.825,41.995L218.825,41.995z"/>
	<path fill-rule="evenodd" clip-rule="evenodd" fill="#FFFFFF" d="M166.528,24.63c0,3.063-1.84,5.107-5.21,5.925
		c2.144,3.983,6.537,11.44,6.537,11.44h-3.575c0,0-1.837-3.881-6.742-12.463h0.307c3.677,0,5.617-1.531,5.617-4.493
		c0-2.554-1.633-4.291-4.596-4.291c-0.919,0-2.248,0.103-2.248,0.103s0.206,0.509,0.206,1.938v11.646c0,5.108,0.204,7.56,0.204,7.56
		h-3.372c0,0,0.204-8.886,0.204-13.584c0-3.169-0.204-9.091-0.204-9.091h6.64C164.381,19.319,166.528,21.259,166.528,24.63
		L166.528,24.63z"/>
	<path fill-rule="evenodd" clip-rule="evenodd" fill="#FFFFFF" d="M87.671,24.63c0,3.063-1.942,5.107-5.21,5.925
		c2.146,3.983,6.436,11.44,6.436,11.44h-3.575c0,0-1.84-3.881-6.742-12.463h0.408c3.575,0,5.516-1.531,5.516-4.493
		c0-2.554-1.634-4.291-4.596-4.291c-0.817,0-2.247,0.103-2.247,0.103s0.205,0.509,0.205,1.938v11.646c0,5.108,0.203,7.56,0.203,7.56
		h-3.37c0,0,0.306-8.886,0.306-13.584c0-3.169-0.306-9.091-0.306-9.091h6.741C85.424,19.319,87.671,21.259,87.671,24.63
		L87.671,24.63z"/>
</g>
</svg>
