<?xml version="1.0" encoding="utf-8"?>
<!-- Generator: Adobe Illustrator 16.0.0, SVG Export Plug-In . SVG Version: 6.00 Build 0)  -->
<!DOCTYPE svg PUBLIC "-//W3C//DTD SVG 1.1//EN" "http://www.w3.org/Graphics/SVG/1.1/DTD/svg11.dtd">
<svg version="1.1" id="Layer_16" xmlns="http://www.w3.org/2000/svg" xmlns:xlink="http://www.w3.org/1999/xlink" x="0px" y="0px"
	 width="241.553px" height="60.457px" viewBox="0 0 241.553 60.457" enable-background="new 0 0 241.553 60.457"
	 xml:space="preserve">
<g>
	<path fill-rule="evenodd" clip-rule="evenodd" fill="#FFFFFF" d="M48.554,20.926l-6.497,19.964H40.43v0.988h4.598v-0.988h-1.8
		l2.312-7.106h6.072l2.312,7.106h-1.854v0.988h6.479v-0.988H57.35l-6.496-19.964H48.554L48.554,20.926z M147.613,20.926
		l-6.497,19.964h-1.627v0.988h4.598v-0.988h-1.801l2.312-7.106h6.071l2.312,7.106h-1.854v0.988h6.479v-0.988h-1.199l-6.496-19.964
		H147.613L147.613,20.926z M96.346,21.915v8.317h7.764v-8.317h-1.526v-0.989h6.665v0.989h-1.712v18.976h1.712v0.988h-6.665v-0.988
		h1.526v-9.67h-7.764v9.67h1.526v0.988h-6.665v-0.988h1.712V21.915h-1.712v-0.989h6.665v0.989H96.346L96.346,21.915z
		 M206.371,20.926v6.986h-1.172c-0.048-0.607-0.126-1.286-0.267-1.962c-0.141-0.676-0.343-1.35-0.638-1.948s-0.683-1.12-1.193-1.492
		c-0.511-0.373-1.145-0.595-1.933-0.595h-4.527v8.688h1.341c0.788,0,1.373-0.145,1.812-0.388s0.729-0.583,0.927-0.973
		c0.198-0.39,0.304-0.83,0.371-1.271c0.068-0.441,0.099-0.883,0.146-1.28h0.993v9.024h-0.993c-0.048-0.396-0.078-0.838-0.146-1.28
		c-0.067-0.441-0.173-0.88-0.371-1.271c-0.198-0.39-0.488-0.73-0.927-0.973c-0.438-0.243-1.023-0.389-1.812-0.389h-1.341v9.087
		h4.527c0.875,0,1.561-0.275,2.098-0.724c0.537-0.449,0.927-1.073,1.21-1.77c0.284-0.697,0.462-1.467,0.576-2.211
		c0.114-0.743,0.165-1.46,0.193-2.049h1.453v7.742h-15.195v-0.988h1.126h0.586V21.915h-1.712v-0.989H206.371L206.371,20.926z
		 M170.194,36.543V21.915h1.267v-0.989h-3.829v0.989h1.266v14.37c0,1.395-0.49,2.488-1.227,3.258
		c-0.736,0.769-1.719,1.214-2.7,1.312c-0.982,0.098-1.964-0.151-2.7-0.769s-1.228-1.606-1.228-2.986V21.915h1.712v-0.989h-6.664
		v0.989h1.526v14.628c0,0.806,0.164,1.575,0.462,2.275s0.728,1.333,1.259,1.863c0.531,0.531,1.163,0.961,1.863,1.259
		c0.771,0.328,1.738,0.492,2.705,0.492c0.966,0,1.932-0.164,2.704-0.492c0.7-0.297,1.332-0.728,1.863-1.259
		c0.531-0.531,0.962-1.163,1.259-1.863C170.03,38.118,170.194,37.349,170.194,36.543L170.194,36.543z M60.284,20.926h6.479v0.989
		h-1.526v18.976h3.587c0.968,0,1.703-0.337,2.263-0.874s0.945-1.273,1.211-2.074c0.266-0.801,0.414-1.666,0.5-2.458
		c0.086-0.792,0.11-1.512,0.13-2.023h1.425v7.428v0.988h-1.295H60.284v-0.988h1.526V21.915h-1.526V20.926L60.284,20.926z
		 M117.942,11.832h9.291v1.417h-2.189v27.212h5.144c1.388,0,2.442-0.483,3.246-1.252c0.803-0.77,1.355-1.826,1.737-2.975
		c0.382-1.148,0.594-2.388,0.717-3.524c0.123-1.136,0.159-2.167,0.187-2.901h2.042v10.652v1.417h-1.857h-18.318v-1.417h2.189V13.25
		h-2.189V11.832L117.942,11.832z M75.849,40.891h1.526V21.915h-1.526v-0.989h8.824c0.642,0,1.333,0.13,2.011,0.368
		c0.678,0.237,1.344,0.581,1.936,1.009c0.63,0.528,1.146,1.147,1.495,1.835c0.344,0.68,0.517,1.466,0.517,2.253
		s-0.173,1.574-0.517,2.253c-0.35,0.688-0.865,1.307-1.495,1.835c-0.592,0.428-1.258,0.772-1.936,1.009s-1.369,0.367-2.011,0.367
		h-3.872v9.035h1.526v0.988h-6.479V40.891L75.849,40.891z M172.889,40.891h1.526V21.915h-1.526v-0.989h8.824
		c0.642,0,1.333,0.13,2.012,0.368c0.678,0.237,1.344,0.581,1.936,1.009c0.63,0.528,1.146,1.147,1.495,1.835
		c0.345,0.68,0.518,1.466,0.518,2.253s-0.173,1.574-0.518,2.253c-0.35,0.688-0.865,1.307-1.495,1.835
		c-0.592,0.428-1.258,0.772-1.936,1.009c-0.552,0.193-1.111,0.314-1.646,0.354l0.008,0.014l6.26,9.035h1.587v0.988h-4.982
		l-6.946-10.022h-0.163v9.035h1.526v0.988h-6.479V40.891L172.889,40.891z M14.198,40.461h2.188V13.25h-2.188v-1.417l12.654,0
		c0.92,0,1.911,0.186,2.884,0.526c0.973,0.34,1.928,0.834,2.776,1.448c0.904,0.757,1.643,1.644,2.144,2.631
		c0.495,0.975,0.742,2.103,0.742,3.231s-0.247,2.257-0.742,3.232c-0.5,0.986-1.24,1.874-2.144,2.631
		c-0.849,0.614-1.804,1.107-2.776,1.447c-0.791,0.277-1.594,0.452-2.361,0.507l0.011,0.02l8.978,12.956h2.275v1.417h-7.146
		l-9.96-14.373H21.3v12.956h2.188v1.417h-9.291V40.461L14.198,40.461z M208.408,40.891h1.353V21.915h-1.353v-0.989h5.163h0.158
		l8.529,14.351V21.915h-1.552v-0.989h4.201v0.989h-1.353v19.963h-1.297l-11.201-18.845v17.857h1.552v0.988h-4.201V40.891
		L208.408,40.891z M21.3,13.25v12.839h2.499c0.944-0.026,1.77-0.108,2.482-0.266c0.712-0.158,1.313-0.391,1.807-0.721
		c0.494-0.33,0.882-0.755,1.171-1.299c0.495-0.931,0.742-2.532,0.742-4.134s-0.247-3.204-0.742-4.134
		c-0.289-0.543-0.677-0.97-1.171-1.299s-1.095-0.563-1.807-0.72c-0.713-0.158-1.539-0.239-2.482-0.266H21.3L21.3,13.25z
		 M177.841,21.915v8.953h1.743c0.658-0.019,1.234-0.075,1.73-0.185c0.497-0.11,0.916-0.273,1.261-0.503s0.615-0.527,0.816-0.906
		c0.346-0.649,0.518-1.766,0.518-2.883c0-1.117-0.172-2.234-0.518-2.883c-0.201-0.379-0.472-0.676-0.816-0.906
		s-0.764-0.393-1.261-0.502c-0.496-0.11-1.072-0.167-1.73-0.185H177.841L177.841,21.915z M80.801,21.915v8.953h1.743
		c0.659-0.019,1.234-0.075,1.731-0.185c0.497-0.11,0.916-0.273,1.261-0.503c0.344-0.23,0.615-0.527,0.816-0.906
		c0.345-0.649,0.518-1.766,0.518-2.883c0-1.117-0.172-2.234-0.518-2.883c-0.201-0.379-0.472-0.676-0.816-0.906
		c-0.345-0.23-0.764-0.393-1.261-0.502c-0.497-0.11-1.072-0.167-1.731-0.185H80.801L80.801,21.915z M144.92,32.796l2.715-8.34
		l2.714,8.34H144.92L144.92,32.796z M45.861,32.796l2.714-8.34l2.714,8.34H45.861L45.861,32.796z"/>
</g>
</svg>
