<?xml version="1.0" encoding="utf-8"?>
<!-- Generator: Adobe Illustrator 16.0.0, SVG Export Plug-In . SVG Version: 6.00 Build 0)  -->
<!DOCTYPE svg PUBLIC "-//W3C//DTD SVG 1.1//EN" "http://www.w3.org/Graphics/SVG/1.1/DTD/svg11.dtd">
<svg version="1.1" id="Layer_12" xmlns="http://www.w3.org/2000/svg" xmlns:xlink="http://www.w3.org/1999/xlink" x="0px" y="0px"
	 width="241.553px" height="60.457px" viewBox="0 0 241.553 60.457" enable-background="new 0 0 241.553 60.457"
	 xml:space="preserve">
<g>
	<path fill="#FFFFFF" d="M23.899,26.176c-1.478-0.597-2.93-1-4.096-1.944c-0.817-0.664-1.223-1.703-1.161-2.948
		c0.121-2.389,1.937-3.974,4.649-3.835c2.223,0.112,3.646,1.206,4.262,3.249l3.291-0.54c-0.865-3.249-3.512-5.229-7.449-5.428
		c-4.641-0.234-7.685,2.303-7.891,6.396c-0.109,2.159,0.526,3.898,1.873,5.115c1.659,1.527,3.529,2.115,5.294,2.826
		c3.342,1.319,5.127,2.33,4.986,5.11c-0.114,2.261-1.995,3.808-4.969,3.658c-2.258-0.114-3.81-1.122-4.468-2.782l-3.123,0.685
		c1.074,3.001,3.694,4.826,7.378,5.012c4.772,0.242,8.29-2.604,8.49-6.568C31.173,30.088,28.814,28.131,23.899,26.176z"/>
	<polygon fill="#FFFFFF" points="46.397,40.616 59.387,40.616 59.387,37.665 49.637,37.665 49.637,29.241 59.387,29.241 
		59.387,26.355 49.637,26.355 49.637,18.52 59.387,18.52 59.387,15.572 46.397,15.572 46.397,40.616 	"/>
	<path fill="#FFFFFF" d="M76.749,39.934h3.24V31.31h2.715c5.236,0,8.77-3.408,8.77-8.161c0-4.917-3.5-8.26-9.392-8.26h-5.333V39.934
		L76.749,39.934z M79.988,28.33V17.838h2.061c3.991,0,6.086,1.835,6.086,5.181c0,3.341-2.062,5.311-5.563,5.311H79.988L79.988,28.33
		z"/>
	<polygon fill="#FFFFFF" points="106.805,40.957 110.044,40.957 110.044,29.516 123.164,29.516 123.164,40.957 126.404,40.957 
		126.404,15.913 123.164,15.913 123.164,26.565 110.044,26.565 110.044,15.913 106.805,15.913 106.805,40.957 	"/>
	<path fill="#FFFFFF" d="M152.312,41.794c3.696,0,6.676-1.151,9.062-3.48c2.522-2.458,3.862-5.738,3.862-9.539
		c0-3.801-1.375-7.115-3.895-9.573c-2.321-2.26-5.366-3.441-9.03-3.441c-3.665,0-6.708,1.181-9.03,3.441
		c-2.521,2.458-3.895,5.771-3.895,9.573c0,3.801,1.342,7.081,3.861,9.539C145.635,40.643,148.646,41.794,152.312,41.794
		L152.312,41.794z M152.278,38.84c-2.716,0-4.94-0.887-6.675-2.658c-1.897-1.9-2.879-4.489-2.879-7.407
		c0-2.951,0.981-5.506,2.879-7.407c1.701-1.739,3.992-2.654,6.675-2.654c2.717,0,4.974,0.916,6.709,2.654
		c1.896,1.933,2.912,4.456,2.912,7.407c0,2.917-0.982,5.507-2.879,7.407C157.284,37.953,154.995,38.84,152.278,38.84L152.278,38.84z
		"/>
	<path fill="#FFFFFF" d="M177.613,39.934h3.237V29.739l8.901,10.194h4.09l-8.802-9.735h0.196c4.483,0,7.526-3.281,7.526-7.705
		c0-4.721-3.338-7.604-9.455-7.604h-5.694V39.934L177.613,39.934z M180.851,27.74v-9.902h2.194c4.253,0,6.38,1.705,6.38,4.753
		c0,3.281-2.16,5.149-6.217,5.149H180.851L180.851,27.74z"/>
	<path fill="#FFFFFF" d="M206.482,39.934h3.471l2.225-5.804h11.747l2.225,5.804h3.795l-10.535-25.044h-2.718L206.482,39.934
		L206.482,39.934z M213.322,31.179l3.993-10.041c0.098-0.261,0.36-1.049,0.752-2.32c0.392,1.339,0.654,2.093,0.752,2.32
		l3.927,10.041H213.322L213.322,31.179z"/>
</g>
</svg>
