<?xml version="1.0" encoding="utf-8"?>
<!-- Generator: Adobe Illustrator 16.0.0, SVG Export Plug-In . SVG Version: 6.00 Build 0)  -->
<!DOCTYPE svg PUBLIC "-//W3C//DTD SVG 1.1//EN" "http://www.w3.org/Graphics/SVG/1.1/DTD/svg11.dtd">
<svg version="1.1" id="Layer_1" xmlns="http://www.w3.org/2000/svg" xmlns:xlink="http://www.w3.org/1999/xlink" x="0px" y="0px"
	 width="241.553px" height="60.457px" viewBox="0 0 241.553 60.457" enable-background="new 0 0 241.553 60.457"
	 xml:space="preserve">
<path fill="#FFFFFF" d="M44.582,37.108c3.757,0,6.802-3.047,6.802-6.802c0-3.756-3.045-6.802-6.802-6.802
	c-3.754,0-6.8,3.046-6.8,6.802C37.782,34.061,40.828,37.108,44.582,37.108L44.582,37.108z M44.582,43.529
	c7.234,0,13.097-5.864,13.097-13.098c0-7.233-5.863-13.096-13.097-13.096c-7.232,0-13.097,5.862-13.097,13.096
	C31.485,37.666,37.35,43.529,44.582,43.529L44.582,43.529z M24.862,30.432c0-10.891,8.829-19.718,19.72-19.718
	c10.891,0,19.721,8.828,19.721,19.718c0,10.893-8.83,19.721-19.721,19.721C33.691,50.152,24.862,41.324,24.862,30.432L24.862,30.432
	z"/>
<polygon fill="#FFFFFF" points="70.708,16.279 93.177,16.279 93.177,21.949 85.448,21.949 85.448,44.67 78.582,44.67 78.582,21.991 
	70.708,21.991 70.708,16.279 "/>
<path fill="#FFFFFF" d="M127.018,21.991h-6.299v5.668c0,0,4.914,0.018,5.649,0c1.974-0.041,3.5-0.922,3.5-2.855
	C129.868,22.701,128.573,21.991,127.018,21.991L127.018,21.991z M114.167,16.279c0,0,5.167,0,13.334,0
	c7.581,0,8.631,5.187,8.631,8.21c0,4.39-3.78,6.595-4.116,6.679c0,0,3.319,1.239,3.319,4.998v5.292c0,2.123,1.302,2.709,1.532,3.213
	h-5.417c-2.583-0.293-2.541-2.351-2.521-3.527v-4.557c-0.063-1.112-0.399-2.354-2.73-2.395h-5.48V44.67h-6.573L114.167,16.279
	L114.167,16.279z"/>
<polygon fill="#FFFFFF" points="165.113,16.279 165.113,44.67 185.565,44.67 185.565,38.833 171.79,38.833 171.79,32.489 
	183.55,32.489 183.55,27.115 171.79,27.115 171.79,21.991 185.565,21.991 185.565,16.279 165.113,16.279 "/>
<polygon fill="#FFFFFF" points="186.532,21.991 194.64,21.991 194.64,44.67 201.357,44.67 201.357,21.991 209.589,21.991 
	209.589,16.279 186.532,16.279 186.532,21.991 "/>
<path fill="#FFFFFF" d="M100.274,26.296l-2.415,7.329h4.978L100.274,26.296L100.274,26.296z M96.468,16.274h7.288l9.928,28.396
	h-7.063l-2.051-5.9H96.19l-1.934,5.9h-7.004L96.468,16.274L96.468,16.274z"/>
<path fill="#FFFFFF" d="M162.761,28.816h-12.2v5.522h5.794c-0.011,1.136,0.169,2.271-1.192,3.866
	c-0.464,0.543-2.052,1.762-4.268,1.762c-1.868,0-3.211-0.534-4.378-1.523c-2.575-2.188-3.181-6.273-3.181-8.41
	c0-2.688,1.07-9.364,7.643-9.638c0,0,4.433-0.287,5.588,5.06h6.151c-0.125-2.709-3.276-10.319-11.739-10.331
	c-2.921-0.004-6.628,0.875-9.697,3.949c-2.224,2.227-4.225,5.965-4.225,11.233c0,5.714,2.104,9.429,4.027,11.469
	c3.377,3.584,6.779,3.859,8.552,3.859c1.405,0,4.095-0.209,7.581-2.561l0.923,1.596h4.621V28.816L162.761,28.816z"/>
<path fill="#FFFFFF" d="M204.474,42.803h0.354c0.226,0,0.394-0.035,0.394-0.277c0-0.217-0.229-0.25-0.412-0.25h-0.335V42.803
	L204.474,42.803z M204.076,41.966h0.756c0.502,0,0.786,0.156,0.786,0.593c0,0.368-0.23,0.51-0.527,0.537l0.535,0.875h-0.415
	l-0.487-0.857h-0.25v0.857h-0.397V41.966L204.076,41.966z M204.79,44.383c0.741,0,1.349-0.596,1.349-1.413
	c0-0.813-0.607-1.401-1.349-1.401c-0.753,0-1.352,0.588-1.352,1.401C203.438,43.787,204.037,44.383,204.79,44.383L204.79,44.383z
	 M204.79,41.184c0.97,0,1.836,0.699,1.836,1.786c0,1.091-0.866,1.794-1.836,1.794c-0.973,0-1.839-0.703-1.839-1.794
	C202.951,41.883,203.817,41.184,204.79,41.184L204.79,41.184z"/>
</svg>
