<?xml version="1.0" encoding="utf-8"?>
<!-- Generator: Adobe Illustrator 16.0.0, SVG Export Plug-In . SVG Version: 6.00 Build 0)  -->
<!DOCTYPE svg PUBLIC "-//W3C//DTD SVG 1.1//EN" "http://www.w3.org/Graphics/SVG/1.1/DTD/svg11.dtd">
<svg version="1.1" id="Layer_4" xmlns="http://www.w3.org/2000/svg" xmlns:xlink="http://www.w3.org/1999/xlink" x="0px" y="0px"
	 width="241.553px" height="60.457px" viewBox="0 0 241.553 60.457" enable-background="new 0 0 241.553 60.457"
	 xml:space="preserve">
<g>
	<path fill-rule="evenodd" clip-rule="evenodd" fill="#FFFFFF" d="M130.503,36.304c0,0.394-0.04,0.8-0.146,1.153
		c-0.445,1.477-1.976,2.729-3.892,2.729c-1.592,0-2.866-0.911-2.866-2.824c0-2.932,3.229-3.739,6.904-3.721V36.304L130.503,36.304z
		 M136.259,31.198c0-4.834-2.064-9.086-9.04-9.086c-3.581,0-6.426,1.004-7.976,1.901l1.133,3.887
		c1.421-0.899,3.68-1.636,5.819-1.636c3.538-0.01,4.114,2.001,4.114,3.294v0.301c-7.713-0.01-12.589,2.662-12.589,8.103
		c0,3.325,2.485,6.439,6.799,6.439c2.656,0,4.879-1.057,6.209-2.754h0.133c0,0,0.881,3.681,5.732,2.278
		c-0.25-1.539-0.335-3.178-0.335-5.144V31.198L136.259,31.198z"/>
	<path fill-rule="evenodd" clip-rule="evenodd" fill="#FFFFFF" d="M16.062,15.532c0,0,5.042,20.655,5.848,24.004
		c0.937,3.919,2.63,5.356,7.506,4.389l3.148-12.811c0.797-3.182,1.332-5.448,1.845-8.686h0.091c0.361,3.27,0.875,5.516,1.531,8.7
		c0,0,1.28,5.812,1.937,8.865c0.657,3.051,2.487,4.976,7.267,3.931l7.504-28.393h-6.056l-2.562,12.273
		c-0.689,3.571-1.316,6.364-1.793,9.633H42.24c-0.438-3.236-0.992-5.917-1.694-9.397l-2.667-12.51h-6.308L28.72,27.725
		c-0.809,3.705-1.565,6.699-2.047,9.854h-0.087c-0.494-2.973-1.15-6.733-1.857-10.319c0,0-1.694-8.724-2.288-11.729H16.062
		L16.062,15.532z"/>
	<path fill-rule="evenodd" clip-rule="evenodd" fill="#FFFFFF" d="M64.184,36.304c0,0.394-0.034,0.8-0.143,1.153
		c-0.446,1.477-1.975,2.729-3.891,2.729c-1.595,0-2.863-0.911-2.863-2.824c0-2.932,3.224-3.739,6.896-3.721V36.304L64.184,36.304z
		 M69.942,31.198c0-4.834-2.062-9.086-9.04-9.086c-3.584,0-6.425,1.004-7.979,1.901l1.14,3.887c1.417-0.899,3.676-1.636,5.817-1.636
		c3.537-0.01,4.118,2.001,4.118,3.294v0.301c-7.718-0.01-12.59,2.662-12.59,8.103c0,3.325,2.481,6.439,6.795,6.439
		c2.654,0,4.878-1.057,6.208-2.754h0.132c0,0,0.882,3.681,5.738,2.278c-0.258-1.539-0.34-3.178-0.34-5.144V31.198L69.942,31.198z"/>
	<polygon fill-rule="evenodd" clip-rule="evenodd" fill="#FFFFFF" points="79.555,37.893 79.555,15.529 73.79,15.529 73.79,43.925 
		79.555,43.925 79.555,37.893 	"/>
	<path fill-rule="evenodd" clip-rule="evenodd" fill="#FFFFFF" d="M154.989,15.532v20.947c0,2.881,0.538,4.908,1.706,6.145
		c1.013,1.079,2.683,1.777,4.687,1.777c1.708,0,3.386-0.321,4.175-0.616l-0.074-4.506c-0.588,0.144-1.267,0.257-2.188,0.257
		c-1.964,0-2.623-1.251-2.623-3.85v-8.007h5.021v-5.433h-5.021v-6.714H154.989L154.989,15.532z"/>
	<path fill-rule="evenodd" clip-rule="evenodd" fill="#FFFFFF" d="M140.102,22.596v21.329h5.946V32.998
		c0-0.586,0.038-1.101,0.129-1.573c0.442-2.286,2.189-3.746,4.705-3.746c0.688,0,1.182,0.072,1.712,0.148v-5.581
		c-0.444-0.093-0.747-0.134-1.308-0.134c-2.22,0-4.743,1.432-5.803,4.504h-0.165v-4.021H140.102L140.102,22.596z"/>
	<path fill-rule="evenodd" clip-rule="evenodd" fill="#FFFFFF" d="M83.594,22.596v21.329h5.793v-12.51
		c0-0.588,0.068-1.21,0.275-1.746c0.479-1.259,1.65-2.737,3.521-2.737c2.338,0,3.43,1.979,3.43,4.834v12.158h5.791V31.264
		c0-0.561,0.077-1.234,0.241-1.73c0.478-1.432,1.739-2.602,3.479-2.602c2.37,0,3.506,1.945,3.506,5.304v11.688h5.798V31.359
		c0-6.626-3.367-9.247-7.164-9.247c-1.685,0-3.009,0.423-4.208,1.157c-1.011,0.621-1.913,1.5-2.7,2.657h-0.086
		c-0.919-2.299-3.069-3.814-5.88-3.814c-3.602,0-5.226,1.825-6.211,3.381h-0.085v-2.897H83.594L83.594,22.596z"/>
	<path fill-rule="evenodd" clip-rule="evenodd" fill="#FFFFFF" d="M198.017,22.907c1.046,0,1.911-0.546,2.03-1.254l1.037-11.727
		c0-1.157-1.36-2.107-3.065-2.107c-1.704,0-3.063,0.95-3.063,2.107l1.037,11.727c0.114,0.708,0.983,1.254,2.029,1.254H198.017
		L198.017,22.907z"/>
	<path fill-rule="evenodd" clip-rule="evenodd" fill="#FFFFFF" d="M191.68,26.568c0.525-0.907,0.483-1.93-0.07-2.38l-9.64-6.763
		c-1-0.579-2.508,0.117-3.356,1.598c-0.855,1.477-0.705,3.128,0.295,3.709l10.671,4.969c0.668,0.248,1.578-0.231,2.104-1.138
		L191.68,26.568L191.68,26.568z"/>
	<path fill-rule="evenodd" clip-rule="evenodd" fill="#FFFFFF" d="M204.358,26.563c0.527,0.907,1.432,1.386,2.101,1.138
		l10.674-4.969c1.002-0.581,1.146-2.232,0.291-3.709c-0.851-1.478-2.353-2.176-3.358-1.598l-9.636,6.763
		c-0.552,0.45-0.591,1.473-0.068,2.38L204.358,26.563L204.358,26.563z"/>
	<path fill-rule="evenodd" clip-rule="evenodd" fill="#FFFFFF" d="M198.017,37.548c1.046,0,1.911,0.546,2.03,1.252l1.037,11.729
		c0,1.156-1.36,2.109-3.065,2.109c-1.704,0-3.063-0.953-3.063-2.109l1.037-11.729c0.114-0.706,0.983-1.252,2.029-1.252H198.017
		L198.017,37.548z"/>
	<path fill-rule="evenodd" clip-rule="evenodd" fill="#FFFFFF" d="M204.358,33.895c0.527-0.909,1.432-1.386,2.101-1.135
		l10.674,4.966c1.002,0.581,1.146,2.229,0.291,3.709c-0.851,1.476-2.353,2.178-3.358,1.602l-9.636-6.762
		c-0.552-0.457-0.591-1.478-0.068-2.385L204.358,33.895L204.358,33.895z"/>
	<path fill-rule="evenodd" clip-rule="evenodd" fill="#FFFFFF" d="M191.68,33.89c0.525,0.907,0.483,1.928-0.07,2.385l-9.64,6.755
		c-1,0.579-2.508-0.119-3.356-1.595c-0.855-1.48-0.705-3.128,0.295-3.712l10.671-4.964c0.668-0.252,1.578,0.224,2.104,1.133
		L191.68,33.89L191.68,33.89z"/>
	<path fill-rule="evenodd" clip-rule="evenodd" fill="#FFFFFF" d="M218.11,44.953c0.106,0.063,0.27,0.119,0.438,0.119
		c0.216,0,0.333-0.097,0.333-0.248c0-0.141-0.094-0.221-0.326-0.301c-0.297-0.112-0.488-0.268-0.488-0.53
		c0-0.299,0.246-0.528,0.644-0.528c0.195,0,0.344,0.044,0.438,0.094l-0.085,0.271c-0.065-0.037-0.189-0.09-0.36-0.09
		c-0.213,0-0.3,0.114-0.3,0.219c0,0.144,0.104,0.207,0.347,0.299c0.313,0.116,0.467,0.279,0.467,0.54
		c0,0.293-0.219,0.547-0.688,0.547c-0.194,0-0.394-0.053-0.493-0.112L218.11,44.953L218.11,44.953z"/>
	<path fill-rule="evenodd" clip-rule="evenodd" fill="#FFFFFF" d="M221.061,44.574c-0.015-0.234-0.026-0.516-0.026-0.763h-0.007
		c-0.056,0.221-0.134,0.469-0.216,0.697l-0.264,0.79h-0.255l-0.243-0.779c-0.068-0.234-0.134-0.48-0.18-0.708h-0.01
		c-0.007,0.235-0.022,0.526-0.032,0.778l-0.041,0.73h-0.311l0.121-1.82h0.436l0.24,0.731c0.065,0.212,0.119,0.428,0.168,0.63h0.008
		c0.046-0.195,0.11-0.423,0.18-0.632l0.25-0.729h0.433l0.108,1.82h-0.325L221.061,44.574L221.061,44.574z"/>
</g>
</svg>
