<?xml version="1.0" encoding="utf-8"?>
<!-- Generator: Adobe Illustrator 16.0.0, SVG Export Plug-In . SVG Version: 6.00 Build 0)  -->
<!DOCTYPE svg PUBLIC "-//W3C//DTD SVG 1.1//EN" "http://www.w3.org/Graphics/SVG/1.1/DTD/svg11.dtd">
<svg version="1.1" xmlns="http://www.w3.org/2000/svg" xmlns:xlink="http://www.w3.org/1999/xlink" x="0px" y="0px" width="525px"
	 height="444.765px" viewBox="0 0 525 444.765" enable-background="new 0 0 525 444.765" xml:space="preserve">
<g id="Layer_1">
	<path fill-rule="evenodd" clip-rule="evenodd" fill="#818486" d="M321.222,265.484c-85.327,0-170.664,0-256.123,0
		c0-79.811,0-159.507,0-239.477c132.568,0,264.942,0,397.885,0c0,79.939,0,159.524,0,239.477c-17.979,0-35.953,0-53.929,0
		c5.65,5.274,11.302,10.548,16.952,15.822c18.916,0,37.84,0,56.776,0c0-2.279,0-3.929,0-5.579
		c-0.001-83.146-0.003-166.291,0.002-249.436c0.001-14.368-5.234-19.747-19.405-19.748C330.252,6.535,197.124,6.536,63.996,6.542
		c-13.203,0.001-18.788,5.621-18.789,18.85c-0.007,83.645-0.012,167.29-0.004,250.936c0,1.599,0.167,3.197,0.265,4.979
		c92.018,0,183.838,0,275.753,0V265.484z"/>
	<path fill="#FFFFFF" d="M335.622,217.11c0.959,0.731,1.987,1.389,2.864,2.207c50.14,46.783,100.265,93.582,150.395,140.373
		c0.795,0.741,1.644,1.428,3.126,2.711c-25.635,2.219-50.31,4.353-75.553,6.537c14.301,31.653,34.257,75.819,34.257,75.819
		l-33.928,0.007c0,0-13.764-31.816-27.671-63.969c-0.964,0.854-1.769,1.521-2.524,2.24c-16.102,15.309-32.193,30.625-48.311,45.917
		c-0.776,0.737-1.766,1.254-2.655,1.873C335.622,359.586,335.622,288.348,335.622,217.11z"/>
	<g>
		<path fill-rule="evenodd" clip-rule="evenodd" fill="#818486" d="M454.089,307.516l31.6,29.496c7.577,0.002,15.153,0,22.73,0.004
			c4.415,0.002,8.479-0.447,10.223-5.265c1.973-5.448,0.121-14.274-3.425-16.892c-9.646-7.121-19.221-14.344-29.041-21.216
			c-2.257-1.58-5.384-2.703-8.112-2.709c-13.937-0.028-27.873-0.047-41.81-0.064C442.198,296.419,448.145,301.967,454.089,307.516z"
			/>
		<path fill-rule="evenodd" clip-rule="evenodd" fill="#818486" d="M321.222,290.797c-22.208-0.003-44.415-0.003-66.623-0.003
			c-68.322-0.001-136.645,0.001-204.967,0.097c-2.177,0.004-4.759,0.492-6.464,1.715c-11.493,8.239-22.8,16.738-34.167,25.152
			c0,5,0,10,0,15c3.092,3.438,6.936,4.279,11.506,4.274c88.317-0.092,176.635-0.044,264.953-0.037c11.921,0.001,23.842,0,35.763,0
			V290.797z M295.463,325.401c-10.487-0.026-20.975-0.011-31.461-0.011c-10.486,0.015-20.973-0.008-31.46,0.03
			c-2.687,0.01-4.862-0.004-4.847-3.815c0.015-3.715,1.991-3.879,4.792-3.871c20.974,0.056,41.948,0.047,62.922,0.01
			c2.695-0.004,4.863-0.056,4.87,3.773C300.285,325.284,298.158,325.408,295.463,325.401z"/>
	</g>
</g>
<g id="Layer_2">
	<g>
		<g>
			<g>
				<path fill="#FFFFFF" d="M177.994,117.855c0.197,0.481,0.223,0.553,0.438,0.685c0.183,0.11,0.339,0.11,0.339,0.183
					c0,0.045-0.027,0.05-0.156,0.05c-0.223,0-0.373-0.026-0.83-0.026h-0.782c-0.059,0-0.099-0.005-0.099-0.09
					c0-0.073,0.061-0.105,0.17-0.117c0.15-0.015,0.275-0.054,0.275-0.17c0-0.065-0.041-0.144-0.067-0.234l-0.266-0.868
					c-0.013-0.047-0.032-0.067-0.175-0.067c-0.163,0-0.38-0.025-0.83-0.025c-0.164,0-0.223,0.084-0.327,0.347
					c-0.116,0.272-0.3,0.644-0.3,0.794c0,0.188,0.151,0.209,0.308,0.223c0.066,0.006,0.196,0.024,0.196,0.124
					c0,0.083-0.059,0.109-0.204,0.109c-0.077,0-0.208-0.026-0.449-0.026c-0.261,0-0.457,0.026-0.743,0.026
					c-0.066,0-0.112-0.004-0.112-0.05c0-0.112,0.183-0.085,0.346-0.183c0.131-0.078,0.229-0.191,0.287-0.313l1.116-2.387
					c0.255-0.542,0.412-1,0.562-1.397h0.08L177.994,117.855L177.994,117.855L177.994,117.855z M176.486,115.792
					c-0.012-0.031-0.038-0.031-0.052-0.031c-0.025,0-0.056,0.04-0.078,0.091l-0.357,0.81c-0.027,0.064-0.054,0.125-0.054,0.175
					c0,0.046,0.255,0.053,0.47,0.053c0.254,0,0.444,0,0.444-0.039c0-0.025-0.007-0.052-0.014-0.071L176.486,115.792L176.486,115.792
					z"/>
				<path fill="#FFFFFF" d="M181.63,117.15c0.064,0.15,0.143,0.292,0.19,0.292c0.059,0,0.169-0.312,0.103-0.155l0.848-2.14
					c0.125-0.315,0.183-0.392,0.477-0.392h1.004c0.119,0,0.13,0.027,0.13,0.098c0,0.066-0.025,0.112-0.292,0.138
					c-0.327,0.031-0.379,0.044-0.379,0.286v2.817c0,0.277,0.079,0.387,0.353,0.447c0.222,0.044,0.327,0.097,0.327,0.137
					c0,0.083-0.034,0.111-0.224,0.111c-0.163,0-0.521-0.041-0.756-0.041c-0.249,0-0.555,0.013-0.887,0.013
					c-0.079,0-0.104-0.005-0.104-0.09c0-0.085,0.077-0.119,0.254-0.13c0.234-0.022,0.268-0.099,0.268-0.177v-2.572
					c0-0.13-0.008-0.176-0.026-0.176c-0.034,0-0.098,0.132-0.189,0.366l-1.057,2.616c-0.021,0.053-0.045,0.06-0.092,0.06
					c-0.051,0-0.073-0.033-0.111-0.125l-1.124-2.573c-0.052-0.121-0.148-0.331-0.188-0.331c-0.031,0-0.031,0.038-0.031,0.066
					l-0.028,2.066c-0.007,0.641,0.059,0.753,0.282,0.779c0.357,0.038,0.417,0.051,0.417,0.149c0,0.083-0.053,0.083-0.203,0.083
					c-0.124,0-0.378-0.026-0.712-0.026c-0.286,0-0.436,0.026-0.601,0.026c-0.11,0-0.149-0.005-0.149-0.083
					c0-0.098,0.025-0.13,0.3-0.149c0.176-0.015,0.287-0.071,0.307-0.489l0.143-2.695c0.014-0.25-0.045-0.322-0.372-0.367
					c-0.26-0.041-0.275-0.072-0.275-0.15c0-0.058,0.015-0.097,0.139-0.097c0.11,0,0.372,0.039,0.542,0.039
					c0.21,0,0.372-0.027,0.438-0.027c0.261,0,0.279,0.018,0.308,0.077L181.63,117.15L181.63,117.15z"/>
				<path fill="#FFFFFF" d="M185.394,115.369c0-0.159,0-0.373-0.208-0.393c-0.333-0.032-0.36-0.057-0.36-0.129
					c0-0.079,0.027-0.092,0.132-0.092c0.281,0,0.575,0.027,1.371,0.027c0.417,0,0.86-0.027,1.42-0.027
					c0.132,0,0.145,0.013,0.145,0.542c0,0.247,0,0.398-0.098,0.398c-0.105,0-0.112-0.19-0.242-0.406
					c-0.117-0.197-0.483-0.286-1.037-0.286c-0.288,0-0.301,0.018-0.301,0.378v1.012c0,0.13,0.027,0.175,0.417,0.175
					c0.372,0,0.459-0.084,0.542-0.215c0.104-0.157,0.157-0.366,0.253-0.366c0.1,0,0.092,0.171,0.092,0.19
					c0,0.151-0.053,0.501-0.053,0.75c0,0.267,0.029,0.386,0.029,0.438c0,0.058-0.021,0.089-0.099,0.089
					c-0.078,0-0.091-0.024-0.162-0.333c-0.047-0.195-0.183-0.333-0.758-0.333c-0.241,0-0.267,0.034-0.267,0.197v1.253
					c0,0.24,0.313,0.286,0.613,0.286c0.274,0,0.364-0.045,0.496-0.118c0.455-0.254,0.455-0.652,0.605-0.652
					c0.084,0,0.084,0.064,0.084,0.124c0,0.091-0.079,0.347-0.104,0.504c-0.025,0.142-0.072,0.389-0.124,0.389
					c-0.56,0-0.809-0.025-1.062-0.025h-1.398c-0.32,0-0.412,0.025-0.464,0.025c-0.083,0-0.15-0.018-0.15-0.096
					c0-0.131,0.145-0.131,0.196-0.137c0.431-0.054,0.49-0.071,0.49-0.724L185.394,115.369L185.394,115.369z"/>
				<path fill="#FFFFFF" d="M189.107,115.284c0-0.196-0.111-0.28-0.229-0.293c-0.372-0.041-0.391-0.047-0.391-0.125
					c0-0.093,0.033-0.111,0.128-0.111c0.284,0,0.921,0.027,1.046,0.027c0.104,0,0.724-0.027,1.003-0.027
					c0.575,0,1.261,0.229,1.261,0.92c0,0.848-0.779,0.868-0.779,0.998c0,0.051,0.021,0.084,0.06,0.151l0.821,1.41
					c0.111,0.182,0.262,0.281,0.399,0.318c0.26,0.073,0.288,0.078,0.288,0.125c0,0.051-0.008,0.071-0.066,0.071h-1.156
					c-0.045,0-0.096-0.02-0.123-0.071c-0.119-0.244-0.249-0.489-0.288-0.569c-0.601-1.208-0.744-1.298-0.985-1.298
					c-0.196,0-0.221,0.025-0.221,0.541v0.724c0,0.333,0.057,0.451,0.187,0.465c0.38,0.038,0.444,0.065,0.444,0.143
					c0,0.072-0.033,0.09-0.104,0.09c-0.229,0-0.365-0.026-0.939-0.026h-0.895c-0.123,0-0.143-0.005-0.143-0.077
					c0-0.085,0.059-0.119,0.202-0.13c0.126-0.015,0.431-0.026,0.431-0.3c0-0.132,0.046-0.348,0.046-1.455L189.107,115.284
					L189.107,115.284L189.107,115.284z M189.879,116.463c0,0.126,0.031,0.138,0.116,0.138c0.58,0,1.162-0.032,1.162-0.82
					c0-0.706-0.64-0.815-1.053-0.815c-0.201,0-0.225,0.15-0.225,0.449V116.463L189.879,116.463z"/>
				<path fill="#FFFFFF" d="M193.682,115.357c0-0.27-0.046-0.354-0.313-0.367c-0.164-0.007-0.196-0.041-0.196-0.119
					c0-0.079,0.032-0.117,0.184-0.117c0.156,0,0.332,0.027,0.652,0.027c0.528,0,0.606-0.027,0.822-0.027
					c0.158,0,0.182,0.018,0.182,0.077c0,0.061-0.052,0.107-0.202,0.118c-0.331,0.026-0.358,0.066-0.358,0.314v2.872
					c0,0.337,0.118,0.351,0.353,0.404c0.137,0.031,0.215,0.051,0.215,0.156c0,0.059-0.012,0.077-0.15,0.077
					c-0.178,0-0.503-0.025-0.978-0.025c-0.375,0-0.576,0.025-0.758,0.025c-0.1,0-0.112-0.045-0.112-0.123
					c0-0.09,0.027-0.099,0.288-0.11c0.221-0.014,0.37-0.021,0.37-0.516V115.357L193.682,115.357z"/>
				<path fill="#FFFFFF" d="M195.366,116.83c0-1.592,1.252-2.167,2.225-2.167c0.503,0,1.146,0.151,1.177,0.34
					c0.014,0.084,0.039,0.443,0.039,0.502c0,0.047-0.012,0.079-0.082,0.079c-0.174,0-0.415-0.725-1.151-0.725
					c-0.696,0-1.377,0.736-1.377,1.847c0,1.689,0.992,1.913,1.295,1.913c0.85,0,1.11-0.875,1.252-0.875
					c0.045,0,0.07,0.061,0.07,0.111c0,0.071-0.088,0.516-0.118,0.65c-0.062,0.268-0.874,0.359-1.159,0.359
					C196.479,118.865,195.366,118.084,195.366,116.83L195.366,116.83z"/>
				<path fill="#FFFFFF" d="M202.824,117.855c0.198,0.481,0.223,0.553,0.439,0.685c0.181,0.11,0.338,0.11,0.338,0.183
					c0,0.045-0.025,0.05-0.157,0.05c-0.221,0-0.371-0.026-0.828-0.026h-0.782c-0.06,0-0.098-0.005-0.098-0.09
					c0-0.073,0.057-0.105,0.169-0.117c0.149-0.015,0.274-0.054,0.274-0.17c0-0.065-0.04-0.144-0.066-0.234l-0.266-0.868
					c-0.013-0.047-0.035-0.067-0.177-0.067c-0.165,0-0.378-0.025-0.829-0.025c-0.161,0-0.222,0.084-0.325,0.347
					c-0.12,0.272-0.302,0.644-0.302,0.794c0,0.188,0.151,0.209,0.307,0.223c0.065,0.006,0.196,0.024,0.196,0.124
					c0,0.083-0.059,0.109-0.201,0.109c-0.079,0-0.21-0.026-0.452-0.026c-0.259,0-0.457,0.026-0.743,0.026
					c-0.067,0-0.112-0.004-0.112-0.05c0-0.112,0.183-0.085,0.347-0.183c0.13-0.078,0.228-0.191,0.287-0.313l1.115-2.387
					c0.255-0.542,0.413-1,0.563-1.397h0.078L202.824,117.855L202.824,117.855L202.824,117.855z M201.316,115.792
					c-0.012-0.031-0.038-0.031-0.051-0.031c-0.025,0-0.059,0.04-0.078,0.091l-0.36,0.81c-0.026,0.064-0.052,0.125-0.052,0.175
					c0,0.046,0.255,0.053,0.469,0.053c0.256,0,0.445,0,0.445-0.039c0-0.025-0.006-0.052-0.014-0.071L201.316,115.792
					L201.316,115.792z"/>
				<path fill="#FFFFFF" d="M204.586,115.401c0-0.3-0.077-0.345-0.527-0.41c-0.092-0.015-0.104-0.026-0.104-0.119
					c0-0.044,0.012-0.09,0.104-0.09c0.926,0,1.068-0.009,1.318-0.027l1.579,1.931c0.482,0.588,0.712,0.77,0.802,0.861
					c0.027,0.028,0.038,0.035,0.051,0.035c0.02,0,0.035-0.014,0.035-0.027v-2.094c0-0.397-0.047-0.444-0.523-0.47
					c-0.117-0.006-0.136-0.032-0.136-0.113c0-0.077,0.019-0.135,0.169-0.135c0.151,0,0.398,0.024,0.605,0.024
					c0.353,0,0.536-0.024,0.641-0.024c0.104,0,0.149,0.024,0.149,0.104c0,0.066-0.011,0.078-0.357,0.144
					c-0.177,0.031-0.203,0.103-0.222,0.456c-0.034,0.632-0.051,1.371-0.051,2.121v1.297c0,0.105-0.035,0.132-0.074,0.132
					c-0.117,0-0.189-0.19-0.484-0.523l-2.661-2.989c-0.013-0.013-0.041-0.005-0.041,0.014v1.208c0,0.515,0.027,0.926,0.027,1.319
					c0,0.321,0.076,0.422,0.49,0.516c0.181,0.038,0.246,0.07,0.246,0.124c0,0.109-0.065,0.109-0.18,0.109
					c-0.236,0-0.465-0.026-0.708-0.026c-0.273,0-0.442,0.026-0.624,0.026c-0.111,0-0.196,0-0.196-0.096
					c0-0.071,0.077-0.125,0.267-0.137c0.242-0.022,0.353-0.06,0.359-0.419c0.007-0.36,0.044-1.343,0.044-1.422V115.401
					L204.586,115.401z"/>
			</g>
			<g>
				<path fill="#FFFFFF" d="M211.516,115.369c0-0.159,0-0.373-0.206-0.393c-0.336-0.032-0.361-0.057-0.361-0.129
					c0-0.079,0.025-0.092,0.13-0.092c0.281,0,0.573,0.027,1.373,0.027c0.417,0,0.859-0.027,1.421-0.027
					c0.131,0,0.145,0.013,0.145,0.542c0,0.247,0,0.398-0.099,0.398c-0.105,0-0.112-0.19-0.241-0.406
					c-0.118-0.197-0.483-0.286-1.039-0.286c-0.286,0-0.298,0.018-0.298,0.378v1.012c0,0.13,0.025,0.175,0.416,0.175
					c0.374,0,0.459-0.084,0.542-0.215c0.104-0.157,0.157-0.366,0.254-0.366c0.099,0,0.093,0.171,0.093,0.19
					c0,0.151-0.054,0.501-0.054,0.75c0,0.267,0.028,0.386,0.028,0.438c0,0.058-0.021,0.089-0.098,0.089
					c-0.079,0-0.092-0.024-0.164-0.333c-0.046-0.195-0.183-0.333-0.757-0.333c-0.241,0-0.269,0.034-0.269,0.197v1.253
					c0,0.24,0.314,0.286,0.615,0.286c0.274,0,0.364-0.045,0.496-0.118c0.456-0.254,0.456-0.652,0.607-0.652
					c0.084,0,0.084,0.064,0.084,0.124c0,0.091-0.079,0.347-0.104,0.504c-0.024,0.142-0.072,0.389-0.123,0.389
					c-0.562,0-0.809-0.025-1.064-0.025h-1.395c-0.32,0-0.412,0.025-0.465,0.025c-0.083,0-0.15-0.018-0.15-0.096
					c0-0.131,0.143-0.131,0.195-0.137c0.432-0.054,0.489-0.071,0.489-0.724V115.369L211.516,115.369z"/>
				<path fill="#FFFFFF" d="M218.146,117.855c0.196,0.481,0.223,0.553,0.438,0.685c0.183,0.11,0.34,0.11,0.34,0.183
					c0,0.045-0.028,0.05-0.158,0.05c-0.222,0-0.373-0.026-0.827-0.026h-0.785c-0.058,0-0.097-0.005-0.097-0.09
					c0-0.073,0.06-0.105,0.17-0.117c0.15-0.015,0.273-0.054,0.273-0.17c0-0.065-0.038-0.144-0.065-0.234l-0.268-0.868
					c-0.013-0.047-0.033-0.067-0.176-0.067c-0.163,0-0.379-0.025-0.828-0.025c-0.164,0-0.223,0.084-0.326,0.347
					c-0.118,0.272-0.301,0.644-0.301,0.794c0,0.188,0.15,0.209,0.307,0.223c0.064,0.006,0.196,0.024,0.196,0.124
					c0,0.083-0.06,0.109-0.202,0.109c-0.079,0-0.209-0.026-0.45-0.026c-0.261,0-0.458,0.026-0.746,0.026
					c-0.064,0-0.11-0.004-0.11-0.05c0-0.112,0.182-0.085,0.347-0.183c0.128-0.078,0.228-0.191,0.287-0.313l1.115-2.387
					c0.254-0.542,0.411-1,0.561-1.397h0.079L218.146,117.855L218.146,117.855L218.146,117.855z M216.641,115.792
					c-0.014-0.031-0.04-0.031-0.053-0.031c-0.026,0-0.059,0.04-0.077,0.091l-0.36,0.81c-0.026,0.064-0.053,0.125-0.053,0.175
					c0,0.046,0.255,0.053,0.472,0.053c0.252,0,0.441,0,0.441-0.039c0-0.025-0.006-0.052-0.012-0.071L216.641,115.792
					L216.641,115.792z"/>
				<path fill="#FFFFFF" d="M222.62,118.416c-0.005,0.169-0.83,0.449-1.55,0.449c-1.051,0-2.181-0.566-2.181-2.035
					c0-1.396,1.009-2.167,2.262-2.167c0.503,0,1.271,0.092,1.278,0.358c0.005,0.209,0.037,0.412,0.037,0.62
					c0,0.042-0.025,0.06-0.075,0.06c-0.057,0-0.068-0.013-0.156-0.202c-0.172-0.384-0.489-0.639-1.028-0.639
					c-0.944,0-1.538,0.828-1.538,1.964c0,1.147,0.842,1.794,1.425,1.794c0.732,0,0.856-0.072,0.856-1.107
					c0-0.334-0.017-0.426-0.316-0.445c-0.41-0.025-0.415-0.034-0.415-0.119c0-0.071,0.032-0.092,0.155-0.092h1.012
					c0.259,0,0.464-0.025,0.571-0.025c0.111,0,0.191,0,0.191,0.098c0,0.065-0.025,0.091-0.273,0.139
					c-0.18,0.03-0.23,0.084-0.235,0.403L222.62,118.416L222.62,118.416z"/>
				<path fill="#FFFFFF" d="M224.049,115.218c0-0.052-0.094-0.228-0.35-0.228c-0.227,0-0.259-0.065-0.259-0.131
					c0-0.072,0.041-0.104,0.117-0.104c0.289,0,0.575,0.027,0.863,0.027c0.287,0,0.573-0.027,0.86-0.027
					c0.137,0,0.183,0.012,0.183,0.123c0,0.047-0.041,0.098-0.144,0.113c-0.326,0.039-0.502,0.073-0.502,0.24v2.917
					c0,0.333,0.032,0.367,0.183,0.367h0.458c0.992,0,1.135-0.71,1.285-0.71c0.044,0,0.088,0.017,0.088,0.14
					c0,0.223-0.115,0.829-0.234,0.829c-0.506,0-1.416-0.026-1.878-0.026c-0.293,0-0.716,0.026-1.077,0.026
					c-0.168,0-0.234,0-0.234-0.109c0-0.104,0.203-0.112,0.419-0.149c0.2-0.034,0.221-0.068,0.221-0.785V115.218L224.049,115.218z"/>
				<path fill="#FFFFFF" d="M227.805,115.369c0-0.159,0-0.373-0.208-0.393c-0.333-0.032-0.358-0.057-0.358-0.129
					c0-0.079,0.025-0.092,0.129-0.092c0.281,0,0.577,0.027,1.373,0.027c0.416,0,0.86-0.027,1.421-0.027
					c0.13,0,0.144,0.013,0.144,0.542c0,0.247,0,0.398-0.098,0.398c-0.104,0-0.112-0.19-0.244-0.406
					c-0.117-0.197-0.481-0.286-1.035-0.286c-0.287,0-0.299,0.018-0.299,0.378v1.012c0,0.13,0.025,0.175,0.417,0.175
					c0.371,0,0.456-0.084,0.54-0.215c0.104-0.157,0.158-0.366,0.256-0.366c0.097,0,0.091,0.171,0.091,0.19
					c0,0.151-0.052,0.501-0.052,0.75c0,0.267,0.025,0.386,0.025,0.438c0,0.058-0.02,0.089-0.1,0.089
					c-0.076,0-0.088-0.024-0.161-0.333c-0.045-0.195-0.183-0.333-0.756-0.333c-0.243,0-0.267,0.034-0.267,0.197v1.253
					c0,0.24,0.313,0.286,0.612,0.286c0.275,0,0.365-0.045,0.496-0.118c0.458-0.254,0.458-0.652,0.607-0.652
					c0.083,0,0.083,0.064,0.083,0.124c0,0.091-0.077,0.347-0.104,0.504c-0.026,0.142-0.072,0.389-0.124,0.389
					c-0.561,0-0.81-0.025-1.062-0.025h-1.397c-0.32,0-0.413,0.025-0.463,0.025c-0.085,0-0.151-0.018-0.151-0.096
					c0-0.131,0.143-0.131,0.196-0.137c0.431-0.054,0.488-0.071,0.488-0.724V115.369L227.805,115.369z"/>
			</g>
		</g>
		<g>
			<path fill="#FFFFFF" d="M187.638,120.716c1.145,0,1.907,0.817,1.907,1.692c0,0.874-0.762,1.693-1.907,1.693
				s-1.909-0.82-1.909-1.693C185.729,121.534,186.492,120.716,187.638,120.716L187.638,120.716L187.638,120.716z M187.638,123.921
				c0.683,0,1.168-0.567,1.168-1.513c0-1.084-0.485-1.513-1.168-1.513c-0.684,0-1.168,0.429-1.168,1.513
				C186.469,123.354,186.954,123.921,187.638,123.921L187.638,123.921z"/>
			<path fill="#FFFFFF" d="M190.34,121.247c0.006-0.159-0.02-0.237-0.162-0.237c-0.325,0-0.329-0.026-0.329-0.09
				c0-0.104,0.088-0.11,0.184-0.11h1.287c0.096,0,0.11,0.026,0.11,0.095c0,0.054-0.014,0.063-0.178,0.072
				c-0.257,0.006-0.29,0.022-0.294,0.47l-0.021,1.402c-0.017,0.884,0.347,1.052,0.937,1.052c0.524,0,1.024-0.2,1.034-0.787
				l0.026-1.772c0.007-0.194-0.016-0.28-0.353-0.364c-0.162-0.04-0.189-0.052-0.189-0.099c0-0.053,0.023-0.089,0.102-0.089
				c0.074,0,0.167,0.021,0.252,0.021h0.81c0.042,0,0.042,0.038,0.042,0.059c0,0.064-0.012,0.069-0.17,0.109
				c-0.225,0.065-0.293,0.126-0.3,0.364l-0.031,1.675c-0.016,0.748-0.446,1.084-1.324,1.084c-0.437,0-1.478-0.113-1.462-0.983
				L190.34,121.247L190.34,121.247z"/>
			<path fill="#FFFFFF" d="M196.75,120.883c0.504,0,0.331-0.242,0.473-0.242c0.042,0,0.063,0.033,0.063,0.149
				c0,0.756-0.033,0.81-0.102,0.81c-0.04,0-0.062-0.033-0.079-0.084c-0.078-0.337-0.183-0.432-0.915-0.432
				c-0.221,0-0.25,0.021-0.25,0.126v2.262c0,0.255,0.025,0.367,0.174,0.367c0.308,0,0.397,0.042,0.397,0.11
				c0,0.075-0.052,0.078-0.152,0.078c-0.163,0-0.551-0.02-0.714-0.02c-0.253,0-0.51,0.04-0.762,0.04
				c-0.107,0-0.117-0.022-0.117-0.066c0-0.116,0.273-0.07,0.431-0.142c0.059-0.026,0.121-0.21,0.121-0.3v-2.15
				c0-0.285-0.009-0.293-0.405-0.305c-0.761-0.021-0.783,0.579-0.956,0.579c-0.062,0-0.074-0.027-0.074-0.06
				c0-0.131,0.14-0.477,0.236-0.767c0.047-0.141,0.068-0.163,0.128-0.163c0.14,0-0.056,0.209,0.513,0.209H196.75L196.75,120.883z"/>
			<path fill="#FFFFFF" d="M198.722,122.099c0,0.095,0.037,0.13,0.209,0.13c0.52,0,0.646-0.104,0.698-0.204
				c0.079-0.152,0.085-0.269,0.159-0.269c0.079,0,0.095,0.011,0.095,0.647c0,0.479-0.007,0.498-0.091,0.498
				c-0.058,0-0.077-0.094-0.115-0.2c-0.051-0.15-0.131-0.293-0.625-0.293c-0.305,0-0.331,0.021-0.331,0.194v0.876
				c0,0.27,0.067,0.306,0.409,0.359c0.2,0.031,0.209,0.057,0.209,0.11c0,0.068-0.015,0.079-0.141,0.079
				c-0.257,0-0.51-0.02-0.767-0.02c-0.247,0-0.5,0.02-0.748,0.02c-0.067,0-0.087-0.031-0.087-0.087c0-0.075,0.035-0.09,0.33-0.101
				c0.074-0.005,0.141-0.026,0.141-0.223c0-0.786,0.032-1.58,0.032-2.369c0-0.201-0.063-0.264-0.216-0.27
				c-0.204-0.005-0.21-0.035-0.21-0.094c0-0.073,0.049-0.094,0.2-0.094c0.263,0,0.52,0.021,0.758,0.021
				c0.299,0,1.113-0.021,1.344-0.021c0.207,0,0.244,0.005,0.244,0.248c0,0.535-0.01,0.539-0.09,0.539
				c-0.068,0-0.073-0.182-0.146-0.309c-0.153-0.264-0.668-0.29-0.878-0.29c-0.332,0-0.383,0.016-0.383,0.347V122.099
				L198.722,122.099z"/>
			<path fill="#FFFFFF" d="M201.214,121.273c0-0.216-0.038-0.285-0.253-0.295c-0.13-0.005-0.157-0.03-0.157-0.094
				c0-0.062,0.027-0.093,0.147-0.093c0.127,0,0.27,0.021,0.524,0.021c0.427,0,0.49-0.021,0.663-0.021
				c0.126,0,0.148,0.015,0.148,0.062c0,0.048-0.042,0.086-0.163,0.096c-0.268,0.021-0.29,0.052-0.29,0.251v2.312
				c0,0.275,0.094,0.286,0.283,0.329c0.112,0.026,0.174,0.042,0.174,0.126c0,0.047-0.01,0.062-0.12,0.062
				c-0.144,0-0.406-0.02-0.79-0.02c-0.3,0-0.464,0.02-0.609,0.02c-0.079,0-0.089-0.038-0.089-0.098c0-0.074,0.021-0.079,0.23-0.089
				c0.179-0.01,0.301-0.016,0.301-0.415V121.273L201.214,121.273z"/>
			<path fill="#FFFFFF" d="M205.539,120.883c0.504,0,0.331-0.242,0.474-0.242c0.041,0,0.063,0.033,0.063,0.149
				c0,0.756-0.033,0.81-0.101,0.81c-0.041,0-0.064-0.033-0.079-0.084c-0.079-0.337-0.185-0.432-0.915-0.432
				c-0.22,0-0.252,0.021-0.252,0.126v2.262c0,0.255,0.027,0.367,0.175,0.367c0.309,0,0.399,0.042,0.399,0.11
				c0,0.075-0.052,0.078-0.151,0.078c-0.164,0-0.553-0.02-0.715-0.02c-0.252,0-0.51,0.04-0.763,0.04
				c-0.105,0-0.116-0.022-0.116-0.066c0-0.116,0.275-0.07,0.431-0.142c0.059-0.026,0.12-0.21,0.12-0.3v-2.15
				c0-0.285-0.009-0.293-0.403-0.305c-0.762-0.021-0.784,0.579-0.957,0.579c-0.064,0-0.074-0.027-0.074-0.06
				c0-0.131,0.142-0.477,0.236-0.767c0.047-0.141,0.069-0.163,0.126-0.163c0.142,0-0.053,0.209,0.514,0.209H205.539L205.539,120.883
				z"/>
			<path fill="#FFFFFF" d="M209.281,120.883c0.506,0,0.332-0.242,0.474-0.242c0.042,0,0.065,0.033,0.065,0.149
				c0,0.756-0.033,0.81-0.103,0.81c-0.042,0-0.063-0.033-0.078-0.084c-0.08-0.337-0.184-0.432-0.915-0.432
				c-0.223,0-0.252,0.021-0.252,0.126v2.262c0,0.255,0.025,0.367,0.172,0.367c0.309,0,0.4,0.042,0.4,0.11
				c0,0.075-0.053,0.078-0.154,0.078c-0.163,0-0.551-0.02-0.714-0.02c-0.251,0-0.508,0.04-0.762,0.04
				c-0.105,0-0.115-0.022-0.115-0.066c0-0.116,0.272-0.07,0.429-0.142c0.058-0.026,0.122-0.21,0.122-0.3v-2.15
				c0-0.285-0.012-0.293-0.405-0.305c-0.764-0.021-0.784,0.579-0.957,0.579c-0.062,0-0.073-0.027-0.073-0.06
				c0-0.131,0.143-0.477,0.236-0.767c0.047-0.141,0.068-0.163,0.127-0.163c0.14,0-0.054,0.209,0.514,0.209H209.281L209.281,120.883z
				"/>
			<path fill="#FFFFFF" d="M210.634,121.284c0-0.127,0-0.3-0.168-0.315c-0.27-0.026-0.291-0.049-0.291-0.106
				c0-0.063,0.021-0.073,0.105-0.073c0.227,0,0.464,0.021,1.104,0.021c0.336,0,0.695-0.021,1.147-0.021
				c0.104,0,0.114,0.01,0.114,0.435c0,0.199,0,0.321-0.079,0.321c-0.083,0-0.088-0.152-0.192-0.327
				c-0.097-0.157-0.39-0.231-0.838-0.231c-0.231,0-0.242,0.016-0.242,0.306v0.815c0,0.105,0.02,0.142,0.336,0.142
				c0.301,0,0.368-0.068,0.437-0.173c0.085-0.126,0.125-0.295,0.204-0.295c0.078,0,0.073,0.138,0.073,0.153
				c0,0.12-0.041,0.405-0.041,0.604c0,0.216,0.022,0.309,0.022,0.353c0,0.047-0.018,0.074-0.081,0.074
				c-0.063,0-0.074-0.023-0.132-0.27c-0.035-0.157-0.146-0.268-0.608-0.268c-0.195,0-0.216,0.027-0.216,0.158v1.009
				c0,0.194,0.253,0.232,0.493,0.232c0.222,0,0.297-0.038,0.4-0.095c0.369-0.206,0.369-0.527,0.489-0.527
				c0.07,0,0.07,0.054,0.07,0.102c0,0.073-0.065,0.276-0.084,0.403c-0.022,0.118-0.059,0.316-0.101,0.316
				c-0.452,0-0.651-0.02-0.857-0.02h-1.122c-0.261,0-0.333,0.02-0.375,0.02c-0.066,0-0.121-0.015-0.121-0.078
				c0-0.104,0.115-0.104,0.156-0.11c0.347-0.042,0.396-0.06,0.396-0.584V121.284L210.634,121.284z"/>
			<path fill="#FFFFFF" d="M213.663,121.216c0-0.159-0.092-0.228-0.186-0.238c-0.299-0.03-0.316-0.035-0.316-0.099
				c0-0.074,0.026-0.089,0.107-0.089c0.225,0,0.741,0.021,0.84,0.021c0.083,0,0.583-0.021,0.809-0.021
				c0.462,0,1.015,0.183,1.015,0.739c0,0.685-0.625,0.699-0.625,0.806c0,0.042,0.016,0.068,0.05,0.121l0.661,1.136
				c0.09,0.145,0.21,0.226,0.322,0.257c0.209,0.057,0.229,0.061,0.229,0.099c0,0.04-0.004,0.059-0.051,0.059h-0.932
				c-0.036,0-0.078-0.019-0.1-0.059c-0.095-0.195-0.198-0.394-0.231-0.457c-0.481-0.972-0.599-1.046-0.793-1.046
				c-0.158,0-0.179,0.021-0.179,0.438v0.583c0,0.268,0.048,0.364,0.152,0.373c0.304,0.03,0.359,0.053,0.359,0.116
				c0,0.058-0.027,0.072-0.085,0.072c-0.185,0-0.295-0.02-0.757-0.02h-0.72c-0.1,0-0.116-0.005-0.116-0.064
				c0-0.067,0.046-0.093,0.164-0.104c0.101-0.009,0.347-0.02,0.347-0.242c0-0.104,0.038-0.277,0.038-1.171V121.216L213.663,121.216
				L213.663,121.216z M214.281,122.169c0,0.099,0.027,0.11,0.095,0.11c0.467,0,0.938-0.028,0.938-0.663
				c0-0.569-0.517-0.657-0.849-0.657c-0.163,0-0.185,0.12-0.185,0.361V122.169L214.281,122.169z"/>
			<path fill="#FFFFFF" d="M218.83,121.447c0,0.057-0.021,0.082-0.067,0.082c-0.133,0-0.117-0.624-0.748-0.624
				c-0.472,0-0.61,0.305-0.61,0.547c0,0.583,1.667,0.5,1.667,1.637c0,0.371-0.179,1.013-1.183,1.013
				c-0.458,0-0.983-0.113-0.983-0.336c0-0.237,0.005-0.664,0.125-0.664c0.124,0,0.069,0.252,0.254,0.48
				c0.126,0.156,0.42,0.329,0.742,0.329c0.441,0,0.635-0.267,0.635-0.541c0-0.804-1.636-0.668-1.636-1.767
				c0-0.536,0.354-0.887,1.094-0.887c0.379,0,0.709,0.074,0.709,0.216L218.83,121.447L218.83,121.447z"/>
		</g>
		<g>
			<path fill="#FFFFFF" d="M191.007,94.637c0.082,0.432,0.045,0.984,0.371,1.174c0.003-0.599-0.257-1.897,0.154-2.35
				c0.032,0.629,0.076,1.244,0.402,1.577c0.037-0.652-0.167-1.733,0.34-2.072c-0.123,1.494,0.317,2.637,1.298,3.124
				c0.044-0.007-0.029-0.154,0-0.248c1.188,1.374,2.943,1.954,4.206,3.216c1.253,1.254,1.569,3.247,3.029,4.359
				c1.381-0.479,1.626-2.016,2.103-3.4c0.346-1.006,0.921-1.989,1.67-2.721c0.747-0.731,1.83-1.18,2.72-1.669
				c0.919-0.506,1.919-0.971,2.721-1.639c0.178-0.149,0.278-0.408,0.587-0.495c-0.018,0.623-0.527,1.018-0.773,1.515
				c0.56-0.134,1-0.542,1.423-0.896c0.223-0.188,0.429-0.37,0.617-0.587c0.18-0.207,0.298-0.486,0.557-0.619
				c0.024,0.75-0.445,1.249-0.866,1.669c-0.326,0.326-0.756,0.563-1.021,0.928c0.339,0.109,0.65-0.151,0.897-0.309
				c0.541-0.346,0.994-0.757,1.453-1.206c0.223-0.219,0.426-0.498,0.71-0.619c-0.096,1.284-1.211,1.818-1.886,2.628
				c0.818-0.183,1.599-0.833,2.227-1.206c-0.281,1.214-1.681,1.308-2.474,2.01c0.403,0.21,0.833-0.075,1.175-0.216
				c0.379-0.157,0.729-0.353,1.112-0.433c-0.132,1.145-1.598,1.225-2.411,1.793c0.515,0.221,1.128-0.22,1.669-0.278
				c-0.133,0.354-0.491,0.525-0.834,0.68c-0.354,0.159-0.792,0.163-1.051,0.433c0.082,0.244,0.446,0.065,0.649,0.062
				c-0.036,0.468-0.691,0.319-1.02,0.495c0.093,0.165,0.366,0.149,0.557,0.217c-0.14,0.489-1.164,0.093-1.392,0.495
				c0.067,0.18,0.389,0.106,0.557,0.186c-0.161,0.333-0.922,0.068-1.082,0.402c0.003,0.153,0.26,0.213,0.247,0.278
				c-0.104,0.277-0.797-0.034-0.866,0.279c0.014,0.119,0.139,0.129,0.216,0.185c-0.064,0.277-0.529,0.152-0.681,0.34
				c-0.038,0.179,0.186,0.131,0.217,0.155c0,0.279-0.308,0.249-0.402,0.433c-0.03,0.205,0.178,0.172,0.154,0.371
				c-0.141,0.029-0.367-0.019-0.402,0.185c0.037,0.191,0.208,0.246,0.156,0.526c-0.173-0.036-0.336-0.021-0.402,0.124
				c0.038,0.178,0.279,0.153,0.215,0.433c-0.145-0.042-0.35-0.043-0.371,0.124c0.048,0.241,0.366,0.212,0.31,0.557
				c-0.233-0.075-0.509-0.019-0.587,0.155c0.049,0.208,0.25,0.266,0.216,0.556c-0.083,0.06-0.185-0.123-0.309-0.031
				c-0.035,0.166,0.224,0.38,0.093,0.649c-0.157-0.029-0.184-0.188-0.402-0.155c-0.092,0.234,0.174,0.415,0.062,0.681
				c-0.078,0.031-0.279-0.148-0.401,0c0.007,0.251,0.125,0.391,0.093,0.68c-0.263,0.037-0.336-0.118-0.526-0.154
				c-0.088,0.149,0.072,0.417-0.031,0.587c-0.145,0.034-0.442-0.284-0.649-0.092c-0.072,0.208,0.162,0.232,0.094,0.34
				c-0.868,0.021-0.936-0.755-1.608-0.928c0.559,1.143,1.14,2.074,2.072,2.783c0.536,0.409,1.521,0.6,1.484,1.608
				c-0.322,0.007-0.321,0.338-0.649,0.34c-0.101,0.096-0.113,0.279-0.248,0.34c-0.166,0.011-0.255-0.055-0.371-0.093
				c-0.165,0.02-0.181,0.19-0.309,0.248c-0.376-0.213-0.556,0.224-0.836,0.247c-0.142,0.012-0.228-0.131-0.401-0.154
				c-0.193-0.026-0.401,0.142-0.558,0.124c-0.25-0.028-0.45-0.533-0.865-0.216c-0.187-0.041-0.178-0.276-0.341-0.34
				c-0.112-0.021-0.118,0.066-0.215,0.061c-0.127-0.077-0.239-0.272-0.464-0.154c-0.15-0.084-0.167-0.371-0.433-0.247
				c-0.042-0.082-0.037-0.211-0.062-0.31c-0.054-0.092-0.191,0.044-0.216-0.031c-0.149-0.766,0.919-1.048,0.618-1.762
				c-0.375,0.13-0.556,0.454-0.618,0.897c-0.118,0.015-0.097-0.11-0.155-0.156c-0.12,0.231-0.21,0.491-0.217,0.835
				c-0.1-0.065-0.139-0.191-0.186-0.309c-0.27,0.204-0.472,0.477-0.587,0.835c-0.093-0.072-0.049-0.281-0.186-0.31
				c-0.303,0.072-0.308,0.454-0.216,0.619c0.187,0.334,1.226,0.421,0.742,1.082c-0.063-0.112-0.083-0.268-0.186-0.34
				c-0.322,0.085-0.564-0.122-0.741-0.279c-0.63-0.042-1.038,0.138-1.083,0.68c-0.17-0.065-0.252-0.413-0.123-0.587
				c-0.207,0.01-0.331,0.103-0.371,0.278c-0.176-0.076-0.163-0.319-0.062-0.463c-0.241-0.029-0.292,0.276-0.433,0.247
				c-0.196-0.63,0.684-0.66,1.175-0.804c-0.053-0.202-0.225-0.111-0.402-0.186c-0.422-0.177-1.031-0.832-1.36-0.248
				c-0.181-0.124-0.058-0.432,0.062-0.525c-0.291-0.074-0.417,0.179-0.526,0.186c-0.015-0.253,0.104-0.37,0.217-0.495
				c-0.152-0.111-0.406-0.007-0.556,0.062c0.16-0.55,0.688-0.368,1.112-0.186c0.156,0.067,0.385,0.264,0.557,0.247
				c0.277-0.027,0.483-0.802,0.618-1.206c0.236-0.703,0.657-1.315,0.557-2.288c-0.078-0.758-0.612-1.19-1.36-0.958
				c-0.079,0.024-0.136,0.09-0.216,0.123c-0.346,0.142-0.876,0.032-1.144,0.31c-0.111-0.114,0.107-0.271-0.031-0.341
				c-0.245,0.055-0.299,0.299-0.34,0.557c-0.342-0.208-0.352-0.906-0.031-1.144c-0.03-0.471,0.137-0.723,0.433-0.958
				c0.435-0.347,1.44-0.495,1.515-0.896c0.092-0.493-0.607-1.333-0.835-1.577c-1.172-1.257-3.098-1.807-4.7-2.535
				c0.091-0.064,0.298-0.011,0.402-0.062c-0.263-0.313-0.718-0.436-0.896-0.834c0.136,0.008,0.238,0.049,0.401,0.031
				c-0.283-0.335-0.915-0.59-1.113-1.113c0.198-0.002,0.396,0.263,0.648,0.309c-0.516-0.493-0.955-1.41-0.958-2.381
				C190.852,95.218,190.859,94.832,191.007,94.637z M198.613,110.838c0.231,0.099,0.276,0.383,0.371,0.618
				c0.257-0.222,0.467-0.64,0.341-1.144C198.944,110.345,198.792,110.605,198.613,110.838z"/>
		</g>
	</g>
	<g>
		<g>
			<g>
				<path fill="#FFFFFF" d="M184.402,65.765c-5.734,0-5.958,4.464-5.929,5.623c0,0-0.28,5.219,5.789,5.219
					c5.215,0,5.472-3.274,5.472-3.274l-2.399,0.004c0,0-0.467,1.805-3.063,1.756c-3.336-0.062-3.466-3.294-3.466-3.294h9.243
					C190.049,71.799,190.75,65.767,184.402,65.765z M180.883,70.216c0,0,0.164-2.923,3.463-2.924
					c3.287-0.001,3.287,2.924,3.287,2.924H180.883z"/>
			</g>
		</g>
		<g>
			<g>
				<path fill="#FFFFFF" d="M196.469,65.765c-2.883-0.016-4.124,1.708-4.124,1.708v-5.768h-2.312l0.039,12.188
					c0,0-0.014,1.42-0.102,2.358h2.245l0.097-1.369c0,0,1.047,1.723,4.108,1.723s5.478-1.885,5.542-5.38
					C202.026,67.731,199.353,65.782,196.469,65.765z M195.939,75.048c-3.642,0.046-3.582-3.862-3.582-3.862
					s-0.133-3.762,3.576-3.859c3.708-0.096,3.588,3.938,3.588,3.938S199.581,75.003,195.939,75.048z"/>
			</g>
		</g>
		<g>
			<g>
				<path fill="#FFFFFF" d="M212.644,73.847c0.005-1.577,0.052-2.984,0-3.978c-0.061-1.152,0.049-3.931-4.93-4.136
					c0,0-4.773-0.435-5.268,3.117h2.44c0,0,0.19-1.627,2.667-1.581c2.343,0.044,2.771,1.194,2.758,2.607c0,0-2.009,0.006-2.679,0.01
					c-1.208,0.005-5.437,0.139-5.831,2.714c-0.469,3.062,2.263,4.018,4.402,4.005c2.139-0.011,3.358-0.652,4.265-1.8l0.096,1.425
					l2.127-0.012C212.692,76.22,212.637,75.423,212.644,73.847z M206.602,75.133c0,0-2.316,0.002-2.453-1.849
					c-0.145-1.976,3.564-1.856,3.564-1.856l2.621-0.003C210.334,71.425,210.758,75.188,206.602,75.133z"/>
			</g>
		</g>
		<polygon fill="#FFFFFF" points="211.378,66.152 214.06,66.152 217.983,73.974 221.915,66.152 224.339,66.152 217.242,80.095 
			214.648,80.095 216.702,76.22 		"/>
	</g>
	<g>
		<path fill="#FFFFFF" d="M309.322,72.844c0,0.141-0.015,0.285-0.054,0.411c-0.157,0.525-0.702,0.971-1.385,0.971
			c-0.566,0-1.021-0.323-1.021-1.005c0-1.043,1.15-1.331,2.459-1.325V72.844L309.322,72.844z M311.37,71.026
			c0-1.721-0.734-3.235-3.218-3.235c-1.275,0-2.288,0.357-2.84,0.677l0.404,1.384c0.506-0.32,1.309-0.583,2.071-0.583
			c1.259-0.003,1.465,0.712,1.465,1.172v0.107c-2.746-0.003-4.482,0.948-4.482,2.885c0,1.184,0.886,2.292,2.421,2.292
			c0.944,0,1.736-0.376,2.211-0.98h0.046c0,0,0.314,1.311,2.041,0.811c-0.089-0.547-0.119-1.131-0.119-1.831V71.026L311.37,71.026z"
			/>
		<path fill="#FFFFFF" d="M268.579,65.449c0,0,1.794,7.354,2.082,8.545c0.334,1.396,0.936,1.907,2.672,1.562l1.121-4.56
			c0.283-1.133,0.474-1.939,0.658-3.092h0.031c0.128,1.164,0.311,1.963,0.545,3.097c0,0,0.455,2.069,0.689,3.156
			c0.234,1.086,0.885,1.771,2.587,1.399l2.671-10.107h-2.156l-0.911,4.369c-0.245,1.271-0.469,2.266-0.638,3.43h-0.031
			c-0.157-1.152-0.354-2.106-0.603-3.346l-0.95-4.454H274.1l-1.015,4.341c-0.288,1.32-0.557,2.386-0.728,3.509h-0.03
			c-0.177-1.059-0.411-2.397-0.662-3.674c0,0-0.604-3.105-0.815-4.175H268.579L268.579,65.449z"/>
		<path fill="#FFFFFF" d="M285.711,72.844c0,0.141-0.013,0.285-0.05,0.411c-0.16,0.525-0.705,0.971-1.387,0.971
			c-0.568,0-1.019-0.323-1.019-1.005c0-1.043,1.148-1.331,2.455-1.325V72.844L285.711,72.844z M287.762,71.026
			c0-1.721-0.735-3.235-3.219-3.235c-1.276,0-2.288,0.357-2.84,0.677l0.404,1.384c0.505-0.32,1.31-0.583,2.071-0.583
			c1.259-0.003,1.467,0.712,1.467,1.172v0.107c-2.748-0.003-4.481,0.948-4.481,2.885c0,1.184,0.882,2.292,2.418,2.292
			c0.945,0,1.736-0.376,2.211-0.98h0.045c0,0,0.315,1.311,2.045,0.811c-0.093-0.547-0.122-1.131-0.122-1.831L287.762,71.026
			L287.762,71.026z"/>
		<polygon fill="#FFFFFF" points="291.184,73.41 291.184,65.448 289.132,65.448 289.132,75.557 291.184,75.557 		"/>
		<path fill="#FFFFFF" d="M318.038,65.449v7.457c0,1.026,0.191,1.747,0.607,2.188c0.361,0.385,0.956,0.633,1.669,0.633
			c0.608,0,1.205-0.114,1.486-0.219l-0.025-1.604c-0.21,0.051-0.451,0.091-0.779,0.091c-0.7,0-0.935-0.445-0.935-1.371v-2.851h1.788
			v-1.935h-1.788v-2.39H318.038L318.038,65.449z"/>
		<path fill="#FFFFFF" d="M312.739,67.964v7.593h2.116v-3.889c0-0.209,0.014-0.393,0.046-0.561c0.157-0.813,0.779-1.333,1.676-1.333
			c0.244,0,0.421,0.025,0.608,0.053v-1.988c-0.158-0.033-0.266-0.047-0.465-0.047c-0.79,0-1.688,0.51-2.066,1.604h-0.059v-1.432
			L312.739,67.964L312.739,67.964z"/>
		<path fill="#FFFFFF" d="M292.622,67.964v7.593h2.062v-4.453c0-0.209,0.023-0.431,0.099-0.622c0.171-0.448,0.588-0.974,1.253-0.974
			c0.832,0,1.221,0.705,1.221,1.72v4.329h2.062V71.05c0-0.2,0.027-0.439,0.086-0.616c0.171-0.51,0.619-0.926,1.238-0.926
			c0.846,0,1.249,0.692,1.249,1.888v4.161h2.063v-4.473c0-2.359-1.198-3.292-2.55-3.292c-0.6,0-1.071,0.15-1.498,0.412
			c-0.359,0.221-0.682,0.534-0.962,0.946h-0.029c-0.328-0.819-1.094-1.358-2.095-1.358c-1.282,0-1.859,0.649-2.211,1.204h-0.03
			v-1.031H292.622L292.622,67.964z"/>
		<path fill="#FFFFFF" d="M333.357,68.075c0.371,0,0.681-0.195,0.723-0.447l0.369-4.174c0-0.412-0.485-0.75-1.092-0.75
			s-1.09,0.338-1.09,0.75l0.369,4.174c0.041,0.252,0.351,0.447,0.723,0.447H333.357L333.357,68.075z"/>
		<path fill="#FFFFFF" d="M331.102,69.378c0.187-0.323,0.172-0.688-0.025-0.848l-3.433-2.407c-0.354-0.207-0.892,0.042-1.193,0.569
			c-0.306,0.526-0.252,1.113,0.104,1.32l3.8,1.77c0.237,0.088,0.56-0.083,0.749-0.406L331.102,69.378L331.102,69.378z"/>
		<path fill="#FFFFFF" d="M335.614,69.376c0.188,0.323,0.511,0.494,0.748,0.406l3.8-1.77c0.357-0.207,0.408-0.794,0.104-1.32
			c-0.303-0.526-0.837-0.775-1.194-0.569l-3.432,2.407c-0.196,0.16-0.21,0.524-0.024,0.848L335.614,69.376L335.614,69.376z"/>
		<path fill="#FFFFFF" d="M333.357,73.287c0.371,0,0.681,0.194,0.723,0.446l0.369,4.176c0,0.412-0.485,0.75-1.092,0.75
			s-1.09-0.339-1.09-0.75l0.369-4.176c0.041-0.251,0.351-0.446,0.723-0.446H333.357L333.357,73.287z"/>
		<path fill="#FFFFFF" d="M335.614,71.986c0.188-0.324,0.511-0.494,0.748-0.404l3.8,1.768c0.357,0.207,0.408,0.793,0.104,1.32
			c-0.303,0.526-0.837,0.776-1.194,0.57l-3.432-2.407c-0.196-0.163-0.21-0.527-0.024-0.849L335.614,71.986L335.614,71.986z"/>
		<path fill="#FFFFFF" d="M331.102,71.985c0.187,0.322,0.172,0.687-0.025,0.849l-3.433,2.405c-0.354,0.206-0.892-0.042-1.193-0.568
			c-0.306-0.526-0.252-1.113,0.104-1.321l3.8-1.767c0.237-0.09,0.56,0.079,0.749,0.403L331.102,71.985L331.102,71.985z"/>
		<path fill="#FFFFFF" d="M340.511,75.923c0.038,0.022,0.097,0.042,0.156,0.042c0.076,0,0.118-0.035,0.118-0.088
			c0-0.05-0.033-0.079-0.116-0.107c-0.106-0.04-0.174-0.096-0.174-0.189c0-0.106,0.087-0.188,0.229-0.188
			c0.068,0,0.122,0.016,0.156,0.034l-0.03,0.096c-0.023-0.013-0.067-0.032-0.128-0.032c-0.076,0-0.107,0.041-0.107,0.078
			c0,0.052,0.037,0.074,0.123,0.106c0.112,0.042,0.167,0.1,0.167,0.192c0,0.104-0.078,0.195-0.244,0.195
			c-0.07,0-0.141-0.019-0.176-0.041L340.511,75.923L340.511,75.923z"/>
		<path fill="#FFFFFF" d="M341.561,75.788c-0.004-0.083-0.01-0.184-0.01-0.271h-0.001c-0.021,0.079-0.048,0.167-0.077,0.248
			l-0.094,0.281h-0.091l-0.086-0.277c-0.025-0.083-0.049-0.171-0.064-0.252h-0.005c-0.002,0.084-0.008,0.187-0.011,0.277
			l-0.014,0.259h-0.111l0.043-0.647h0.155l0.084,0.261c0.024,0.075,0.044,0.152,0.061,0.224h0.004
			c0.016-0.069,0.039-0.15,0.064-0.225l0.089-0.26h0.154l0.038,0.647h-0.117L341.561,75.788L341.561,75.788z"/>
	</g>
	<g>
		<path fill="#FFFFFF" d="M427.799,191.465c0.17,0.097,0.337,0.139,0.52,0.139c0,0,0,0,0.006,0c0.181,0,0.349-0.042,0.518-0.139
			c0.17-0.09,0.297-0.218,0.387-0.386c0.097-0.169,0.138-0.345,0.138-0.519c0-0.188-0.041-0.362-0.138-0.53
			c-0.09-0.169-0.224-0.296-0.393-0.387c-0.169-0.09-0.338-0.14-0.512-0.14c-0.006,0-0.006,0-0.006,0
			c-0.175,0.007-0.344,0.05-0.514,0.14c-0.168,0.091-0.295,0.218-0.391,0.387c-0.098,0.168-0.139,0.343-0.139,0.53
			c0,0.174,0.041,0.35,0.139,0.519C427.504,191.247,427.629,191.375,427.799,191.465L427.799,191.465L427.799,191.465
			L427.799,191.465z M427.563,190.121c0.079-0.14,0.187-0.25,0.326-0.327c0.139-0.073,0.283-0.114,0.429-0.114c0,0,0,0,0.006,0
			c0.144,0,0.29,0.042,0.429,0.114c0.138,0.077,0.246,0.188,0.324,0.327c0.079,0.138,0.116,0.281,0.116,0.438
			c0,0.15-0.037,0.296-0.116,0.435c-0.072,0.133-0.18,0.241-0.318,0.319c-0.14,0.079-0.284,0.114-0.435,0.114
			c-0.006,0-0.006,0-0.006,0c-0.152,0-0.295-0.035-0.435-0.114c-0.14-0.078-0.247-0.187-0.32-0.319
			c-0.077-0.139-0.12-0.284-0.12-0.435C427.443,190.402,427.486,190.259,427.563,190.121L427.563,190.121L427.563,190.121
			L427.563,190.121z"/>
		<path fill="#FFFFFF" d="M428.041,190.656h0.108l0,0c0.067,0,0.115,0.013,0.145,0.043c0.012,0.006,0.019,0.011,0.024,0.019
			c0.048,0.042,0.103,0.126,0.168,0.241l0,0l0.103,0.181h0.218l-0.134-0.225l0,0c-0.065-0.103-0.125-0.181-0.168-0.221
			c-0.023-0.025-0.054-0.044-0.097-0.061c0.097-0.007,0.175-0.043,0.234-0.104c0.061-0.061,0.091-0.133,0.091-0.218
			c0-0.06-0.018-0.114-0.054-0.162c-0.037-0.055-0.084-0.09-0.145-0.109c-0.049-0.018-0.12-0.029-0.217-0.029
			c-0.018,0-0.043-0.007-0.067-0.007l0,0h-0.392v1.135h0.182V190.656L428.041,190.656L428.041,190.656z M428.041,190.162h0.21l0,0
			c0.024,0,0.05,0,0.067,0c0.053,0.006,0.09,0.012,0.113,0.019c0.036,0.012,0.061,0.029,0.08,0.06
			c0.017,0.023,0.022,0.054,0.022,0.091c0,0.048-0.018,0.091-0.053,0.121c-0.03,0.029-0.086,0.042-0.163,0.048
			c-0.013,0-0.037,0-0.054,0l0,0h-0.224V190.162L428.041,190.162L428.041,190.162z"/>
		<polygon fill="#FFFFFF" points="400.957,190.289 402.585,190.289 400.957,187.575 399.582,185.291 393.738,188.8 394.63,190.289 
			400.957,190.289 		"/>
		<polygon fill="#FFFFFF" points="416.105,190.289 419.109,190.289 424.06,190.289 419.109,182.039 413.633,172.933 
			411.378,174.289 407.796,176.442 411.378,182.406 416.105,190.289 		"/>
		<path fill="#FFFFFF" d="M413.325,193.009c-0.56-0.362-1.217-0.573-1.929-0.573c-0.006,0-0.014,0-0.019,0
			c-1.965,0.012-3.564,1.616-3.564,3.581c0,1.968,1.6,3.571,3.564,3.584c0.005,0,0.013,0,0.019,0c0.712,0,1.369-0.212,1.929-0.573
			l0,0v0.374h1.646v-3.384v-5.729h-1.646V193.009L413.325,193.009L413.325,193.009z M413.325,196.392
			c-0.175,0.905-0.977,1.599-1.929,1.599c-0.006,0-0.014,0-0.019,0c-1.079-0.011-1.954-0.894-1.954-1.974
			c0-1.079,0.875-1.959,1.954-1.964c0.005,0,0.013,0,0.019,0c0.952,0,1.754,0.687,1.929,1.592l0,0V196.392L413.325,196.392
			L413.325,196.392z"/>
		<path fill="#FFFFFF" d="M421.058,193.009c-0.555-0.362-1.218-0.573-1.931-0.573c-0.006,0-0.012,0-0.018,0
			c-1.966,0.012-3.564,1.616-3.564,3.581c0,1.968,1.599,3.571,3.564,3.584c0.006,0,0.012,0,0.018,0c0.713,0,1.376-0.212,1.931-0.573
			l0,0v0.374h1.646v-3.384v-3.4h-1.646V193.009L421.058,193.009L421.058,193.009z M421.058,196.392
			c-0.176,0.905-0.978,1.599-1.931,1.599c-0.006,0-0.012,0-0.018,0c-1.08-0.011-1.954-0.894-1.954-1.974
			c0-1.079,0.874-1.959,1.954-1.964c0.006,0,0.012,0,0.018,0c0.953,0,1.755,0.687,1.931,1.592l0,0V196.392L421.058,196.392
			L421.058,196.392z"/>
		<path fill="#FFFFFF" d="M428.561,195.572c-0.062-0.031-0.146-0.061-0.242-0.098c-0.369-0.126-0.966-0.282-1.799-0.464
			c-0.729-0.163-1.096-0.375-1.096-0.64c0-0.188,0.065-0.338,0.192-0.444c0.169-0.146,0.47-0.219,0.903-0.219
			c0.44,0,0.762,0.098,0.948,0.284c0.114,0.114,0.199,0.318,0.253,0.608l0,0h0.598h1.151l0,0c0-0.854-0.35-1.472-1.038-1.845
			c-0.036-0.024-0.071-0.043-0.113-0.061c-0.476-0.223-1.11-0.339-1.9-0.339c-0.958,0-1.683,0.255-2.164,0.768
			c-0.387,0.409-0.572,0.909-0.572,1.501c0,0.736,0.36,1.267,1.096,1.61c0.278,0.132,0.953,0.319,2.027,0.549
			c0.718,0.156,1.079,0.38,1.079,0.664c0,0.168-0.071,0.312-0.23,0.445c-0.198,0.169-0.501,0.255-0.903,0.255
			c-0.537,0-0.918-0.093-1.14-0.267c-0.224-0.169-0.338-0.417-0.338-0.73l0,0h-1.833l0,0c0,0.833,0.35,1.454,1.056,1.863
			c0.561,0.32,1.296,0.484,2.208,0.484c0.608,0,1.15-0.104,1.615-0.304c0.097-0.041,0.18-0.083,0.271-0.132
			c0.718-0.397,1.079-1.03,1.079-1.899C429.668,196.452,429.301,195.921,428.561,195.572L428.561,195.572L428.561,195.572
			L428.561,195.572z"/>
		<path fill="#FFFFFF" d="M395.101,193.009c-0.561-0.362-1.224-0.573-1.935-0.573c-0.006,0-0.013,0-0.019,0
			c-1.959,0.012-3.559,1.616-3.559,3.581c0,1.968,1.6,3.571,3.559,3.584c0.006,0,0.013,0,0.019,0c0.711,0,1.374-0.212,1.935-0.573
			l0,0v0.374h1.647v-3.384v-3.4h-1.647V193.009L395.101,193.009L395.101,193.009z M395.101,196.392
			c-0.175,0.905-0.978,1.599-1.935,1.599c-0.006,0-0.013,0-0.019,0c-1.074-0.011-1.948-0.894-1.948-1.974
			c0-1.079,0.874-1.959,1.948-1.964c0.006,0,0.013,0,0.019,0c0.959,0,1.76,0.687,1.935,1.592l0,0V196.392L395.101,196.392
			L395.101,196.392z"/>
		<polygon fill="#FFFFFF" points="405.378,191.899 407.169,191.899 407.169,190.324 405.378,190.324 405.378,191.899 		"/>
		<polygon fill="#FFFFFF" points="405.378,199.4 407.169,199.4 407.169,192.436 405.378,192.436 405.378,199.4 		"/>
		<path fill="#FFFFFF" d="M402.911,193.009c-0.562-0.362-1.224-0.573-1.937-0.573c-0.006,0-0.012,0-0.018,0
			c-1.967,0.012-3.563,1.616-3.563,3.581c0,1.968,1.597,3.571,3.563,3.584c0.006,0,0.012,0,0.018,0c0.713,0,1.375-0.212,1.937-0.573
			l0,0v0.374h1.646v-3.384v-5.729h-1.646V193.009L402.911,193.009L402.911,193.009z M402.911,196.392
			c-0.175,0.905-0.978,1.599-1.937,1.599c-0.006,0-0.012,0-0.018,0c-1.08-0.011-1.954-0.894-1.954-1.974
			c0-1.079,0.874-1.959,1.954-1.964c0.006,0,0.012,0,0.018,0c0.959,0,1.762,0.687,1.937,1.592l0,0V196.392L402.911,196.392
			L402.911,196.392z"/>
		<polygon fill="#FFFFFF" points="413.319,190.289 411.378,187.044 406.607,179.107 400.957,182.51 400.764,182.623 
			400.957,182.943 405.372,190.289 411.378,190.289 413.319,190.289 		"/>
	</g>
	<g>
		<g>
			<path fill="#FFFFFF" d="M104.592,140.691c0-2.118-4.354-3.556-5.754-0.408c-1.088-2.45-4.529-2.368-5.466,0.02v-1.251
				c0-0.189-0.173-0.363-0.363-0.363h-1.954c-0.19,0-0.362,0.173-0.362,0.363v10.568c0,0.189,0.172,0.363,0.362,0.363h2.1
				c0.19,0,0.357-0.174,0.357-0.363v-6.702c0-0.756,0.319-1.61,1.121-1.786c0.881-0.196,1.6,0.292,1.6,1.31l0,7.178
				c0,0.19,0.173,0.364,0.363,0.364h2.135c0.19,0,0.363-0.174,0.363-0.364v-7.12c0-1.615,2.687-2.032,2.687,0v7.12
				c0,0.19,0.173,0.364,0.363,0.364h2.087c0.189,0,0.362-0.174,0.362-0.364V140.691L104.592,140.691z"/>
			<path fill="#FFFFFF" d="M125.471,139.07c0-0.19-0.173-0.363-0.363-0.363h-6.906c-0.095,0-0.19,0.04-0.258,0.107
				c-0.067,0.068-0.097,0.162-0.097,0.258v1.469c0,0.188,0.183,0.356,0.372,0.356h3.63l-4.136,6.056
				c-0.237,0.346-0.196,0.561-0.196,0.632l0.003,1.685c0,0.362,0.134,0.522,0.549,0.347c2.529-1.068,5.224-1.132,7.255,0.083
				c0.167,0.101,0.367-0.008,0.367-0.291v-1.893c0-0.122-0.066-0.242-0.169-0.305c-1.173-0.741-2.666-0.938-4.114-0.916l3.867-5.375
				c0.185-0.258,0.196-0.534,0.196-0.608L125.471,139.07L125.471,139.07z"/>
			<path fill="#FFFFFF" d="M133.009,144.351c0,2.048-0.073,3.707-1.615,3.707c-1.469,0-1.615-1.659-1.615-3.707
				c0-2.049,0.122-3.732,1.615-3.709C132.838,140.666,133.009,142.302,133.009,144.351z M136.118,144.313
				c-0.001-3.37-1.979-5.93-4.724-5.898c-2.759,0.032-4.728,2.622-4.724,5.923c0.003,3.384,2.011,5.973,4.772,5.899
				C134.193,150.161,136.12,147.586,136.118,144.313z"/>
			<path fill="#FFFFFF" d="M146.163,141.475c0-1.675-1.014-3.06-3.388-2.986c-1.101,0.034-1.96,0.871-2.438,2.056v-1.523
				c0-0.191-0.173-0.363-0.363-0.363h-2.026c-0.189,0-0.363,0.172-0.363,0.363v10.608c0,0.189,0.173,0.361,0.363,0.361h2.12
				c0.189,0,0.363-0.171,0.363-0.361v-6.663c0-0.993,0.85-1.83,1.634-1.86c0.646-0.024,1.293,0.597,1.293,1.298v7.225
				c0,0.189,0.173,0.361,0.362,0.361h2.08c0.189,0,0.363-0.171,0.362-0.361L146.163,141.475L146.163,141.475z"/>
			<path fill="#FFFFFF" d="M112.525,144.506v1.375c0,1.065-0.706,1.973-1.291,2.148c-1.152,0.347-1.899-0.548-1.872-1.502
				c0.036-1.205,1.096-1.941,1.991-1.974L112.525,144.506z M115.378,141.25c0-1.782-1.542-2.917-4.53-2.812
				c-1.825,0.064-3.56,0.742-4.007,2.946c-0.02,0.099,0.003,0.206,0.061,0.286c0.059,0.081,0.153,0.136,0.252,0.147l1.861,0.213
				c0.179,0.018,0.361-0.114,0.397-0.289c0.134-0.695,0.662-1.209,1.436-1.209c1.153,0,1.652,0.594,1.652,1.38v1.031l-2.298,0.175
				c-1.944,0.149-3.754,1.416-3.792,3.844c-0.035,2.236,1.45,3.302,3.478,3.198c1.207-0.063,2.259-0.58,3.058-1.468l1.147,1.277
				c0.065,0.072,0.159,0.117,0.255,0.12c0.097,0.003,0.195-0.033,0.265-0.1l1.494-1.427c0.125-0.121,0.145-0.334,0.043-0.475
				l-0.549-0.723c-0.112-0.146-0.223-0.799-0.223-1.17V141.25L115.378,141.25z"/>
			<path fill="#FFFFFF" d="M85.348,144.505v1.373c0,1.065-0.707,1.973-1.292,2.148c-1.151,0.347-1.899-0.548-1.871-1.502
				c0.036-1.205,1.097-1.939,1.991-1.975L85.348,144.505z M88.201,141.247c0-1.782-1.542-2.918-4.53-2.812
				c-1.824,0.063-3.559,0.742-4.007,2.948c-0.021,0.097,0.003,0.203,0.061,0.285c0.059,0.081,0.153,0.137,0.253,0.148l1.861,0.211
				c0.178,0.021,0.361-0.111,0.396-0.288c0.134-0.694,0.662-1.208,1.436-1.208c1.154,0,1.653,0.593,1.653,1.379v1.032l-2.299,0.173
				c-1.944,0.148-3.753,1.416-3.791,3.844c-0.035,2.237,1.45,3.304,3.477,3.198c1.208-0.062,2.26-0.579,3.058-1.469l1.148,1.277
				c0.064,0.071,0.159,0.116,0.256,0.121c0.097,0.003,0.194-0.034,0.264-0.1l1.494-1.429c0.125-0.119,0.144-0.334,0.043-0.475
				l-0.549-0.72c-0.111-0.148-0.223-0.802-0.223-1.172L88.201,141.247L88.201,141.247z"/>
		</g>
		<g>
			<path fill="#FFFFFF" d="M121.473,156.381c-0.425,1.016,0.61,0.353,0.737,0.237c1.396-1.266,2.425-5.06,1.792-5.64
				c-0.797-0.729-4.499-0.723-6.14,0.475c-0.685,0.501-0.301,0.599,0.422,0.554c1.264-0.08,2.401-0.163,3.373-0.08
				c0.922,0.08,0.975,0.528,0.738,1.501C122.12,154.56,121.947,155.248,121.473,156.381z"/>
			<path fill="#FFFFFF" d="M119.956,153.325c-9.55,3.899-20.569,3.358-29.633-1.421c-0.125-0.065-0.569-0.32-1.076-0.573
				c-0.395-0.197-0.47-0.132-0.534-0.062c-0.089,0.095-0.055,0.269,0.085,0.396c5.324,4.795,11.723,7.101,18.709,6.798
				c5.333-0.232,10.303-2.188,13.148-4.269c0.419-0.308,0.57-0.708,0.395-0.896C120.873,153.106,120.399,153.143,119.956,153.325z"
				/>
		</g>
	</g>
	<g>
		<path fill="#FFFFFF" d="M117.257,176.518c1.146-1.429,1.98-3.396,1.764-5.38c-1.71,0.063-3.748,1.128-4.962,2.567
			c-1.093,1.239-2.042,3.285-1.771,5.209C114.15,179.036,116.062,177.957,117.257,176.518L117.257,176.518z"/>
		<path fill="#FFFFFF" d="M122.212,192.148H98.911l0.003-0.002h23.271v-0.05c-0.533-1.074-0.776-2.752-0.573-4.112v-0.051h0.002
			c0.213-1.779,1.36-3.6,2.276-4.262c0.011-0.008,0.024-0.018,0.036-0.026v-0.005h0.003l0,0c0.203-0.224,0.782-0.689,1.173-0.971
			c-1.445-2.127-3.811-3.273-6.221-3.311c-2.429-0.204-4.951,1.538-6.311,1.499c-1.316,0.039-3.303-1.533-5.4-1.433l-0.021-0.004
			c-0.047,0-0.424,0.021-0.424,0.021c-2.78,0.068-5.244,1.706-6.643,4.19v0.008h-0.008v-0.008c-0.554,0.896-1.217,2.982-1.316,4.301
			l0,0v0.07c-0.134,0.838-0.005,3.072,0.146,4.145l0,0c0.006,0.019,0.007,0.039,0.009,0.053l0.003-0.002
			c0.117,1.07,0.661,3.139,1.068,4.148v0.011h-0.002c0.391,1.116,1.483,3.213,2.189,4.283v0.008h0.007
			c1.425,2.046,3.102,4.345,5.314,4.247c2.135-0.082,2.922-1.42,5.495-1.399c2.572-0.021,3.283,1.333,5.537,1.345
			c2.297-0.1,3.721-2.145,5.146-4.192c0.698-1.055,1.793-3.086,2.18-4.292h0.005c0.043-0.127,0.109-0.324,0.155-0.466
			C124.5,195.464,122.806,193.473,122.212,192.148L122.212,192.148z"/>
	</g>
	<g>
		<path fill="#FFFFFF" d="M377.588,66.19c-0.996-0.756-2.224-1.207-3.555-1.207c-3.189,0-5.776,2.586-5.776,5.776
			c0,3.19,2.587,5.776,5.776,5.776c1.338,0,2.567-0.454,3.547-1.217l0.645,0.779c-1.154,0.908-2.609,1.448-4.191,1.448
			c-3.748,0-6.785-3.039-6.785-6.787c0-3.749,3.037-6.787,6.785-6.787c1.62,0,3.107,0.567,4.293,1.513L377.588,66.19z"/>
		<rect x="389.252" y="63.973" fill="#FFFFFF" width="1.006" height="13.339"/>
		<polygon fill="#FFFFFF" points="395.374,77.9 391.229,69.01 392.403,69.01 395.374,75.463 398.346,69.01 399.521,69.01 		"/>
		<rect x="400.717" y="69.01" fill="#FFFFFF" width="1.006" height="8.301"/>
		<circle fill="#FFFFFF" cx="401.22" cy="64.597" r="0.607"/>
		<path fill="#FFFFFF" d="M403.535,77.312V69.01h1.006v0.732c0,0,0.646-1.009,2.354-1.009c1.71,0,3.345,1.428,3.345,3.272
			c0,1.845,0,5.306,0,5.306h-1.029c0,0,0-4.179,0-5.159c0-0.981-0.689-2.41-2.389-2.41s-2.282,1.511-2.282,2.119
			c0,0.606,0,5.45,0,5.45H403.535z"/>
		<polygon fill="#FFFFFF" points="415.067,63.973 415.067,77.312 415.99,77.312 415.99,71.583 416.995,70.578 421.763,77.312 
			422.986,77.312 417.65,69.743 423.011,63.973 421.665,63.973 415.99,70.03 415.99,63.973 		"/>
		<rect x="424.521" y="63.973" fill="#FFFFFF" width="1.005" height="13.339"/>
		<rect x="437.46" y="69.01" fill="#FFFFFF" width="1.006" height="8.301"/>
		<circle fill="#FFFFFF" cx="437.964" cy="64.597" r="0.607"/>
		<path fill="#FFFFFF" d="M440.331,77.312V69.01h1.005v0.732c0,0,0.645-1.009,2.354-1.009s3.346,1.428,3.346,3.272
			c0,1.845,0,5.306,0,5.306h-1.029c0,0,0-4.179,0-5.159c0-0.981-0.691-2.41-2.389-2.41c-1.699,0-2.281,1.511-2.281,2.119
			c0,0.606,0,5.45,0,5.45H440.331z"/>
		<path fill="#FFFFFF" d="M428.199,72.203c0.398-1.448,1.715-2.539,3.288-2.539c1.577,0,2.904,1.086,3.299,2.539H428.199z
			 M435.891,73.08c0-2.434-1.97-4.406-4.403-4.406c-2.435,0-4.409,1.974-4.409,4.408c0,2.435,1.975,4.408,4.409,4.408
			c1.726,0,3.257-1.007,3.981-2.45l-0.901-0.434c-0.56,1.123-1.739,1.895-3.08,1.895c-2.093,0-3.352-1.59-3.417-3.421L435.891,73.08
			L435.891,73.08z"/>
		<path fill="#FFFFFF" d="M386.455,69.011v1.512c-0.814-1.06-2.085-1.743-3.523-1.743c-2.453,0-4.442,1.99-4.442,4.444
			c0,2.453,1.988,4.443,4.442,4.443c1.431,0,2.714-0.676,3.526-1.725l-0.003,1.369h0.936v-8.301H386.455z M382.932,76.706
			c-1.922,0-3.48-1.559-3.48-3.481s1.559-3.481,3.48-3.481c1.923,0,3.481,1.559,3.481,3.481
			C386.413,75.146,384.854,76.706,382.932,76.706z"/>
	</g>
	<g>
		<path fill="#FFFFFF" d="M311.056,151.179c0.186-1.032,0.392-2.04,0.579-3.076c-0.656-0.007-1.312-0.006-1.966,0
			c-0.119,0.65-0.246,1.29-0.365,1.933c-0.005,0.023-0.02,0.07-0.037,0.053c-0.004-0.003-0.006-0.005-0.007-0.005
			c0.002,0,0.005-0.001,0.005-0.014c0.051-1.521-1.542-2.114-2.788-2.04c-1.259,0.077-2.654,0.665-3.154,1.954
			c-0.02,0.05-0.051,0.042-0.041-0.009c0.121-0.632,0.235-1.238,0.354-1.871c-0.63-0.007-1.253-0.007-1.887,0
			c-0.117,0.518-0.186,1.011-0.301,1.523c-0.412-0.003-0.807,0.008-1.217-0.005c0.088-0.515,0.19-1,0.283-1.519
			c-1.274-0.008-2.523,0.003-3.805-0.006c-0.396,0.883-0.889,1.716-1.188,2.644c-0.019,0.059-0.075,0.059-0.08-0.002
			c-0.068-0.888-0.149-1.744-0.216-2.634c-0.509-0.013-0.992,0.003-1.513-0.008c-0.406,0.897-0.939,1.742-1.247,2.675
			c-0.014,0.038-0.063,0.042-0.066,0.002c-0.061-0.895-0.111-1.781-0.17-2.674c-0.687,0.004-1.347-0.007-2.034,0.006
			c0.342,1.512,0.693,3.016,1.041,4.534c0.562,0.003,1.088-0.008,1.666,0.006c0.369-0.801,0.863-1.568,1.111-2.404
			c0.011-0.031-0.001-0.073,0.049-0.071c0.046,0.002,0.045,0.036,0.046,0.067c0.044,0.801,0.103,1.592,0.146,2.399
			c0.575-0.004,1.155,0.021,1.728-0.012c0.832-1.37,1.659-2.703,2.499-4.08c0.027-0.045,0.061-0.021,0.052,0.03
			c-0.259,1.357-0.515,2.702-0.771,4.058c0.639,0.017,1.246,0.003,1.883,0.007c0.124-0.53,0.196-1.059,0.32-1.588
			c0.413,0.002,0.798-0.012,1.211,0.008c-0.088,0.539-0.199,1.036-0.29,1.575c0.632,0.011,1.245,0.002,1.882,0.004
			c0.126-0.569,0.217-1.137,0.335-1.705c0.009-0.044-0.004-0.099,0.023-0.131c0.02-0.023,0.017-0.097,0.036-0.082
			c0.011,0.01,0.004-0.012,0.003,0.014c-0.021,1.491,1.54,2.028,2.755,1.971c1.27-0.057,2.718-0.623,3.201-1.951
			c0.008-0.02-0.006-0.025,0.016-0.032c0.022-0.006,0.028,0.026,0.024,0.044c-0.109,0.624-0.242,1.241-0.348,1.868
			c1.209,0.006,2.401,0,3.614,0.004c0.107-0.482,0.191-0.958,0.278-1.447C312.146,151.172,311.618,151.198,311.056,151.179z
			 M307.145,150.668c-0.126,0.243-0.34,0.422-0.601,0.525c-0.227,0.088-0.437,0.098-0.696,0.08
			c-0.561-0.041-0.846-0.685-0.572-1.142c0.275-0.461,0.801-0.69,1.32-0.603c0.263,0.043,0.498,0.191,0.604,0.44
			C307.301,150.2,307.258,150.452,307.145,150.668z"/>
		<path fill="#FFFFFF" d="M323.511,151.007c0.246-0.019,0.439,0.006,0.69-0.01c-0.005-0.455-0.108-0.868-0.079-1.329
			c0.005-0.056-0.081-0.082-0.104-0.03c-0.198,0.427-0.367,0.834-0.575,1.261C323.414,150.958,323.439,151.013,323.511,151.007
			L323.511,151.007L323.511,151.007z M320.741,151.974c0.03-0.025,0.044-0.086,0.068-0.045c0.019,0.029-0.021,0.044-0.033,0.066
			c-0.11,0.218-0.271,0.417-0.368,0.64c0.693,0.003,1.373,0.003,2.065,0.002c0.102-0.191,0.171-0.373,0.271-0.566
			c0.504,0.004,1.004-0.006,1.507,0.005c0.039,0.199,0.03,0.372,0.083,0.561c1.852,0,3.692,0,5.546,0
			c0.096-0.492,0.191-0.959,0.271-1.448c-0.561-0.011-1.081,0.004-1.647-0.008c0.178-1.036,0.391-2.035,0.573-3.076
			c-0.659-0.015-1.295-0.004-1.958-0.005c-0.262,1.342-0.512,2.68-0.769,4.028c-0.007,0.034-0.012,0.075-0.047,0.066
			c-0.025-0.008-0.012-0.043-0.018-0.067c-0.325-1.344-0.634-2.676-0.963-4.026c-0.734-0.008-1.442,0.001-2.175-0.005
			c-0.629,1.037-1.259,2.067-1.886,3.107c-0.023,0.042-0.081,0.051-0.063,0.003c0.195-0.515-0.089-1.051-0.574-1.24
			c-0.234-0.091-0.456-0.145-0.694-0.198c-0.249-0.055-0.529-0.031-0.704-0.238c0.112-0.345,0.488-0.309,0.772-0.273
			c0.286,0.034,0.564,0.172,0.812,0.314c0.262-0.393,0.492-0.747,0.747-1.149c-1.084-0.583-2.53-0.512-3.548,0.168
			c-0.555,0.372-1.005,1.114-0.67,1.742c0.166,0.312,0.521,0.426,0.831,0.516c0.271,0.079,0.586,0.086,0.861,0.157
			c0.032,0.009,0.087,0.015,0.095,0.042c0.008,0.03,0.106,0.039,0.101,0.083c-0.053,0.394-0.54,0.4-0.862,0.343
			c-0.33-0.057-0.676-0.225-0.952-0.456c-0.25,0.345-0.477,0.716-0.723,1.078c-0.029,0.043-0.073,0.062-0.063,0.007
			c0.044-0.254,0.094-0.456,0.127-0.699c-0.578-0.013-1.143,0.006-1.717-0.009c0.036-0.165,0.037-0.296,0.095-0.45
			c0.508-0.002,1.006,0.004,1.514-0.001c0.067-0.387,0.156-0.762,0.214-1.153c-0.51-0.011-0.996,0.002-1.502-0.007
			c0.007-0.164,0.036-0.306,0.083-0.46c0.557-0.004,1.106,0.007,1.663-0.007c0.066-0.421,0.162-0.802,0.22-1.216
			c-1.219-0.001-2.424-0.001-3.641,0c-0.29,1.519-0.576,3.009-0.863,4.535c1.236,0.009,2.466,0,3.699,0.004
			c0.031-0.082,0.033-0.169,0.054-0.249c0.007-0.027,0.019-0.071,0.035-0.072c0.017-0.003,0.052,0.021,0.075,0.03
			C317.962,152.833,319.618,152.917,320.741,151.974L320.741,151.974L320.741,151.974z"/>
		<path fill="#FFFFFF" d="M269.917,152.639c6.932,0,13.859,0,20.791,0c0.048,0,0.069-0.03,0.057-0.078
			c-0.096-0.363-0.156-0.717-0.258-1.076c-6.895,0.001-13.786,0-20.681,0.001c-0.013,0.373,0.01,0.706-0.006,1.078
			C269.816,152.622,269.862,152.639,269.917,152.639L269.917,152.639L269.917,152.639z"/>
		<path fill="#FFFFFF" d="M330.354,152.639c1.211-0.007,2.412,0.004,3.623-0.005c0.063-0.43,0.166-0.806,0.216-1.23
			c-0.545-0.009-1.07-0.005-1.613-0.001c-0.059,0-0.104-0.038-0.086-0.102c0.042-0.129,0.036-0.229,0.081-0.355
			c0.504-0.005,0.999,0.002,1.51-0.003c0.085-0.385,0.152-0.757,0.221-1.152c-0.51-0.014-0.998,0.003-1.507-0.008
			c0.007-0.167,0.048-0.291,0.081-0.457c0.556-0.01,1.105-0.001,1.664-0.004c0.079-0.406,0.154-0.802,0.231-1.221
			c-1.216,0.001-2.436-0.007-3.65,0.004c-0.283,1.494-0.562,2.969-0.85,4.457C330.268,152.612,330.303,152.64,330.354,152.639
			L330.354,152.639L330.354,152.639z"/>
		<path fill="#FFFFFF" d="M269.917,150.983c6.799-0.001,13.595,0,20.392,0c0.051,0,0.089-0.028,0.076-0.08
			c-0.098-0.362-0.159-0.696-0.252-1.062c-6.764,0-13.535-0.001-20.297,0c-0.031,0.362,0.006,0.699-0.02,1.061
			C269.813,150.958,269.862,150.983,269.917,150.983L269.917,150.983L269.917,150.983z"/>
		<path fill="#FFFFFF" d="M269.918,149.322c6.658-0.001,13.325,0,19.991,0c0.033,0,0.078,0.008,0.089-0.018
			c0.008-0.019-0.002-0.043-0.006-0.066c-0.083-0.377-0.161-0.742-0.26-1.124c-6.624,0.002-13.271-0.001-19.907,0.001
			c-0.012,0.4,0.011,0.738-0.009,1.128C269.814,149.301,269.862,149.322,269.918,149.322L269.918,149.322L269.918,149.322z"/>
		<path fill="#FFFFFF" d="M302.062,140.558c-0.704-0.193-1.489-0.255-2.187-0.477c-0.073-0.023-0.129-0.124-0.16-0.168
			c-0.007-0.012-0.015-0.05-0.034-0.043c-0.007-0.39,0.365-0.566,0.687-0.632c0.313-0.064,0.65-0.042,0.976,0.002
			c0.672,0.093,1.284,0.359,1.88,0.719c0.574-0.859,1.148-1.724,1.7-2.577c-1.627-0.915-3.728-1.065-5.54-0.683
			c-1.989,0.42-4.137,1.717-4.326,3.961c-0.003,0.044-0.019,0.031-0.019-0.011c-0.005-1.744-1.4-3.099-2.935-3.654
			c-1.392-0.503-2.966-0.607-4.452-0.38c-1.573,0.24-3.078,0.828-4.317,1.849c-1.24,1.022-2.083,2.526-2.1,4.134
			c-0.007,0.786,0.201,1.552,0.658,2.193c0.504,0.705,1.229,1.213,2.01,1.536c1.378,0.566,2.946,0.683,4.444,0.518
			c1.591-0.176,3.135-0.707,4.421-1.676c1.327-1,2.239-2.536,2.283-4.203c0.001-0.021,0.042-0.05,0.05-0.025
			c0.008,0.025,0,0.029,0.002,0.053c0.148,0.941,1.017,1.469,1.85,1.723c0.765,0.234,1.619,0.257,2.388,0.458
			c0.024,0.006,0.038,0.038,0.064,0.043c0.042,0.008,0.067,0.053,0.099,0.082c0.038,0.034,0.067,0.08,0.084,0.128
			c0.006,0.015,0.013,0.03,0.005,0.05c-0.007,0.02,0.015,0.026,0.014,0.045c-0.043,0.434-0.495,0.59-0.866,0.655
			c-0.36,0.064-0.758,0.043-1.127-0.027c-0.766-0.145-1.473-0.513-2.095-1.002c-0.351,0.475-0.661,0.96-0.99,1.445
			c-0.315,0.467-0.625,0.902-0.937,1.41c2.675,1.099,6.1,1.379,8.702-0.153c0.692-0.407,1.292-1.013,1.628-1.721
			c0.318-0.671,0.47-1.498,0.144-2.202C303.706,141.153,302.844,140.773,302.062,140.558z M290.366,142.1
			c-0.199,0.559-0.654,1.042-1.188,1.308c-0.485,0.242-1.046,0.355-1.592,0.324c-0.562-0.032-1.139-0.211-1.499-0.666
			c-0.358-0.455-0.364-1.071-0.174-1.597c0.211-0.583,0.688-1.069,1.242-1.344c0.484-0.241,1.043-0.338,1.591-0.302
			c0.562,0.037,1.118,0.252,1.459,0.716C290.539,140.987,290.546,141.594,290.366,142.1z"/>
		<path fill="#FFFFFF" d="M318.67,146.904c0.973-0.049,1.959-0.104,2.89-0.394c0.127-0.643,0.282-1.234,0.414-1.854
			c0.137-0.637,0.31-1.261,0.418-1.896c-0.809,0.56-1.773,0.944-2.792,0.919c-0.544-0.013-1.07-0.16-1.494-0.5
			c-0.424-0.338-0.683-0.868-0.578-1.412c0.213-1.111,1.279-1.825,2.349-2c1.04-0.169,2.143,0.253,2.913,0.972
			c0.222-1.265,0.401-2.501,0.61-3.758c0.005-0.03,0.01-0.068-0.017-0.078c-0.019-0.006-0.046-0.006-0.067-0.013
			c-1.884-0.551-4.021-0.534-5.843,0.157c-1.994,0.754-3.852,2.355-4.396,4.451c-0.251,0.968-0.188,2.032,0.277,2.925
			c0.498,0.951,1.409,1.662,2.395,2.039C316.666,146.816,317.678,146.956,318.67,146.904L318.67,146.904L318.67,146.904z"/>
		<path fill="#FFFFFF" d="M336.436,140.209c-0.134-0.847-0.554-1.611-1.201-2.189c-1.182-1.057-2.743-1.454-4.299-1.509
			c-1.551-0.056-3.105,0.245-4.494,0.896c-1.54,0.723-2.921,1.959-3.486,3.601c-0.065,0.187-0.119,0.364-0.161,0.558
			c-0.041,0.189-0.078,0.376-0.099,0.565c-0.037,0.374-0.035,0.759,0.019,1.129c0.114,0.815,0.526,1.564,1.133,2.127
			c1.183,1.101,2.879,1.468,4.453,1.521c3.17,0.105,6.747-1.276,7.925-4.458c0.142-0.38,0.174-0.708,0.23-1.11
			C336.507,140.95,336.494,140.581,336.436,140.209z M331.772,142.166c-0.205,0.525-0.638,0.974-1.146,1.232
			c-0.497,0.253-1.068,0.367-1.631,0.333c-0.593-0.036-1.211-0.257-1.548-0.769c-0.323-0.488-0.275-1.115-0.048-1.63
			c0.23-0.528,0.688-0.96,1.199-1.214c0.477-0.236,1.034-0.331,1.573-0.297c0.575,0.036,1.156,0.266,1.49,0.751
			C331.984,141.038,331.97,141.658,331.772,142.166z"/>
		<path fill="#FFFFFF" d="M334.99,146.148c-0.005-0.079-0.031-0.141-0.083-0.197c-0.21-0.227-0.591-0.191-0.829-0.036
			c-0.063,0.042-0.134,0.104-0.165,0.173c-0.025,0.054-0.059,0.105-0.068,0.167c-0.01,0.065-0.036,0.125-0.008,0.191
			C334.074,146.993,335.026,146.724,334.99,146.148L334.99,146.148L334.99,146.148z M334.643,146.835
			c0.304-0.111,0.636-0.433,0.524-0.788c-0.212-0.681-1.395-0.456-1.51,0.201c-0.014,0.079-0.036,0.157-0.007,0.236
			c0.025,0.072,0.054,0.134,0.1,0.192C333.956,146.934,334.358,146.939,334.643,146.835L334.643,146.835L334.643,146.835z"/>
		<path fill="#FFFFFF" d="M309.141,146.758c0.438-1.432,0.87-2.869,1.303-4.294c0.219-0.717,0.438-1.438,0.656-2.159
			c0.031-0.1,0.06-0.202,0.096-0.3c0.015-0.044,0.018-0.09,0.044-0.133c0.025-0.041,0.079-0.021,0.124-0.021
			c0.174,0.004,0.357-0.006,0.528,0.013c0.347,0.037,0.714,0.007,1.065,0.045c0.186,0.021,0.378-0.001,0.563,0.015
			c0.045,0.004,0.09,0.002,0.135-0.001c0.05-0.004,0.051-0.074,0.067-0.121c0.03-0.082,0.052-0.173,0.078-0.26
			c0.113-0.364,0.226-0.733,0.336-1.097c0.107-0.362,0.22-0.729,0.333-1.094c0.05-0.165,0.098-0.331,0.146-0.491
			c0.024-0.084,0.089-0.207-0.024-0.197c-0.109,0.01-0.185,0.005-0.272,0.004c-1.441,0-2.879,0-4.318,0c-1.45,0-2.899,0-4.351,0
			c-0.1,0-0.199,0-0.298,0c-0.05-0.001-0.114-0.008-0.115,0.048c-0.001,0.053-0.026,0.089-0.039,0.133
			c-0.051,0.182-0.108,0.355-0.161,0.535c-0.107,0.356-0.217,0.707-0.322,1.063c-0.109,0.366-0.223,0.727-0.333,1.097
			c-0.027,0.09-0.057,0.177-0.077,0.261c-0.012,0.038-0.051,0.102-0.014,0.114c0.038,0.012,0.087,0.008,0.132,0.005
			c0.174-0.014,0.354,0.007,0.53-0.011c0.363-0.036,0.733-0.014,1.097-0.045c0.176-0.016,0.354-0.015,0.532-0.016
			c0.044,0,0.086-0.006,0.133,0.003c0.051,0.01,0.022,0.074,0.009,0.119c-0.024,0.087-0.056,0.178-0.082,0.268
			c-0.217,0.721-0.439,1.439-0.654,2.158c-0.436,1.456-0.896,2.907-1.311,4.357C306.187,146.761,307.643,146.757,309.141,146.758
			L309.141,146.758L309.141,146.758z"/>
		<path fill="#FFFFFF" d="M276.625,146.724c1.193-0.059,2.391-0.134,3.533-0.468c0.179-0.771,0.355-1.506,0.531-2.264
			c0.176-0.76,0.365-1.507,0.526-2.274c-0.581,0.356-1.158,0.675-1.802,0.867c-0.597,0.179-1.223,0.268-1.86,0.231
			c-0.649-0.038-1.251-0.232-1.755-0.638c-0.496-0.399-0.777-1.044-0.662-1.673c0.132-0.71,0.6-1.297,1.191-1.713
			c0.541-0.379,1.138-0.6,1.793-0.697c1.313-0.194,2.617,0.334,3.587,1.186c0.262-1.538,0.497-3.032,0.754-4.555
			c0.008-0.047-0.016-0.085-0.06-0.097c-2.312-0.637-4.901-0.681-7.179,0.13c-1.263,0.451-2.447,1.107-3.455,2.02
			c-1.019,0.923-1.823,2.087-2.181,3.401c-0.321,1.182-0.237,2.5,0.36,3.578c0.658,1.188,1.838,2.036,3.093,2.48
			C274.164,146.636,275.406,146.783,276.625,146.724L276.625,146.724L276.625,146.724z"/>
		<path fill="#FFFFFF" d="M334.376,146.201c0.074-0.012,0.121,0.009,0.199-0.015c0.089-0.026,0.05-0.15-0.027-0.127
			c-0.101,0.03-0.233-0.052-0.262,0.058C334.27,146.176,334.319,146.21,334.376,146.201L334.376,146.201L334.376,146.201z
			 M334.039,146.602c0.072-0.014,0.091,0.001,0.149-0.009c0.018-0.045,0.037-0.089,0.033-0.145c-0.004-0.077,0.044-0.145,0.121-0.13
			c0.051,0.009,0.074,0.052,0.087,0.098c0.011,0.04,0.033,0.067,0.044,0.105c0.017,0.049,0.045,0.087,0.102,0.073
			c0.042-0.009,0.069,0.014,0.111-0.01c-0.009-0.103-0.099-0.158-0.107-0.271c0.069-0.011,0.155-0.058,0.184-0.125
			c0.025-0.062,0.045-0.167-0.021-0.205c-0.17-0.102-0.379-0.024-0.573-0.047C334.106,146.16,334.077,146.382,334.039,146.602
			L334.039,146.602L334.039,146.602z"/>
	</g>
	<g>
		<path fill="#FFFFFF" d="M384.067,107.386c-2.28,0.171-5.196,0.594-5.173,1.392c0.025,0.836,2.175,2.44,4.997,3.486
			C384.023,110.554,384.056,108.742,384.067,107.386z M375.721,98.778c-0.751,0.022-1.316-0.305-1.331-0.764
			c-0.01-0.335,0.725-1.382,1.172-1.552c0.305-0.115,1.795-0.68,4.279-0.754c0.92-0.027,2.482,0.085,3.802,0.281
			c7.681,1.139,15.744,6.996,15.898,12.19c0.105,3.535-2.948,6.85-8.909,7.027c-1.569,0.046-3.03-0.146-4.358-0.496
			c-0.029,0.868,0.036,1.328-1.195,1.363c-0.753,0.022-1.047-1.197-1.157-2.188c-3.598-1.597-5.766-4.191-5.796-5.214
			c-0.046-1.524,2.727-2.796,5.968-3.299c0.045-1.261,0.259-4.475,0.926-4.495c0.269-0.008,0.821,0.613,1.031,1.563
			c0.189,0.863,0.209,2.438,0.212,2.718l0.245-0.009c4.548-0.135,7.274,1.287,7.324,2.971c0.038,1.306-1.118,1.974-1.724,1.992
			c-0.606,0.018-1.317-0.327-1.322-0.515c-0.011-0.359,1.294-0.443,1.276-1.024c-0.025-0.876-3.642-1.261-5.869-1.274
			c-0.004,0.755-0.015,1.667,0.004,2.279c0.018,0.588,0.055,2.109,0.072,3.378c1.011,0.213,2.053,0.33,3.073,0.299
			c2.401-0.072,7.889-0.947,7.767-5.069c-0.171-5.758-11.558-11.049-17.657-10.868c-2.401,0.071-3.843,0.329-3.836,0.565
			c0.005,0.157,1.17,0.218,1.179,0.529C376.803,98.723,376.131,98.766,375.721,98.778z"/>
		<path fill="#FFFFFF" d="M401.28,105.071c0.392-0.012,0.955,0.93,0.973,1.519c0.016,0.589,0.157,3.665,0.198,4.551
			c0.042,0.886,0.013,1.736-0.044,2.128c-0.059,0.393-0.201,0.587-0.875,0.607c-0.676,0.02-0.988-0.381-1.046-0.976
			c-0.057-0.593-0.107-2.278-0.078-3.122c0.029-0.844,0.068-2.458,0.179-3.47C400.697,105.296,400.969,105.08,401.28,105.071z"/>
		<path fill="#FFFFFF" d="M405.184,98.161c-0.111-0.28-0.488-0.845-1.827-0.805c-2.919,0.087-5.165,2.25-5.114,3.953
			c0.018,0.553,0.284,1.038,0.676,1.436c-0.102,0.279-0.112,0.465-0.109,0.571c0.009,0.295,0.454,1.078,0.796,1.067
			c0.289-0.009,0.488-0.28,0.767-0.718c0.476,0.183,0.949,0.276,1.325,0.266c2.745-0.082,5.235-2.653,5.187-4.299
			C406.861,98.874,406.37,98.142,405.184,98.161z M401.04,102.247c0.339-0.477,2.09-2.822,3.896-2.876
			c0.53-0.016,0.67,0.312,0.681,0.674c0.017,0.564-1.005,2.213-3.306,2.281C401.806,102.342,401.381,102.303,401.04,102.247z
			 M399.613,101.47c-0.043-0.069-0.082-0.179-0.087-0.35c-0.012-0.376,0.64-1.821,2.278-1.939c-0.419,0.286-0.839,0.652-1.257,1.122
			C400.154,100.743,399.843,101.131,399.613,101.47z"/>
		<path fill="#FFFFFF" d="M408.399,104.913c1.606-0.048,3.621,0.161,3.636,0.675c0.009,0.3-0.148,0.927-1.005,1.015
			c-1.013,0.103-6.113,0.319-6.095,0.949c0.01,0.333,1.543,0.407,2.949,0.492c1.444,0.088,3.763,0.142,3.834,2.48
			c0.054,1.846-0.645,2.235-0.958,2.382c-0.399,0.187-1.739,0.696-2.768,0.727c-3.098,0.092-4.376-1.689-4.402-2.594
			c-0.023-0.803,0.802-1.516,2.192-1.557c1.39-0.042,3.542,0.459,3.559,1.031c0.014,0.463-0.936,0.702-1.354,0.714
			c-1.896,0.056-1.805-0.714-2.897-0.682c-0.622,0.019-1.497,1.342,1.625,1.249c2.778-0.083,3.62-0.998,3.606-1.491
			c-0.02-0.65-2.014-0.969-3.168-1.028c-1.153-0.06-2.885-0.052-3.476-0.426c-0.59-0.374-0.508-1.219-0.304-1.917
			C403.802,105.469,406.793,104.96,408.399,104.913z"/>
		<path fill="#FFFFFF" d="M413.888,105.518c1.085-0.033,3.362,4.891,3.745,4.879c0.384-0.012,0.099-1.15-0.144-2.408
			c-0.548-2.845-1.403-4.312-0.601-4.336c0.595-0.018,2.541,1.866,2.648,5.513c0.051,1.694-0.188,3.91-1.722,3.956
			c-1.456,0.042-3.113-4.551-3.489-4.54c-0.202,0.006-0.22,2.846-0.274,3.701c-0.054,0.857-0.353,1.315-0.83,1.329
			c-0.723,0.021-1.041-0.672-1.081-2.04C412.099,110.206,412.549,105.558,413.888,105.518z"/>
		<path fill="#FFFFFF" d="M424.928,108.181c0.514-0.015,0.969-0.101,0.923,0.567c-0.045,0.667-0.073,0.937-0.609,0.953l-2.748,0.081
			c-0.091,0.306-0.326,1.093-0.431,1.426c-0.133,0.417,0.284,0.325,0.823,0.171c0.538-0.154,2.001-0.429,2.603-0.446
			c0.601-0.018,1.049,0.939,0.703,1.269c-0.345,0.329-2.203,1.898-4.143,1.956c-0.833,0.024-1.963-0.703-2.002-2.005
			c-0.02-0.689,0.257-1.616,0.522-2.333c-0.064-0.041-0.114-0.136-0.152-0.343c-0.087-0.469-0.298-0.984,0.482-1.072
			c0.062-0.007,0.142-0.015,0.232-0.022l0.645-1.327c-0.263-0.039-0.487-0.096-0.661-0.179c-0.475-0.226-0.844-0.808-0.851-1.069
			c-0.017-0.571,4.174-0.913,5.144-0.941c1.044-0.032,1.339,0.169,1.671,0.645c0.334,0.476,0.459,0.812,0.464,0.943
			c0.004,0.13-0.117,0.452-1.377,0.489c-0.645,0.02-1.686,0.128-2.685,0.165l-0.437,1.16
			C424.019,108.219,424.928,108.181,424.928,108.181z"/>
		<path fill="#FFFFFF" d="M427.769,112.145c-1.126,2.22-1.883,4.572-1.831,6.343c0.06,1.996,1.285,2.74,1.657,2.729
			c0.372-0.01,0.391-0.601,0.458-1.041c0.378-2.493,1.032-4.701,1.776-6.556c0.296,0.074,0.587,0.109,0.857,0.1
			c2.283-0.068,4.928-2.794,4.842-5.697c-0.046-1.533-0.631-2.62-1.614-2.591c-1.437,0.042-3.503,2.214-5.161,4.941
			c-0.148-1.106,0.724-2.811,1.468-4.001c0.522-0.836,0.431-1.831,0.214-1.825c-0.304,0.009-3.247,2.501-3.146,5.921
			C427.309,111.132,427.48,111.689,427.769,112.145z M430.813,111.454c1.374-2.688,2.792-4.219,3.289-4.234
			C434.967,107.195,434.236,111.102,430.813,111.454z"/>
	</g>
	<g>
		<polygon fill="#FFFFFF" points="162.519,182.239 167.709,182.239 167.709,185.702 167.744,185.702 171.703,182.239 
			177.519,182.239 172.745,186.484 178.268,192.314 171.703,192.314 167.744,188.188 167.709,188.188 167.709,192.314 
			162.519,192.314 		"/>
		<path fill="#FFFFFF" d="M185.767,190.566c2.308,0,2.156-2.53,2.156-3.366c0-0.835,0.026-3.153-2.156-3.153
			c-2.182,0-2.157,2.318-2.157,3.153C183.61,188.036,183.457,190.566,185.767,190.566L185.767,190.566z M185.767,181.958
			c5.892,0,7.496,1.215,7.496,5.348c0,4.136-1.604,5.35-7.496,5.35c-5.894,0-7.496-1.214-7.496-5.35
			C178.271,183.173,179.873,181.958,185.767,181.958L185.767,181.958z"/>
		<polygon fill="#FFFFFF" points="204.455,188.53 204.455,192.382 209.784,192.382 209.784,182.307 204.455,182.307 
			204.455,185.769 200.632,185.769 200.632,182.307 195.303,182.307 195.303,192.382 200.632,192.382 200.632,188.53 		"/>
		<path fill="#FFFFFF" d="M212.302,182.307h5.452v7.677c0,0,4.351,0.012,4.93,0.012c0.581,0,0.921-0.51,0.921-0.51v2.896h-11.303
			V182.307L212.302,182.307z"/>
		<path fill="#FFFFFF" d="M236.314,185.643c-1.127-0.887-2.094-1.186-3.132-1.203c-1.017-0.016-1.945,0.33-1.945,0.938
			c0,0.48,0.693,0.679,3.121,1.176c1.995,0.409,3.321,1.411,3.321,3.273c0,2.103-3.56,3.291-6.744,3.291
			c-2.236,0-3.952-0.396-5.487-1.073v-2.821c0.95,0.972,3.073,1.489,4.7,1.489c0.902,0,1.344-0.13,1.344-0.835
			c0-0.438-0.562-0.835-2.265-1.144c-3.228-0.58-4.319-1.486-4.319-3.04c0-2.229,2.824-3.556,6.298-3.556
			c1.874,0,3.596,0.057,5.109,0.749V185.643L236.314,185.643z"/>
		<path fill="#FFFFFF" d="M220.568,186.417l0.375-0.648c-1.123-0.544-1.456-1.933-0.886-2.727c0.615-0.853,2.32-1.217,3.24,0.104
			c0.784,1.124,0.035,2.079-0.306,2.352C222.649,185.769,220.568,186.417,220.568,186.417L220.568,186.417z"/>
	</g>
	<g>
		<g>
			<path fill="#FFFFFF" d="M147.79,105.093c0-0.655-0.271-1.285-0.761-1.776c-0.527-0.526-1.247-0.829-1.976-0.829
				c-1.437,0-2.607,1.168-2.607,2.605c0,1.396,0.666,2.149,2.458,2.775c1.866,0.703,2.703,1.542,2.703,2.718
				c0,1.467-1.194,2.662-2.661,2.662c-0.695,0-1.36-0.288-1.872-0.806c-0.569-0.577-0.896-1.396-0.943-2.33l-0.58,0.001
				c0.045,1.087,0.436,2.051,1.109,2.736c0.621,0.631,1.432,0.978,2.285,0.978c0.867,0,1.678-0.336,2.291-0.949
				c0.612-0.611,0.951-1.425,0.951-2.292c0-1.885-1.762-2.765-3.087-3.264c-1.552-0.542-2.074-1.105-2.074-2.229
				c0-0.541,0.21-1.049,0.593-1.431c0.382-0.383,0.891-0.594,1.433-0.594c0.574,0,1.146,0.24,1.565,0.659
				c0.381,0.38,0.59,0.865,0.59,1.365L147.79,105.093L147.79,105.093z"/>
			<path fill="#FFFFFF" d="M128.178,113.118c-2.752,0-4.986-2.233-4.986-4.987c0-2.753,2.233-4.985,4.986-4.985
				c1.973,0,3.679,1.146,4.485,2.81l0.692-0.012c-0.854-2.019-2.85-3.433-5.178-3.433c-3.104,0-5.62,2.516-5.62,5.62
				c0,3.104,2.517,5.621,5.62,5.621c2.339,0,4.344-1.428,5.19-3.459l-0.706,0.017C131.857,111.97,130.151,113.118,128.178,113.118z"
				/>
			<path fill="#FFFFFF" d="M121.602,105.547c-0.936-1.804-2.817-3.037-4.99-3.037c-3.104,0-5.621,2.516-5.621,5.62
				c0,3.104,2.517,5.621,5.621,5.621c2.173,0,4.054-1.232,4.99-3.037v3.067h0.635v-10.984h-0.635V105.547z M116.612,113.118
				c-2.752,0-4.987-2.233-4.987-4.987c0-2.753,2.235-4.985,4.987-4.985c2.752,0,4.985,2.232,4.985,4.985
				C121.597,110.885,119.365,113.118,116.612,113.118z"/>
			<path fill="#FFFFFF" d="M106.314,102.549c-1.762,0-3.265,1.089-3.883,2.631c-0.617-1.542-2.121-2.631-3.882-2.631
				c-1.51,0-2.83,0.803-3.565,2.003v-1.755h-0.632v10.984h0.632v-7.429c0.189-1.801,1.713-3.206,3.565-3.206
				c1.868,0,3.395,1.426,3.565,3.248v7.387h0.633v-7.387c0.17-1.821,1.699-3.248,3.566-3.248c1.917,0,3.478,1.506,3.575,3.4h-0.011
				v7.234h0.634v-7.234h-0.025C110.388,104.322,108.561,102.549,106.314,102.549z"/>
			<polygon fill="#FFFFFF" points="137.518,112.771 133.515,102.798 132.849,102.798 137.176,113.616 135.546,117.632 
				136.239,117.658 142.28,102.798 141.562,102.798 			"/>
			<polygon fill="#FFFFFF" points="143.651,100.341 143.374,99.49 143.096,100.341 142.193,100.341 142.925,100.871 
				142.649,101.722 143.373,101.195 144.099,101.725 143.823,100.87 144.55,100.341 			"/>
			<polygon fill="#FFFFFF" points="87.645,106.843 86.247,102.557 84.852,106.843 80.31,106.843 83.99,109.508 82.596,113.795 
				86.242,111.143 89.909,113.809 88.509,109.5 92.172,106.843 			"/>
		</g>
	</g>
	<g>
		<path fill="#FFFFFF" d="M186.17,151.013c-0.383,0-0.684,0.268-0.684,0.66c0,0.392,0.303,0.659,0.684,0.659
			c0.383,0,0.684-0.269,0.684-0.659C186.854,151.283,186.554,151.013,186.17,151.013z M186.17,152.144
			c-0.273,0-0.476-0.2-0.476-0.469c0-0.27,0.202-0.472,0.476-0.472c0.272,0,0.477,0.204,0.477,0.472
			C186.646,151.939,186.44,152.144,186.17,152.144z"/>
		<polygon fill="#FFFFFF" points="192.824,148.706 189.495,148.706 189.874,142.92 187.712,148.706 184.621,148.706 
			189.525,135.628 192.814,135.628 192.435,141.493 194.637,135.628 197.728,135.628 		"/>
		<polygon fill="#FFFFFF" points="193.226,148.706 198.129,135.628 201.221,135.628 196.316,148.706 		"/>
		<path fill="#FFFFFF" d="M184.265,144.199c-4.32,5.072-8.394,11.821-4.795,14.929c3.487,3.012,7.845,1.229,10.818,0.04
			c2.972-1.19,35.823-15.455,35.823-15.455c0.318-0.158,0.258-0.356-0.139-0.258c-0.16,0.04-35.765,9.689-35.765,9.689
			C185.691,154.412,180.539,151.648,184.265,144.199z"/>
		<path fill="#FFFFFF" d="M186.287,151.72c0.096-0.005,0.171-0.054,0.171-0.187c0-0.171-0.112-0.214-0.299-0.214h-0.269v0.709h0.179
			v-0.302h0.031l0.162,0.302h0.207L186.287,151.72z M186.171,151.604h-0.102v-0.164h0.086c0.053,0,0.113,0.006,0.113,0.075
			C186.269,151.588,186.234,151.604,186.171,151.604z"/>
		<path fill="#FFFFFF" d="M217.243,135.589c-0.383,0-0.684,0.268-0.684,0.66c0,0.392,0.302,0.658,0.684,0.658
			c0.382,0,0.684-0.269,0.684-0.658C217.926,135.857,217.626,135.589,217.243,135.589z M217.243,136.718
			c-0.273,0-0.476-0.2-0.476-0.47s0.2-0.471,0.476-0.471c0.272,0,0.476,0.204,0.476,0.471
			C217.718,136.514,217.513,136.718,217.243,136.718z"/>
		<path fill="#FFFFFF" d="M217.359,136.295c0.096-0.005,0.171-0.054,0.171-0.187c0-0.171-0.112-0.214-0.299-0.214h-0.269v0.709
			h0.179v-0.302h0.031l0.163,0.302h0.206L217.359,136.295z M217.245,136.18h-0.103v-0.164h0.086c0.052,0,0.113,0.006,0.113,0.075
			C217.341,136.164,217.307,136.18,217.245,136.18z"/>
		<path fill="#FFFFFF" d="M215.206,137.808l0.831-2.179h-6.194h-0.028h-3.209l-3.239,3.923l1.495-3.923h-3.131l-4.865,13.078h3.091
			l2.077-5.469l0.142,5.469l9.484-0.021l0.903-2.516h-3.606l1.185-3.169h2.973l0.914-2.438h-2.972l1.019-2.754H215.206z
			 M205.243,147.834l-0.198-6.816l4.673-5.131L205.243,147.834z"/>
	</g>
	<g>
		<path fill="#FFFFFF" d="M281.539,104.37c2.255,0,3.746,1.673,3.746,4.146c0,2.472-1.527,4.183-3.746,4.183
			c-2.218,0-3.78-1.783-3.78-4.183C277.759,106.079,279.32,104.37,281.539,104.37L281.539,104.37z M281.539,112.152
			c1.638,0,2.511-1.309,2.511-3.636c0-2.291-0.873-3.637-2.511-3.637c-1.637,0-2.545,1.346-2.545,3.564
			C278.994,110.843,279.867,112.152,281.539,112.152L281.539,112.152z"/>
		<path fill="#FFFFFF" d="M301.104,108.37c0,2.583-1.455,4.183-3.964,4.183h-2.546c0,0,0.072-2.546,0.072-4.037
			c0-1.455-0.072-4.037-0.072-4.037h2.91C299.868,104.479,301.104,105.824,301.104,108.37L301.104,108.37z M299.904,108.406
			c0-2.181-1.019-3.418-2.981-3.418c-0.874,0-1.2,0.037-1.2,0.037s0.072,0.181,0.072,0.509c-0.037,0.691-0.037,2-0.037,2.982
			c0,1.09,0.037,2.218,0.037,2.909c0,0.363-0.072,0.582-0.072,0.582s0.326,0.035,1.053,0.035
			C298.85,112.042,299.904,110.771,299.904,108.406L299.904,108.406z"/>
		<path fill="#FFFFFF" d="M325.65,104.37c2.291,0,3.782,1.673,3.782,4.146c0,2.472-1.527,4.183-3.782,4.183
			c-2.219,0-3.746-1.783-3.746-4.183C321.905,106.079,323.432,104.37,325.65,104.37L325.65,104.37z M325.65,112.152
			c1.636,0,2.545-1.309,2.545-3.636c0-2.291-0.909-3.637-2.545-3.637c-1.637,0-2.509,1.346-2.509,3.564
			C323.142,110.843,324.013,112.152,325.65,112.152L325.65,112.152z"/>
		<path fill="#FFFFFF" d="M270.629,109.716c0,1.963,0.111,2.836,0.111,2.836h-0.838c0,0,0.109-3.237,0.109-6.364
			c0-0.545-0.037-1.709-0.037-1.709h0.582c0,0,2.255,3.201,3.746,5.273c0.182,0.255,0.399,0.618,0.546,0.909
			c0,0-0.073-0.545-0.073-1.055v-2.29c0-2.037-0.109-2.837-0.109-2.837h0.837c0,0-0.109,2.981-0.109,6.401
			c0,0.326,0.036,1.673,0.036,1.673h-0.581c0,0-2.219-3.127-3.746-5.236c-0.217-0.328-0.362-0.546-0.509-0.837
			c0,0,0.035,0.69,0.035,1.054V109.716L270.629,109.716z"/>
		<path fill="#FFFFFF" d="M304.85,112.152c0.945-0.037,1.636-0.836,1.49-1.709c-0.108-0.691-0.618-1.091-1.49-1.601
			c-1.128-0.617-1.782-1.09-1.892-2.181c-0.146-1.345,0.946-2.292,2.291-2.327c0.765-0.037,1.455,0.181,1.709,0.254v0.873
			c0,0-0.618-0.618-1.635-0.618c-0.729,0-1.491,0.437-1.491,1.236c0,0.691,0.581,1.055,1.526,1.637
			c1.31,0.763,1.964,1.382,1.964,2.509c0,1.454-1.164,2.474-2.582,2.474c-0.728,0-1.454-0.146-1.709-0.256v-0.945
			C303.031,111.497,303.722,112.188,304.85,112.152L304.85,112.152z"/>
		<path fill="#FFFFFF" d="M313.758,104.479v0.764c0,0-0.58-0.181-1.562-0.181h-0.509c0,0,0,0.218,0,0.509c0,0,0,1.455,0,1.854
			c0,2.255,0.108,5.128,0.108,5.128h-1.272c0,0,0.11-2.873,0.11-5.128c0-0.399-0.037-1.854-0.037-1.854
			c0-0.291,0.037-0.509,0.037-0.509h-0.545c-0.947,0-1.528,0.181-1.528,0.181v-0.764H313.758L313.758,104.479z"/>
		<path fill="#FFFFFF" d="M338.851,112.552h-1.2c0,0-0.071-2.946-0.182-5.019c0-0.254,0-0.545,0-0.873c0,0-0.146,0.4-0.328,0.836
			l-2.218,5.274c0,0-1.236-2.837-2.218-4.983c-0.145-0.291-0.328-0.872-0.474-1.126c0.038,0.437,0,0.909-0.035,1.236
			c-0.146,2.109-0.183,4.655-0.183,4.655h-0.763l0.509-8.074h0.69c0,0,1.491,3.346,2.437,5.419c0.109,0.254,0.254,0.545,0.327,0.836
			c0.073-0.328,0.183-0.583,0.292-0.836c0.872-2.073,2.217-5.419,2.217-5.419h0.692L338.851,112.552L338.851,112.552z"/>
		<path fill="#FFFFFF" d="M320.232,106.37c0,1.09-0.655,1.818-1.855,2.109c0.764,1.418,2.327,4.073,2.327,4.073h-1.272
			c0,0-0.653-1.382-2.4-4.437h0.109c1.31,0,2-0.545,2-1.6c0-0.909-0.581-1.527-1.636-1.527c-0.328,0-0.801,0.037-0.801,0.037
			s0.074,0.181,0.074,0.689v4.146c0,1.819,0.072,2.692,0.072,2.692h-1.201c0,0,0.072-3.164,0.072-4.836
			c0-1.128-0.072-3.237-0.072-3.237h2.363C319.469,104.479,320.232,105.169,320.232,106.37L320.232,106.37z"/>
		<path fill="#FFFFFF" d="M292.158,106.37c0,1.09-0.691,1.818-1.855,2.109c0.764,1.418,2.292,4.073,2.292,4.073h-1.272
			c0,0-0.654-1.382-2.4-4.437h0.145c1.273,0,1.965-0.545,1.965-1.6c0-0.909-0.583-1.527-1.637-1.527
			c-0.292,0-0.799,0.037-0.799,0.037s0.072,0.181,0.072,0.689v4.146c0,1.819,0.071,2.692,0.071,2.692h-1.199
			c0,0,0.109-3.164,0.109-4.836c0-1.128-0.109-3.237-0.109-3.237h2.399C291.358,104.479,292.158,105.169,292.158,106.37
			L292.158,106.37z"/>
	</g>
	<g>
		<path fill="#FFFFFF" d="M280.311,186.623l-2.313,7.107h-0.579v0.352h1.637v-0.352h-0.641l0.823-2.53h2.161l0.824,2.53h-0.66v0.352
			h2.307v-0.352h-0.427l-2.313-7.107H280.311L280.311,186.623z M315.576,186.623l-2.312,7.107h-0.581v0.352h1.638v-0.352h-0.642
			l0.824-2.53h2.16l0.824,2.53h-0.661v0.352h2.307v-0.352h-0.427l-2.312-7.107H315.576L315.576,186.623z M297.325,186.976v2.96
			h2.764v-2.96h-0.542v-0.353h2.371v0.353h-0.608v6.755h0.608v0.353h-2.371v-0.353h0.542v-3.443h-2.764v3.443h0.544v0.353h-2.373
			v-0.353h0.608v-6.755h-0.608v-0.353h2.373v0.353H297.325L297.325,186.976z M336.495,186.623v2.487h-0.417
			c-0.018-0.216-0.046-0.458-0.095-0.699c-0.05-0.239-0.122-0.479-0.228-0.694c-0.104-0.213-0.243-0.397-0.425-0.53
			c-0.183-0.133-0.408-0.211-0.688-0.211h-1.611v3.092h0.477c0.28,0,0.488-0.052,0.646-0.138c0.155-0.087,0.258-0.208,0.329-0.346
			c0.07-0.14,0.107-0.296,0.133-0.453c0.024-0.157,0.034-0.314,0.052-0.456h0.354v3.213h-0.354
			c-0.019-0.142-0.027-0.298-0.052-0.456c-0.025-0.157-0.062-0.313-0.133-0.452c-0.071-0.138-0.174-0.26-0.329-0.346
			c-0.157-0.087-0.366-0.139-0.646-0.139h-0.477v3.234h1.611c0.312,0,0.556-0.098,0.748-0.258c0.19-0.16,0.329-0.381,0.43-0.631
			c0.102-0.248,0.165-0.521,0.205-0.787c0.041-0.264,0.059-0.519,0.069-0.728h0.517v2.756h-5.409v-0.353h0.4h0.208v-6.754h-0.608
			v-0.353H336.495L336.495,186.623z M323.615,192.182v-5.206h0.451v-0.353h-1.363v0.353h0.451v5.115
			c0,0.496-0.174,0.886-0.438,1.159c-0.262,0.274-0.61,0.434-0.961,0.468c-0.349,0.035-0.698-0.054-0.961-0.274
			c-0.262-0.221-0.438-0.572-0.438-1.063v-5.404h0.61v-0.353h-2.373v0.353h0.544v5.206c0,0.288,0.059,0.562,0.164,0.811
			c0.106,0.249,0.259,0.474,0.448,0.665c0.188,0.188,0.414,0.341,0.663,0.447c0.274,0.116,0.619,0.174,0.963,0.174
			c0.345,0,0.688-0.058,0.962-0.174c0.25-0.106,0.475-0.26,0.665-0.447c0.188-0.191,0.342-0.416,0.446-0.665
			C323.557,192.743,323.615,192.47,323.615,192.182L323.615,192.182z M284.485,186.623h2.308v0.353h-0.544v6.755h1.278
			c0.344,0,0.604-0.12,0.806-0.311c0.198-0.191,0.335-0.453,0.431-0.739c0.095-0.284,0.147-0.594,0.178-0.876
			c0.03-0.279,0.039-0.537,0.047-0.719h0.508v2.645v0.352h-0.462h-4.549v-0.352h0.545v-6.755h-0.545V186.623L284.485,186.623z
			 M305.013,183.386h3.309v0.504h-0.779v9.688h1.831c0.494,0,0.87-0.171,1.156-0.446c0.286-0.273,0.481-0.65,0.618-1.058
			c0.136-0.409,0.211-0.851,0.255-1.255c0.044-0.405,0.057-0.772,0.067-1.034h0.727v3.793v0.505h-0.661h-6.522v-0.505h0.78v-9.688
			h-0.78V183.386L305.013,183.386z M290.028,193.73h0.543v-6.755h-0.543v-0.353h3.141c0.229,0,0.476,0.045,0.717,0.131
			c0.241,0.084,0.478,0.206,0.688,0.359c0.225,0.188,0.409,0.408,0.533,0.653c0.122,0.241,0.184,0.522,0.184,0.803
			c0,0.279-0.062,0.56-0.184,0.802c-0.124,0.244-0.309,0.464-0.533,0.652c-0.211,0.151-0.447,0.274-0.688,0.359
			c-0.241,0.084-0.488,0.131-0.717,0.131h-1.378v3.217h0.543v0.352h-2.307L290.028,193.73L290.028,193.73z M324.575,193.73h0.544
			v-6.755h-0.544v-0.353h3.141c0.229,0,0.476,0.045,0.718,0.131c0.241,0.084,0.478,0.206,0.688,0.359
			c0.225,0.188,0.408,0.408,0.532,0.653c0.123,0.241,0.186,0.522,0.186,0.803c0,0.279-0.062,0.56-0.186,0.802
			c-0.124,0.244-0.308,0.464-0.532,0.652c-0.211,0.151-0.447,0.274-0.688,0.359c-0.197,0.069-0.396,0.112-0.586,0.127l0.001,0.004
			l2.23,3.217h0.563v0.353h-1.772l-2.473-3.568h-0.059v3.216h0.543v0.353h-2.306L324.575,193.73L324.575,193.73z M268.079,193.577
			h0.779v-9.688h-0.779v-0.504h4.505c0.328,0,0.681,0.065,1.027,0.186c0.347,0.123,0.686,0.298,0.986,0.517
			c0.324,0.27,0.587,0.586,0.765,0.938c0.177,0.347,0.265,0.748,0.265,1.149c0,0.402-0.088,0.804-0.265,1.151
			c-0.178,0.351-0.44,0.667-0.765,0.937c-0.301,0.219-0.641,0.395-0.986,0.516c-0.282,0.098-0.567,0.159-0.842,0.18l0.005,0.007
			l3.196,4.612h0.81v0.506h-2.544l-3.546-5.118h-0.083v4.612h0.778v0.506h-3.307V193.577L268.079,193.577z M337.221,193.73h0.481
			v-6.755h-0.481v-0.353h1.837h0.057l3.037,5.108v-4.756h-0.553v-0.353h1.495v0.353h-0.481v7.106h-0.462l-3.988-6.71v6.358h0.553
			v0.352h-1.494V193.73L337.221,193.73z M270.607,183.89v4.57h0.89c0.336-0.008,0.631-0.037,0.883-0.094
			c0.255-0.057,0.469-0.14,0.645-0.257s0.313-0.269,0.417-0.463c0.176-0.331,0.265-0.9,0.265-1.472c0-0.57-0.089-1.141-0.265-1.472
			c-0.104-0.193-0.241-0.346-0.417-0.463c-0.176-0.116-0.39-0.199-0.645-0.256c-0.252-0.056-0.547-0.085-0.883-0.095H270.607
			L270.607,183.89z M326.339,186.976v3.187h0.62c0.233-0.006,0.439-0.026,0.615-0.066c0.178-0.039,0.326-0.096,0.449-0.178
			c0.122-0.083,0.219-0.188,0.291-0.323c0.122-0.23,0.185-0.629,0.185-1.025c0-0.397-0.062-0.797-0.185-1.027
			c-0.072-0.135-0.169-0.24-0.291-0.322c-0.123-0.083-0.271-0.141-0.449-0.179c-0.176-0.039-0.382-0.06-0.615-0.065H326.339
			L326.339,186.976z M291.791,186.976v3.187h0.62c0.235-0.006,0.439-0.026,0.615-0.066c0.178-0.039,0.326-0.096,0.449-0.178
			c0.123-0.083,0.221-0.188,0.291-0.323c0.122-0.23,0.185-0.629,0.185-1.025c0-0.397-0.061-0.797-0.185-1.027
			c-0.07-0.135-0.168-0.24-0.291-0.322c-0.123-0.083-0.271-0.141-0.449-0.179c-0.176-0.039-0.38-0.06-0.615-0.065H291.791
			L291.791,186.976z M314.617,190.849l0.968-2.97l0.965,2.97H314.617L314.617,190.849z M279.352,190.849l0.966-2.97l0.967,2.97
			H279.352L279.352,190.849z"/>
	</g>
	<g>
		<path fill="#FFFFFF" d="M374.161,144.893c-0.524-0.212-1.042-0.356-1.457-0.692c-0.291-0.236-0.436-0.606-0.413-1.05
			c0.042-0.85,0.689-1.415,1.654-1.365c0.792,0.04,1.299,0.429,1.518,1.156l1.172-0.192c-0.308-1.157-1.25-1.861-2.652-1.933
			c-1.652-0.083-2.735,0.82-2.809,2.277c-0.04,0.769,0.187,1.388,0.667,1.821c0.591,0.543,1.256,0.753,1.884,1.006
			c1.191,0.469,1.826,0.829,1.775,1.819c-0.04,0.805-0.71,1.356-1.769,1.302c-0.805-0.04-1.356-0.399-1.591-0.99l-1.112,0.244
			c0.383,1.069,1.315,1.719,2.627,1.785c1.699,0.086,2.951-0.927,3.022-2.339C376.752,146.286,375.912,145.589,374.161,144.893z"/>
		<polygon fill="#FFFFFF" points="382.172,150.034 386.796,150.034 386.796,148.983 383.325,148.983 383.325,145.984 
			386.796,145.984 386.796,144.957 383.325,144.957 383.325,142.167 386.796,142.167 386.796,141.119 382.172,141.119 		"/>
		<path fill="#FFFFFF" d="M392.977,149.792h1.155v-3.07h0.966c1.863,0,3.121-1.214,3.121-2.905c0-1.75-1.244-2.941-3.343-2.941
			h-1.899V149.792L392.977,149.792z M394.131,145.66v-3.735h0.733c1.421,0,2.167,0.653,2.167,1.844c0,1.19-0.734,1.891-1.981,1.891
			H394.131L394.131,145.66z"/>
		<polygon fill="#FFFFFF" points="403.678,150.156 404.831,150.156 404.831,146.082 409.502,146.082 409.502,150.156 
			410.655,150.156 410.655,141.239 409.502,141.239 409.502,145.032 404.831,145.032 404.831,141.239 403.678,141.239 		"/>
		<path fill="#FFFFFF" d="M419.879,150.453c1.316,0,2.376-0.409,3.226-1.238c0.897-0.876,1.375-2.043,1.375-3.396
			c0-1.353-0.489-2.533-1.387-3.409c-0.825-0.804-1.91-1.225-3.214-1.225c-1.306,0-2.389,0.421-3.217,1.225
			c-0.896,0.876-1.386,2.055-1.386,3.409s0.479,2.521,1.375,3.396C417.502,150.044,418.573,150.453,419.879,150.453L419.879,150.453
			z M419.866,149.402c-0.967,0-1.758-0.315-2.376-0.946c-0.675-0.677-1.025-1.598-1.025-2.637c0-1.051,0.351-1.96,1.025-2.637
			c0.604-0.619,1.42-0.945,2.376-0.945c0.968,0,1.772,0.327,2.389,0.945c0.676,0.688,1.037,1.586,1.037,2.637
			c0,1.038-0.35,1.96-1.024,2.637C421.649,149.086,420.834,149.402,419.866,149.402L419.866,149.402z"/>
		<path fill="#FFFFFF" d="M428.886,149.792h1.153v-3.63l3.169,3.63h1.455l-3.133-3.466h0.069c1.596,0,2.68-1.168,2.68-2.743
			c0-1.681-1.188-2.707-3.366-2.707h-2.027V149.792L428.886,149.792z M430.039,145.45v-3.525h0.78c1.514,0,2.271,0.607,2.271,1.692
			c0,1.168-0.769,1.833-2.213,1.833H430.039L430.039,145.45z"/>
		<path fill="#FFFFFF" d="M439.163,149.792h1.237l0.791-2.067h4.182l0.793,2.067h1.351l-3.75-8.916h-0.968L439.163,149.792
			L439.163,149.792z M441.598,146.675l1.423-3.575c0.035-0.093,0.128-0.374,0.268-0.826c0.14,0.477,0.233,0.745,0.268,0.826
			l1.399,3.575H441.598L441.598,146.675z"/>
	</g>
	<g>
		<path fill="#FFFFFF" d="M87.236,74.125c1.337,0,2.421-1.085,2.421-2.421c0-1.337-1.084-2.421-2.421-2.421
			c-1.336,0-2.42,1.084-2.42,2.421C84.815,73.041,85.899,74.125,87.236,74.125L87.236,74.125z M87.236,76.412
			c2.576,0,4.663-2.088,4.663-4.663c0-2.576-2.087-4.663-4.663-4.663c-2.575,0-4.663,2.087-4.663,4.663S84.661,76.412,87.236,76.412
			L87.236,76.412z M80.215,71.749c0-3.877,3.143-7.02,7.021-7.02c3.877,0,7.021,3.142,7.021,7.02c0,3.878-3.144,7.021-7.021,7.021
			C83.358,78.77,80.215,75.626,80.215,71.749L80.215,71.749z"/>
		<polygon fill="#FFFFFF" points="96.538,66.71 104.536,66.71 104.536,68.729 101.785,68.729 101.785,76.817 99.34,76.817 
			99.34,68.744 96.538,68.744 		"/>
		<path fill="#FFFFFF" d="M116.584,68.744h-2.243v2.018c0,0,1.75,0.006,2.011,0c0.703-0.015,1.246-0.329,1.246-1.016
			C117.599,68.997,117.138,68.744,116.584,68.744L116.584,68.744z M112.009,66.71c0,0,1.84,0,4.747,0
			c2.699,0,3.073,1.847,3.073,2.923c0,1.563-1.346,2.348-1.465,2.378c0,0,1.182,0.44,1.182,1.779v1.884
			c0,0.756,0.463,0.965,0.546,1.144h-1.929c-0.92-0.104-0.905-0.836-0.898-1.254v-1.624c-0.022-0.396-0.142-0.838-0.972-0.853
			h-1.951v3.73h-2.34L112.009,66.71L112.009,66.71z"/>
		<polygon fill="#FFFFFF" points="130.146,66.71 130.146,76.817 137.427,76.817 137.427,74.74 132.523,74.74 132.523,72.481 
			136.71,72.481 136.71,70.568 132.523,70.568 132.523,68.744 137.427,68.744 137.427,66.71 		"/>
		<polygon fill="#FFFFFF" points="137.771,68.744 140.658,68.744 140.658,76.817 143.05,76.817 143.05,68.744 145.98,68.744 
			145.98,66.71 137.771,66.71 		"/>
		<path fill="#FFFFFF" d="M107.062,70.276l-0.859,2.61h1.772L107.062,70.276L107.062,70.276z M105.708,66.708h2.595l3.534,10.109
			h-2.514l-0.73-2.1h-2.984l-0.688,2.1h-2.494L105.708,66.708L105.708,66.708z"/>
		<path fill="#FFFFFF" d="M129.309,71.173h-4.343v1.966h2.062c-0.004,0.404,0.06,0.809-0.424,1.376
			c-0.165,0.193-0.731,0.627-1.52,0.627c-0.665,0-1.144-0.19-1.559-0.542c-0.917-0.779-1.132-2.234-1.132-2.994
			c0-0.957,0.381-3.334,2.721-3.431c0,0,1.579-0.103,1.989,1.801h2.19c-0.044-0.964-1.166-3.674-4.179-3.678
			c-1.04-0.001-2.36,0.312-3.452,1.406c-0.792,0.792-1.504,2.124-1.504,4c0,2.034,0.749,3.356,1.434,4.083
			c1.202,1.276,2.413,1.373,3.044,1.373c0.5,0,1.458-0.074,2.699-0.911l0.329,0.568h1.645V71.173L129.309,71.173z"/>
		<path fill="#FFFFFF" d="M144.159,76.153h0.126c0.08,0,0.14-0.012,0.14-0.098c0-0.078-0.081-0.089-0.146-0.089h-0.119
			L144.159,76.153L144.159,76.153z M144.018,75.854h0.269c0.179,0,0.28,0.056,0.28,0.211c0,0.131-0.083,0.181-0.188,0.191
			l0.19,0.312h-0.148l-0.173-0.306h-0.089v0.306h-0.142V75.854L144.018,75.854z M144.271,76.716c0.264,0,0.48-0.212,0.48-0.504
			c0-0.289-0.216-0.498-0.48-0.498c-0.268,0-0.481,0.209-0.481,0.498C143.79,76.504,144.003,76.716,144.271,76.716L144.271,76.716z
			 M144.271,75.577c0.345,0,0.654,0.249,0.654,0.635c0,0.389-0.309,0.639-0.654,0.639c-0.347,0-0.655-0.25-0.655-0.639
			C143.617,75.825,143.925,75.577,144.271,75.577L144.271,75.577z"/>
	</g>
</g>
</svg>
