<?xml version="1.0" encoding="utf-8"?>
<!-- Generator: Adobe Illustrator 16.0.0, SVG Export Plug-In . SVG Version: 6.00 Build 0)  -->
<!DOCTYPE svg PUBLIC "-//W3C//DTD SVG 1.1//EN" "http://www.w3.org/Graphics/SVG/1.1/DTD/svg11.dtd">
<svg version="1.1" id="Layer_1" xmlns="http://www.w3.org/2000/svg" xmlns:xlink="http://www.w3.org/1999/xlink" x="0px" y="0px"
	 width="359px" height="536px" viewBox="0 0 359 536" enable-background="new 0 0 359 536" xml:space="preserve">
<g>
	<path fill="#FFFFFF" d="M319.762,192.596c2.109,0.374,4.295,0.514,6.318,1.16c15.337,4.896,19.158,24.058,6.908,35.951
		c-8.702,8.449-17.695,16.653-27.09,24.313c-3.832,3.123-8.865,5.397-13.709,6.527c-11.844,2.762-21.26-5.351-19.822-17.406
		c0.652-5.476,2.939-11.452,6.316-15.767c7.564-9.666,16.167-18.536,24.568-27.523C307.611,195.188,313.17,192.688,319.762,192.596z
		"/>
	<path fill="#FFFFFF" d="M327.641,256.398c1.744,1.662,3.348,2.859,4.539,4.381c6.242,7.971,5.351,19.709-2.704,27.641
		c-8.165,8.039-16.671,15.773-25.476,23.104c-3.316,2.76-7.709,4.672-11.924,5.822c-13.219,3.606-22.291-5.266-19.877-18.76
		c1.564-8.746,7.316-14.702,13.078-20.676c0.74-0.768,2.407-0.841,3.656-0.885c10.902-0.387,20.318-4.404,28.482-11.515
		C320.666,262.68,323.854,259.777,327.641,256.398z"/>
	<path fill="#FFFFFF" d="M326.881,312.797c1.773,3.093,3.588,5.326,4.424,7.88c2.846,8.693-0.061,16.194-6.213,22.262
		c-7.219,7.12-14.688,14.055-22.611,20.36c-3.758,2.989-8.635,5.117-13.339,6.261c-10.509,2.554-18.433-4.349-17.652-14.864
		c0.581-7.815,4.388-14.202,9.841-19.611c0.782-0.775,2.393-1.051,3.601-1.01c13.304,0.449,24.172-4.921,33.632-13.805
		C320.972,318.007,323.479,315.847,326.881,312.797z"/>
	<path fill="#FFFFFF" d="M301.55,179.131c0-15.981,0-30.763,0-45.978c3.798-1.132,7.525-2.491,11.366-3.342
		c11.061-2.45,21.849,2.164,25.455,10.677c3.501,8.266-0.387,19.561-9.932,25.285C320.111,170.768,311.023,174.492,301.55,179.131z"
		/>
	<path fill-rule="evenodd" clip-rule="evenodd" fill="#2DBBB4" d="M214.398,536c2.291-13.763,4.992-27.475,6.704-41.309
		c0.869-7.023,3.837-12.21,8.389-17.347c24.101-27.202,46.668-55.591,65.267-86.938c1.101-1.856,2.133-3.754,3.196-5.632
		c-0.229-0.429-0.456-0.858-0.685-1.288c-3.564,1.778-7.588,2.992-10.605,5.442c-8.749,7.102-18.463,11.064-29.753,11.064
		c-41.817,0.001-83.636,0.045-125.452-0.019c-24.695-0.037-44.053-19.312-44.114-44.019c-0.096-38.316-0.048-76.634,0.056-114.95
		c0.006-2.396,0.744-4.89,1.596-7.168c7.332-19.598,14.916-39.102,22.098-58.753c2.691-7.363,3.774-14.976,2.554-23.034
		c-2.142-14.143-10.372-22.492-23.499-27.154c-0.451,0.576-0.978,1.012-1.206,1.57c-17.675,43.191-35.718,86.239-52.808,129.662
		c-7.901,20.079-13.639,40.937-16.255,62.551c-1.306,10.789,2.044,20.775,3.973,30.998c9.5,50.354,15.249,100.995,12.937,152.355
		c-0.508,11.305-0.279,22.644-0.391,33.967C95.732,536,155.064,536,214.398,536z"/>
	<path fill-rule="evenodd" clip-rule="evenodd" fill="#F58349" d="M260.398,5c0.75,0.308,1.473,0.738,2.253,0.904
		c13.679,2.917,22.702,13.75,22.716,27.69c0.051,52.833,0.025,105.667,0.003,158.499c-0.001,1.295,0.167,2.987-0.538,3.82
		c-4.437,5.232-9.098,10.273-13.686,15.379c-0.369-0.188-0.737-0.373-1.106-0.561c0-53.579,0-107.158,0-160.794
		c-50.751,0-100.983,0-151.827,0c0,24.706,0,49.04,0,73.444c-4.48-3.221-8.65-5.955-12.471-9.113
		c-1.266-1.047-2.297-3.18-2.307-4.822c-0.139-25.666-0.175-51.333-0.052-76.999c0.06-12.503,9.161-23.554,21.255-26.375
		c1.268-0.296,2.507-0.712,3.76-1.073C172.398,5,216.398,5,260.398,5z M174.971,27.945c-2.993-0.027-5.863,0.799-5.266,4.145
		c0.277,1.555,3.322,3.675,5.158,3.721c12.934,0.322,25.879,0.146,38.82,0.191c3.036,0.011,5.818-0.974,5.295-4.213
		c-0.246-1.516-3.301-3.524-5.194-3.652c-6.606-0.449-13.262-0.174-19.898-0.174C187.58,27.964,181.275,28.005,174.971,27.945z"/>
	<path fill-rule="evenodd" clip-rule="evenodd" fill="#F58349" d="M103.344,245.539c-0.011,36.134-0.017,72.267-0.006,108.399
		c0.007,18.38,11.562,30.021,29.824,30.028c40.817,0.016,81.635,0.046,122.451-0.059c4.08-0.011,8.158-0.91,13.221-1.514
		c-17.208-17.842-17.619-31.771-2.59-54.892c-2.916-5.047-6.99-6.668-13.034-6.623c-42.813,0.32-85.632,0.17-128.448,0.17
		c-1.95,0-3.9,0-6.268,0c0-38.899,0-77.271,0-115.643c-0.246-0.05-0.494-0.101-0.74-0.151c-4.743,11.767-9.54,23.512-14.158,35.326
		C103.023,242.045,103.344,243.878,103.344,245.539z M175.679,343.963c0.292-5.729,4.014-8.923,9.8-9.092
		c2.825-0.082,5.654-0.014,8.48-0.016c2.994,0,5.988-0.062,8.979,0.013c6.19,0.155,9.657,3.238,9.93,9.409
		c0.271,6.139,0.279,12.312-0.042,18.448c-0.302,5.762-3.988,9.094-9.711,9.22c-5.816,0.129-11.641,0.123-17.459,0.007
		c-5.775-0.115-9.613-3.382-9.945-9.045C175.343,356.61,175.357,350.264,175.679,343.963z"/>
	<path fill-rule="evenodd" clip-rule="evenodd" fill="#2DBBB4" d="M319.762,192.596c-6.592,0.092-12.15,2.593-16.51,7.256
		c-8.401,8.987-17.004,17.857-24.568,27.523c-3.377,4.314-5.664,10.291-6.316,15.767c-1.438,12.056,7.979,20.168,19.822,17.406
		c4.844-1.13,9.877-3.404,13.709-6.527c9.395-7.66,18.388-15.864,27.09-24.313c12.25-11.894,8.429-31.055-6.908-35.951
		C324.057,193.109,321.871,192.97,319.762,192.596z"/>
	<path fill-rule="evenodd" clip-rule="evenodd" fill="#2DBBB4" d="M327.641,256.398c-3.787,3.379-6.975,6.281-10.225,9.112
		c-8.164,7.11-17.58,11.128-28.482,11.515c-1.249,0.044-2.916,0.117-3.656,0.885c-5.762,5.974-11.514,11.93-13.078,20.676
		c-2.414,13.494,6.658,22.366,19.877,18.76c4.215-1.15,8.607-3.062,11.924-5.822c8.805-7.33,17.311-15.064,25.476-23.104
		c8.055-7.932,8.946-19.67,2.704-27.641C330.988,259.258,329.385,258.061,327.641,256.398z"/>
	<path fill-rule="evenodd" clip-rule="evenodd" fill="#2DBBB4" d="M326.881,312.797c-3.402,3.05-5.909,5.21-8.318,7.473
		c-9.46,8.884-20.328,14.254-33.632,13.805c-1.208-0.041-2.818,0.234-3.601,1.01c-5.453,5.409-9.26,11.796-9.841,19.611
		c-0.78,10.516,7.144,17.418,17.652,14.864c4.704-1.144,9.581-3.271,13.339-6.261c7.924-6.306,15.393-13.24,22.611-20.36
		c6.152-6.067,9.059-13.568,6.213-22.262C330.469,318.123,328.654,315.89,326.881,312.797z"/>
	<path fill-rule="evenodd" clip-rule="evenodd" fill="#2DBBB4" d="M301.55,179.131c9.474-4.639,18.562-8.363,26.89-13.357
		c9.545-5.725,13.433-17.02,9.932-25.285c-3.606-8.513-14.395-13.127-25.455-10.677c-3.841,0.851-7.568,2.21-11.366,3.342
		C301.55,148.368,301.55,163.149,301.55,179.131z"/>
	<path fill-rule="evenodd" clip-rule="evenodd" fill="#F58349" d="M185.521,362.479c6.101,0,11.683,0,17.611,0
		c0-6.1,0-11.969,0-18.145c-5.799,0-11.52,0-17.611,0C185.521,350.279,185.521,356.15,185.521,362.479z"/>
	<g>
		<path fill-rule="evenodd" clip-rule="evenodd" fill="#F58349" d="M199.476,244.427c4.539-1.76,8.692-3.368,12.842-4.979
			c13.851-5.377,27.69-10.778,41.562-16.094c1.367-0.523,1.91-1.129,1.907-2.617c-0.046-22.253-0.038-44.507-0.044-66.761
			c0-0.305-0.036-0.61-0.067-1.12c-0.543,0.135-1.039,0.199-1.487,0.381c-5.707,2.318-11.391,4.693-17.12,6.952
			c-1.234,0.487-1.534,1.169-1.52,2.401c0.062,5.238,0.026,15.876,0.026,15.876l-5.087-3.09l-6.07,7.006
			c0,0-0.515-10.814-0.789-16.572c-1.574,0.626-2.894,1.141-4.205,1.675c-6.132,2.499-12.248,5.037-18.403,7.477
			c-1.194,0.473-1.583,1.073-1.575,2.354c0.061,11.111,0.052,22.224,0.052,33.335c0,10.346-0.014,20.689-0.021,31.034
			C199.476,242.451,199.476,243.219,199.476,244.427z"/>
		<path fill-rule="evenodd" clip-rule="evenodd" fill="#F58349" d="M220.578,162.309c-14.986-6.092-29.526-12.003-44.067-17.915
			c-3.42-1.39-6.822-2.824-10.271-4.14c-0.705-0.269-1.687-0.359-2.357-0.084c-7.192,2.937-14.347,5.963-21.89,9.123
			c2.053,0.869,3.777,1.628,5.523,2.335c15.979,6.464,31.95,12.947,47.965,19.32c1.125,0.447,2.729,0.445,3.857,0.006
			C206.283,168.249,213.154,165.356,220.578,162.309z"/>
		<path fill-rule="evenodd" clip-rule="evenodd" fill="#F58349" d="M252.292,149.343c-18.262-7.777-36.022-15.349-53.8-22.883
			c-0.569-0.241-1.394-0.332-1.938-0.106c-6.043,2.498-12.054,5.07-18.068,7.635c-0.118,0.051-0.178,0.24-0.346,0.48
			c8.592,3.595,17.149,7.186,25.716,10.757c9.089,3.79,18.17,7.598,27.3,11.286c0.981,0.396,2.388,0.388,3.381,0.006
			C240.339,154.28,246.077,151.877,252.292,149.343z"/>
		<path fill-rule="evenodd" clip-rule="evenodd" fill="#F58349" d="M138.387,152.69c0,1.664-0.003,2.971,0,4.277
			c0.039,18.91,0.082,37.82,0.11,56.73c0.004,2.389-0.149,4.782-0.046,7.165c0.028,0.657,0.579,1.656,1.135,1.874
			c18.337,7.173,36.703,14.271,55.067,21.375c0.063,0.024,0.15-0.009,0.426-0.031c0.046-0.525,0.139-1.09,0.139-1.653
			c0.009-21.62,0.002-43.241,0.021-64.861c0.002-1.214-0.064-2.065-1.491-2.637c-18.006-7.205-35.978-14.493-53.961-21.758
			C139.447,153.034,139.093,152.932,138.387,152.69z"/>
	</g>
</g>
</svg>
