<?xml version="1.0" encoding="utf-8"?>
<!-- Generator: Adobe Illustrator 16.0.0, SVG Export Plug-In . SVG Version: 6.00 Build 0)  -->
<!DOCTYPE svg PUBLIC "-//W3C//DTD SVG 1.1//EN" "http://www.w3.org/Graphics/SVG/1.1/DTD/svg11.dtd">
<svg version="1.1" id="Layer_4" xmlns="http://www.w3.org/2000/svg" xmlns:xlink="http://www.w3.org/1999/xlink" x="0px" y="0px"
	 width="535.474px" height="568.807px" viewBox="221.599 31.104 535.474 568.807"
	 enable-background="new 221.599 31.104 535.474 568.807" xml:space="preserve">
<path fill="#FFFFFF" d="M443.211,157.173c0,11.143-9.035,20.177-20.178,20.177H284.04c-11.143,0-20.176-9.034-20.176-20.177V86.837
	c0-11.144,9.033-20.177,20.176-20.177h138.993c11.143,0,20.178,9.033,20.178,20.177V157.173z"/>
<path fill="#F58349" d="M541.199,133.382c0-31.586,0-63.072,0-94.693c-27.02-0.001-53.369-0.002-79.719,0.001
	c-68.157,0.004-136.312-0.024-204.465,0.044c-14.607,0.016-21.029,6.449-21.058,20.767c-0.06,30.109-0.043,60.219-0.052,90.329
	c-0.005,18.38-0.001,36.76-0.001,55.611c77.406,0,154.386,0,231.439,0C470.75,166.626,502.123,135.851,541.199,133.382z
	 M417.637,157.393c-0.051,8.006-2.561,10.274-10.684,10.296c-20.544,0.055-41.09,0.019-61.635,0.019
	c-20.312,0-40.623,0.033-60.934-0.017c-7.85-0.019-10.471-2.556-10.503-10.483c-0.089-22.18-0.082-44.359-0.005-66.537
	c0.028-8.158,2.375-10.572,10.351-10.583c41.089-0.055,82.18-0.058,123.271,0.005c7.674,0.011,10.121,2.407,10.158,10.062
	C417.76,112.569,417.775,134.982,417.637,157.393z"/>
<path fill="#F58349" d="M735.91,55.44c-0.031-10.91-6.268-16.679-17.16-16.709c-25.66-0.069-51.322-0.055-76.984-0.062
	c-29.848-0.006-59.693-0.001-90.207-0.001c0,31.796,0,63.292,0,94.73c38.975,2.571,70.236,33.302,73.635,72.044
	c36.725,0,73.4,0,110.199,0c0.215-1.76,0.52-3.097,0.52-4.434C735.951,152.486,736.049,103.962,735.91,55.44z"/>
<path fill="#F58349" d="M467.109,216.033c-67.31,0.043-165.052,0.099-223.997,0.091c-2.239,0-4.478,0-6.853,0
	c-0.158,2.617-0.34,4.227-0.341,5.837c-0.015,46.932-0.035,93.863,0.001,140.796c0.012,15.311,7.277,22.399,22.901,22.405
	c86.86,0.03,281.971,0.048,281.971,0.048v-93.716C500.76,288.757,468.9,256.315,467.109,216.033z"/>
<path fill="#F58349" d="M735.926,223.973c-0.002-2.455-0.289-4.91-0.436-7.243c-36.912,0-73.535,0-110.09,0
	c-2.131,40.051-33.998,72.192-73.924,74.784c0,31.15,0,62.301,0,93.697c3.361,0,6.336,0,9.311,0
	c51.125-0.014,102.252-0.027,153.381-0.042c16.305-0.004,21.748-5.393,21.762-21.827
	C735.969,316.886,735.951,270.429,735.926,223.973z"/>
<path fill="#595959" d="M533.617,392.603c8.412,0,16.111,0,24.146,0c0.91,18.919,1.809,37.574,2.727,56.615
	c4.02-0.821,5.766-2.479,5.854-6.497c0.336-15.028,1.006-30.053,1.559-45.077c0.057-1.585,0.16-3.168,0.254-5.027
	c8.732,0,17.232,0,26.297,0c0.539,15.608,1.078,31.212,1.625,47.09c2.232,0,4.227,0,7.152,0c0-15.688,0-31.136,0-46.982
	c10.01,0,19.096,0,29.428,0c0,8.115-0.029,16.151,0.01,24.188c0.035,6.952,0.152,13.904,0.227,20.856
	c0.086,8.081,0.156,8.163,9.604,9.839c0-18.388,0-36.582,0-55.022c10.133,0,19.129,0,28.793,0
	c0.664,24.597,1.326,49.191,1.988,73.697c-11.379,0.867-22.34,1.33-33.201,2.621c-17.539,2.086-34.152,6.998-48.352,18.139
	c-10.764,8.442-17.801,19.427-22.178,32.283c-1.066,3.133-0.656,5.594,2.473,6.754c2.881,1.063,5.084-0.337,6.055-3.235
	c10.133-30.241,34.051-41.352,63.033-44.988c10.555-1.321,21.258-1.465,31.895-2.144c2.057-0.131,4.115-0.268,6.238-0.404
	c0-6.713,0.146-12.987-0.033-19.252c-0.258-8.881-0.994-17.75-1.08-26.627c-0.068-7.343,3.195-13.147,9.916-16.523
	c8.76-4.4,18.074,0.771,19.467,10.472c2.73,19.019,5.541,38.024,8.465,57.016c0.846,5.516-0.338,10.229-4.115,14.315
	c-14.377,15.552-28.799,31.062-43.072,46.708c-1.885,2.064-3.549,4.648-4.402,7.287c-5.012,15.497-9.83,31.058-14.52,46.652
	c-1.008,3.348-2.611,4.593-6.168,4.575c-26.68-0.134-53.357-0.099-80.037-0.041c-3.527,0.006-6.508-0.665-7.748-4.378
	c-6.629-19.849-14.195-39.451-19.541-59.639c-5.395-20.365-5.764-41.477-4.869-62.591c1.01-23.901,1.172-47.84,1.723-71.761
	C533.291,398.629,533.477,395.741,533.617,392.603z"/>
<path fill="#595959" d="M324.574,475.297c9.314,0.481,19.307,0.785,29.261,1.568c12.768,1.004,25.272,3.388,37.104,8.569
	c16.102,7.057,27.188,18.802,33.137,35.362c0.271,0.761,0.555,1.518,0.854,2.264c1.141,2.885,3.381,4.133,6.184,3.04
	c2.854-1.115,3.262-3.435,2.27-6.414c-6.262-18.772-18.248-32.47-36.031-41.082c-13.878-6.721-28.749-9.53-43.967-10.74
	c-7.707-0.61-15.442-0.87-23.726-1.316c0.641-24.656,1.279-49.267,1.922-74.03c9.599,0,18.61,0,28.684,0c0,18.536,0,36.896,0,55.501
	c9.512-2.237,9.693-2.404,9.715-10.994c0.039-14.687,0.01-29.371,0.01-44.374c10.265,0,19.238,0,29.298,0
	c0,15.518,0,31.093,0,46.966c3.076,0,5.074,0,7.506,0c0.553-15.667,1.107-31.271,1.668-47.073c8.846,0,17.227,0,26.219,0
	c0.285,5.519,0.646,11.093,0.848,16.673c0.402,11.15,0.898,22.3,0.973,33.451c0.027,4.05,1.471,5.938,5.902,6.277
	c0.906-18.731,1.805-37.357,2.721-56.292c8.125,0,15.939,0,24.752,0c0,9.326,0.01,18.502,0,27.68
	c-0.031,28.443,0.402,56.896-0.266,85.325c-0.467,19.783-4.314,38.969-12.832,57.252c-4.307,9.244-6.268,19.6-9.084,29.512
	c-1.848,6.508-2.701,7.402-9.23,7.405c-26.361,0.011-52.718-0.066-79.074,0.085c-3.751,0.019-5.381-1.228-6.45-4.814
	c-4.79-16.073-9.846-32.068-14.912-48.06c-0.512-1.614-1.508-3.215-2.663-4.469c-14.345-15.582-28.707-31.147-43.189-46.602
	c-4.545-4.85-6.158-10.033-5.037-16.774c3.019-18.157,5.564-36.395,8.04-54.637c0.819-6.038,3.495-10.49,9.154-12.561
	c5.563-2.033,10.556-0.046,14.693,3.811c4.542,4.236,5.813,9.581,5.662,15.803C324.334,445.961,324.574,460.328,324.574,475.297z"/>
<rect x="297.594" y="114" fill="none" width="181.502" height="63"/>
<text transform="matrix(1 0 0 1 297.5938 133.2915)" fill="#595959" font-family="'Montserrat-Bold'" font-size="26">783092</text>
<path fill="#818486" d="M545.791,119.203c-51.639,0-93.502,41.861-93.502,93.5s41.863,93.5,93.502,93.5s93.5-41.861,93.5-93.5
	S597.43,119.203,545.791,119.203z M545.791,291.803c-38.312,0-70.342-27.381-77.566-63.6h30.045l-5.25-14l5.25-14h-30.582
	c6.012-37.696,38.74-66.6,78.104-66.6c39.361,0,72.09,28.904,78.102,66.6h-29.102l5.25,14l-5.25,14h28.564
	C616.131,264.422,584.102,291.803,545.791,291.803z"/>
<path fill="#F58349" d="M590.791,228.203l5.25-14l-5.25-14h27.252c-5.953-34.503-36.076-60.84-72.252-60.84
	c-36.178,0-66.301,26.337-72.254,60.84h28.732l-5.25,14l5.25,14h-28.156c7.135,33.019,36.557,57.84,71.678,57.84
	s64.541-24.821,71.676-57.84H590.791z"/>
<g>
	<path fill="#FBFDFB" d="M513.865,176.728c-0.295,0-0.539-0.098-0.75-0.343c0.439-0.26,0.732-0.862,0.732-1.4
		c0-0.57-0.311-1.091-1.205-1.091s-1.5,0.505-1.5,1.481c0,2.394,3.666,2.719,3.666,6.236c0,2.736-2.215,4.071-4.576,4.071
		c-1.855,0-3.451-0.814-3.451-2.801c0-1.758,1.254-2.67,2.393-2.67c0.57,0,1.385,0.229,1.434,1.075c-0.879,0-1.906,0.407-1.906,1.53
		c0,0.814,0.521,1.563,1.564,1.563c1.09,0,1.887-0.798,1.887-2.165c0-2.785-3.336-3.778-3.336-6.171c0-1.693,1.66-2.915,3.762-2.915
		c0.764,0,2.621,0.163,2.621,1.954C515.199,176.028,514.678,176.728,513.865,176.728z"/>
	<path fill="#FBFDFB" d="M524.09,177.2l-1.172,5.537c-0.049,0.211-0.064,0.375-0.064,0.521c0,0.456,0.211,0.7,0.666,0.7
		c0.637,0,1.076-0.717,1.32-1.531h0.684c-0.928,2.654-2.395,3.013-3.273,3.013c-0.91,0-1.496-0.521-1.594-1.499
		c-0.506,0.749-1.271,1.499-2.428,1.499c-1.107,0-2.164-0.684-2.164-2.622c0-2.198,1.35-5.699,4.184-5.699
		c0.928,0,1.318,0.358,1.318,0.83v0.114l0.18-0.863H524.09z M518.475,182.59c0,1.253,0.52,1.27,0.812,1.27
		c0.473,0,1.156-0.489,1.352-1.433l0.781-3.68c0-0.195-0.146-0.619-0.666-0.619C519.369,178.128,518.475,181.059,518.475,182.59z"/>
	<path fill="#FBFDFB" d="M529.498,174.627l-0.553,2.573h0.977l-0.131,0.651h-0.977l-1.041,4.886
		c-0.049,0.211-0.066,0.375-0.066,0.521c0,0.456,0.211,0.603,0.668,0.603c0.635,0,1.221-0.619,1.465-1.433h0.684
		c-0.928,2.654-2.539,3.013-3.42,3.013c-0.977,0-1.74-0.587-1.74-1.955c0-0.309,0.049-0.667,0.129-1.058l0.977-4.576h-0.535
		l0.129-0.651h0.537l0.488-2.247L529.498,174.627z"/>
	<path fill="#FBFDFB" d="M533.943,177.2l-1.172,5.537c-0.049,0.211-0.064,0.375-0.064,0.521c0,0.456,0.211,0.603,0.668,0.603
		c0.635,0,1.221-0.619,1.465-1.433h0.684c-0.928,2.654-2.539,3.013-3.42,3.013c-0.977,0-1.74-0.587-1.74-1.955
		c0-0.309,0.049-0.667,0.129-1.058l1.107-5.227H533.943z M533.211,173.731c0.717,0,1.303,0.587,1.303,1.303
		c0,0.716-0.586,1.286-1.303,1.286s-1.285-0.57-1.285-1.286C531.926,174.318,532.494,173.731,533.211,173.731z"/>
	<path fill="#FBFDFB" d="M542.396,182.427c-0.848,0.977-1.744,1.595-2.492,2.035c-0.684,0.716-1.727,0.978-2.555,0.978
		c-1.662,0-2.379-1.091-2.379-2.084c0-0.75,0.424-1.303,0.863-1.514c0.91-1.612,1.498-3.224,2.002-4.82l2.412-0.326
		c0.193,4.218,0.355,4.853,0.355,5.927c0,0.228-0.016,0.423-0.062,0.619c0.438-0.26,0.861-0.554,1.172-0.814H542.396z
		 M536.273,183.225c-0.162,0-0.359-0.049-0.439-0.211c0,0.765,0.277,1.14,0.992,1.14c0.717,0,1.418-0.375,1.418-1.515
		c0-0.846-0.146-1.351-0.311-3.859c-0.324,1.059-0.781,2.035-1.318,3.077c0.211,0.098,0.375,0.293,0.375,0.57
		C536.99,182.817,536.695,183.225,536.273,183.225z"/>
	<path fill="#FBFDFB" d="M547.82,175.572c0.016-0.163,0.031-0.293,0.031-0.439c0-0.375-0.293-0.554-0.619-0.554
		c-0.357,0-0.91,0.245-1.139,1.335l-0.277,1.286h1.189l-0.115,0.651h-1.203l-1.873,8.793c-0.49,2.328-1.84,2.768-2.914,2.768
		c-0.994,0-1.922-0.7-1.922-1.759c0-1.498,1.252-1.97,2.801-2.442l1.969-9.297c0.49-2.329,1.891-2.768,2.965-2.768
		c0.992,0,1.92,0.7,1.92,1.759c0,0.26-0.016,0.472-0.047,0.667H547.82z M540.523,187.963c0.344,0,0.717-0.31,0.93-1.27l0.211-0.945
		c-1.025,0.342-1.791,0.798-1.791,1.678C539.873,187.653,540.168,187.963,540.523,187.963z"/>
	<path fill="#FBFDFB" d="M555.18,177.2l-1.172,5.537c-0.049,0.211-0.066,0.375-0.066,0.521c0,0.456,0.213,0.7,0.668,0.7
		c0.637,0,1.074-0.717,1.32-1.531h0.684c-0.93,2.654-2.395,3.013-3.273,3.013c-0.912,0-1.498-0.521-1.596-1.499
		c-0.506,0.749-1.27,1.499-2.426,1.499c-1.107,0-2.166-0.684-2.166-2.622c0-2.198,1.352-5.699,4.184-5.699
		c0.93,0,1.32,0.358,1.32,0.83v0.114l0.18-0.863H555.18z M549.562,182.59c0,1.253,0.521,1.27,0.814,1.27
		c0.471,0,1.154-0.489,1.352-1.433l0.781-3.68c0-0.195-0.146-0.619-0.668-0.619C550.457,178.128,549.562,181.059,549.562,182.59z"/>
	<path fill="#FBFDFB" d="M561.32,178.583c0-0.406-0.146-0.667-0.455-0.667c-1.027,0-2.084,2.979-2.084,4.787
		c0,1.108,0.391,1.368,1.172,1.368c1.285,0,2.066-0.716,2.883-1.645h0.553c-0.93,1.498-2.312,3.013-4.479,3.013
		c-1.529,0-2.539-0.75-2.539-2.589c0-1.889,1.074-5.797,4.379-5.797c1.449,0,1.809,0.749,1.809,1.499
		c0,0.797-0.391,1.188-0.863,1.188c-0.18,0-0.375-0.065-0.57-0.195C561.256,179.187,561.32,178.861,561.32,178.583z"/>
	<path fill="#FBFDFB" d="M567.494,174.627l-0.555,2.573h0.979l-0.131,0.651h-0.979l-1.041,4.886
		c-0.049,0.211-0.064,0.375-0.064,0.521c0,0.456,0.211,0.603,0.666,0.603c0.637,0,1.223-0.619,1.467-1.433h0.684
		c-0.928,2.654-2.541,3.013-3.42,3.013c-0.977,0-1.742-0.587-1.742-1.955c0-0.309,0.049-0.667,0.131-1.058l0.977-4.576h-0.537
		l0.131-0.651h0.537l0.488-2.247L567.494,174.627z"/>
	<path fill="#FBFDFB" d="M571.939,177.2l-1.172,5.537c-0.049,0.211-0.066,0.375-0.066,0.521c0,0.456,0.213,0.603,0.668,0.603
		c0.635,0,1.223-0.619,1.465-1.433h0.686c-0.928,2.654-2.541,3.013-3.42,3.013c-0.977,0-1.742-0.587-1.742-1.955
		c0-0.309,0.049-0.667,0.129-1.058l1.107-5.227H571.939z M571.207,173.731c0.715,0,1.303,0.587,1.303,1.303
		c0,0.716-0.588,1.286-1.303,1.286c-0.717,0-1.287-0.57-1.287-1.286C569.92,174.318,570.49,173.731,571.207,173.731z"/>
	<path fill="#FBFDFB" d="M579.805,179.658c0.064,0.033,0.131,0.033,0.178,0.033c0.75,0,1.809-0.488,2.508-0.977l0.148,0.439
		c-0.619,0.667-1.695,1.156-2.883,1.351c-0.262,3.013-1.889,4.901-3.891,4.901c-1.516,0-2.605-0.716-2.605-2.573
		c0-1.872,1.105-5.78,4.461-5.78C579.121,177.053,579.805,177.949,579.805,179.658z M578.404,180.554
		c-0.342-0.081-0.439-0.357-0.439-0.684c0-0.456,0.211-0.749,0.504-0.879c-0.031-0.684-0.195-0.945-0.617-0.945
		c-1.156,0-2.166,2.98-2.166,4.576c0,1.075,0.211,1.319,0.83,1.319C577.312,183.941,578.145,182.476,578.404,180.554z"/>
	<path fill="#FBFDFB" d="M585.391,178.617c-0.586,0-1.025,0.684-1.27,1.498l-1.107,5.227h-2.344l1.725-8.142h2.346l-0.18,0.847
		c0.684-0.781,1.4-0.912,1.906-0.912c1.041,0,1.807,0.538,1.807,1.839c0,1.319-0.781,3.29-0.781,4.202
		c0,0.407,0.162,0.684,0.65,0.684c0.277,0,0.439-0.033,0.537-0.098c-0.146,1.173-0.928,1.678-1.791,1.678
		c-1.254,0-1.645-0.913-1.645-1.841c0-1.107,0.732-3.11,0.732-4.151C585.977,178.91,585.781,178.617,585.391,178.617z"/>
</g>
<g>
	<path fill="#FBFDFC" d="M506.75,199.178c4.209,0,5.148-2.03,5.992-4.358h3.662v34.661h-5.445V203.04h-4.209V199.178z"/>
	<path fill="#FBFDFC" d="M522.547,203.139c0-5.546,2.922-8.715,8.27-8.715s8.268,3.169,8.268,8.715v18.023
		c0,5.546-2.92,8.715-8.268,8.715s-8.27-3.168-8.27-8.715V203.139z M527.994,221.509c0,2.476,1.088,3.417,2.822,3.417
		c1.732,0,2.82-0.941,2.82-3.417v-18.717c0-2.476-1.088-3.417-2.82-3.417c-1.734,0-2.822,0.941-2.822,3.417V221.509z"/>
	<path fill="#FBFDFC" d="M542.156,203.139c0-5.546,2.922-8.715,8.27-8.715s8.268,3.169,8.268,8.715v18.023
		c0,5.546-2.92,8.715-8.268,8.715s-8.27-3.168-8.27-8.715V203.139z M547.604,221.509c0,2.476,1.088,3.417,2.822,3.417
		c1.732,0,2.822-0.941,2.822-3.417v-18.717c0-2.476-1.09-3.417-2.822-3.417c-1.734,0-2.822,0.941-2.822,3.417V221.509z"/>
	<path fill="#FBFDFC" d="M561.914,200.119c0-3.565,1.832-5.546,5.25-5.546c3.416,0,5.248,1.98,5.248,5.546v11.388
		c0,3.564-1.832,5.545-5.248,5.545c-3.418,0-5.25-1.981-5.25-5.545V200.119z M565.381,211.754c0,1.535,0.643,2.179,1.783,2.179
		c1.088,0,1.781-0.644,1.781-2.179V199.87c0-1.534-0.693-2.178-1.781-2.178c-1.141,0-1.783,0.644-1.783,2.178V211.754z
		 M580.83,194.82h3.217l-13.666,34.661h-3.217L580.83,194.82z M579.096,212.794c0-3.565,1.832-5.545,5.248-5.545
		c3.418,0,5.25,1.98,5.25,5.545v11.389c0,3.564-1.832,5.545-5.25,5.545c-3.416,0-5.248-1.981-5.248-5.545V212.794z M582.562,224.43
		c0,1.534,0.645,2.179,1.781,2.179c1.09,0,1.783-0.645,1.783-2.179v-11.884c0-1.534-0.693-2.178-1.783-2.178
		c-1.137,0-1.781,0.644-1.781,2.178V224.43z"/>
</g>
<g>
	<path fill="#FBFDFC" d="M499.738,241.346h2.584v3.726c0,1.879-0.939,2.954-2.752,2.954s-2.752-1.074-2.752-2.954v-6.109
		c0-1.879,0.939-2.954,2.752-2.954s2.752,1.074,2.752,2.954v1.142h-1.746v-1.259c0-0.839-0.367-1.158-0.957-1.158
		c-0.586,0-0.955,0.318-0.955,1.158v6.344c0,0.839,0.369,1.141,0.955,1.141c0.59,0,0.957-0.302,0.957-1.141v-2.165h-0.838V241.346z"
		/>
	<path fill="#FBFDFC" d="M508.801,236.144v9.062c0,0.839,0.369,1.142,0.955,1.142c0.588,0,0.957-0.302,0.957-1.142v-9.062h1.746
		v8.945c0,1.879-0.941,2.953-2.754,2.953c-1.811,0-2.752-1.074-2.752-2.953v-8.945H508.801z"/>
	<path fill="#FBFDFC" d="M523.215,247.891h-1.861l-0.32-2.131h-2.266l-0.318,2.131h-1.695l1.881-11.747h2.701L523.215,247.891z
		 M519.004,244.166h1.777l-0.889-5.941L519.004,244.166z"/>
	<path fill="#FBFDFC" d="M531.455,247.891c-0.102-0.302-0.168-0.486-0.168-1.443v-1.846c0-1.091-0.369-1.494-1.209-1.494h-0.637
		v4.783h-1.848v-11.747h2.785c1.914,0,2.736,0.889,2.736,2.702v0.923c0,1.208-0.387,1.998-1.207,2.383
		c0.922,0.386,1.225,1.275,1.225,2.5v1.812c0,0.571,0.016,0.99,0.201,1.426H531.455z M529.441,237.822v3.609h0.721
		c0.688,0,1.107-0.303,1.107-1.242v-1.158c0-0.839-0.285-1.208-0.939-1.208H529.441z"/>
	<path fill="#FBFDFC" d="M543.838,247.891h-1.861l-0.318-2.131h-2.268l-0.318,2.131h-1.695l1.881-11.747h2.701L543.838,247.891z
		 M539.627,244.166h1.777l-0.889-5.941L539.627,244.166z"/>
	<path fill="#FBFDFC" d="M549.863,239.383v8.508h-1.662v-11.747h2.314l1.898,7.031v-7.031h1.643v11.747h-1.895L549.863,239.383z"/>
	<path fill="#FBFDFC" d="M558.371,236.144h5.705v1.678h-1.93v10.069h-1.846v-10.069h-1.93V236.144z"/>
	<path fill="#FBFDFC" d="M570.252,241.094h2.533v1.678h-2.533v3.441h3.189v1.678h-5.037v-11.747h5.037v1.678h-3.189V241.094z"/>
	<path fill="#FBFDFC" d="M579.951,241.094h2.535v1.678h-2.535v3.441h3.189v1.678h-5.035v-11.747h5.035v1.678h-3.189V241.094z"/>
	<path fill="#FBFDFC" d="M587.805,236.144h2.92c1.846,0,2.752,1.023,2.752,2.903v5.94c0,1.879-0.906,2.903-2.752,2.903h-2.92
		V236.144z M589.65,237.822v8.392h1.041c0.586,0,0.939-0.302,0.939-1.141v-6.109c0-0.839-0.354-1.141-0.939-1.141H589.65z"/>
</g>
<polygon fill="#FBFDFC" points="547.879,149.314 550.324,154.271 555.795,155.066 551.836,158.925 552.771,164.374 547.879,161.801 
	542.984,164.374 543.92,158.925 539.961,155.066 545.432,154.271 "/>
<polygon fill="#FBFDFC" points="547.17,263.117 549.201,267.233 553.744,267.894 550.457,271.097 551.234,275.623 547.17,273.486 
	543.107,275.623 543.883,271.097 540.596,267.894 545.139,267.233 "/>
<polygon fill="#FBFDFC" points="564.137,263.117 565.877,266.645 569.771,267.211 566.953,269.957 567.619,273.835 564.137,272.004 
	560.654,273.835 561.318,269.957 558.502,267.211 562.395,266.645 "/>
<polygon fill="#FBFDFC" points="530.363,263.117 532.104,266.645 535.998,267.211 533.18,269.957 533.846,273.835 530.363,272.004 
	526.881,273.835 527.545,269.957 524.729,267.211 528.621,266.645 "/>
</svg>
