<?xml version="1.0" encoding="utf-8"?>
<!-- Generator: Adobe Illustrator 16.0.0, SVG Export Plug-In . SVG Version: 6.00 Build 0)  -->
<!DOCTYPE svg PUBLIC "-//W3C//DTD SVG 1.1//EN" "http://www.w3.org/Graphics/SVG/1.1/DTD/svg11.dtd">
<svg version="1.1" id="Layer_1" xmlns="http://www.w3.org/2000/svg" xmlns:xlink="http://www.w3.org/1999/xlink" x="0px" y="0px"
	 width="506.975px" height="795px" viewBox="0 0 506.975 795" enable-background="new 0 0 506.975 795" xml:space="preserve">
<path fill="#F58349" d="M318.49,11.667c-0.275,2.331-0.654,4.655-0.812,6.994c-0.869,12.846-1.662,25.697-2.521,38.544
	c-1.687,25.223-3.429,50.442-5.093,75.666c-1.758,26.635-3.417,53.275-5.177,79.91c-1.533,23.187-3.172,46.368-4.641,69.56
	c-0.082,1.298,0.59,3.214,1.572,3.922c9.925,7.146,21.514,2.049,23.053-10.013c0.119-0.935,0.218-1.872,0.279-2.812
	c0.966-14.256,1.862-28.518,2.894-42.769c3.382-46.665,6.859-93.322,10.131-139.994c0.254-3.644,1.166-4.671,4.922-4.734
	c10.024-0.167,20.046-0.869,30.057-1.536c4.149-0.276,6.912-3.272,7.436-6.859c1.782-12.248,3.232-24.564,4.221-36.901
	c0.459-5.74-2.78-9.693-8.585-11.36c-8.132-2.335-16.236-4.779-24.3-7.338c-10.542-3.344-21.033-6.846-31.547-10.281
	C319.749,11.666,319.119,11.666,318.49,11.667z"/>
<path fill="#EBEBEB" d="M359.051,795c0,0-0.108-381.874-0.234-383.322c-12.364,3.479-24.382,6.966-36.471,10.196
	c-3.389,0.906-3.795,2.907-3.783,5.894C318.654,450.075,318.491,795,318.491,795H359.051z"/>
<path fill="#2EBDB5" d="M185.979,142.072c1.282,0.474,2.543,1.009,3.848,1.412c18.688,5.789,33.514,16.854,44.553,32.93
	c15.924,23.187,22.379,49.461,22.656,77.028c0.568,56.577,0.172,113.164,0.176,169.747c0.002,6.351,0.215,6.464,6.481,4.679
	c16.892-4.809,33.796-9.57,50.691-14.37c29.57-8.402,59.142-16.81,88.707-25.234c27.914-7.953,55.781-16.068,83.768-23.757
	c4.537-1.247,5.822-3.058,5.806-7.588c-0.154-44.951-0.023-89.903-0.127-134.854c-0.025-12.094-0.883-24.038-4.754-35.767
	c-8.639-26.175-31.002-43.21-57.326-44.751c-27.254-1.595-54.674-0.427-82.021-0.271c-1.166,0.006-3.238,1.903-3.342,3.058
	c-1.449,16.111-2.703,32.242-3.858,48.378c-2.018,28.202-3.851,56.418-5.938,84.614c-0.819,11.075-7.059,19.634-16.812,21.23
	c-5.771,0.943-12.207-0.004-17.951-1.555c-8.753-2.366-11.085-6.573-10.523-15.713c0.923-15.049,1.916-30.095,2.902-45.142
	c1.47-22.416,2.962-44.831,4.444-67.247c0.597-9.038,1.196-18.074,1.817-27.46c-38.065,0-75.562,0-113.058,0
	C186.071,141.649,186.025,141.86,185.979,142.072z"/>
<path fill-rule="evenodd" clip-rule="evenodd" fill="#F58349" d="M127.154,498.861c6.696-2.597,12.822-4.969,18.944-7.346
	c20.431-7.932,40.847-15.9,61.311-23.741c2.017-0.771,2.817-1.665,2.813-3.861c-0.068-32.826-0.056-65.654-0.065-98.481
	c0-0.45-0.053-0.9-0.099-1.653c-0.801,0.2-1.533,0.294-2.194,0.562c-8.418,3.42-16.803,6.923-25.255,10.256
	c-1.82,0.718-2.263,1.725-2.241,3.542c0.091,7.728,0.039,23.419,0.039,23.419L172.903,397l-8.955,10.335
	c0,0-0.759-15.953-1.164-24.447c-2.322,0.925-4.269,1.684-6.203,2.472c-9.046,3.687-18.067,7.431-27.147,11.029
	c-1.763,0.697-2.335,1.583-2.324,3.473c0.09,16.391,0.076,32.783,0.076,49.174c0.001,15.262-0.02,30.521-0.031,45.78
	C127.154,495.947,127.154,497.079,127.154,498.861z"/>
<path fill-rule="evenodd" clip-rule="evenodd" fill="#F58349" d="M158.283,377.725c-22.106-8.987-43.556-17.707-65.005-26.428
	c-5.045-2.051-10.064-4.167-15.151-6.107c-1.04-0.396-2.488-0.529-3.478-0.124c-10.609,4.332-21.164,8.796-32.291,13.458
	c3.028,1.283,5.572,2.402,8.148,3.444c23.57,9.536,47.132,19.1,70.756,28.501c1.659,0.659,4.025,0.657,5.689,0.009
	C137.196,386.486,147.332,382.22,158.283,377.725z"/>
<path fill="#259991" d="M220.173,354.333l-23.524-10.191c-23.054-9.819-44.83-19.095-67.043-28.508
	c-1.762-0.746-3.718-1.141-5.656-1.141c-1.748,0-3.408,0.32-4.934,0.952c-1.745,0.722-3.495,1.452-5.244,2.184
	c-0.008-34.625-0.016-68.606-0.022-103.392c0-8.617-0.865-17.338,0.162-25.831c2.769-22.913,14.936-37.021,38.561-38.836
	c25.516-1.961,48.351,4.714,66.472,23.587c11.429,11.904,18.897,26.376,22.343,42.388c2.791,12.968,5.152,26.311,5.297,39.513
	c0.588,53.44,0.248,106.89,0.234,160.336c0,1.506-0.154,3.013-0.281,5.328c-8.813-3.756-17.597-7.499-26.369-11.238
	C220.165,401.868,220.173,354.333,220.173,354.333z"/>
<path fill-rule="evenodd" clip-rule="evenodd" fill="#F58349" d="M205.067,358.598c-26.939-11.473-53.14-22.643-79.364-33.756
	c-0.839-0.355-2.056-0.49-2.859-0.157c-8.914,3.685-17.781,7.479-26.653,11.262c-0.175,0.075-0.263,0.354-0.51,0.709
	c12.674,5.304,25.298,10.601,37.935,15.869c13.407,5.591,26.804,11.207,40.271,16.648c1.448,0.585,3.522,0.572,4.987,0.008
	C187.434,365.881,195.898,362.335,205.067,358.598z"/>
<path fill="#2EBDB5" d="M220.173,422.993c7.622,3.406,15.244,6.812,22.865,10.219c0.555,0.249,1.069,0.595,2.379,1.334
	c-8.533,9.448-16.662,18.566-24.92,27.569c-0.092,0.101-0.185,0.2-0.276,0.301C220.194,449.322,220.181,436.128,220.173,422.993z"/>
<path fill="#2EBDB5" d="M27.237,465.546c0.543,4.097,3.293,8.821,7.929,10.634c24.891,9.737,85.738,36.487,85.738,36.487
	s69.808-27.757,83.47-33.011c-14.91,16.215-29.832,32.418-44.736,48.639c-15.063,16.395-33.902,26.521-54.805,33.341
	c-13.299,4.342-26.781,6.139-40.805,4.946c-28.725-2.442-49.538-24.663-49.643-53.456C14.325,495.976,18.979,480.088,27.237,465.546
	z"/>
<path fill-rule="evenodd" clip-rule="evenodd" fill="#F58349" d="M37.038,363.535c0,2.455-0.003,4.383,0,6.311
	c0.058,27.896,0.121,55.791,0.164,83.686c0.006,3.524-0.222,7.055-0.068,10.57c0.042,0.97,0.854,2.443,1.674,2.764
	c27.05,10.582,54.144,21.052,81.233,31.531c0.094,0.037,0.222-0.013,0.628-0.046c0.067-0.774,0.205-1.607,0.205-2.438
	c0.012-31.894,0.003-63.787,0.03-95.681c0.002-1.79-0.096-3.047-2.2-3.89c-26.562-10.628-53.073-21.38-79.601-32.096
	C38.603,364.043,38.08,363.892,37.038,363.535z"/>
</svg>
