<?xml version="1.0" encoding="utf-8"?>
<!-- Generator: Adobe Illustrator 16.0.0, SVG Export Plug-In . SVG Version: 6.00 Build 0)  -->
<!DOCTYPE svg PUBLIC "-//W3C//DTD SVG 1.1//EN" "http://www.w3.org/Graphics/SVG/1.1/DTD/svg11.dtd">
<svg version="1.1" id="Layer_1" xmlns="http://www.w3.org/2000/svg" xmlns:xlink="http://www.w3.org/1999/xlink" x="0px" y="0px"
	 width="792px" height="612px" viewBox="0 0 792 612" enable-background="new 0 0 792 612" xml:space="preserve">
<path fill="#F27332" d="M324.712,508.971H468.19c0,0,0,34.913,2.867,51.652c2.869,16.739,22.957,30.607,25.351,32.521
	c2.392,1.915,1.435,8.133,0,9.566c-1.437,1.435-4.308,1.436-4.308,1.436H303.669c0,0-5.261,0.955-6.696-1.436
	c-1.435-2.392-0.957-8.131,1.913-9.566c2.87-1.434,18.174-9.086,22.479-32.999C325.669,536.23,324.712,508.971,324.712,508.971z"/>
<path fill="#818285" d="M734.804,9.667H58.895c-15.154,0-27.438,12.07-27.438,26.96v404.431h730.782V36.627
	C762.239,21.737,749.956,9.667,734.804,9.667z M734.5,420.015H59.197V34.536H734.5V420.015z"/>
<path fill="#F27332" d="M31.458,441.058v45.735c0,14.889,12.284,26.96,27.438,26.96h675.909c15.152,0,27.438-12.071,27.438-26.96
	v-45.735H31.458L31.458,441.058z"/>
<g>
	<path fill="#F58349" d="M281.756,298.833c0.523-3.483,1.011-6.973,1.596-10.447c0.138-0.821,0.379-1.848,0.951-2.342
		c10.373-8.948,20.895-17.702,32.789-24.637c10.657-6.214,21.937-10.679,34.299-11.823c9.003-0.833,17.816,0.36,26.309,3.595
		c0.765,0.291,1.541,0.548,2.731,0.97c-1.03-3.452-1.965-6.587-2.999-10.052c19.141,0.574,37.779,1.257,56.232,5.478
		c0.669-3.364-1.954-5.591-2.102-8.445c-5.687-0.978-11.301-1.951-16.918-2.907c-8.031-1.368-16.041-2.908-24.108-4.014
		c-4.761-0.652-9.613-0.652-14.429-0.852c-1.26-0.052-1.964-0.241-2.186-1.712c-0.323-2.133-0.935-4.229-1.542-6.307
		c-0.123-0.421-0.723-0.849-1.19-1.001c-9.563-3.118-19.335-3.946-29.293-2.535c-15.924,2.257-29.747,9.411-42.689,18.509
		c-5.253,3.692-10.288,7.694-15.573,11.669c-0.044-0.511-0.125-0.98-0.116-1.448c0.04-1.994,0.382-4.027,0.101-5.971
		c-0.504-3.493,1.08-5.644,3.593-7.801c11.198-9.614,23.549-17.142,37.709-21.52c10.117-3.128,20.499-4.23,31.031-3.508
		c4.274,0.292,8.514,1.167,12.746,1.904c0.56,0.097,1.247,0.867,1.431,1.462c0.657,2.13,1.123,4.318,1.58,6.155
		c19.108,2.794,38.01,5.559,57.247,8.371c-0.974-3.643-1.825-6.83-2.731-10.222c-1.319,0.089-2.698,0.221-4.083,0.27
		c-8.404,0.299-16.377-2.005-24.424-3.979c-7.527-1.847-15.127-3.396-22.698-5.061c-0.561-0.124-1.146-0.161-1.722-0.186
		c-3.007-0.129-3.038-0.118-3.489-3.012c-0.435-2.783-0.797-5.578-1.269-8.923c3.694,0.586,7.205,0.879,10.573,1.734
		c7.02,1.781,13.959,3.873,20.938,5.812c7.416,2.062,14.938,3.16,22.904,2.316c0.53-3.717-1.12-7.054-1.854-10.251
		c-2.861,0-5.544,0.018-8.226-0.003c-7.952-0.063-15.422-2.405-22.861-4.878c-6.822-2.269-13.673-4.411-20.866-5.225
		c-0.541-0.061-1.309-0.8-1.435-1.347c-0.356-1.555-0.439-3.173-0.622-4.767c-0.196-1.714-0.385-3.429-0.602-5.373
		c3.172-0.181,6.356,0.461,9.407,1.481c6.87,2.297,13.641,4.889,20.508,7.196c7.096,2.385,14.337,3.44,22.18,1.478
		c-0.66-3.49-1.318-6.975-1.972-10.432c-2.872,0.348-5.455,0.812-8.057,0.947c-6.848,0.357-13.156-1.822-19.354-4.404
		c-6.563-2.735-12.938-5.969-20.018-7.314c-3.782-0.719-3.765-0.78-4.089-4.783c-0.17-2.102-0.364-4.202-0.588-6.752
		c2.689,0.542,5.294,0.704,7.613,1.603c6.213,2.408,12.291,5.159,18.445,7.721c5.211,2.171,10.572,3.756,16.292,2.78
		c2.312-0.395,4.569-1.199,6.796-1.981c0.43-0.151,0.871-1.085,0.831-1.624c-0.242-3.321-0.621-6.632-0.973-10.113
		c5.81-1.734,11.762-1.754,17.402,0.592c5.25,2.183,10.197,5.089,15.291,7.651c5.146,2.589,10.209,5.383,15.498,7.64
		c3.99,1.703,8.378,1.918,12.699,1.301c1.958-0.279,2.75,0.603,2.999,2.293c0.326,2.213,0.576,4.438,0.878,6.795
		c-4.67,1.272-9.229,1.237-13.604-0.142c-4.074-1.283-8.048-2.99-11.894-4.864c-5.074-2.471-9.896-5.463-14.979-7.913
		c-7.138-3.44-14.604-4.294-22.588-1.727c0.463,2.916,0.938,5.92,1.425,8.982c1.911-0.479,3.804-1.069,5.738-1.417
		c6.647-1.196,12.727,0.741,18.54,3.687c6.526,3.307,12.901,6.916,19.477,10.12c5.616,2.736,11.623,4.043,17.936,3.547
		c0.508-0.04,1.021-0.005,1.899-0.005c0.62,3.22,1.244,6.457,1.898,9.851c-3.308,0.91-6.463,0.466-9.602-0.118
		c-5.943-1.106-11.258-3.83-16.626-6.45c-5.76-2.811-11.478-5.772-17.439-8.079c-6.08-2.352-12.225-2.034-17.888,1.744
		c-1.021,0.68-1.473,1.31-1.111,2.635c0.616,2.259,0.97,4.59,1.473,7.086c7.61-4.951,15.108-3.715,22.469-0.681
		c6.104,2.517,12.009,5.514,18.003,8.295c5.606,2.602,11.346,4.803,17.535,5.559c1.144,0.14,2.312,0.255,3.454,0.181
		c1.303-0.084,1.784,0.449,2.003,1.676c0.461,2.571,1.061,5.117,1.619,7.75c-6.172,0.909-11.77-0.438-17.14-2.681
		c-7.396-3.089-14.617-6.604-22.046-9.611c-5.558-2.25-11.362-3.268-17.275-1.058c-0.42,0.157-0.843,0.313-1.247,0.505
		c-4.456,2.103-4.564,2.38-3.43,7.095c0.375,1.555,0.589,3.149,0.876,4.726c0.125,0.032,0.289,0.123,0.343,0.08
		c6.788-5.558,14.329-5.494,21.989-2.527c5.974,2.314,11.733,5.175,17.587,7.798c5.339,2.391,10.733,4.622,16.595,5.377
		c2.031,0.262,4.087,0.338,6.248,0.508c0.729,3.028,1.451,6.043,2.206,9.188c-6.227,0.932-11.828-0.354-17.231-2.479
		c-5.849-2.299-11.558-4.951-17.371-7.339c-4.833-1.985-9.798-3.51-15.129-3.189c-4.078,0.245-7.789,1.555-11.014,4.075
		c-0.415,0.324-0.73,1.21-0.604,1.715c0.66,2.667,1.478,5.296,2.169,7.691c2.432-1.137,4.75-2.58,7.275-3.325
		c4.777-1.41,9.603-0.652,14.199,0.942c6.48,2.246,12.883,4.724,19.275,7.214c6.912,2.692,13.911,4.924,21.578,4.922
		c0.916,3.051,1.83,6.086,2.812,9.352c-2.909,0-5.6,0.303-8.196-0.06c-6.416-0.895-12.238-3.697-18.194-6.083
		c-5.583-2.238-11.188-4.542-16.969-6.136c-6.278-1.731-12.248-0.596-17.16,4.164c-0.762,0.737-1.12,1.412-0.793,2.508
		c0.669,2.246,1.206,4.531,1.819,6.888c0.187-0.123,0.41-0.229,0.581-0.392c4.878-4.631,10.789-5.755,17.007-4.138
		c5.556,1.445,10.963,3.548,16.319,5.655c6.622,2.604,13.055,5.758,20.175,6.824c2.203,0.33,4.479,0.343,6.713,0.263
		c1.484-0.053,2.3,0.198,2.72,1.811c0.448,1.72,1.454,3.288,2.003,4.991c0.83,2.572,0.316,3.219-2.27,3.311
		c-5.368,0.191-10.44-1.164-15.375-3.079c-7.41-2.877-14.738-5.974-22.188-8.75c-3.949-1.473-8.124-1.897-12.337-1.035
		c-3.532,0.723-6.454,2.555-8.778,5.225c-0.505,0.579-0.459,1.916-0.234,2.793c0.456,1.781,1.211,3.486,1.796,5.097
		c2.439-0.952,5.016-2.254,7.743-2.96c5.594-1.446,11.136-0.523,16.47,1.348c6.17,2.165,12.211,4.697,18.364,6.909
		c5.527,1.987,11.189,3.395,17.154,2.558c1.444-0.203,2.871-0.528,3.872-0.715c1.711,2.673,3.285,5.132,4.859,7.591
		c0,0.515,0,1.03,0,1.544c-1.479,0.41-2.936,0.942-4.438,1.209c-5.884,1.046-11.48-0.338-17-2.187
		c-7.228-2.421-14.351-5.218-21.688-7.229c-6.292-1.725-12.624-1.076-18.412,2.398c-1.896,1.139-1.903,2.661,0.096,3.639
		c1.073,0.525,2.308,0.74,3.486,1.022c1.432,0.344,2.912,0.511,4.312,0.944c1.252,0.386,2.32,1.115,2.305,2.885
		c-2.401,0.12-4.778,0.501-7.107,0.309c-8.253-0.682-16.517-1.354-24.727-2.412c-10.667-1.376-21.237-1.527-31.803,0.778
		c-8.14,1.774-16.355,2.61-24.674,1.316c-4.271-0.664-8.477-1.531-12.112-4.065c-4.061-2.831-4.944-7.404-2.227-11.663
		c9.046,4.63,18.804,5.311,28.7,4.786c9.433-0.501,18.846-1.337,28.272-1.94c7.659-0.488,15.298-0.27,22.819,1.415
		c2.723,0.61,5.38,1.506,8.415,2.371c-0.159-1.036-0.188-1.853-0.423-2.605c-0.38-1.22-0.998-2.372-1.325-3.603
		c-0.316-1.193-0.992-1.735-2.14-2.118c-8.681-2.897-17.661-3.882-26.729-4.155c-9.522-0.287-19.01,0.333-28.434,1.812
		c-0.932,0.146-1.905,0.02-2.859,0.02c0.359-0.827,0.793-1.172,1.255-1.474c2.224-1.45,2.367-2.176,1.072-4.573
		c-2.183-4.04-5.617-6.655-9.736-8.377c-8.709-3.646-17.812-3.641-26.921-2.288c-10.377,1.542-19.971,5.514-28.568,11.386
		c-13.194,9.012-26.055,18.511-39.058,27.803C282.013,298.833,281.885,298.833,281.756,298.833z M381.921,254.713
		c0.173,1.197,0.15,1.921,0.39,2.546c0.914,2.387,1.956,4.725,2.862,7.115c0.462,1.22,1.231,1.413,2.401,1.217
		c12.361-2.077,24.712-1.292,37.041,0.309c5.131,0.666,10.232,1.538,15.426,2.328c-0.806-2.398-1.489-4.721-2.395-6.953
		c-0.288-0.714-1.087-1.572-1.785-1.718c-15.372-3.198-30.865-5.301-46.622-4.854C386.887,254.77,384.529,254.713,381.921,254.713z"
		/>
	<path fill="#F58349" d="M338.492,136.343c3.909,0.652,7.879,1.06,11.709,2.025c3.77,0.95,7.413,2.425,11.073,3.775
		c0.489,0.181,1.028,0.957,1.076,1.499c1.224,13.818,2.383,27.641,3.556,41.462c0.473,5.568,0.96,11.135,1.42,16.703
		c0.062,0.755,0.008,1.519,0.008,2.527c-31.53-6.388-58.8,2.965-83.552,22.672c-0.129-2.901-0.26-5.489-0.356-8.078
		c-0.562-15.285-1.066-30.572-1.704-45.854c-0.219-5.26-0.759-10.506-1.174-15.757c-0.034-0.437-0.221-0.861-0.336-1.291
		c0-1.03,0-2.059,0-3.088c1.438-1.071,2.832-2.208,4.321-3.202c10.104-6.744,21.404-10.267,33.27-12.214
		c2.895-0.475,5.815-0.791,8.724-1.18C330.515,136.343,334.503,136.343,338.492,136.343z M315.415,183.04
		c-0.634,0.679-1.354,1.45-1.877,2.011c0.516,0.896,1.014,1.763,1.404,2.44c0.997-0.185,1.982-0.367,2.821-0.522
		c0.093-0.976,0.194-2.024,0.281-2.917C317.233,183.74,316.34,183.396,315.415,183.04z M308.644,183.153
		c0.891-0.252,1.946-0.55,2.756-0.779c0-1.049,0-2.085,0-2.904c-0.936-0.321-1.932-0.663-2.614-0.896
		c-0.643,0.814-1.263,1.599-1.782,2.256C307.531,181.577,308.135,182.432,308.644,183.153z M286.601,158.223
		c0.786-0.507,1.68-1.082,2.314-1.49c-0.2-1.069-0.381-2.037-0.51-2.729c-1.072-0.139-2.093-0.272-2.839-0.369
		c-0.42,0.968-0.815,1.875-1.143,2.628C285.142,156.91,285.891,157.584,286.601,158.223z M308.829,196.896
		c0.975-0.297,1.939-0.591,2.697-0.822c0-0.972,0-1.964,0-2.763c-0.894-0.353-1.82-0.717-2.553-1.006
		c-0.633,0.828-1.245,1.629-1.729,2.262C307.782,195.359,308.319,196.149,308.829,196.896z M350.105,152.013
		c0.457-0.764,0.975-1.629,1.422-2.375c-0.597-0.645-1.326-1.435-1.938-2.096c-0.871,0.338-1.809,0.703-2.607,1.013
		c0.093,0.918,0.2,1.979,0.297,2.938C348.132,151.649,349.116,151.831,350.105,152.013z M346.226,180.983
		c-0.705-0.535-1.549-1.173-2.299-1.741c-0.754,0.511-1.595,1.079-2.325,1.573c0.254,0.925,0.526,1.921,0.75,2.739
		c0.939,0,1.953,0,2.854,0C345.529,182.739,345.905,181.791,346.226,180.983z M337.003,163.894c0.232-0.895,0.494-1.903,0.715-2.758
		c-0.799-0.544-1.632-1.112-2.227-1.518c-0.871,0.605-1.703,1.184-2.381,1.655c0.334,0.877,0.712,1.868,0.999,2.621
		C335.139,163.894,336.147,163.894,337.003,163.894z M349.999,160.38c-0.825,0.321-1.797,0.698-2.581,1.003
		c0.101,0.947,0.213,1.994,0.305,2.864c0.952,0.213,1.985,0.446,2.826,0.634c0.465-0.799,0.992-1.708,1.452-2.5
		C351.444,161.824,350.738,161.119,349.999,160.38z M333.389,150.985c1.078,0,2.11,0,2.867,0c0.312-1.001,0.612-1.96,0.867-2.778
		c-0.769-0.497-1.643-1.062-2.421-1.564c-0.693,0.552-1.483,1.181-2.148,1.711C332.842,149.26,333.144,150.211,333.389,150.985z
		 M300.575,161c-0.482,0.726-1.051,1.584-1.529,2.307c0.571,0.753,1.169,1.543,1.646,2.171c0.972-0.286,1.928-0.567,2.649-0.78
		c0-1.02,0-2.063,0-2.954C302.505,161.519,301.487,161.245,300.575,161z M330.015,157.73c0.21-1.007,0.41-1.968,0.555-2.666
		c-0.872-0.577-1.665-1.102-2.333-1.543c-0.766,0.67-1.56,1.366-2.133,1.868c0.388,0.968,0.761,1.898,1.07,2.671
		C328.116,157.951,329.12,157.834,330.015,157.73z M342.847,166.279c-0.735,0.486-1.623,1.073-2.316,1.532
		c0.195,0.918,0.4,1.888,0.57,2.686c0.995,0.103,2.038,0.21,2.831,0.292c0.402-0.911,0.803-1.82,1.143-2.591
		C344.38,167.601,343.614,166.94,342.847,166.279z M332.639,197.033c0.173-1.04,0.348-2.082,0.477-2.855
		c-0.888-0.422-1.79-0.852-2.692-1.281c0.335,0.274,0.67,0.549,1.005,0.823c-0.726,0.697-1.452,1.393-2.177,2.09
		c-0.239-0.312-0.479-0.623-0.718-0.935c0.48,0.935,0.96,1.87,1.34,2.609C330.821,197.33,331.812,197.168,332.639,197.033z
		 M357.547,167.892c-0.865,0.252-1.875,0.547-2.649,0.774c0,1.003,0,2.01,0,2.893c0.852,0.279,1.847,0.604,2.59,0.848
		c0.634-0.788,1.296-1.611,1.815-2.257C358.723,169.405,358.1,168.603,357.547,167.892z M301.572,148.056
		c-0.855-0.288-1.81-0.61-2.663-0.896c-0.542,0.779-1.155,1.659-1.602,2.302c0.602,0.86,1.18,1.687,1.641,2.345
		c0.88-0.337,1.84-0.706,2.624-1.006C301.572,149.88,301.572,148.921,301.572,148.056z M357.037,147.517
		c0.521-0.721,1.101-1.523,1.617-2.238c-0.522-0.758-1.11-1.61-1.587-2.303c-0.951,0.304-1.923,0.614-2.706,0.864
		c0,0.957,0,1.945,0,2.776C355.171,146.888,356.084,147.196,357.037,147.517z M286.68,199.932c0.798,0.732,1.54,1.414,2.084,1.913
		c0.86-0.487,1.728-0.979,2.466-1.396c-0.234-0.96-0.484-1.989-0.674-2.77c-0.986-0.101-1.938-0.198-2.797-0.286
		C287.423,198.184,287.023,199.124,286.68,199.932z M295.557,204.708c0.885-0.377,1.849-0.787,2.576-1.097
		c-0.132-1.032-0.258-2.026-0.372-2.917c-0.882-0.142-1.861-0.3-2.659-0.429c-0.526,0.85-1.051,1.699-1.447,2.337
		C294.32,203.337,294.958,204.044,295.557,204.708z M331.529,184.268c0.19-0.906,0.405-1.929,0.568-2.711
		c-0.907-0.53-1.766-1.03-2.375-1.385c-0.811,0.681-1.543,1.296-2.18,1.831c0.395,0.888,0.819,1.842,1.165,2.618
		C329.611,184.508,330.559,184.39,331.529,184.268z M293.362,187.344c0.637,0.676,1.32,1.405,1.928,2.051
		c0.85-0.388,1.77-0.808,2.552-1.166c-0.104-0.936-0.22-1.982-0.317-2.854c-0.904-0.156-1.941-0.335-2.718-0.47
		C294.307,185.749,293.82,186.571,293.362,187.344z M324.894,192.281c0.122-0.965,0.247-1.96,0.356-2.829
		c-0.816-0.374-1.735-0.794-2.56-1.172c-0.65,0.68-1.361,1.423-1.932,2.021c0.482,0.874,0.969,1.757,1.372,2.489
		C323.05,192.621,324.052,192.436,324.894,192.281z M354.215,156.207c0,0.98,0,2.03,0,2.794c0.946,0.347,1.865,0.684,2.569,0.942
		c0.635-0.78,1.27-1.559,1.814-2.227c-0.578-0.771-1.223-1.629-1.706-2.273C355.922,155.72,354.997,155.983,354.215,156.207z
		 M299.553,177.162c0.564,0.762,1.208,1.633,1.712,2.316c0.856-0.305,1.809-0.644,2.618-0.932c0-0.963,0-2.021,0-2.855
		c-0.902-0.272-1.85-0.559-2.694-0.815C300.667,175.605,300.079,176.427,299.553,177.162z M320.498,176.355
		c0.447,0.748,0.998,1.667,1.463,2.445c0.927-0.191,1.912-0.393,2.711-0.558c0.127-0.958,0.258-1.936,0.349-2.615
		c-0.934-0.539-1.802-1.04-2.484-1.433C321.875,174.897,321.137,175.678,320.498,176.355z M302.737,207.502
		c0.894-0.263,1.856-0.546,2.601-0.766c0-1.008,0-2.089,0-2.936c-0.957-0.283-1.951-0.577-2.654-0.786
		c-0.646,0.864-1.227,1.642-1.711,2.29C301.536,206.007,302.134,206.752,302.737,207.502z M344.211,142.772
		c-0.67-0.589-1.459-1.284-2.088-1.837c-0.856,0.511-1.75,1.045-2.4,1.434c0.201,1,0.398,1.983,0.561,2.792
		c0.95,0.082,2.003,0.172,2.946,0.253C343.526,144.617,343.878,143.669,344.211,142.772z M326.736,145.18
		c1.053-0.08,2.058-0.157,2.819-0.215c0.219-0.978,0.439-1.962,0.639-2.854c-0.787-0.427-1.668-0.903-2.483-1.345
		c-0.671,0.609-1.421,1.289-2.092,1.896C325.987,143.492,326.398,144.417,326.736,145.18z M293.603,156.776
		c-0.45,0.814-0.962,1.74-1.354,2.447c0.658,0.697,1.38,1.462,1.914,2.027c0.962-0.442,1.877-0.863,2.55-1.173
		c-0.092-0.989-0.186-2.005-0.264-2.847C295.587,157.093,294.595,156.935,293.603,156.776z M292.252,214.312
		c-0.223-0.929-0.458-1.906-0.669-2.787c-0.897-0.05-1.896-0.106-2.657-0.148c-0.467,0.92-0.896,1.77-1.263,2.492
		c0.731,0.644,1.473,1.297,2.151,1.896C290.538,215.333,291.4,214.82,292.252,214.312z M312.554,147.566
		c0.866-0.206,1.906-0.452,2.798-0.663c0.092-0.932,0.195-1.975,0.267-2.696c-1-0.469-1.902-0.892-2.548-1.194
		c-0.695,0.734-1.383,1.459-1.956,2.064C311.55,145.831,312.079,146.745,312.554,147.566z M320.677,147.424
		c-0.636,0.68-1.325,1.418-1.964,2.103c0.461,0.774,0.981,1.646,1.426,2.393c0.928-0.153,1.922-0.316,2.694-0.443
		c0.156-1.037,0.312-2.07,0.426-2.833C322.304,148.193,321.386,147.759,320.677,147.424z M344.765,192.186
		c-0.768,0.493-1.655,1.062-2.4,1.541c0.271,0.906,0.576,1.923,0.828,2.764c0.905,0,1.916,0,2.852,0
		c0.274-0.758,0.622-1.718,0.933-2.576C346.247,193.345,345.462,192.731,344.765,192.186z M306.075,167.388
		c0.607,0.836,1.208,1.665,1.661,2.287c0.976-0.258,1.9-0.502,2.723-0.72c0-0.992,0-2.053,0-2.83
		c-0.923-0.329-1.855-0.661-2.61-0.931C307.252,165.932,306.608,166.729,306.075,167.388z M327.892,171.366
		c0.888-0.075,1.842-0.156,2.667-0.226c0.228-0.95,0.478-1.991,0.66-2.749c-0.902-0.542-1.77-1.063-2.638-1.585
		c0.434,0.344,0.868,0.688,1.301,1.033c-0.849,0.651-1.698,1.303-2.547,1.955c-0.242-0.326-0.484-0.652-0.726-0.978
		C327.04,169.673,327.471,170.53,327.892,171.366z M296.775,171.472c-0.894-0.143-1.942-0.311-2.76-0.442
		c-0.517,0.85-1.043,1.718-1.57,2.586c0.245-0.305,0.489-0.609,0.734-0.914c0.704,0.772,1.409,1.543,2.113,2.315
		c-0.251,0.139-0.503,0.277-0.754,0.416c0.902-0.398,1.806-0.796,2.441-1.076C296.904,173.306,296.834,172.313,296.775,171.472z
		 M334.246,174.629c0.318,0.866,0.669,1.822,0.968,2.637c0.869-0.062,1.822-0.13,2.721-0.194c0.302-0.844,0.647-1.809,0.93-2.602
		c-0.798-0.548-1.701-1.168-2.372-1.628C335.745,173.438,335.01,174.022,334.246,174.629z M360.23,182.481
		c-0.396,0.417-0.794,0.833-1.191,1.25c-0.452-0.958-0.905-1.916-1.327-2.809c-0.407,0.226-1.283,0.713-1.923,1.069
		c0.126,1.026,0.241,1.967,0.336,2.741c1.001,0.151,2.05,0.311,2.92,0.443C359.412,184.341,359.821,183.412,360.23,182.481z
		 M290.938,185.486c-0.202-0.896-0.447-1.983-0.637-2.825c-0.952-0.068-2.003-0.144-2.889-0.208
		c-0.354,0.878-0.748,1.854-1.026,2.543c0.746,0.692,1.483,1.377,2.082,1.933C289.266,186.463,290.174,185.932,290.938,185.486z
		 M339.537,154.453c0.235,0.948,0.478,1.928,0.688,2.782c0.876,0.053,1.827,0.11,2.709,0.163c0.396-0.824,0.839-1.742,1.221-2.538
		c-0.749-0.619-1.55-1.28-2.166-1.789C341.163,153.537,340.34,154,339.537,154.453z M302.045,193.16
		c0.943-0.301,1.879-0.602,2.652-0.849c0-0.925,0-1.937,0-2.862c-0.873-0.257-1.841-0.542-2.669-0.785
		c-0.609,0.785-1.234,1.59-1.752,2.257C300.838,191.632,301.499,192.469,302.045,193.16z M289.31,167.852
		c-0.973-0.146-1.905-0.287-2.646-0.399c-0.438,0.934-0.878,1.874-1.206,2.573c0.761,0.679,1.512,1.35,2.153,1.922
		c0.795-0.502,1.646-1.038,2.458-1.549C289.845,169.648,289.57,168.726,289.31,167.852z M319.535,163.298
		c0.464,0.813,0.971,1.701,1.379,2.417c0.925-0.177,1.918-0.366,2.714-0.519c0.122-0.985,0.244-1.962,0.331-2.673
		c-0.935-0.51-1.826-0.996-2.486-1.356C320.841,161.862,320.165,162.605,319.535,163.298z M319.11,199.926
		c0.06-1.039,0.116-2.008,0.157-2.717c-0.966-0.405-1.878-0.786-2.582-1.081c-0.665,0.8-1.303,1.567-1.831,2.202
		c0.529,0.797,1.103,1.662,1.591,2.398C317.328,200.463,318.305,200.168,319.11,199.926z M348.072,174.367
		c0.093,0.855,0.2,1.854,0.286,2.656c0.932,0.221,1.866,0.442,2.674,0.634c0.499-0.805,1.066-1.721,1.482-2.392
		c-0.664-0.768-1.349-1.559-1.878-2.172C349.826,173.496,348.972,173.92,348.072,174.367z M339.434,187.447
		c-0.852-0.654-1.641-1.258-2.255-1.729c-0.756,0.62-1.544,1.265-2.271,1.861c0.308,0.74,0.699,1.68,1.045,2.512
		c0.88,0,1.884,0,2.749,0C338.947,189.205,339.204,188.275,339.434,187.447z M360.52,194.091c-0.716-0.605-1.517-1.284-2.139-1.812
		c-0.806,0.511-1.648,1.046-2.413,1.531c0.248,0.874,0.542,1.909,0.793,2.793c0.906,0,1.901,0,2.775,0
		C359.837,195.834,360.187,194.941,360.52,194.091z M314.377,173.862c0.886-0.206,1.827-0.425,2.665-0.62
		c0.098-0.941,0.2-1.92,0.277-2.661c-0.91-0.466-1.798-0.92-2.541-1.3c-0.623,0.725-1.31,1.526-1.878,2.188
		C313.384,172.254,313.887,173.069,314.377,173.862z M349.909,190.616c0.877,0,1.879,0,2.621,0c0.39-0.982,0.763-1.925,1.024-2.585
		c-0.799-0.595-1.602-1.194-2.281-1.701c-0.786,0.545-1.62,1.124-2.394,1.659C349.167,188.724,349.544,189.684,349.909,190.616z
		 M316.712,160.024c0.089-0.89,0.187-1.868,0.254-2.546c-0.959-0.537-1.837-1.03-2.504-1.403c-0.623,0.724-1.311,1.52-1.919,2.227
		c0.471,0.761,1.006,1.625,1.517,2.45C314.786,160.552,315.713,160.298,316.712,160.024z M306.749,156.042
		c0.75-0.287,1.706-0.652,2.633-1.005c0-0.824,0-1.781,0-2.676c-0.858-0.328-1.852-0.707-2.549-0.973
		c-0.627,0.812-1.233,1.595-1.735,2.244C305.648,154.436,306.223,155.275,306.749,156.042z"/>
	<path fill="#F58349" d="M377.017,243.11c-4.257-0.793-8.192-1.68-12.173-2.239c-10.635-1.493-20.989-0.02-31.103,3.374
		c-14.01,4.702-26.15,12.69-37.748,21.616c-4.221,3.249-8.435,6.507-12.861,9.922c-0.627-4.217,0.044-8.012,1.834-11.632
		c2.426-4.903,6.426-8.389,10.928-11.159c11.312-6.958,22.686-13.852,35.233-18.459c13.61-4.999,27.422-5.684,41.369-1.552
		c0.912,0.271,1.883,1.38,2.231,2.319C375.654,237.806,376.256,240.431,377.017,243.11z"/>
	<path fill="#F58349" d="M353.359,284.975c-1.201-1.704-2.555-3.323-3.563-5.133c-1.21-2.172-0.718-4.608,1.397-5.958
		c2.021-1.289,4.27-2.48,6.578-3.005c7.184-1.633,14.44-2.945,21.677-4.344c1.625-0.314,6.372,3.131,6.23,4.711
		c-0.075,0.852-1.032,2.07-1.846,2.332c-3.096,0.993-6.262,1.847-9.461,2.413c-5.24,0.927-10.537,1.531-15.792,2.384
		c-2.852,0.463-4.463,2.458-4.663,5.388c-0.022,0.319-0.03,0.639-0.044,0.958C353.702,284.806,353.531,284.89,353.359,284.975z"/>
	<path fill="#F58349" d="M369.105,261.74c-2.176,0.522-4.331,1.167-6.533,1.536c-3.471,0.58-6.979,0.932-10.461,1.46
		c-2.547,0.386-4.764,1.46-6.642,4.005c-0.803-2.112-1.478-3.888-2.222-5.844c8.729-2.417,17.115-3.596,25.704-1.809
		C369.004,261.305,369.055,261.522,369.105,261.74z"/>
	<path fill="#F58349" d="M459.308,286.031c0.502,2.333,0.966,4.487,1.414,6.577c-2.618-0.614-5.138-1.103-7.584-1.833
		c-0.856-0.255-1.539-1.099-2.301-1.674c0.737-0.719,1.364-1.834,2.232-2.075C455.068,286.471,457.186,286.341,459.308,286.031z"/>
</g>
<path fill="#2EBDB5" d="M541.332,134.548c48.143,89.332,14.426,199.438-74.557,246.346
	c-87.652,46.206-195.467,13.821-243.477-73.643c-23.228-44.481-28.025-90.817-13.997-139.049
	c14.977-46.894,43.931-82.372,86.906-106.395c44.79-23.338,91.451-28.201,139.847-13.569
	C479.51,61.375,518.562,92.328,541.332,134.548z M513.766,150.245c-39.058-71.682-129.215-100.008-203.16-59.824
	c-71.262,38.726-99.499,127.821-60.464,202.008c39.292,72.741,128.254,99.822,200.911,62.473
	c39.273-20.188,63.999-54.98,74.451-89.215C537.238,227.251,532.9,185.12,513.766,150.245z"/>
<path fill="#2EBDB5" d="M544.435,316.227c16.003,11.829,31.789,23.497,47.685,35.248c-0.277,0.374-0.429,0.736-0.699,0.919
	c-5.016,3.383-9.008,7.788-12.631,12.564c-3.398,4.483-6.23,9.286-8.156,14.595c-0.102,0.278-0.248,0.542-0.394,0.854
	c-0.317-0.157-0.609-0.254-0.847-0.429c-15.254-11.271-30.503-22.552-45.747-33.835c-0.173-0.128-0.281-0.337-0.503-0.612
	c2.519-3.096,5.097-6.128,7.521-9.278c2.441-3.172,4.799-6.412,7.064-9.71C539.99,323.246,542.093,319.842,544.435,316.227z"/>
<g>
	<g>
		<defs>
			<rect id="SVGID_1_" x="59.197" y="34.536" width="675.303" height="385.479"/>
		</defs>
		<clipPath id="SVGID_2_">
			<use xlink:href="#SVGID_1_"  overflow="visible"/>
		</clipPath>
		<path clip-path="url(#SVGID_2_)" fill="#2EBDB5" d="M856.509,593.32c-2.141,1.16-4.338,2.122-6.735,2.646
			c-4.649,1.019-8.816,0.186-12.604-2.776c-7.031-5.5-14.125-10.917-21.188-16.378c-25.612-19.802-51.225-39.605-76.837-59.407
			c-39.314-30.396-78.63-60.793-117.947-91.188c-13.823-10.687-27.656-21.362-41.481-32.046c-0.479-0.371-0.938-0.767-1.4-1.154
			c-1.222-1.02-1.872-2.334-2.078-3.903c-0.24-1.838,0.017-3.626,0.47-5.396c0.623-2.436,1.599-4.737,2.796-6.937
			c3.653-6.709,8.277-12.645,14.235-17.472c1.883-1.523,3.927-2.824,6.234-3.663c2.504-0.909,4.783-0.813,7.071,0.821
			c10.584,7.568,21.227,15.054,31.853,22.563c6.303,4.453,12.609,8.896,18.913,13.347c14.771,10.427,29.542,20.854,44.312,31.283
			c9.331,6.59,18.653,13.188,27.982,19.779c14.582,10.3,29.166,20.599,43.748,30.896c9.331,6.59,18.663,13.178,27.993,19.768
			c14.521,10.258,29.042,20.512,43.561,30.771c9.082,6.417,18.145,12.862,27.245,19.252c2.479,1.74,4.457,3.846,5.617,6.667
			c0.847,2.058,1.158,4.22,1.18,6.43c0.038,4.316-1.033,8.413-2.673,12.352c-3.628,8.713-9.281,15.888-16.8,21.58
			C858.892,591.977,857.667,592.604,856.509,593.32z"/>
	</g>
</g>
</svg>
