<?xml version="1.0" encoding="utf-8"?>
<!-- Generator: Adobe Illustrator 16.0.0, SVG Export Plug-In . SVG Version: 6.00 Build 0)  -->
<!DOCTYPE svg PUBLIC "-//W3C//DTD SVG 1.1//EN" "http://www.w3.org/Graphics/SVG/1.1/DTD/svg11.dtd">
<svg version="1.1" id="Layer_2" xmlns="http://www.w3.org/2000/svg" xmlns:xlink="http://www.w3.org/1999/xlink" x="0px" y="0px"
	 width="792px" height="612px" viewBox="0 0 792 612" enable-background="new 0 0 792 612" xml:space="preserve">
<path fill-rule="evenodd" clip-rule="evenodd" fill="#F58349" d="M585.922,194.019c-1.134,37.651-12.26,71.69-33.72,102.18
	c-44.984,63.91-90.294,127.589-135.548,191.309c-8.808,12.399-19.56,12.461-28.326,0.117
	c-45.137-63.553-90.355-127.053-135.159-190.841c-22.127-31.5-34.434-66.463-32.626-105.423
	c4.127-88.937,63.024-161.91,149.372-177.55c96.292-17.441,189.567,44.724,209.979,139.13
	C582.812,166.437,583.957,180.316,585.922,194.019z M291.694,190.697c-0.454,60.152,49.251,110.338,109.792,110.851
	c61.137,0.518,111.482-48.953,111.905-109.964c0.42-60.623-48.912-111.226-108.933-111.741
	C342.041,79.307,292.165,128.338,291.694,190.697z"/>
<path fill-rule="evenodd" clip-rule="evenodd" fill="#808285" d="M125.3,601.12c7.548-14.298,14.751-27.939,21.95-41.583
	c28.957-54.876,57.958-109.729,86.771-164.68c2.117-4.037,4.33-5.754,9.053-5.656c15.874,0.325,31.759,0.214,47.638,0.054
	c3.52-0.035,5.882,0.875,7.846,3.964c3.488,5.484,7.421,10.685,11.782,16.874c-2.75,0.154-4.616,0.347-6.481,0.349
	c-16.277,0.02-32.557-0.117-48.831,0.144c-2.294,0.037-5.688,1.343-6.662,3.113c-9.551,17.367-18.702,34.953-27.937,52.495
	c-0.337,0.64-0.354,1.446-0.687,2.909c29.69,0,58.946,0,88.713,0c0,7.262,0,13.862,0,21.244c-11.977,0-23.646,0.005-35.316-0.001
	c-20.05-0.01-40.1,0.002-60.149-0.065c-3.098-0.011-5.504,0.191-7.266,3.575c-14.38,27.601-28.979,55.088-43.496,82.618
	c-0.528,1.001-0.896,2.088-1.535,3.603c77.109,0,153.644,0,230.895,0c0-15.504,0-31.059,0-47.016c7.344,0,13.977,0,21.347,0
	c0,15.605,0,31.161,0,47.013c77.084,0,153.439,0,230.699,0c-1.045-2.059-1.843-3.762-2.753-5.401
	c-14.812-26.696-29.719-53.344-44.374-80.129c-1.979-3.617-4.412-4.288-8.105-4.274c-29.38,0.11-58.76,0.048-88.138,0.038
	c-2.153,0-4.306,0-6.952,0c0-7.138,0-13.723,0-20.998c29.262,0,58.33,0,88.266,0c-0.884-2.24-1.278-3.676-1.979-4.942
	c-9.219-16.651-18.571-33.229-27.645-49.956c-1.698-3.132-3.743-4.002-7.063-3.974c-14.291,0.126-28.584,0.036-42.878,0.024
	c-2.08-0.001-4.162,0-7.555,0c5.149-7.297,9.333-13.488,13.864-19.415c0.853-1.115,3.089-1.632,4.694-1.645
	c15.085-0.121,30.177-0.265,45.253,0.142c2.217,0.06,5.214,2.485,6.407,4.621c35.861,64.221,71.542,128.542,107.247,192.847
	c2.486,4.479,4.956,8.966,7.797,14.109C494.741,601.12,310.497,601.12,125.3,601.12z"/>
</svg>
