<?xml version="1.0" encoding="utf-8"?>
<!-- Generator: Adobe Illustrator 16.0.0, SVG Export Plug-In . SVG Version: 6.00 Build 0)  -->
<!DOCTYPE svg PUBLIC "-//W3C//DTD SVG 1.1//EN" "http://www.w3.org/Graphics/SVG/1.1/DTD/svg11.dtd">
<svg version="1.1" id="Layer_1" xmlns="http://www.w3.org/2000/svg" xmlns:xlink="http://www.w3.org/1999/xlink" x="0px" y="0px"
	 width="40.555px" height="50px" viewBox="0 0 40.555 50" enable-background="new 0 0 40.555 50" xml:space="preserve">
<g>
	<path fill-rule="evenodd" clip-rule="evenodd" d="M36.817,0.091C36.76,0.077,36.71,0.031,36.656,0C25.77,0,14.882,0,3.995,0
		C2.956,0.257,2.002,0.665,1.261,1.479C0.438,2.38,0,3.43,0,4.653c0,10.945,0,21.889,0,32.834c0,2.532,0,5.065,0,7.599
		c0,2.403,1.397,4.173,3.737,4.741c0.058,0.014,0.107,0.061,0.161,0.091c10.92,0,21.839,0,32.759,0
		c0.162-0.058,0.324-0.123,0.489-0.173c2.048-0.594,3.408-2.389,3.408-4.516c0.002-13.465,0.002-26.93,0-40.396
		C40.554,2.429,39.15,0.653,36.817,0.091z M35.562,46.8c-10.234,0-20.468,0-30.701-0.001c-1.101,0-1.745-0.654-1.745-1.765
		c0-6.709,0-13.418,0-20.125c-0.001-6.661-0.002-13.321,0-19.981c0-1.185,0.62-1.809,1.8-1.809c10.249-0.001,20.5-0.001,30.75,0
		c1.141,0,1.768,0.628,1.769,1.788c0.003,8.951,0.003,17.901,0.003,26.852c0,4.385,0.001,8.771,0,13.157
		C37.438,46.192,36.833,46.8,35.562,46.8z"/>
	<path fill-rule="evenodd" clip-rule="evenodd" d="M32.753,12.45c0.007-1.007,0.006-2.014,0.004-3.02
		c-0.002-0.971-0.643-1.626-1.609-1.627C23.89,7.8,16.63,7.8,9.372,7.803c-0.909,0-1.566,0.656-1.571,1.561
		c-0.005,0.958,0.052,1.92-0.015,2.874c-0.077,1.09,0.782,1.832,1.79,1.819c3.557-0.047,7.113-0.018,10.669-0.019
		c3.637,0,7.274,0.003,10.913-0.001C32.105,14.035,32.747,13.394,32.753,12.45z"/>
	<path fill-rule="evenodd" clip-rule="evenodd" d="M31.237,28.083c-1.069-0.009-2.14-0.009-3.211,0
		c-0.84,0.007-1.497,0.678-1.507,1.523c-0.007,0.519-0.001,1.039-0.001,1.558s0,1.037,0,1.557c0,0.033,0,0.065,0,0.098
		c0.023,0.814,0.671,1.481,1.489,1.494c1.069,0.016,2.141,0.015,3.212,0.004c0.869-0.009,1.527-0.677,1.534-1.553
		c0.011-1.054,0.01-2.108-0.003-3.163C32.741,28.751,32.08,28.091,31.237,28.083z"/>
	<path fill-rule="evenodd" clip-rule="evenodd" d="M21.843,37.371c-1.038-0.007-2.076-0.006-3.115-0.001
		c-0.908,0.003-1.562,0.656-1.569,1.56c-0.004,0.519,0,1.037,0,1.558c0,0.519-0.004,1.038,0.001,1.558
		c0.009,0.881,0.65,1.546,1.523,1.557c1.054,0.013,2.108,0.014,3.163,0.004c0.874-0.009,1.539-0.67,1.548-1.54
		c0.011-1.054,0.009-2.109-0.002-3.163C23.382,38.027,22.721,37.376,21.843,37.371z"/>
	<path fill-rule="evenodd" clip-rule="evenodd" d="M31.23,37.372c-1.055-0.013-2.109-0.014-3.163-0.004
		c-0.878,0.008-1.54,0.665-1.549,1.537c-0.01,1.054-0.008,2.108,0.003,3.163c0.008,0.873,0.669,1.523,1.546,1.535
		c0.519,0.007,1.037,0.002,1.557,0.002c0.535,0,1.07,0.006,1.606-0.002c0.843-0.012,1.515-0.672,1.522-1.511
		c0.009-1.069,0.009-2.141-0.002-3.212C32.742,38.039,32.079,37.381,31.23,37.372z"/>
	<path fill-rule="evenodd" clip-rule="evenodd" d="M14.037,20.276c-0.011-0.88-0.659-1.543-1.532-1.553
		c-1.055-0.01-2.109-0.01-3.163,0c-0.88,0.009-1.531,0.659-1.541,1.54c-0.011,1.054-0.009,2.109,0,3.163
		c0.008,0.85,0.662,1.519,1.503,1.53c1.07,0.013,2.141,0.011,3.212-0.002c0.85-0.011,1.499-0.664,1.516-1.515
		c0.011-0.535,0.002-1.07,0.002-1.605c0,0,0.001,0,0.003,0C14.038,21.314,14.043,20.795,14.037,20.276z"/>
	<path fill-rule="evenodd" clip-rule="evenodd" d="M18.653,24.954c0.534,0.015,1.07,0.003,1.605,0.003
		c0.535,0,1.071,0.008,1.605-0.002c0.85-0.014,1.517-0.663,1.528-1.506c0.014-1.07,0.014-2.141,0-3.211
		c-0.012-0.854-0.663-1.502-1.517-1.513c-1.069-0.014-2.14-0.012-3.211,0c-0.821,0.01-1.49,0.665-1.5,1.479
		c-0.016,1.086-0.017,2.173,0,3.259C17.175,24.286,17.829,24.931,18.653,24.954z"/>
	<path fill-rule="evenodd" clip-rule="evenodd" d="M31.242,18.722c-1.07-0.012-2.141-0.01-3.212,0.003
		c-0.851,0.01-1.5,0.663-1.509,1.518c-0.012,1.054-0.011,2.109-0.004,3.162c0.006,0.878,0.659,1.535,1.534,1.55
		c0.519,0.01,1.038,0.002,1.557,0.002c0.536,0,1.071,0.008,1.607-0.002c0.876-0.016,1.525-0.666,1.535-1.546
		c0.012-1.055,0.012-2.109,0-3.164C32.741,19.396,32.086,18.73,31.242,18.722z"/>
	<path fill-rule="evenodd" clip-rule="evenodd" d="M12.542,28.084c-0.535-0.014-1.07-0.003-1.605-0.003
		c-0.535,0-1.071-0.007-1.606,0.002c-0.852,0.014-1.518,0.659-1.529,1.502c-0.013,1.07-0.013,2.141,0,3.21
		c0.011,0.854,0.66,1.506,1.512,1.518c1.07,0.015,2.142,0.014,3.211,0.001c0.822-0.011,1.493-0.664,1.504-1.477
		c0.017-1.088,0.017-2.175,0-3.261C14.019,28.751,13.365,28.106,12.542,28.084z"/>
	<path fill-rule="evenodd" clip-rule="evenodd" d="M18.698,34.314c1.054,0.01,2.108,0.011,3.163-0.001
		c0.876-0.009,1.523-0.666,1.532-1.551c0.01-1.054,0.011-2.108-0.001-3.162c-0.01-0.85-0.67-1.512-1.513-1.52
		c-1.071-0.01-2.142-0.01-3.212,0.003c-0.851,0.011-1.49,0.666-1.505,1.523c-0.009,0.519-0.001,1.038-0.001,1.557
		c-0.001,0-0.002,0-0.003,0c0,0.536-0.006,1.071,0.001,1.605C17.169,33.646,17.821,34.306,18.698,34.314z"/>
	<path fill-rule="evenodd" clip-rule="evenodd" d="M12.516,37.44c-1.071-0.01-2.142-0.01-3.212,0.003
		c-0.829,0.012-1.487,0.656-1.5,1.478c-0.016,1.088-0.016,2.174-0.003,3.261c0.01,0.817,0.673,1.471,1.492,1.491
		c0.535,0.014,1.07,0.003,1.606,0.003c0.535,0,1.071,0.009,1.605-0.002c0.854-0.017,1.517-0.66,1.528-1.505
		c0.014-1.071,0.013-2.142,0.001-3.212C14.021,38.108,13.361,37.449,12.516,37.44z"/>
</g>
</svg>
