<?xml version="1.0" encoding="utf-8"?>
<!-- Generator: Adobe Illustrator 16.0.0, SVG Export Plug-In . SVG Version: 6.00 Build 0)  -->
<!DOCTYPE svg PUBLIC "-//W3C//DTD SVG 1.1//EN" "http://www.w3.org/Graphics/SVG/1.1/DTD/svg11.dtd">
<svg version="1.1" id="Layer_2" xmlns="http://www.w3.org/2000/svg" xmlns:xlink="http://www.w3.org/1999/xlink" x="0px" y="0px"
	 width="792px" height="612px" viewBox="0 0 792 612" enable-background="new 0 0 792 612" xml:space="preserve">
<path fill-rule="evenodd" clip-rule="evenodd" fill="#F58349" d="M649.146,494.631c0,17.193,1.713,33.675-0.38,49.657
	c-3.607,27.564-28.818,47.768-56.662,47.775c-137.002,0.035-274.001,0.052-411.001,0.026c-32.753-0.006-58.772-25.646-58.825-58.517
	c-0.159-98.266-0.146-196.532,0.012-294.796c0.05-30.875,26.178-56.858,56.987-57.247c13.21-0.167,26.422-0.029,40.017-0.029
	c0,12.997,0,25.506,0,38.696c-7.693,0-15.174-0.042-22.656,0.012c-9.652,0.068-15.844,3.868-16.064,9.762
	c-0.226,6.107,6.057,10.207,16.195,10.21c86.849,0.03,173.697,0.005,260.546,0.003c44.852,0,89.702-0.076,134.554,0.053
	c32.374,0.093,58.257,26.092,58.364,58.349c0.041,12.793,0.007,25.586,0.007,39.077c-15.602,0-30.625,0.003-45.648-0.002
	c-18.348-0.006-36.696-0.066-55.045-0.021c-40.616,0.099-74.189,29.559-78.92,69.194c-4.705,39.417,20.73,75.857,59.94,85.512
	c5.482,1.351,11.253,2.11,16.896,2.148c31.803,0.214,63.607,0.123,95.41,0.136C645.077,494.631,647.278,494.631,649.146,494.631z"/>
<path fill-rule="evenodd" clip-rule="evenodd" fill="#2BBCB5" d="M553.59,112.286c-18.438-7.796-36.759-15.542-55.301-23.382
	c-17.922,32.293-44.293,43.489-80.477,32.651c-13.809,32.586-27.75,65.482-41.697,98.391c-14.425,0-28.602,0-43.472,0
	c6.108-14.496,12.003-28.518,17.924-42.53c17.58-41.608,35.156-83.217,52.761-124.815c10.56-24.95,32.345-33.697,57.412-23.113
	c54.542,23.033,109.096,46.041,163.625,69.106c22.713,9.608,31.826,33.166,21.674,55.702c-9.195,20.409-18.463,40.785-27.501,61.263
	c-1.533,3.474-3.389,4.82-7.266,4.733c-11.808-0.267-23.625-0.097-36.436-0.097c3.896-9.399,7.578-18.28,11.334-27.342
	C553.991,174.853,542.648,148.533,553.59,112.286z"/>
<path fill-rule="evenodd" clip-rule="evenodd" fill="#F58349" d="M600.411,474.635c-15.288-0.001-30.575,0.073-45.861-0.016
	c-32.552-0.189-58.268-25.899-58.332-58.223c-0.067-32.728,25.593-58.615,58.418-58.731c31.39-0.11,62.776-0.056,94.166-0.007
	c13.045,0.019,20.973,7.927,20.996,20.896c0.045,25.07,0.058,50.14-0.007,75.209c-0.032,12.953-8.008,20.813-21.075,20.858
	C632.614,474.679,616.512,474.636,600.411,474.635z M572.707,393.562c-12.619-0.319-22.795,9.239-23.077,21.678
	c-0.298,13.061,9.184,23.203,21.938,23.471c12.536,0.263,22.74-9.319,23.156-21.741
	C595.154,404.112,585.538,393.888,572.707,393.562z"/>
<path fill-rule="evenodd" clip-rule="evenodd" fill="#2BBCB5" d="M286.707,220.19c3.59-13.66,6.917-26.402,10.289-39.132
	c9.318-35.174,18.528-70.376,28.035-105.499c4.805-17.75,17.432-28.604,35.593-30.336c5.897-0.562,11.988,0.906,18.561,1.497
	c-0.512,2.123-0.626,3.272-1.056,4.29c-23.185,54.88-46.419,109.741-69.545,164.647c-1.344,3.189-2.786,4.957-6.618,4.626
	C297.333,219.885,292.638,220.19,286.707,220.19z"/>
<path fill-rule="evenodd" clip-rule="evenodd" fill="#2BBCB5" d="M409.932,219.934c-0.465-20.306,12.588-39.165,32.763-48.101
	c37.156-16.458,86.035,3.606,100.906,41.447c0.8,2.033,1.302,4.184,2.057,6.654C500.125,219.934,455.197,219.934,409.932,219.934z"
	/>
<path fill-rule="evenodd" clip-rule="evenodd" fill="#2BBCB5" d="M241.946,220.176c1.78-13.782,3.427-26.855,5.166-39.916
	c3.572-26.827,7.172-53.651,10.799-80.472c2.893-21.396,22.136-36.677,42.647-34.314c-13.291,50.195-26.625,100.442-39.843,150.721
	c-0.835,3.176-2.272,4.25-5.478,4.047C251.02,219.975,246.774,220.176,241.946,220.176z"/>
</svg>
