<?xml version="1.0" encoding="utf-8"?>
<!-- Generator: Adobe Illustrator 16.0.0, SVG Export Plug-In . SVG Version: 6.00 Build 0)  -->
<!DOCTYPE svg PUBLIC "-//W3C//DTD SVG 1.1//EN" "http://www.w3.org/Graphics/SVG/1.1/DTD/svg11.dtd">
<svg version="1.1" id="Layer_4" xmlns="http://www.w3.org/2000/svg" xmlns:xlink="http://www.w3.org/1999/xlink" x="0px" y="0px"
	 width="792px" height="612px" viewBox="0 0 792 612" enable-background="new 0 0 792 612" xml:space="preserve">
<g>
	<path fill-rule="evenodd" clip-rule="evenodd" fill="#2BBCB5" d="M338.214,128.173c0,11.143-9.034,20.177-20.177,20.177H179.045
		c-11.143,0-20.176-9.034-20.176-20.177V57.837c0-11.144,9.033-20.177,20.176-20.177h138.992c11.143,0,20.177,9.033,20.177,20.177
		V128.173z"/>
	<path fill-rule="evenodd" clip-rule="evenodd" fill="#808285" d="M428.619,392.603c8.412,0,16.111,0,24.147,0
		c0.911,18.918,1.809,37.574,2.726,56.615c4.021-0.821,5.766-2.479,5.855-6.497c0.335-15.029,1.005-30.053,1.557-45.077
		c0.058-1.585,0.16-3.168,0.255-5.028c8.732,0,17.233,0,26.297,0c0.539,15.609,1.077,31.212,1.625,47.09c2.232,0,4.226,0,7.151,0
		c0-15.687,0-31.136,0-46.982c10.01,0,19.097,0,29.429,0c0,8.115-0.03,16.151,0.01,24.188c0.034,6.952,0.151,13.904,0.226,20.857
		c0.086,8.081,0.156,8.163,9.603,9.838c0-18.387,0-36.582,0-55.022c10.134,0,19.13,0,28.793,0
		c0.664,24.597,1.327,49.191,1.988,73.697c-11.379,0.867-22.34,1.33-33.201,2.621c-17.538,2.086-34.151,6.998-48.352,18.139
		c-10.762,8.442-17.8,19.427-22.177,32.283c-1.067,3.133-0.657,5.594,2.472,6.754c2.881,1.064,5.084-0.337,6.055-3.235
		c10.134-30.241,34.052-41.352,63.033-44.989c10.555-1.321,21.259-1.464,31.895-2.143c2.057-0.131,4.115-0.268,6.238-0.404
		c0-6.713,0.147-12.988-0.033-19.252c-0.258-8.881-0.994-17.75-1.079-26.627c-0.07-7.343,3.195-13.148,9.916-16.524
		c8.759-4.4,18.073,0.771,19.467,10.472c2.729,19.019,5.54,38.024,8.463,57.016c0.847,5.515-0.337,10.229-4.114,14.315
		c-14.378,15.552-28.799,31.062-43.073,46.708c-1.885,2.065-3.549,4.649-4.402,7.287c-5.011,15.497-9.83,31.058-14.52,46.653
		c-1.007,3.347-2.611,4.592-6.168,4.575c-26.679-0.134-53.357-0.099-80.037-0.041c-3.527,0.006-6.507-0.665-7.748-4.378
		c-6.629-19.849-14.194-39.451-19.541-59.639c-5.394-20.365-5.763-41.476-4.869-62.591c1.01-23.901,1.173-47.84,1.723-71.761
		C428.293,398.629,428.479,395.741,428.619,392.603z"/>
	<path fill-rule="evenodd" clip-rule="evenodd" fill="#808285" d="M219.579,475.297c9.314,0.481,19.307,0.785,29.261,1.568
		c12.768,1.004,25.272,3.388,37.104,8.57c16.101,7.056,27.187,18.801,33.136,35.362c0.272,0.761,0.555,1.517,0.853,2.264
		c1.142,2.884,3.381,4.132,6.183,3.04c2.854-1.116,3.263-3.435,2.27-6.414c-6.26-18.773-18.246-32.47-36.03-41.082
		c-13.878-6.721-28.748-9.531-43.967-10.741c-7.707-0.61-15.442-0.87-23.726-1.316c0.641-24.656,1.279-49.267,1.922-74.03
		c9.599,0,18.61,0,28.684,0c0,18.536,0,36.896,0,55.501c9.512-2.238,9.693-2.405,9.715-10.995c0.039-14.686,0.01-29.371,0.01-44.374
		c10.265,0,19.238,0,29.298,0c0,15.518,0,31.093,0,46.966c3.076,0,5.074,0,7.505,0c0.554-15.667,1.108-31.271,1.668-47.073
		c8.847,0,17.227,0,26.218,0c0.286,5.519,0.647,11.093,0.848,16.673c0.402,11.15,0.899,22.3,0.973,33.451
		c0.026,4.05,1.47,5.938,5.901,6.277c0.906-18.731,1.806-37.357,2.722-56.292c8.125,0,15.938,0,24.752,0
		c0,9.327,0.009,18.502,0,27.68c-0.033,28.443,0.402,56.896-0.267,85.325c-0.466,19.783-4.314,38.969-12.832,57.252
		c-4.306,9.244-6.268,19.6-9.084,29.512c-1.847,6.508-2.701,7.402-9.23,7.405c-26.359,0.011-52.716-0.066-79.072,0.085
		c-3.751,0.019-5.381-1.227-6.45-4.814c-4.79-16.074-9.846-32.069-14.912-48.06c-0.512-1.614-1.508-3.215-2.663-4.469
		c-14.345-15.582-28.707-31.147-43.189-46.601c-4.545-4.85-6.158-10.033-5.037-16.775c3.019-18.157,5.564-36.394,8.04-54.636
		c0.819-6.038,3.495-10.491,9.154-12.561c5.563-2.033,10.556-0.046,14.693,3.811c4.542,4.236,5.813,9.581,5.662,15.802
		C219.339,445.961,219.579,460.328,219.579,475.297z"/>
	<path fill-rule="evenodd" clip-rule="evenodd" fill="#F58349" d="M436.793,368.21c-8.034,0-15.212,0.001-22.391-0.001
		c-86.858-0.013-173.717-0.017-260.577-0.047c-15.624-0.006-22.889-7.095-22.901-22.405c-0.036-46.933-0.016-93.864-0.001-140.796
		c0.001-1.61,0.183-3.22,0.341-5.837c2.375,0,4.614,0,6.853,0c96.666,0.012,193.333,0.111,289.998-0.143
		c7.214-0.019,8.946,1.915,8.901,8.938c-0.319,50.197-0.201,100.397-0.224,150.595C436.792,361.479,436.793,364.446,436.793,368.21z
		"/>
	<path fill-rule="evenodd" clip-rule="evenodd" fill="#F58349" d="M459.479,368.211c0-56.481,0-112.172,0-168.481
		c61.204,0,122.208,0,184.014,0c0.146,2.333,0.433,4.788,0.436,7.243c0.024,46.456,0.042,92.913,0.004,139.369
		c-0.014,16.434-5.458,21.823-21.763,21.827c-51.128,0.015-102.255,0.028-153.38,0.042
		C465.814,368.211,462.84,368.211,459.479,368.211z"/>
	<path fill-rule="evenodd" clip-rule="evenodd" fill="#F58349" d="M459.561,9.668c30.514,0,60.36-0.005,90.207,0.001
		c25.662,0.007,51.324-0.007,76.985,0.062c10.892,0.03,17.128,5.799,17.159,16.709c0.139,48.522,0.041,97.046,0.003,145.569
		c-0.001,1.337-0.305,2.674-0.52,4.434c-61.353,0-122.345,0-183.835,0C459.561,120.904,459.561,65.749,459.561,9.668z"/>
	<path fill-rule="evenodd" clip-rule="evenodd" fill="#F58349" d="M356.484,9.69c-68.156,0.004-136.31-0.024-204.464,0.044
		c-14.607,0.016-21.029,6.449-21.058,20.767c-0.06,30.109-0.043,60.219-0.052,90.329c-0.005,18.38-0.001,36.76-0.001,55.611
		c102.124,0,203.506,0,305.293,0c0-56.033,0-111.179,0-166.752C409.182,9.688,382.833,9.687,356.484,9.69z M312.642,128.393
		c-0.051,8.006-2.562,10.274-10.685,10.296c-20.543,0.055-41.089,0.019-61.634,0.019c-20.312,0-40.623,0.033-60.934-0.017
		c-7.85-0.019-10.471-2.556-10.503-10.483c-0.089-22.18-0.082-44.359-0.005-66.537c0.028-8.158,2.375-10.572,10.351-10.583
		c41.089-0.055,82.18-0.058,123.27,0.005c7.675,0.011,10.121,2.407,10.158,10.062C312.765,83.569,312.78,105.982,312.642,128.393z"
		/>
</g>
</svg>
