<?xml version="1.0" encoding="utf-8"?>
<!-- Generator: Adobe Illustrator 16.0.0, SVG Export Plug-In . SVG Version: 6.00 Build 0)  -->
<!DOCTYPE svg PUBLIC "-//W3C//DTD SVG 1.1//EN" "http://www.w3.org/Graphics/SVG/1.1/DTD/svg11.dtd">
<svg version="1.1" xmlns="http://www.w3.org/2000/svg" xmlns:xlink="http://www.w3.org/1999/xlink" x="0px" y="0px" width="50px"
	 height="50px" viewBox="0 0 50 50" enable-background="new 0 0 50 50" xml:space="preserve">
<g id="Layer_1">
	<path d="M25,0C11.193,0,0,11.193,0,25c0,13.807,11.193,25,25,25c13.807,0,25-11.193,25-25C50,11.193,38.807,0,25,0z M25,47
		C12.85,47,3,37.15,3,25S12.85,3,25,3s22,9.85,22,22S37.15,47,25,47z"/>
</g>
<g id="Layer_5">
	<path d="M22.019,37.521V24.748h-2.596v-4.234h2.596v-2.56c0-3.455,1.033-5.945,4.814-5.945h4.499v4.226h-3.167
		c-1.588,0-1.948,1.054-1.948,2.158v2.121h4.882l-0.666,4.234h-4.216v12.774H22.019z"/>
</g>
</svg>
