<?xml version="1.0" encoding="utf-8"?>
<!-- Generator: Adobe Illustrator 16.0.0, SVG Export Plug-In . SVG Version: 6.00 Build 0)  -->
<!DOCTYPE svg PUBLIC "-//W3C//DTD SVG 1.1//EN" "http://www.w3.org/Graphics/SVG/1.1/DTD/svg11.dtd">
<svg version="1.1" id="Layer_2" xmlns="http://www.w3.org/2000/svg" xmlns:xlink="http://www.w3.org/1999/xlink" x="0px" y="0px"
	 width="792px" height="612px" viewBox="0 0 792 612" enable-background="new 0 0 792 612" xml:space="preserve">
<g>
	<path fill="#2BBCB5" d="M666.749,13.658h-541.31c-12.141,0-22.08,9.978-22.08,22.099v533.93c0,12.144,9.939,22.102,22.08,22.102
		h541.31c12.142,0,22.082-9.958,22.082-22.102V35.757C688.831,23.635,678.891,13.658,666.749,13.658z M626.499,451.138H159.246
		V73.243h467.253V451.138z"/>
	<path fill="#F58349" d="M249.281,104.784c35.843,0,64.889,29.044,64.889,64.888c0,35.843-29.046,64.889-64.889,64.889
		c-35.844,0-64.889-29.045-64.889-64.889C184.392,133.828,213.437,104.784,249.281,104.784z"/>
	<path fill="#808285" d="M481.297,202.687c-11.416-20.438-30.937-20.917-43.37-1.06l-61.116,97.654
		c-12.441,19.875-37.195,26.155-55.044,14.013c-17.858-12.163-44.834-7.486-59.991,10.354l-60.888,71.77
		c-15.154,17.881-8.389,32.454,15.033,32.454h348.684c23.431,0,33.243-16.715,21.809-37.173L481.297,202.687z"/>
</g>
</svg>
