<?xml version="1.0" encoding="utf-8"?>
<!-- Generator: Adobe Illustrator 16.0.0, SVG Export Plug-In . SVG Version: 6.00 Build 0)  -->
<!DOCTYPE svg PUBLIC "-//W3C//DTD SVG 1.1//EN" "http://www.w3.org/Graphics/SVG/1.1/DTD/svg11.dtd">
<svg version="1.1" xmlns="http://www.w3.org/2000/svg" xmlns:xlink="http://www.w3.org/1999/xlink" x="0px" y="0px" width="50px"
	 height="50px" viewBox="0 0 50 50" enable-background="new 0 0 50 50" xml:space="preserve">
<g id="Layer_1">
	<path d="M25,0C11.193,0,0,11.193,0,25c0,13.807,11.193,25,25,25c13.807,0,25-11.193,25-25C50,11.193,38.807,0,25,0z M25,47
		C12.85,47,3,37.15,3,25S12.85,3,25,3s22,9.85,22,22S37.15,47,25,47z"/>
</g>
<g id="Layer_3">
	<path d="M15.034,12H34.77c1.873,0,3.406,1.533,3.406,3.408v19.735c0,1.875-1.533,3.407-3.406,3.407H15.034
		c-1.874,0-3.408-1.532-3.408-3.407V15.408C11.626,13.533,13.161,12,15.034,12L15.034,12z M30.968,14.951
		c-0.658,0-1.195,0.538-1.195,1.194v2.861c0,0.659,0.537,1.194,1.195,1.194h3.001c0.656,0,1.193-0.536,1.193-1.194v-2.861
		c0-0.656-0.537-1.194-1.193-1.194H30.968L30.968,14.951z M35.175,23.228h-2.337c0.223,0.722,0.341,1.486,0.341,2.279
		c0,4.416-3.695,7.996-8.251,7.996c-4.557,0-8.253-3.58-8.253-7.996c0-0.793,0.12-1.557,0.341-2.279h-2.438v11.216
		c0,0.58,0.473,1.057,1.054,1.057h18.49c0.579,0,1.054-0.474,1.054-1.057V23.228L35.175,23.228z M24.928,20.052
		c-2.946,0-5.333,2.312-5.333,5.166c0,2.854,2.386,5.169,5.333,5.169c2.944,0,5.33-2.314,5.33-5.169
		C30.258,22.364,27.872,20.052,24.928,20.052z"/>
</g>
</svg>
