<?xml version="1.0" encoding="utf-8"?>
<!-- Generator: Adobe Illustrator 16.0.0, SVG Export Plug-In . SVG Version: 6.00 Build 0)  -->
<!DOCTYPE svg PUBLIC "-//W3C//DTD SVG 1.1//EN" "http://www.w3.org/Graphics/SVG/1.1/DTD/svg11.dtd">
<svg version="1.1" id="Layer_2" xmlns="http://www.w3.org/2000/svg" xmlns:xlink="http://www.w3.org/1999/xlink" x="0px" y="0px"
	 width="792px" height="612px" viewBox="0 0 792 612" enable-background="new 0 0 792 612" xml:space="preserve">
<path fill-rule="evenodd" clip-rule="evenodd" fill="#F58349" d="M460.01,336.578c-8.2-3.779-15.483-6.55-22.191-10.34
	c-19.565-11.053-19.366-11.213-19.351-33.615c0.047-68.166,0.013-136.33-0.017-204.496c-0.004-10.32-2.523-12.766-12.67-12.764
	c-54.838,0.011-109.676,0.008-164.515,0.01c-9.043,0-12.026,2.796-12.026,11.441c-0.001,97.004,0.004,194.009,0.028,291.014
	c0.004,10.223,2.563,12.671,12.77,12.666c22.504-0.013,45.008-0.126,67.509,0.155c3.154,0.039,6.866,1.334,9.329,3.293
	c14.871,11.83,29.176,24.382,44.243,35.946c7.87,6.042,6.736,15.035,10.693,23.115c-20.759,0-40.604,0-60.449,0
	c-26.656,0-53.312,0.027-79.967-0.007c-28.587-0.037-45.657-17.114-45.661-45.617c-0.013-116.886-0.023-233.771-0.037-350.657
	c-0.004-25.734,17.963-43.859,43.558-43.866c60.954-0.014,121.91-0.021,182.866,0.001c28.96,0.011,45.859,17.019,45.862,46.069
	c0.01,90.013,0.017,180.026,0.025,270.04C460.01,330.883,460.01,332.798,460.01,336.578z M323.649,54.807c0,0.012,0,0.024,0,0.036
	c10.026,0,20.053,0.073,30.077-0.023c7.518-0.071,12.244-4.272,12.277-10.637c0.034-6.303-4.797-10.724-12.17-10.754
	c-19.833-0.08-39.667-0.072-59.501-0.005c-7.83,0.026-12.765,4.449-12.622,10.993c0.138,6.306,4.812,10.285,12.518,10.365
	C304.033,54.885,313.842,54.807,323.649,54.807z"/>
<g>
	<path fill-rule="evenodd" clip-rule="evenodd" fill="#808285" d="M483.433,212.106c8.359,7.208,17.144,13.986,25,21.706
		c20.246,19.896,40.123,40.165,60.068,60.363c14.749,14.936,20.062,32.731,15.948,53.388
		c-10.928,54.881-17.504,110.279-19.629,166.2c-0.016,0.415-0.216,0.821-0.459,1.703c-41.239,0-82.605,0-124.887,0
		c0-4.89,0.271-9.843-0.13-14.74c-0.168-2.044-1.223-4.854-2.792-5.814c-19.432-11.889-29.445-30.427-36.643-51.021
		c-0.934-2.671-2.154-5.382-2.367-8.142c-0.991-12.807-8.418-20.898-18.184-28.396c-17.482-13.422-34.282-27.742-51.178-41.914
		c-10.476-8.783-16.771-19.726-13.841-33.916c3.599-17.424,20.438-27.758,38.966-24.403c11.463,2.075,21.316,7.481,30.31,14.675
		c16.893,13.516,33.816,27.199,54.075,35.283c8.895,3.549,18.892,5.945,28.396,5.97c13.697,0.037,22.729-10.325,24.376-25.253
		c1.494-13.519-0.066-26.576-7.528-38.432c-0.769-1.22-1.346-2.76-1.422-4.183c-0.204-3.92-0.109-7.859-0.109-11.79
		c-0.006-23.322-0.003-46.643-0.003-69.965C482.078,212.985,482.755,212.546,483.433,212.106z"/>
	<path fill-rule="evenodd" clip-rule="evenodd" fill="#808285" d="M502.087,599.816c-21.852,0-43.703,0.019-65.555-0.008
		c-12.25-0.015-18.067-5.859-18.059-18.026c0.007-8.959-0.055-17.918,0.027-26.877c0.107-11.607,5.799-17.518,17.206-17.535
		c44.577-0.076,89.153-0.078,133.73-0.026c10.07,0.011,16.285,6.294,16.393,16.38c0.105,9.832,0.111,19.667-0.001,29.499
		c-0.12,10.501-6.226,16.529-16.879,16.567C546.664,599.871,524.374,599.816,502.087,599.816z"/>
</g>
</svg>
