<?xml version="1.0" encoding="utf-8"?>
<!-- Generator: Adobe Illustrator 16.0.0, SVG Export Plug-In . SVG Version: 6.00 Build 0)  -->
<!DOCTYPE svg PUBLIC "-//W3C//DTD SVG 1.1//EN" "http://www.w3.org/Graphics/SVG/1.1/DTD/svg11.dtd">
<svg version="1.1" xmlns="http://www.w3.org/2000/svg" xmlns:xlink="http://www.w3.org/1999/xlink" x="0px" y="0px" width="50px"
	 height="50px" viewBox="0 0 50 50" enable-background="new 0 0 50 50" xml:space="preserve">
<g id="Layer_1">
	<path d="M25,0C11.193,0,0,11.193,0,25c0,13.807,11.193,25,25,25c13.807,0,25-11.193,25-25C50,11.193,38.807,0,25,0z M25,47
		C12.85,47,3,37.15,3,25S12.85,3,25,3s22,9.85,22,22S37.15,47,25,47z"/>
</g>
<g id="Layer_4">
	<path d="M15.5,21.329c0,2.569,0.918,4.854,2.887,5.706c0.323,0.139,0.612,0.004,0.706-0.375c0.065-0.262,0.219-0.922,0.288-1.198
		c0.095-0.375,0.058-0.506-0.203-0.833c-0.568-0.709-0.931-1.628-0.931-2.929c0-3.774,2.666-7.153,6.941-7.153
		c3.787,0,5.866,2.451,5.866,5.723c0,4.306-1.799,7.94-4.47,7.94c-1.474,0-2.578-1.292-2.225-2.877
		c0.424-1.892,1.244-3.934,1.244-5.299c0-1.223-0.619-2.242-1.901-2.242c-1.507,0-2.719,1.652-2.719,3.865
		c0,1.41,0.45,2.363,0.45,2.363s-1.543,6.925-1.813,8.138c-0.539,2.416-0.081,5.377-0.042,5.676
		c0.022,0.177,0.238,0.219,0.335,0.086c0.139-0.193,1.935-2.541,2.545-4.888c0.172-0.665,0.991-4.104,0.991-4.104
		c0.49,0.989,1.921,1.861,3.444,1.861c4.532,0,7.606-4.377,7.606-10.235c0-4.43-3.542-8.556-8.925-8.556
		C18.877,12,15.5,17.087,15.5,21.329z"/>
</g>
</svg>
