<?xml version="1.0" encoding="utf-8"?>
<!-- Generator: Adobe Illustrator 16.0.0, SVG Export Plug-In . SVG Version: 6.00 Build 0)  -->
<!DOCTYPE svg PUBLIC "-//W3C//DTD SVG 1.1//EN" "http://www.w3.org/Graphics/SVG/1.1/DTD/svg11.dtd">
<svg version="1.1" id="Layer_1" xmlns="http://www.w3.org/2000/svg" xmlns:xlink="http://www.w3.org/1999/xlink" x="0px" y="0px"
	 width="792px" height="612px" viewBox="0 0 792 612" enable-background="new 0 0 792 612" xml:space="preserve">
<path fill="#BF643C" d="M323.712,508.971H467.19c0,0,0,34.913,2.869,51.652s22.957,30.608,25.349,32.521
	c2.392,1.915,1.435,8.131,0,9.566s-4.306,1.436-4.306,1.436H302.669c0,0-5.261,0.955-6.696-1.436
	c-1.435-2.392-0.957-8.131,1.913-9.566c2.87-1.434,18.174-9.086,22.479-32.999C324.669,536.23,323.712,508.971,323.712,508.971z"/>
<path fill="#808285" d="M733.804,9.667H57.895c-15.154,0-27.438,12.07-27.438,26.96v404.431h730.782V36.627
	C761.239,21.737,748.956,9.667,733.804,9.667z M733.5,420.015H58.197V34.536H733.5V420.015z"/>
<path fill="#F58349" d="M30.458,441.058v45.735c0,14.889,12.284,26.96,27.438,26.96h675.909c15.152,0,27.436-12.071,27.436-26.96
	v-45.735H30.458z"/>
<path fill-rule="evenodd" clip-rule="evenodd" fill="#26BCB4" d="M342.622,111.894c0.959,0.732,1.987,1.389,2.865,2.208
	c50.139,46.783,100.264,93.581,150.394,140.372c0.795,0.742,1.643,1.428,3.126,2.712c-25.635,2.218-50.31,4.352-75.553,6.536
	c14.301,31.654,28.511,63.1,42.826,94.786c-9.574,4.354-18.938,8.613-28.657,13.034c-13.84-31.993-27.603-63.81-41.511-95.962
	c-0.963,0.853-1.768,1.522-2.524,2.241c-16.102,15.308-32.193,30.624-48.31,45.916c-0.777,0.738-1.766,1.254-2.656,1.873
	C342.622,254.37,342.622,183.132,342.622,111.894z"/>
</svg>
