<?xml version="1.0" encoding="utf-8"?>
<!-- Generator: Adobe Illustrator 16.0.0, SVG Export Plug-In . SVG Version: 6.00 Build 0)  -->
<!DOCTYPE svg PUBLIC "-//W3C//DTD SVG 1.1//EN" "http://www.w3.org/Graphics/SVG/1.1/DTD/svg11.dtd">
<svg version="1.1" id="Layer_2" xmlns="http://www.w3.org/2000/svg" xmlns:xlink="http://www.w3.org/1999/xlink" x="0px" y="0px"
	 width="792px" height="612px" viewBox="0 0 792 612" enable-background="new 0 0 792 612" xml:space="preserve">
<path fill-rule="evenodd" clip-rule="evenodd" fill="#F58349" d="M355.008,594.527c-9.71-2.142-19.403-4.357-29.132-6.409
	c-31.51-6.641-63.034-13.216-94.551-19.825c-17.264-3.621-34.536-7.213-51.783-10.916c-6.687-1.436-7.69-2.646-7.877-9.592
	c-0.797-29.673-1.497-59.348-2.259-89.021c-0.186-7.277-0.548-14.551-0.689-21.828c-0.107-5.549,1.955-7.92,7.512-8.437
	c17.858-1.664,35.727-3.203,53.59-4.806c26.188-2.349,52.374-4.718,78.562-7.062c4.164-0.372,8.456-0.166,12.458-1.158
	c2.398-0.594,5.438-2.535,6.335-4.656c10.752-25.417,21.154-50.98,31.658-76.504c0.797-1.936,1.67-3.839,3.446-5.565
	c0,77.035,0,154.069,0,231.727c53.427-10.146,106.192-20.164,159.518-30.29c0-1.312,0-2.612,0-3.911
	c0-36.977-0.035-73.952,0.062-110.928c0.008-3.147-0.628-4.467-4.106-4.674c-29.615-1.771-59.221-3.743-88.829-5.646
	c-8.498-0.545-14.917-4.299-18.515-12.195c-6.924-15.191-13.768-30.419-20.636-45.635c-9.085-20.125-18.16-40.253-27.251-60.375
	c-0.105-0.232-0.356-0.397-1.004-1.091c-2.024,4.388-4.004,8.542-5.87,12.747c-13.325,30.029-26.628,60.066-39.935,90.104
	c-0.654,1.478-1.295,2.961-1.906,4.455c-1.576,3.853-4.337,5.86-8.573,6.273c-35.829,3.495-71.653,7.04-107.471,10.65
	c-19.72,1.988-39.422,4.133-59.134,6.197c-1.207,0.125-2.423,0.2-3.636,0.213c-6.072,0.062-9.329-4.844-6.738-10.434
	c7.929-17.103,15.977-34.148,23.954-51.229c6.666-14.274,13.363-28.532,19.901-42.865c1.93-4.231,4.552-6.803,9.423-7.674
	c34.747-6.213,69.453-12.65,104.167-19.039c24.507-4.51,49.002-9.078,73.519-13.538c1.809-0.33,3.784-0.269,5.604,0.055
	c28.121,5.029,56.228,10.136,84.339,15.217c32.342,5.846,64.676,11.736,97.037,17.466c4.355,0.771,6.766,2.989,8.528,6.937
	c7.847,17.585,15.923,35.066,23.923,52.582c6.488,14.206,13.047,28.38,19.45,42.624c2.43,5.406-0.859,10.356-6.784,10.026
	c-9.827-0.546-19.633-1.477-29.447-2.234c-2.121-0.164-4.247-0.285-7.051-0.471c0,2.075,0,3.77,0,5.464
	c-0.002,43.452-0.045,86.906,0.077,130.359c0.01,3.532-0.69,5.034-4.489,5.836c-32.425,6.846-64.777,14.032-97.179,20.99
	c-27.394,5.883-54.822,11.592-82.231,17.398c-0.496,0.104-0.941,0.452-1.41,0.687C364.725,594.527,359.867,594.527,355.008,594.527z
	"/>
<path fill="#2BBCB5" d="M494.459,123.242l-15.718,94.767c-0.288,1.714,0.273,3.461,1.505,4.693c0.007,0.009,0.007,0.009,0.007,0.009
	c1.237,1.228,2.99,1.789,4.709,1.498l94.509-15.973c1.991-0.335,3.623-1.76,4.239-3.688c0.618-1.918,0.104-4.028-1.325-5.456
	l-18.481-18.479L613.521,131c2.107-2.11,2.107-5.524,0-7.637l-34.19-34.187c-2.11-2.114-5.521-2.114-7.636,0l-49.608,49.617
	l-18.488-18.486c-1.42-1.423-3.538-1.937-5.46-1.322C496.207,119.602,494.785,121.246,494.459,123.242z"/>
<path fill="#2BBCB5" d="M312.006,125.438l69.887,96.099c1.262,1.742,3.289,2.762,5.444,2.744c0.013,0.001,0.013,0.001,0.013,0.001
	c2.156-0.022,4.172-1.083,5.406-2.852l67.942-97.162c1.432-2.047,1.593-4.721,0.428-6.938c-1.153-2.21-3.459-3.588-5.959-3.568
	l-32.326,0.253l-0.67-86.791c-0.03-3.688-3.04-6.65-6.731-6.628l-59.806,0.467c-3.695,0.026-6.654,3.033-6.627,6.731l0.68,86.786
	l-32.338,0.253c-2.488,0.016-4.777,1.437-5.904,3.665C310.313,120.738,310.529,123.417,312.006,125.438z"/>
<path fill="#2BBCB5" d="M192.158,208.245l94.764,15.721c1.719,0.288,3.464-0.276,4.695-1.507c0.006-0.01,0.006-0.01,0.006-0.01
	c1.234-1.24,1.794-2.99,1.501-4.712l-15.97-94.511c-0.335-1.986-1.76-3.624-3.683-4.235c-1.922-0.624-4.03-0.108-5.46,1.322
	l-18.479,18.48l-49.611-49.609c-2.111-2.114-5.526-2.114-7.635-0.004l-34.191,34.19c-2.113,2.111-2.113,5.523,0,7.636l49.61,49.613
	l-18.486,18.485c-1.42,1.424-1.933,3.54-1.32,5.463C188.519,206.495,190.164,207.916,192.158,208.245z"/>
</svg>
