<?xml version="1.0" encoding="utf-8"?>
<!-- Generator: Adobe Illustrator 16.0.0, SVG Export Plug-In . SVG Version: 6.00 Build 0)  -->
<!DOCTYPE svg PUBLIC "-//W3C//DTD SVG 1.1//EN" "http://www.w3.org/Graphics/SVG/1.1/DTD/svg11.dtd">
<svg version="1.1" id="Layer_3" xmlns="http://www.w3.org/2000/svg" xmlns:xlink="http://www.w3.org/1999/xlink" x="0px" y="0px"
	 width="792px" height="612px" viewBox="0 0 792 612" enable-background="new 0 0 792 612" xml:space="preserve">
<path fill-rule="evenodd" clip-rule="evenodd" fill="#2BBCB5" d="M457.98,9.666c10.514,3.435,21.005,6.937,31.547,10.281
	c8.064,2.559,16.168,5.003,24.3,7.338c5.805,1.667,9.044,5.62,8.585,11.36c-0.988,12.337-2.438,24.653-4.221,36.901
	c-0.523,3.587-3.286,6.583-7.435,6.859c-10.011,0.667-20.032,1.369-30.057,1.536c-3.756,0.063-4.668,1.09-4.922,4.734
	c-3.271,46.672-6.749,93.329-10.131,139.994c-1.031,14.251-1.927,28.513-2.893,42.769c-0.062,0.94-0.16,1.877-0.279,2.812
	c-1.539,12.062-13.128,17.159-23.053,10.013c-0.983-0.708-1.654-2.624-1.572-3.922c1.468-23.192,3.107-46.373,4.64-69.56
	c1.76-26.635,3.419-53.275,5.177-79.91c1.664-25.224,3.406-50.443,5.093-75.666c0.859-12.847,1.652-25.698,2.521-38.544
	c0.158-2.339,0.537-4.663,0.813-6.994C456.722,9.666,457.352,9.666,457.98,9.666z"/>
<path fill-rule="evenodd" clip-rule="evenodd" fill="#666666" d="M456.094,600.138c0.04-35.815,0.09-71.632,0.12-107.447
	c0.017-22.308,0.043-44.616-0.049-66.923c-0.012-2.987,0.395-4.988,3.783-5.894c12.089-3.23,24.107-6.718,36.471-10.196
	c0.126,1.448,0.32,2.642,0.321,3.835c0.013,61.58,0.011,123.162,0.005,184.744c0,0.626-0.06,1.254-0.092,1.881
	C483.133,600.138,469.614,600.138,456.094,600.138z"/>
<path fill-rule="evenodd" clip-rule="evenodd" fill="#F58349" d="M323.72,139.438c37.497,0,74.993,0,113.058,0
	c-0.621,9.386-1.22,18.422-1.817,27.46c-1.483,22.416-2.975,44.831-4.444,67.247c-0.987,15.047-1.98,30.093-2.903,45.142
	c-0.561,9.14,1.771,13.347,10.524,15.713c5.744,1.551,12.18,2.498,17.951,1.555c9.754-1.596,15.993-10.155,16.812-21.23
	c2.088-28.196,3.921-56.412,5.939-84.614c1.155-16.136,2.409-32.267,3.858-48.378c0.104-1.155,2.176-3.052,3.342-3.058
	c27.347-0.156,54.767-1.324,82.021,0.271c26.324,1.541,48.687,18.576,57.326,44.751c3.871,11.729,4.728,23.673,4.754,35.767
	c0.103,44.951-0.028,89.903,0.127,134.854c0.016,4.53-1.269,6.341-5.806,7.588c-27.986,7.688-55.854,15.804-83.768,23.757
	c-29.565,8.425-59.136,16.832-88.707,25.234c-16.895,4.8-33.8,9.562-50.691,14.37c-6.267,1.785-6.48,1.672-6.481-4.679
	c-0.005-56.583,0.392-113.169-0.177-169.746c-0.276-27.567-6.732-53.841-22.655-77.028c-11.04-16.076-25.865-27.141-44.554-32.93
	c-1.304-0.403-2.565-0.938-3.847-1.412C323.628,139.86,323.674,139.649,323.72,139.438z"/>
<path fill-rule="evenodd" clip-rule="evenodd" fill="#BF643C" d="M251.382,362.14c0-2.311,0-4.189,0-6.07
	c-0.01-47.943-0.021-95.889-0.03-143.833c-0.001-8.617-0.865-17.338,0.161-25.831c2.769-22.913,14.936-37.021,38.561-38.836
	c25.516-1.961,48.351,4.714,66.472,23.587c11.429,11.904,18.898,26.376,22.342,42.388c2.791,12.968,5.153,26.311,5.298,39.513
	c0.587,53.44,0.247,106.89,0.234,160.336c0,1.506-0.155,3.013-0.282,5.329C339.586,399.734,295.642,381.004,251.382,362.14z"/>
<path fill-rule="evenodd" clip-rule="evenodd" fill="#F58349" d="M383.02,432.546c-8.533,9.448-16.663,18.566-24.92,27.569
	c-20.257,22.087-40.583,44.111-60.86,66.18c-15.063,16.394-33.902,26.52-54.804,33.341c-13.299,4.342-26.782,6.138-40.805,4.946
	c-28.725-2.442-49.538-24.663-49.642-53.456c-0.068-18.933,5.595-36.333,15.528-52.075c4.696-7.443,11.709-13.439,17.766-20.007
	c19.899-21.579,39.86-43.101,59.728-64.71c1.54-1.674,2.627-2.629,5.092-1.522c43.489,19.521,87.02,38.946,130.538,58.4
	C381.196,431.461,381.71,431.807,383.02,432.546z"/>
</svg>
