<?xml version="1.0" encoding="utf-8"?>
<!-- Generator: Adobe Illustrator 16.0.0, SVG Export Plug-In . SVG Version: 6.00 Build 0)  -->
<!DOCTYPE svg PUBLIC "-//W3C//DTD SVG 1.1//EN" "http://www.w3.org/Graphics/SVG/1.1/DTD/svg11.dtd">
<svg version="1.1" id="Layer_2" xmlns="http://www.w3.org/2000/svg" xmlns:xlink="http://www.w3.org/1999/xlink" x="0px" y="0px"
	 width="792px" height="612px" viewBox="0 0 792 612" enable-background="new 0 0 792 612" xml:space="preserve">
<g>
	<path fill-rule="evenodd" clip-rule="evenodd" fill="#F58349" d="M194.991,371.64c0,17.331,0,34.661,0,52.454
		c21.982,0,43.579,0,65.587,0c0-21.719,0-43.315,0-65.54c-20.032,0-39.827,0-60.875,0c6.767-14.567,12.913-28.232,19.605-41.622
		c0.77-1.538,4.59-2.177,7-2.181c67.75-0.113,135.503-0.097,203.253-0.093c43.261,0.001,86.521,0.092,129.78-0.098
		c4.565-0.021,6.901,1.292,8.732,5.479c5.469,12.503,11.384,24.813,17.544,38.104c-20.629,0-40.365,0-60.597,0
		c0,22.273,0,43.872,0,65.933c21.563,0,43.161,0,65.417,0c0-17.542,0-35.001,0-52.459c0.386-0.09,0.771-0.179,1.157-0.268
		c1.283,2.544,2.634,5.06,3.837,7.641c11.879,25.456,23.874,50.86,35.423,76.467c1.503,3.334,1.786,8.05,0.75,11.571
		c-9.923,33.715-20.2,67.328-30.482,100.936c-6.316,20.646-21.799,32.181-43.316,32.19c-110.096,0.04-220.192,0.044-330.29-0.004
		c-20.983-0.008-36.631-11.364-42.695-31.071c-10.537-34.248-20.905-68.545-31.205-102.863c-0.739-2.463-1.321-5.702-0.348-7.837
		c13.275-29.059,26.836-57.984,40.327-86.945C194.062,371.505,194.528,371.571,194.991,371.64z M305.227,358.663
		c0,22.3,0,43.869,0,65.417c22.062,0,43.634,0,65.168,0c0-22.054,0-43.624,0-65.417
		C348.509,358.663,327.102,358.663,305.227,358.663z M414.854,424.06c22.294,0,43.864,0,65.42,0c0-22.05,0-43.62,0-65.153
		c-22.043,0-43.614,0-65.42,0C414.854,380.778,414.854,402.186,414.854,424.06z M305.046,534.008c22.093,0,43.661,0,65.411,0
		c0-21.972,0-43.54,0-65.296c-21.969,0-43.538,0-65.411,0C305.046,490.529,305.046,511.937,305.046,534.008z M480.269,534.176
		c0-22.26,0-43.83,0-65.416c-22.038,0-43.608,0-65.168,0c0,22.041,0,43.613,0,65.416
		C436.966,534.176,458.373,534.176,480.269,534.176z M260.695,468.617c-20.31,0-40.104,0-60.856,0
		c6.736,22.163,13.327,43.849,19.875,65.396c13.924,0,27.303,0,40.981,0C260.695,512.21,260.695,490.803,260.695,468.617z
		 M524.521,468.664c0,11.283,0,21.985,0,32.686c0,10.873,0,21.746,0,33.062c6.82,0,12.724,0.046,18.627-0.012
		c7.294-0.072,16.646,2.471,21.316-1.09c4.934-3.76,5.575-13.321,7.785-20.443c4.507-14.523,8.809-29.111,13.354-44.203
		C565.017,468.664,545.241,468.664,524.521,468.664z"/>
	<path fill-rule="evenodd" clip-rule="evenodd" fill="#BF643C" d="M230.745,292.009c2.645-5.796,5.1-10.927,7.345-16.146
		c9.464-21.986,0.801-46.525-20.458-57.281c-9.344-4.727-18.999-8.841-28.763-13.349c135.995,0,271.896,0,407.909,0
		c-9.031,4.137-18.101,8.174-27.068,12.422c-22.662,10.736-31.972,35.058-22.29,58.199c2.192,5.241,4.681,10.358,7.316,16.155
		C446.636,292.009,339.052,292.009,230.745,292.009z"/>
	<path fill-rule="evenodd" clip-rule="evenodd" fill="#666666" d="M565.714,259.861c0.527-11.153,4.773-17.758,12.823-21.759
		c6.13-3.047,12.371-5.876,18.625-8.66c13.179-5.865,24.397-1.845,30.684,11.35c10.502,22.045,20.771,44.201,31.09,66.333
		c19.965,42.816,39.916,85.641,59.829,128.481c7.171,15.425,3.155,26.197-12.349,33.49c-4.956,2.333-9.906,4.677-14.896,6.936
		c-13.729,6.218-25.297,2.077-31.719-11.655c-21.365-45.687-42.613-91.432-63.918-137.148c-8.869-19.033-17.835-38.02-26.595-57.101
		C567.513,266.262,566.466,262.062,565.714,259.861z"/>
	<path fill-rule="evenodd" clip-rule="evenodd" fill="#666666" d="M219.8,259.872c-0.656,1.999-1.497,5.807-3.101,9.257
		c-30.312,65.19-60.685,130.351-91.122,195.482c-6.24,13.352-17.695,17.509-31.217,11.57c-5.642-2.478-11.204-5.137-16.76-7.804
		c-13.874-6.656-17.779-17.974-11.059-32.41c25.625-55.034,51.297-110.048,76.958-165.065c4.727-10.134,9.37-20.308,14.242-30.372
		c6.124-12.648,17.468-16.839,30.203-11.238c6.475,2.848,12.946,5.737,19.252,8.936C215.194,242.287,219.374,248.967,219.8,259.872z
		"/>
	<path fill-rule="evenodd" clip-rule="evenodd" fill="#BF643C" d="M167.531,204.799c-15.109,5.041-25.074,14.796-31.417,28.986
		c-8,17.903-16.749,35.475-24.644,53.421c-2.338,5.315-5.126,5.996-10.043,4.458c-9.583-2.994-15.996-10.538-16.17-20.588
		c-0.256-14.852-0.273-29.715-0.01-44.567c0.214-12.086,9.288-21.442,21.287-21.625C126.86,204.574,147.197,204.799,167.531,204.799
		z"/>
	<path fill-rule="evenodd" clip-rule="evenodd" fill="#BF643C" d="M617.902,204.834c20.696,0,41.401-0.375,62.083,0.149
		c11.387,0.288,20.016,9.717,20.246,21.19c0.303,15.078,0.308,30.171-0.036,45.248c-0.237,10.422-7.683,18.553-17.767,20.753
		c-3.902,0.852-6.185-0.054-7.972-4.038c-7.65-17.061-16.038-33.797-23.448-50.957C644.343,221.747,634.688,209.955,617.902,204.834
		z"/>
	<path fill="#2BBCB5" d="M255.183,184.082V137.92c0-21.812,17.745-39.557,39.557-39.557h95.821l-60.787-60.788
		c-7.723-7.723-20.246-7.723-27.968,0L155.3,184.082H255.183z"/>
	<path fill="#2BBCB5" d="M496.089,184.082V137.92c0-10.924-8.854-19.779-19.777-19.779H294.74c-10.923,0-19.779,8.855-19.779,19.779
		v46.161H496.089z"/>
	<path fill="#2BBCB5" d="M515.868,137.92v46.161h110.7V29.444c0-10.923-8.855-19.778-19.779-19.778H427.966
		c-10.924,0-19.778,8.855-19.778,19.778v68.92h68.124C498.123,98.364,515.868,116.109,515.868,137.92z"/>
</g>
</svg>
