<?xml version="1.0" encoding="utf-8"?>
<!-- Generator: Adobe Illustrator 16.0.0, SVG Export Plug-In . SVG Version: 6.00 Build 0)  -->
<!DOCTYPE svg PUBLIC "-//W3C//DTD SVG 1.1//EN" "http://www.w3.org/Graphics/SVG/1.1/DTD/svg11.dtd">
<svg version="1.1" id="Layer_2" xmlns="http://www.w3.org/2000/svg" xmlns:xlink="http://www.w3.org/1999/xlink" x="0px" y="0px"
	 width="792px" height="612px" viewBox="0 0 792 612" enable-background="new 0 0 792 612" xml:space="preserve">
<g>
	<path fill-rule="evenodd" clip-rule="evenodd" fill="#F58349" d="M398.903,593.562c-82.368,0-164.736,0.035-247.104-0.018
		c-33.593-0.021-56.88-23.396-56.914-56.969c-0.034-34.719-0.102-69.435,0.022-104.152c0.094-26.266,16.414-47.754,40.7-53.655
		c4.803-1.167,9.839-1.93,14.77-1.935c166.096-0.111,332.194-0.157,498.29-0.079c31.286,0.015,55.124,23.98,55.26,55.251
		c0.153,35.625,0.17,71.249-0.01,106.874c-0.154,30.653-24.433,54.67-55.185,54.694c-83.278,0.069-166.553,0.023-249.829,0.023
		C398.903,593.586,398.903,593.574,398.903,593.562z M400.092,507.498c0-0.017,0-0.035,0-0.051c21.771,0,43.542,0.092,65.312-0.035
		c12.255-0.071,21.418-9.279,21.636-21.476c0.13-7.255,0.119-14.515,0.056-21.771c-0.109-12.268-7.812-21.671-18.766-23.042
		c-12.021-1.504-22.308,4.823-25.305,16.619c-1.132,4.458-3.02,5.153-6.898,5.136c-24.267-0.118-48.533-0.18-72.797,0.043
		c-4.592,0.043-6.464-1.124-7.828-5.817c-3.433-11.804-13.915-17.854-25.782-15.917c-10.595,1.729-18.002,11.173-18.022,22.99
		c-0.012,6.576-0.034,13.152-0.005,19.73c0.065,14.678,8.928,23.53,23.767,23.574C357.003,507.545,378.547,507.498,400.092,507.498z
		"/>
	<path fill-rule="evenodd" clip-rule="evenodd" fill="#2BBCB5" d="M464.223,180.639c13.094,0,24.932-0.67,36.641,0.264
		c6.491,0.519,13.599,2.454,18.963,5.979c10.997,7.229,12.769,20.506,4.612,30.883c-32.528,41.386-65.087,82.752-98.13,123.725
		c-13.608,16.872-40.784,16.42-54.394-0.564c-32.63-40.718-64.829-81.782-97.312-122.617c-12-15.086-1.149-32.907,14.051-36.279
		c4.379-0.972,8.966-1.289,13.469-1.373c10.415-0.193,20.835-0.061,32.051-0.061c0.133-2.788,0.343-5.177,0.346-7.566
		c0.036-32.454,0.039-64.909,0.06-97.365c0.018-29.459,18.079-47.635,47.503-47.524c15.179,0.057,30.553-0.912,45.484,1.151
		c22.877,3.162,36.685,21.087,36.688,44.374c0.005,32.682-0.019,65.363-0.03,98.045C464.223,174.37,464.223,177.029,464.223,180.639
		z"/>
	<path fill-rule="evenodd" clip-rule="evenodd" fill="#F58349" d="M698.279,369.016c-16.938-11.033-34.717-16.637-54.519-15.062
		c-4.752,0.378-5.589-2.944-6.756-6.1c-12.335-33.331-24.641-66.673-36.958-100.012c-11.923-32.271-23.816-64.552-35.793-96.803
		c-4.735-12.75-8.391-15.107-22.253-15.085c-16.335,0.027-32.672-0.111-49.005,0.074c-4.329,0.049-6.121-1.186-6.005-5.766
		c0.265-10.43-0.063-20.876,0.263-31.304c0.058-1.848,2.108-5.211,3.255-5.218c22.438-0.133,44.966-1.025,67.298,0.632
		c22.243,1.652,35.611,16.677,43.652,36.254c22.111,53.825,43.811,107.821,65.685,161.745
		C677.51,317.925,687.898,343.468,698.279,369.016z"/>
	<path fill-rule="evenodd" clip-rule="evenodd" fill="#F58349" d="M100.347,369.414c32.344-79.698,64.57-159.446,97.101-239.068
		c10.482-25.652,28.369-37,56.008-36.921c17.239,0.049,34.48,0.171,51.715-0.094c5.043-0.078,6.795,1.435,6.617,6.561
		c-0.347,9.968-0.312,19.963-0.011,29.935c0.145,4.796-1.507,6.284-6.25,6.218c-16.556-0.233-33.115-0.083-49.673-0.091
		c-13.054-0.007-16.508,2.246-21.122,14.658c-13.326,35.852-26.547,71.743-39.8,107.621c-10.979,29.72-21.941,59.448-32.928,89.166
		c-1.237,3.348-1.935,6.974-7.074,6.569C134.911,352.394,116.982,358.138,100.347,369.414z"/>
</g>
</svg>
