<?xml version="1.0" encoding="utf-8"?>
<!-- Generator: Adobe Illustrator 16.0.0, SVG Export Plug-In . SVG Version: 6.00 Build 0)  -->
<!DOCTYPE svg PUBLIC "-//W3C//DTD SVG 1.1//EN" "http://www.w3.org/Graphics/SVG/1.1/DTD/svg11.dtd">
<svg version="1.1" xmlns="http://www.w3.org/2000/svg" xmlns:xlink="http://www.w3.org/1999/xlink" x="0px" y="0px" width="50px"
	 height="50px" viewBox="0 0 50 50" enable-background="new 0 0 50 50" xml:space="preserve">
<g id="Layer_1">
	<path d="M25,0C11.193,0,0,11.193,0,25c0,13.807,11.193,25,25,25c13.807,0,25-11.193,25-25C50,11.193,38.807,0,25,0z M25,47
		C12.85,47,3,37.15,3,25S12.85,3,25,3s22,9.85,22,22S37.15,47,25,47z"/>
</g>
<g id="Layer_2">
	<path d="M24.948,19.776l0.059,1.021l-0.987-0.125c-3.592-0.479-6.73-2.103-9.395-4.832l-1.303-1.353l-0.335,1
		c-0.711,2.228-0.257,4.581,1.223,6.164c0.79,0.875,0.612,1-0.75,0.479c-0.474-0.166-0.888-0.291-0.928-0.229
		c-0.138,0.146,0.335,2.041,0.71,2.79c0.513,1.042,1.56,2.062,2.704,2.667l0.967,0.479l-1.145,0.021
		c-1.105,0-1.145,0.021-1.027,0.458c0.395,1.354,1.955,2.79,3.691,3.417l1.224,0.436l-1.066,0.667
		c-1.579,0.958-3.434,1.498-5.29,1.54c-0.888,0.022-1.619,0.104-1.619,0.168c0,0.208,2.408,1.375,3.81,1.833
		c4.205,1.353,9.198,0.771,12.948-1.542c2.666-1.645,5.33-4.914,6.572-8.08c0.672-1.687,1.342-4.769,1.342-6.248
		c0-0.958,0.061-1.083,1.167-2.228c0.649-0.666,1.263-1.395,1.38-1.604c0.198-0.396,0.179-0.396-0.827-0.041
		c-1.679,0.624-1.917,0.541-1.087-0.396c0.61-0.667,1.343-1.874,1.343-2.228c0-0.062-0.297,0.042-0.633,0.229
		c-0.354,0.208-1.144,0.52-1.736,0.708l-1.066,0.354l-0.967-0.687c-0.533-0.375-1.283-0.791-1.677-0.916
		c-1.008-0.292-2.547-0.25-3.455,0.083C26.33,14.715,24.77,17.131,24.948,19.776C24.948,19.776,24.77,17.131,24.948,19.776z"/>
</g>
</svg>
