<?xml version="1.0" encoding="utf-8"?>
<!-- Generator: Adobe Illustrator 16.0.0, SVG Export Plug-In . SVG Version: 6.00 Build 0)  -->
<!DOCTYPE svg PUBLIC "-//W3C//DTD SVG 1.1//EN" "http://www.w3.org/Graphics/SVG/1.1/DTD/svg11.dtd">
<svg version="1.1" id="Layer_1" xmlns="http://www.w3.org/2000/svg" xmlns:xlink="http://www.w3.org/1999/xlink" x="0px" y="0px"
	 width="50px" height="50px" viewBox="0 0 50 50" enable-background="new 0 0 50 50" xml:space="preserve">
<g>
	<path fill-rule="evenodd" clip-rule="evenodd" d="M48.026,19.434C45.41,6.894,32.965-1.192,20.461,1.528
		C5.152,4.857-2.438,21.706,5.181,35.408c0.168,0.303,0.207,0.785,0.099,1.117c-0.647,2.002-1.359,3.981-2.041,5.972
		c-0.636,1.852-1.259,3.706-1.942,5.722c4.176-1.317,8.157-2.586,12.151-3.812c0.365-0.112,0.873-0.078,1.215,0.091
		c4.634,2.302,9.488,3.021,14.597,2.202C41.994,44.664,50.664,32.082,48.026,19.434z M29.843,42.764
		c-5.212,1.145-10.098,0.403-14.697-2.312c-0.318-0.188-0.835-0.231-1.196-0.125c-2.217,0.653-4.417,1.368-6.8,2.119
		c0.786-2.298,1.488-4.394,2.224-6.478c0.161-0.457,0.11-0.787-0.168-1.192C1.584,23.66,7.746,8.202,20.957,5.264
		c10.742-2.388,21.104,4.273,23.409,15.049C46.484,30.215,39.76,40.587,29.843,42.764z"/>
	<path fill-rule="evenodd" clip-rule="evenodd" d="M36.653,29.061c-1.529-0.79-3.087-1.521-4.64-2.265
		c-0.602-0.288-1.015-0.072-1.389,0.458c-0.457,0.646-0.994,1.235-1.496,1.85c-0.357,0.436-0.787,0.537-1.317,0.332
		c-3.324-1.278-5.819-3.519-7.648-6.546c-0.29-0.48-0.18-0.854,0.153-1.259c0.453-0.547,0.931-1.092,1.259-1.712
		c0.186-0.35,0.229-0.899,0.095-1.272c-0.464-1.283-0.994-2.547-1.581-3.779c-0.24-0.507-0.632-1.22-1.06-1.306
		c-0.98-0.196-2.086-0.382-2.945,0.483c-1.288,1.293-2.088,2.798-2.102,4.676c0.059,0.46,0.093,0.924,0.176,1.379
		c0.361,1.972,1.492,3.542,2.618,5.139c3.21,4.544,7.345,7.748,12.801,9.149c1.196,0.308,2.364,0.491,3.553,0.133
		c2.804-0.849,3.907-2.249,3.905-4.661C37.036,29.586,36.867,29.172,36.653,29.061z"/>
</g>
</svg>
